<svg width="48" height="48" viewBox="0 0 48 48" fill="none" xmlns="http://www.w3.org/2000/svg">
<path d="M48 0H0V48H48V0Z" fill="#3B402E"/>
<path d="M10.6319 31.1864C11.6344 31.1882 12.5988 30.8025 13.3235 30.1097C13.5529 29.8778 13.8261 29.6937 14.1271 29.568C14.4282 29.4424 14.7512 29.3776 15.0775 29.3776C15.4037 29.3776 15.7267 29.4424 16.0278 29.568C16.3289 29.6937 16.6021 29.8778 16.8315 30.1097L16.9392 30.1994C17.0164 30.2619 17.1054 30.3083 17.2009 30.3358C17.2963 30.3633 17.3963 30.3715 17.495 30.3598C17.5936 30.3481 17.689 30.3168 17.7753 30.2677C17.8617 30.2186 17.9373 30.1527 17.9979 30.0739C18.1232 29.9165 18.1812 29.716 18.1594 29.516C18.1375 29.316 18.0375 29.1328 17.8812 29.0062L17.7736 28.9254C17.6121 28.7908 17.4506 28.6652 17.2711 28.5396L22.7081 24.6997C23.0709 24.4711 23.3347 24.1149 23.4477 23.7013C23.5606 23.2877 23.5144 22.8468 23.3182 22.4656L20.7523 16.7326L20.501 16.2122C20.3168 15.8825 20.178 15.5294 20.0883 15.1625C20.0941 15.0446 20.123 14.929 20.1735 14.8224C20.224 14.7157 20.295 14.62 20.3825 14.5408C20.47 14.4617 20.5723 14.4005 20.6835 14.3609C20.7946 14.3213 20.9125 14.3041 21.0304 14.3101H31.2584C31.4802 14.3088 31.6947 14.3896 31.8603 14.5371C32.026 14.6846 32.1312 14.8882 32.1556 15.1086C32.1655 15.2324 32.1497 15.3568 32.1091 15.4741C32.0685 15.5913 32.0039 15.6989 31.9196 15.79C31.8353 15.881 31.733 15.9536 31.6192 16.0031C31.5054 16.0526 31.3825 16.078 31.2584 16.0776H25.3908C25.1591 16.08 24.9324 16.1452 24.7348 16.2662C24.5371 16.3871 24.3759 16.5593 24.2683 16.7644C24.1607 16.9696 24.1106 17.2001 24.1234 17.4314C24.1362 17.6628 24.2114 17.8863 24.341 18.0784L31.2315 28.2615C30.8648 28.4546 30.5216 28.6895 30.2087 28.9614C29.9793 29.1933 29.7061 29.3774 29.405 29.503C29.1039 29.6287 28.7809 29.6934 28.4547 29.6934C28.1284 29.6934 27.8054 29.6287 27.5043 29.503C27.2033 29.3774 26.9301 29.1933 26.7007 28.9614C25.9679 28.2841 25.0068 27.908 24.0091 27.908C23.0113 27.908 22.0502 28.2841 21.3175 28.9614C21.0838 29.1985 20.804 29.3852 20.4954 29.5102C20.1869 29.6352 19.8559 29.6958 19.5231 29.6881C19.4126 29.6973 19.3016 29.6973 19.1911 29.6881C19.0937 29.6767 18.995 29.6851 18.901 29.7128C18.8069 29.7406 18.7194 29.7871 18.6438 29.8496C18.5646 29.9116 18.4984 29.9888 18.4492 30.0765C18.3999 30.1643 18.3685 30.261 18.3567 30.361C18.3363 30.5603 18.3942 30.7598 18.5182 30.9172C18.5803 30.9965 18.6575 31.0626 18.7452 31.1119C18.833 31.1612 18.9297 31.1926 19.0296 31.2043C19.1822 31.2043 19.3436 31.2043 19.5231 31.2043C20.5258 31.2071 21.4905 30.8212 22.2147 30.1277C22.4441 29.8958 22.7173 29.7116 23.0184 29.586C23.3194 29.4603 23.6424 29.3956 23.9687 29.3956C24.2949 29.3956 24.618 29.4603 24.919 29.586C25.2201 29.7116 25.4933 29.8958 25.7227 30.1277C26.4525 30.8108 27.4147 31.1909 28.4143 31.1909C29.4139 31.1909 30.3761 30.8108 31.1059 30.1277C31.3347 29.8947 31.6077 29.7096 31.9088 29.5832C32.21 29.4569 32.5333 29.3918 32.8599 29.3918C33.1865 29.3918 33.5098 29.4569 33.811 29.5832C34.1121 29.7096 34.3851 29.8947 34.6139 30.1277C35.342 30.814 36.305 31.196 37.3055 31.1954C37.4053 31.1954 37.504 31.1756 37.596 31.1372C37.688 31.0987 37.7715 31.0424 37.8416 30.9714C37.9117 30.9005 37.967 30.8163 38.0044 30.7239C38.0417 30.6314 38.0604 30.5324 38.0592 30.4327C38.0611 30.3331 38.043 30.2342 38.006 30.1418C37.9691 30.0493 37.9139 29.9652 37.8438 29.8944C37.7735 29.8231 37.6897 29.7666 37.5973 29.7281C37.5048 29.6895 37.4057 29.6699 37.3055 29.6701C36.9802 29.6717 36.6578 29.6082 36.3574 29.4834C36.0569 29.3586 35.7844 29.175 35.556 28.9434C34.8289 28.2555 33.8653 27.8733 32.8644 27.8757H32.7657L32.2005 27.0324C32.4663 27.0859 32.7368 27.1129 33.0079 27.1131C33.8274 27.1183 34.6314 26.8896 35.3255 26.4538C36.0195 26.018 36.5748 25.3932 36.9261 24.6528C37.2774 23.9124 37.4101 23.0871 37.3088 22.2739C37.2074 21.4607 36.8761 20.6933 36.3537 20.0618C35.8314 19.4303 35.1397 18.9609 34.3599 18.7089C33.5801 18.4568 32.7446 18.4325 31.9515 18.6387C31.1583 18.845 30.4405 19.2732 29.8823 19.8732C29.3241 20.4732 28.9487 21.22 28.8001 22.026L25.7945 17.6118H31.3033C31.6375 17.6111 31.9678 17.5403 32.2729 17.4039C32.578 17.2674 32.851 17.0684 33.0743 16.8197C33.2976 16.5711 33.4662 16.2783 33.5691 15.9604C33.672 15.6424 33.7071 15.3064 33.6719 14.974C33.6033 14.3761 33.3162 13.8247 32.8658 13.4256C32.4153 13.0265 31.8333 12.8079 31.2315 12.8118H21.0842C20.4564 12.8107 19.8519 13.0499 19.3948 13.4803C18.9377 13.9108 18.6626 14.4998 18.6259 15.1265C18.6992 15.7575 18.8974 16.3675 19.2091 16.9209C19.2809 17.0645 19.3616 17.217 19.4244 17.3695L22.0083 23.1206C22.0309 23.1721 22.0332 23.2302 22.0149 23.2833C21.9967 23.3365 21.9591 23.3809 21.9096 23.4077L15.6293 27.8937H15.1358C14.1352 27.8931 13.1723 28.2751 12.4442 28.9614C12.2105 29.1985 11.9307 29.3852 11.6222 29.5102C11.3136 29.6352 10.9827 29.6958 10.6498 29.6881C10.4476 29.6881 10.2536 29.7684 10.1106 29.9114C9.96756 30.0545 9.88721 30.2484 9.88721 30.4507C9.88721 30.6529 9.96756 30.8469 10.1106 30.9899C10.2536 31.1329 10.4476 31.2133 10.6498 31.2133L10.6319 31.1864ZM30.2984 22.8245C30.302 22.2766 30.4678 21.742 30.775 21.2883C31.0821 20.8345 31.5169 20.482 32.0243 20.2752C32.5317 20.0684 33.089 20.0166 33.6258 20.1263C34.1627 20.236 34.655 20.5023 35.0405 20.8916C35.4261 21.2809 35.6876 21.7758 35.7921 22.3137C35.8966 22.8516 35.8394 23.4083 35.6277 23.9137C35.416 24.4191 35.0592 24.8504 34.6026 25.1531C34.1459 25.4559 33.6097 25.6165 33.0618 25.6148C32.697 25.6136 32.3359 25.5404 31.9994 25.3995C31.663 25.2585 31.3576 25.0525 31.1009 24.7933C30.8442 24.534 30.6411 24.2267 30.5034 23.8889C30.3657 23.551 30.2961 23.1893 30.2984 22.8245Z" fill="#B86640"/>
<path d="M32.9541 31.8505H32.8554C32.3265 31.8438 31.8026 31.9541 31.3212 32.1735C31.1892 32.234 31.0774 32.3315 30.9994 32.454C30.9214 32.5766 30.8805 32.7191 30.8816 32.8643C30.8786 32.9734 30.9033 33.0814 30.9534 33.1783C31.0119 33.3107 31.1074 33.4234 31.2283 33.503C31.3492 33.5825 31.4905 33.6255 31.6352 33.6269C31.7438 33.6256 31.8509 33.6012 31.9493 33.5552C32.2523 33.425 32.5795 33.3607 32.9092 33.3668C33.2428 33.3597 33.5743 33.4214 33.883 33.548C34.1917 33.6745 34.471 33.8633 34.7036 34.1025C35.4301 34.7903 36.3949 35.1697 37.3952 35.1612H37.467C37.6592 35.1567 37.8424 35.079 37.9792 34.9439C38.1159 34.8088 38.1959 34.6266 38.2027 34.4344V34.3716C38.1935 34.1757 38.1091 33.9908 37.967 33.8555C37.825 33.7201 37.6363 33.6447 37.4401 33.6449C37.1138 33.6474 36.7904 33.5834 36.4897 33.457C36.1889 33.3305 35.917 33.1441 35.6906 32.9092C34.9626 32.2238 33.9988 31.8447 32.999 31.8505" fill="#B86640"/>
<path d="M30.774 33.5283C30.661 33.3634 30.4884 33.2489 30.2926 33.2087C30.0968 33.1685 29.8931 33.2059 29.7243 33.313C29.3524 33.567 28.9093 33.6958 28.4592 33.6808C28.1255 33.6889 27.7937 33.6277 27.4849 33.5011C27.176 33.3745 26.8968 33.1851 26.6648 32.9451C25.935 32.262 24.9728 31.882 23.9732 31.882C22.9736 31.882 22.0114 32.262 21.2816 32.9451C21.0522 33.177 20.779 33.3612 20.478 33.4868C20.1769 33.6125 19.8539 33.6772 19.5276 33.6772C19.2014 33.6772 18.8784 33.6125 18.5773 33.4868C18.2762 33.3612 18.003 33.177 17.7736 32.9451C17.0428 32.264 16.081 31.8852 15.082 31.8852C14.083 31.8852 13.1212 32.264 12.3904 32.9451C12.1591 33.186 11.88 33.376 11.571 33.5027C11.262 33.6293 10.9299 33.69 10.596 33.6808C10.4092 33.7011 10.2364 33.7898 10.1109 33.9297C9.98542 34.0696 9.91602 34.251 9.91602 34.4389C9.91602 34.6269 9.98542 34.8082 10.1109 34.9482C10.2364 35.0881 10.4092 35.1767 10.596 35.1971C11.5973 35.2013 12.5615 34.8188 13.2876 34.1294C13.5171 33.8975 13.7902 33.7134 14.0913 33.5877C14.3924 33.462 14.7154 33.3973 15.0416 33.3973C15.3679 33.3973 15.6909 33.462 15.992 33.5877C16.293 33.7134 16.5662 33.8975 16.7957 34.1294C17.5284 34.8066 18.4895 35.1827 19.4873 35.1827C20.485 35.1827 21.4461 34.8066 22.1788 34.1294C22.4083 33.8975 22.6814 33.7134 22.9825 33.5877C23.2836 33.462 23.6066 33.3973 23.9329 33.3973C24.2591 33.3973 24.5821 33.462 24.8832 33.5877C25.1843 33.7134 25.4574 33.8975 25.6869 34.1294C26.4159 34.8132 27.379 35.192 28.3785 35.1881C29.1271 35.2046 29.8628 34.9917 30.4869 34.578C30.6542 34.4648 30.7705 34.2906 30.8108 34.0926C30.851 33.8947 30.812 33.6888 30.7022 33.5193" fill="#B86640"/>
</svg>
