<svg width="48" height="48" viewBox="0 0 48 48" fill="none" xmlns="http://www.w3.org/2000/svg">
<path d="M48 0H0V48H48V0Z" fill="#3B402E"/>
<path d="M35.2599 30.397C35.0469 30.2484 34.7929 30.17 34.5332 30.1727C34.3782 30.1703 34.2242 30.1991 34.0805 30.2573C33.9368 30.3155 33.8063 30.402 33.6966 30.5116C33.587 30.6212 33.5005 30.7517 33.4423 30.8954C33.3841 31.0391 33.3554 31.193 33.3578 31.3481C33.3507 31.6084 33.4295 31.8638 33.5821 32.0748H24.9511C25.1038 31.8638 25.1826 31.6084 25.1754 31.3481C25.1896 31.1857 25.1699 31.0221 25.1175 30.8677C25.0652 30.7134 24.9813 30.5716 24.8712 30.4515C24.7611 30.3313 24.6271 30.2353 24.4779 30.1697C24.3287 30.104 24.1675 30.0701 24.0045 30.0701C23.8415 30.0701 23.6804 30.104 23.5312 30.1697C23.382 30.2353 23.2481 30.3313 23.1379 30.4515C23.0278 30.5716 22.944 30.7134 22.8916 30.8677C22.8392 31.0221 22.8195 31.1857 22.8337 31.3481C22.8277 31.6068 22.903 31.861 23.049 32.0748H14.1309C14.2835 31.8638 14.3623 31.6084 14.3552 31.3481C14.3576 31.1938 14.3292 31.0406 14.2715 30.8975C14.2139 30.7544 14.1282 30.6243 14.0195 30.5148C13.9108 30.4053 13.7813 30.3187 13.6387 30.2599C13.496 30.2012 13.3431 30.1715 13.1888 30.1727C12.9842 30.1893 12.7839 30.2409 12.5967 30.3252V17.4595C12.7815 17.5491 12.9835 17.5981 13.1888 17.603C13.397 17.6016 13.6009 17.5438 13.7787 17.4355C13.9564 17.3273 14.1015 17.1727 14.1982 16.9884C14.295 16.8041 14.3398 16.597 14.328 16.3892C14.3161 16.1814 14.248 15.9807 14.1309 15.8086H22.9055C22.7701 16.004 22.6952 16.2349 22.6902 16.4725C22.6902 16.7819 22.813 17.0785 23.0318 17.2973C23.2505 17.516 23.5472 17.6389 23.8565 17.6389C24.1658 17.6389 24.4625 17.516 24.6813 17.2973C24.9 17.0785 25.0229 16.7819 25.0229 16.4725C25.0178 16.2349 24.9429 16.004 24.8075 15.8086H33.4296C33.4709 16.028 33.4709 16.2531 33.4296 16.4725C33.4284 16.6268 33.458 16.7797 33.5168 16.9224C33.5755 17.065 33.6622 17.1945 33.7717 17.3032C33.8812 17.4118 34.0113 17.4975 34.1544 17.5552C34.2975 17.6128 34.4507 17.6413 34.6049 17.6389C34.7229 17.6479 34.8415 17.6336 34.9539 17.5966C35.0663 17.5597 35.1703 17.5009 35.2599 17.4235V30.4329V30.397ZM34.9728 31.3481C34.8836 31.5001 34.7569 31.6267 34.6049 31.7159C34.5559 31.7185 34.507 31.7107 34.4612 31.6932C34.4154 31.6756 34.3738 31.6486 34.3391 31.6139C34.3044 31.5792 34.2774 31.5376 34.2598 31.4918C34.2422 31.446 34.2345 31.397 34.2371 31.3481C34.233 31.2987 34.2397 31.2491 34.2567 31.2026C34.2738 31.1561 34.3008 31.1139 34.3358 31.0789C34.3708 31.0439 34.413 31.0169 34.4595 30.9999C34.5059 30.9828 34.5556 30.9761 34.6049 30.9802C34.6539 30.9776 34.7029 30.9854 34.7487 31.003C34.7945 31.0205 34.8361 31.0475 34.8708 31.0822C34.9055 31.1169 34.9325 31.1585 34.9501 31.2043C34.9676 31.2501 34.9754 31.2991 34.9728 31.3481ZM24 31.7877C23.9273 31.7877 23.8562 31.7661 23.7957 31.7257C23.7352 31.6853 23.688 31.6278 23.6602 31.5606C23.6324 31.4934 23.6251 31.4194 23.6393 31.3481C23.6535 31.2767 23.6885 31.2112 23.74 31.1597C23.7914 31.1083 23.8569 31.0732 23.9283 31.059C23.9997 31.0448 24.0736 31.0522 24.1408 31.08C24.208 31.1078 24.2655 31.155 24.3059 31.2155C24.3464 31.276 24.3679 31.3471 24.3679 31.4198C24.3616 31.5153 24.3208 31.6052 24.2531 31.6729C24.1855 31.7406 24.0955 31.7814 24 31.7877ZM13.3324 31.7159C13.1309 31.6017 12.9754 31.4209 12.8928 31.2045C12.9258 31.1355 12.9781 31.0775 13.0434 31.0377C13.1087 30.9979 13.1842 30.978 13.2606 30.9802C13.3092 30.9775 13.3579 30.9852 13.4033 31.0028C13.4487 31.0205 13.4897 31.0477 13.5237 31.0825C13.5577 31.1174 13.5838 31.1591 13.6004 31.2049C13.6169 31.2507 13.6234 31.2995 13.6195 31.3481C13.6274 31.4344 13.6021 31.5204 13.5487 31.5888C13.4954 31.6571 13.4181 31.7025 13.3324 31.7159ZM13.4042 16.0688C13.4715 16.1031 13.5276 16.156 13.5658 16.2212C13.6039 16.2864 13.6226 16.3612 13.6195 16.4367C13.6221 16.4845 13.6146 16.5323 13.5975 16.577C13.5803 16.6217 13.554 16.6623 13.5201 16.6962C13.4863 16.73 13.4457 16.7564 13.401 16.7735C13.3563 16.7906 13.3084 16.7981 13.2606 16.7955C13.1851 16.7986 13.1103 16.7799 13.0451 16.7418C12.9799 16.7036 12.9271 16.6475 12.8928 16.5802C13.0448 16.3922 13.2162 16.2208 13.4042 16.0688ZM24 16.0688C24.0525 16.0605 24.1062 16.0637 24.1574 16.0782C24.2085 16.0926 24.2559 16.118 24.2963 16.1526C24.3368 16.1871 24.3692 16.23 24.3914 16.2782C24.4137 16.3265 24.4252 16.379 24.4252 16.4322C24.4252 16.4853 24.4137 16.5378 24.3914 16.5861C24.3692 16.6344 24.3368 16.6772 24.2963 16.7118C24.2559 16.7463 24.2085 16.7717 24.1574 16.7861C24.1062 16.8006 24.0525 16.8038 24 16.7955C23.9135 16.7819 23.8347 16.7378 23.7777 16.6711C23.7208 16.6045 23.6895 16.5198 23.6895 16.4322C23.6895 16.3445 23.7208 16.2597 23.7777 16.1931C23.8347 16.1265 23.9135 16.0824 24 16.0688ZM34.5332 16.0688C34.6951 16.1991 34.8424 16.3466 34.9728 16.5084C34.9647 16.6033 34.9233 16.6922 34.856 16.7595C34.7887 16.8268 34.6997 16.8682 34.6049 16.8763C34.5559 16.8789 34.507 16.8711 34.4612 16.8535C34.4154 16.836 34.3738 16.8089 34.3391 16.7743C34.3044 16.7396 34.2774 16.698 34.2598 16.6522C34.2422 16.6064 34.2345 16.5574 34.2371 16.5084C34.1653 16.2841 34.3089 16.1405 34.5332 16.0688ZM33.5821 14.095H14.3552C13.9036 14.0938 13.4562 14.1818 13.0388 14.3541C12.6214 14.5264 12.2421 14.7795 11.9228 15.0988C11.6034 15.4181 11.3504 15.7974 11.1781 16.2148C11.0058 16.6323 10.9178 17.0796 10.919 17.5312V30.5047C10.9178 30.9563 11.0058 31.4036 11.1781 31.8211C11.3504 32.2385 11.6034 32.6178 11.9228 32.9371C12.2421 33.2565 12.6214 33.5095 13.0388 33.6818C13.4562 33.854 13.9036 33.9421 14.3552 33.941H33.6718C34.1234 33.9421 34.5708 33.854 34.9882 33.6818C35.4057 33.5095 35.785 33.2565 36.1043 32.9371C36.4236 32.6178 36.6767 32.2385 36.8489 31.8211C37.0212 31.4036 37.1093 30.9563 37.1081 30.5047V17.4953C37.0667 16.5916 36.6794 15.7383 36.0264 15.112C35.3735 14.4858 34.5048 14.1345 33.6001 14.1309" fill="currentColor"/>
<path d="M29.4816 24.4756C29.4089 24.4756 29.3377 24.454 29.2772 24.4136C29.2168 24.3731 29.1696 24.3157 29.1418 24.2485C29.1139 24.1813 29.1066 24.1073 29.1208 24.036C29.135 23.9646 29.1701 23.899 29.2215 23.8476C29.2729 23.7962 29.3385 23.7611 29.4098 23.747C29.4812 23.7328 29.5551 23.74 29.6223 23.7679C29.6896 23.7957 29.747 23.8429 29.7874 23.9034C29.8279 23.9638 29.8494 24.035 29.8494 24.1077C29.9212 24.2602 29.7059 24.4756 29.4816 24.4756ZM29.4816 22.8696C29.2513 22.8714 29.0267 22.9413 28.836 23.0705C28.6454 23.1997 28.4973 23.3825 28.4104 23.5958C28.3235 23.809 28.3017 24.0433 28.3477 24.2689C28.3938 24.4946 28.5055 24.7016 28.669 24.8638C28.8325 25.026 29.0403 25.1362 29.2663 25.1805C29.4923 25.2248 29.7264 25.2012 29.939 25.1126C30.1516 25.0241 30.3332 24.8746 30.4609 24.683C30.5887 24.4914 30.6569 24.2662 30.6569 24.0359C30.6594 23.8813 30.6306 23.7278 30.5723 23.5846C30.514 23.4414 30.4273 23.3114 30.3176 23.2025C30.2078 23.0936 30.0772 23.008 29.9335 22.9508C29.7899 22.8936 29.6362 22.8659 29.4816 22.8696Z" fill="currentColor"/>
<path d="M21.3711 24.4038C21.3222 24.4064 21.2732 24.3986 21.2274 24.381C21.1816 24.3635 21.14 24.3364 21.1053 24.3018C21.0706 24.2671 21.0436 24.2255 21.026 24.1797C21.0085 24.1339 21.0007 24.0849 21.0033 24.0359C21.0033 23.9383 21.042 23.8448 21.111 23.7758C21.18 23.7068 21.2736 23.6681 21.3711 23.6681C21.4687 23.6681 21.5623 23.7068 21.6313 23.7758C21.7002 23.8448 21.739 23.9383 21.739 24.0359C21.7416 24.0849 21.7339 24.1339 21.7163 24.1797C21.6987 24.2255 21.6717 24.2671 21.637 24.3018C21.6023 24.3364 21.5607 24.3635 21.5149 24.381C21.4691 24.3986 21.4201 24.4064 21.3711 24.4038ZM20.0523 23.6681C19.9657 23.6544 19.8868 23.6103 19.8299 23.5437C19.773 23.4771 19.7417 23.3923 19.7417 23.3047C19.7417 23.217 19.773 23.1323 19.8299 23.0657C19.8868 22.9991 19.9657 22.955 20.0523 22.9413C20.1016 22.9373 20.1512 22.944 20.1977 22.961C20.2442 22.978 20.2864 23.005 20.3214 23.04C20.3564 23.075 20.3834 23.1172 20.4005 23.1637C20.4175 23.2102 20.4242 23.2598 20.4201 23.3092C20.4136 23.4037 20.3725 23.4926 20.3047 23.5588C20.2368 23.625 20.147 23.6639 20.0523 23.6681ZM20.0523 25.1305C19.9657 25.1169 19.8868 25.0728 19.8299 25.0061C19.773 24.9395 19.7417 24.8547 19.7417 24.7671C19.7417 24.6795 19.773 24.5947 19.8299 24.5281C19.8868 24.4615 19.9657 24.4174 20.0523 24.4038C20.1048 24.3955 20.1585 24.3987 20.2096 24.4131C20.2608 24.4276 20.3081 24.453 20.3485 24.4875C20.3889 24.522 20.4214 24.5649 20.4437 24.6132C20.4659 24.6614 20.4774 24.714 20.4774 24.7671C20.4774 24.8203 20.4659 24.8728 20.4437 24.9211C20.4214 24.9694 20.3889 25.0122 20.3485 25.0468C20.3081 25.0813 20.2608 25.1067 20.2096 25.1211C20.1585 25.1356 20.1048 25.1388 20.0523 25.1305ZM18.7424 22.8695C18.6693 22.8713 18.5973 22.8513 18.5356 22.812C18.474 22.7727 18.4254 22.7158 18.3962 22.6488C18.367 22.5818 18.3584 22.5076 18.3716 22.4356C18.3847 22.3637 18.419 22.2973 18.4701 22.2449C18.5212 22.1926 18.5867 22.1567 18.6582 22.1417C18.7298 22.1268 18.8043 22.1335 18.872 22.1611C18.9398 22.1886 18.9977 22.2357 19.0386 22.2964C19.0794 22.3571 19.1012 22.4286 19.1013 22.5017C19.1038 22.5499 19.0962 22.5981 19.0792 22.6433C19.0622 22.6884 19.036 22.7296 19.0023 22.7641C18.9685 22.7987 18.9281 22.8259 18.8834 22.844C18.8386 22.8622 18.7906 22.8708 18.7424 22.8695ZM18.7424 24.4038C18.693 24.4078 18.6434 24.4011 18.5969 24.3841C18.5504 24.367 18.5082 24.34 18.4732 24.305C18.4382 24.27 18.4112 24.2279 18.3942 24.1814C18.3771 24.1349 18.3705 24.0852 18.3745 24.0359C18.3663 23.9834 18.3694 23.9297 18.3839 23.8786C18.3984 23.8274 18.4237 23.78 18.4583 23.7396C18.4928 23.6992 18.5357 23.6668 18.5839 23.6446C18.6322 23.6223 18.6847 23.6108 18.7379 23.6108C18.791 23.6108 18.8436 23.6223 18.8919 23.6446C18.9401 23.6668 18.983 23.6992 19.0175 23.7396C19.0521 23.78 19.0774 23.8274 19.0919 23.8786C19.1064 23.9297 19.1095 23.9834 19.1013 24.0359C19.1052 24.0844 19.0987 24.1332 19.0821 24.179C19.0656 24.2248 19.0395 24.2666 19.0055 24.3014C18.9715 24.3363 18.9304 24.3635 18.885 24.3811C18.8396 24.3987 18.791 24.4065 18.7424 24.4038ZM18.7424 25.9379C18.693 25.942 18.6434 25.9353 18.5969 25.9183C18.5504 25.9012 18.5082 25.8743 18.4732 25.8393C18.4382 25.8043 18.4112 25.762 18.3942 25.7156C18.3771 25.6691 18.3705 25.6195 18.3745 25.5701C18.3663 25.5176 18.3694 25.4639 18.3839 25.4128C18.3984 25.3616 18.4237 25.3143 18.4583 25.2739C18.4928 25.2335 18.5357 25.201 18.5839 25.1787C18.6322 25.1565 18.6847 25.145 18.7379 25.145C18.791 25.145 18.8436 25.1565 18.8919 25.1787C18.9401 25.201 18.983 25.2335 19.0175 25.2739C19.0521 25.3143 19.0774 25.3616 19.0919 25.4128C19.1064 25.4639 19.1095 25.5176 19.1013 25.5701C19.0971 25.6648 19.0581 25.7547 18.992 25.8225C18.9258 25.8904 18.8369 25.9314 18.7424 25.9379ZM17.4235 22.1338C17.3504 22.1338 17.2789 22.112 17.2182 22.0712C17.1575 22.0304 17.1105 21.9724 17.0829 21.9046C17.0553 21.8369 17.0486 21.7625 17.0635 21.6909C17.0784 21.6193 17.1144 21.5538 17.1667 21.5027C17.2191 21.4517 17.2855 21.4173 17.3574 21.4042C17.4293 21.391 17.5036 21.3996 17.5706 21.4288C17.6376 21.458 17.6945 21.5066 17.7338 21.5682C17.7731 21.6299 17.7931 21.7019 17.7913 21.775C17.7941 21.8236 17.7864 21.8722 17.7687 21.9176C17.7511 21.963 17.7239 22.0041 17.689 22.0381C17.6542 22.0721 17.6125 22.0982 17.5667 22.1147C17.5208 22.1312 17.472 22.1378 17.4235 22.1338ZM17.0556 23.2284C17.0543 23.1802 17.0631 23.1322 17.0812 23.0874C17.0993 23.0427 17.1265 23.0023 17.1611 22.9686C17.1956 22.9348 17.2368 22.9086 17.282 22.8916C17.3271 22.8746 17.3753 22.8671 17.4235 22.8695C17.476 22.8613 17.5297 22.8645 17.5808 22.8789C17.632 22.8934 17.6794 22.9187 17.7198 22.9533C17.7602 22.9878 17.7926 23.0307 17.8149 23.0789C17.8371 23.1272 17.8486 23.1798 17.8486 23.2329C17.8486 23.2861 17.8371 23.3386 17.8149 23.3869C17.7926 23.4351 17.7602 23.478 17.7198 23.5125C17.6794 23.5471 17.632 23.5725 17.5808 23.5869C17.5297 23.6014 17.476 23.6045 17.4235 23.5963C17.2082 23.668 17.0556 23.4527 17.0556 23.2284ZM17.4235 25.1305C17.3504 25.1305 17.2789 25.1086 17.2182 25.0678C17.1575 25.027 17.1105 24.969 17.0829 24.9013C17.0553 24.8335 17.0486 24.7591 17.0635 24.6875C17.0784 24.6159 17.1144 24.5504 17.1667 24.4993C17.2191 24.4483 17.2855 24.414 17.3574 24.4008C17.4293 24.3876 17.5036 24.3962 17.5706 24.4255C17.6376 24.4547 17.6945 24.5032 17.7338 24.5649C17.7731 24.6265 17.7931 24.6985 17.7913 24.7716C17.7941 24.8202 17.7864 24.8689 17.7687 24.9142C17.7511 24.9596 17.7239 25.0007 17.689 25.0347C17.6542 25.0687 17.6125 25.0949 17.5667 25.1114C17.5208 25.1279 17.472 25.1344 17.4235 25.1305ZM17.4235 26.6647C17.3504 26.6646 17.2789 26.6429 17.2182 26.602C17.1575 26.5612 17.1105 26.5032 17.0829 26.4354C17.0553 26.3677 17.0486 26.2933 17.0635 26.2217C17.0784 26.1501 17.1144 26.0846 17.1667 26.0336C17.2191 25.9825 17.2855 25.9481 17.3574 25.935C17.4293 25.9218 17.5036 25.9304 17.5706 25.9596C17.6376 25.9888 17.6945 26.0374 17.7338 26.099C17.7731 26.1607 17.7931 26.2327 17.7913 26.3058C17.7941 26.3544 17.7864 26.403 17.7687 26.4484C17.7511 26.4938 17.7239 26.5349 17.689 26.5689C17.6542 26.6029 17.6125 26.629 17.5667 26.6456C17.5208 26.6621 17.472 26.6686 17.4235 26.6647ZM21.3711 22.8695H21.1558C21.0757 22.6388 20.9272 22.4379 20.7301 22.2936C20.5329 22.1494 20.2965 22.0686 20.0523 22.0621H19.837C19.7592 21.8323 19.6123 21.6322 19.4163 21.4893C19.2203 21.3463 18.9849 21.2675 18.7424 21.2636H18.5181C18.4407 21.0328 18.2941 20.8315 18.0983 20.687C17.9024 20.5425 17.6668 20.4619 17.4235 20.4561C17.2791 20.4537 17.1356 20.4803 17.0017 20.5344C16.8678 20.5886 16.7462 20.6692 16.6441 20.7713C16.542 20.8734 16.4615 20.995 16.4073 21.1289C16.3532 21.2628 16.3265 21.4063 16.3289 21.5507C16.3175 21.6871 16.3374 21.8243 16.3872 21.9518C16.4369 22.0793 16.5152 22.1938 16.616 22.2864C16.4465 22.4926 16.3461 22.7468 16.3289 23.0131C16.3175 23.1495 16.3374 23.2867 16.3872 23.4142C16.4369 23.5418 16.5152 23.6562 16.616 23.7488C16.4465 23.955 16.3461 24.2092 16.3289 24.4756C16.3146 24.6109 16.3332 24.7476 16.3832 24.8742C16.4332 25.0007 16.5131 25.1133 16.616 25.2023C16.4479 25.4127 16.3478 25.6693 16.3289 25.9379C16.3265 26.0824 16.3532 26.2258 16.4073 26.3597C16.4615 26.4936 16.542 26.6152 16.6441 26.7173C16.7462 26.8195 16.8678 26.9 17.0017 26.9542C17.1356 27.0083 17.2791 27.035 17.4235 27.0325C17.6695 27.0433 17.9118 26.9701 18.1106 26.825C18.3095 26.6799 18.4532 26.4715 18.5181 26.234H18.7424C18.9891 26.2426 19.2316 26.1675 19.4303 26.021C19.629 25.8744 19.7723 25.6649 19.837 25.4266H20.0523C20.2999 25.4341 20.5429 25.3586 20.7428 25.2124C20.9427 25.0661 21.088 24.8573 21.1558 24.6191H21.3711C21.5155 24.6215 21.659 24.5949 21.7929 24.5407C21.9268 24.4866 22.0484 24.406 22.1505 24.3039C22.2527 24.2018 22.3332 24.0801 22.3874 23.9462C22.4415 23.8123 22.4682 23.6689 22.4657 23.5245C22.3648 23.3222 22.2081 23.1531 22.0141 23.0371C21.8202 22.921 21.5971 22.8629 21.3711 22.8695Z" fill="currentColor"/>
</svg>
