<svg width="48" height="48" viewBox="0 0 48 48" fill="none" xmlns="http://www.w3.org/2000/svg">
<path d="M48 0H0V48H48V0Z" fill="#3B402E"/>
<g clip-path="url(#clip0_1324_37314)">
<path d="M10.1966 23.6206H14.0207V25.0557H10.1966V23.6206ZM14.7111 22.907H31.8851V25.0557H14.7111V22.907ZM17.62 16.5075H28.9297C30.8534 18.5243 31.0706 21.5185 31.1016 22.2166H15.448C15.4791 21.5185 15.6963 18.5243 17.62 16.5075ZM36.3996 25.0401H32.5755V23.6051H36.3996V25.0401ZM31.1016 35.1242H28.6427V27.6232C28.6427 27.5306 28.6059 27.4419 28.5404 27.3764C28.475 27.3109 28.3862 27.2742 28.2936 27.2742H18.3026C18.21 27.2742 18.1212 27.3109 18.0558 27.3764C17.9903 27.4419 17.9535 27.5306 17.9535 27.6232V35.1242H15.4946V25.746H31.1016V35.1242ZM33.3822 35.4733C33.3816 35.9514 33.2024 36.4121 32.8796 36.7648C32.5568 37.1175 32.1138 37.3367 31.6376 37.3795C31.1614 37.4222 30.6864 37.2854 30.3059 36.9958C29.9254 36.7063 29.667 36.285 29.5813 35.8146H31.4429C31.5342 35.8146 31.6218 35.7789 31.6871 35.7151C31.7523 35.6513 31.79 35.5645 31.792 35.4733V33.5806C32.2405 33.6611 32.646 33.8975 32.937 34.2481C33.228 34.5988 33.3857 35.0409 33.3822 35.4966V35.4733ZM22.949 35.1242H18.6439V27.9645H22.949V35.1242ZM27.9523 35.1242H23.6472V27.9645H27.96L27.9523 35.1242ZM15.1145 37.4125C14.6364 37.412 14.1757 37.2327 13.823 36.9099C13.4703 36.5871 13.251 36.1441 13.2083 35.6679C13.1655 35.1917 13.3024 34.7167 13.5919 34.3363C13.8814 33.9558 14.3028 33.6973 14.7732 33.6116V35.4966C14.7732 35.5871 14.8091 35.6739 14.8731 35.7379C14.9372 35.8019 15.024 35.8379 15.1145 35.8379H16.9994C16.9195 36.2796 16.687 36.6792 16.3425 36.967C15.998 37.2548 15.5634 37.4124 15.1145 37.4125ZM9.81648 25.7771H14.7732V32.9445C14.2909 33.008 13.836 33.2053 13.46 33.5139C13.084 33.8225 12.8018 34.2302 12.6455 34.6908C12.4891 35.1515 12.4648 35.6467 12.5753 36.1204C12.6858 36.5942 12.9266 37.0275 13.2706 37.3715C13.6145 37.7155 14.0479 37.9563 14.5217 38.0668C14.9954 38.1773 15.4906 38.153 15.9512 37.9966C16.4119 37.8402 16.8196 37.5581 17.1282 37.1821C17.4368 36.8061 17.634 36.3512 17.6976 35.8689H28.8521C28.9153 36.352 29.1127 36.8077 29.4219 37.1843C29.731 37.5608 30.1395 37.8432 30.601 37.9994C31.0625 38.1556 31.5586 38.1792 32.0328 38.0677C32.5071 37.9562 32.9407 37.714 33.2843 37.3686C33.6279 37.0232 33.8678 36.5884 33.9767 36.1135C34.0857 35.6386 34.0594 35.1427 33.9008 34.6821C33.7421 34.2214 33.4576 33.8144 33.0794 33.5073C32.7011 33.2001 32.2444 33.0052 31.761 32.9445V25.7771H36.7177C36.8082 25.7771 36.895 25.7411 36.959 25.6771C37.023 25.6131 37.059 25.5263 37.059 25.4358V23.2793C37.059 23.1888 37.023 23.102 36.959 23.038C36.895 22.974 36.8082 22.938 36.7177 22.938H32.5444V22.5734C32.5444 22.4808 32.5076 22.3921 32.4422 22.3266C32.3767 22.2611 32.2879 22.2244 32.1954 22.2244H31.761C31.761 21.4487 31.5205 18.1597 29.2865 15.9334C29.2561 15.9002 29.2189 15.874 29.1774 15.8565C29.1359 15.8391 29.091 15.831 29.046 15.8326H17.4416C17.3966 15.831 17.3518 15.8391 17.3102 15.8565C17.2687 15.874 17.2315 15.9002 17.2011 15.9334C14.9671 18.1675 14.7499 21.4642 14.7266 22.2244H14.3388C14.2476 22.2264 14.1607 22.2641 14.097 22.3293C14.0332 22.3946 13.9975 22.4822 13.9975 22.5734V22.938H9.82422C9.7337 22.938 9.64689 22.974 9.58288 23.038C9.51887 23.102 9.48291 23.1888 9.48291 23.2793V25.4125C9.48385 25.4587 9.49418 25.5042 9.51323 25.5463C9.53229 25.5884 9.55968 25.6262 9.59377 25.6573C9.62786 25.6885 9.66792 25.7125 9.71154 25.7277C9.75515 25.7429 9.8014 25.7492 9.84749 25.746L9.81648 25.7771Z" stroke="currentColor" stroke-width="0.8" stroke-miterlimit="10"/>
<path d="M25.6481 20.068H20.9473C20.8977 20.0605 20.847 20.0638 20.7987 20.0778C20.7505 20.0917 20.7058 20.1158 20.6677 20.1486C20.6296 20.1814 20.5991 20.222 20.5782 20.2676C20.5572 20.3133 20.5464 20.3629 20.5464 20.4132C20.5464 20.4634 20.5572 20.513 20.5782 20.5587C20.5991 20.6043 20.6296 20.6449 20.6677 20.6777C20.7058 20.7105 20.7505 20.7346 20.7987 20.7485C20.847 20.7625 20.8977 20.7658 20.9473 20.7583H25.6481C25.7307 20.7459 25.8062 20.7043 25.8607 20.6409C25.9152 20.5776 25.9452 20.4967 25.9452 20.4132C25.9452 20.3296 25.9152 20.2488 25.8607 20.1854C25.8062 20.1221 25.7307 20.0804 25.6481 20.068Z" stroke="currentColor" stroke-width="0.8" stroke-miterlimit="10"/>
<path d="M24.8107 14.5139C24.7281 14.5263 24.6526 14.568 24.5981 14.6313C24.5435 14.6947 24.5135 14.7755 24.5135 14.859C24.5135 14.9426 24.5435 15.0235 24.5981 15.0868C24.6526 15.1501 24.7281 15.1918 24.8107 15.2042C25.1666 15.2042 25.508 15.0628 25.7596 14.8112C26.0113 14.5595 26.1527 14.2182 26.1527 13.8623C26.1527 13.5064 26.0113 13.165 25.7596 12.9134C25.508 12.6617 25.1666 12.5203 24.8107 12.5203C24.6492 12.5027 24.4998 12.4261 24.3913 12.3051C24.2828 12.1842 24.2228 12.0274 24.2228 11.8649C24.2228 11.7024 24.2828 11.5456 24.3913 11.4246C24.4998 11.3036 24.6492 11.227 24.8107 11.2094C24.8604 11.2169 24.9111 11.2135 24.9593 11.1996C25.0076 11.1857 25.0523 11.1615 25.0904 11.1287C25.1284 11.096 25.1589 11.0554 25.1799 11.0097C25.2008 10.9641 25.2117 10.9144 25.2117 10.8642C25.2117 10.814 25.2008 10.7643 25.1799 10.7187C25.1589 10.673 25.1284 10.6324 25.0904 10.5997C25.0523 10.5669 25.0076 10.5427 24.9593 10.5288C24.9111 10.5149 24.8604 10.5115 24.8107 10.519C24.4548 10.519 24.1135 10.6604 23.8618 10.9121C23.6101 11.1637 23.4688 11.5051 23.4688 11.861C23.4688 12.2169 23.6101 12.5582 23.8618 12.8099C24.1135 13.0616 24.4548 13.2029 24.8107 13.2029C24.9723 13.2205 25.1216 13.2972 25.2301 13.4182C25.3386 13.5391 25.3986 13.6959 25.3986 13.8584C25.3986 14.0209 25.3386 14.1777 25.2301 14.2986C25.1216 14.4196 24.9723 14.4963 24.8107 14.5139V14.5139Z" stroke="currentColor" stroke-width="0.8" stroke-miterlimit="10"/>
<path d="M21.4362 14.5139C21.3535 14.5263 21.2781 14.568 21.2235 14.6313C21.169 14.6947 21.139 14.7755 21.139 14.859C21.139 14.9426 21.169 15.0235 21.2235 15.0868C21.2781 15.1501 21.3535 15.1918 21.4362 15.2042C21.7921 15.2042 22.1334 15.0628 22.3851 14.8112C22.6368 14.5595 22.7781 14.2182 22.7781 13.8623C22.7781 13.5064 22.6368 13.165 22.3851 12.9134C22.1334 12.6617 21.7921 12.5203 21.4362 12.5203C21.2746 12.5027 21.1253 12.4261 21.0168 12.3051C20.9083 12.1842 20.8483 12.0274 20.8483 11.8649C20.8483 11.7024 20.9083 11.5456 21.0168 11.4246C21.1253 11.3036 21.2746 11.227 21.4362 11.2094C21.4858 11.2169 21.5365 11.2135 21.5848 11.1996C21.6331 11.1857 21.6778 11.1615 21.7158 11.1287C21.7539 11.096 21.7844 11.0554 21.8054 11.0097C21.8263 10.9641 21.8371 10.9144 21.8371 10.8642C21.8371 10.814 21.8263 10.7643 21.8054 10.7187C21.7844 10.673 21.7539 10.6324 21.7158 10.5997C21.6778 10.5669 21.6331 10.5427 21.5848 10.5288C21.5365 10.5149 21.4858 10.5115 21.4362 10.519C21.0803 10.519 20.7389 10.6604 20.4873 10.9121C20.2356 11.1637 20.0942 11.5051 20.0942 11.861C20.0942 12.2169 20.2356 12.5582 20.4873 12.8099C20.7389 13.0616 21.0803 13.2029 21.4362 13.2029C21.5282 13.1929 21.6214 13.2024 21.7095 13.2308C21.7977 13.2591 21.8789 13.3057 21.9479 13.3676C22.0168 13.4294 22.0719 13.5051 22.1097 13.5897C22.1474 13.6742 22.1669 13.7658 22.1669 13.8584C22.1669 13.951 22.1474 14.0426 22.1097 14.1272C22.0719 14.2117 22.0168 14.2874 21.9479 14.3492C21.8789 14.4111 21.7977 14.4577 21.7095 14.4861C21.6214 14.5144 21.5282 14.5239 21.4362 14.5139V14.5139Z" stroke="currentColor" stroke-width="0.8" stroke-miterlimit="10"/>
</g>
<defs>
<clipPath id="clip0_1324_37314">
<rect width="28.3673" height="28.3595" fill="white" transform="translate(9.11816 10.1312)"/>
</clipPath>
</defs>
</svg>
