<svg width="48" height="48" viewBox="0 0 48 48" fill="none" xmlns="http://www.w3.org/2000/svg">
<path d="M48 0H0V48H48V0Z" fill="#3B402E"/>
<path d="M10.802 36.2018L13.0899 33.914L14.2293 35.0624L11.9415 37.3413L10.802 36.2018ZM15.6648 33.6269L15.0906 34.2011L13.9333 33.0617L14.5075 32.4875L15.6648 33.6269ZM34.9456 25.7944C39.279 21.4609 39.925 15.028 36.3811 11.5021C33.2948 8.42467 27.9654 8.44261 23.7037 11.5559C23.6395 11.6024 23.5851 11.6611 23.5436 11.7287C23.502 11.7963 23.4742 11.8714 23.4617 11.9497C23.4492 12.028 23.4523 12.108 23.4707 12.1851C23.4892 12.2623 23.5226 12.335 23.5691 12.3993C23.6157 12.4635 23.6744 12.5179 23.742 12.5594C23.8095 12.6009 23.8847 12.6287 23.963 12.6412C24.0413 12.6537 24.1212 12.6506 24.1984 12.6322C24.2755 12.6138 24.3483 12.5803 24.4125 12.5338C28.1987 9.77941 32.8641 9.70768 35.5198 12.3634C38.5882 15.4318 37.9512 21.0752 34.0932 24.9241C30.7287 28.2796 25.9377 29.2666 22.6899 27.2748H22.6181H22.322H22.2682H22.2144H22.1605H22.1067L22.0529 27.3196L16.6697 32.7028L15.5303 31.5634L20.9135 26.1802V26.1263C20.9164 26.1055 20.9164 26.0844 20.9135 26.0635V26.0187C20.9135 26.0187 20.9135 26.0187 20.9135 25.9559C20.9174 25.9381 20.9174 25.9198 20.9135 25.902C20.9184 25.8814 20.9184 25.8599 20.9135 25.8392V25.7944C20.9179 25.7707 20.9179 25.7463 20.9135 25.7226V25.6777C20.9146 25.6568 20.9146 25.6359 20.9135 25.6149C20.9135 25.6149 20.9135 25.6149 20.9135 25.5611V25.5073V25.4534C19.0652 22.8157 19.3254 18.8232 21.5774 15.5215C21.6318 15.456 21.672 15.3799 21.6952 15.298C21.7185 15.2161 21.7243 15.1302 21.7124 15.0459C21.7005 14.9616 21.6711 14.8808 21.6261 14.8086C21.581 14.7363 21.5214 14.6743 21.4509 14.6265C21.3805 14.5787 21.3008 14.5461 21.217 14.531C21.1332 14.5158 21.0472 14.5183 20.9645 14.5384C20.8818 14.5585 20.8042 14.5957 20.7366 14.6476C20.6691 14.6994 20.6132 14.7648 20.5725 14.8396C18.1591 18.3835 17.8181 22.6811 19.6753 25.7226L9.65361 35.7353C9.59039 35.7917 9.53984 35.8608 9.50521 35.9381C9.47057 36.0154 9.45264 36.0992 9.45264 36.1839C9.45264 36.2687 9.47057 36.3524 9.50521 36.4297C9.53984 36.507 9.59039 36.5761 9.65361 36.6325L11.6544 38.6333C11.7115 38.6952 11.7809 38.7447 11.8581 38.7785C11.9353 38.8124 12.0187 38.8299 12.103 38.8299C12.1873 38.8299 12.2707 38.8124 12.3479 38.7785C12.4251 38.7447 12.4945 38.6952 12.5516 38.6333L22.654 28.5308C26.3594 30.4957 31.5183 29.428 35.125 25.7764" fill="#B86640"/>
<path d="M21.5681 14.3911C21.6288 14.4506 21.7014 14.4965 21.7812 14.5259C21.8609 14.5553 21.946 14.5674 22.0308 14.5614C22.1156 14.5555 22.1981 14.5317 22.273 14.4915C22.3479 14.4513 22.4135 14.3956 22.4653 14.3283C22.6178 14.1488 22.7883 13.9694 22.9857 13.772L23.2638 13.5029C23.3828 13.3922 23.4529 13.2389 23.4588 13.0765C23.4647 12.9141 23.4058 12.7561 23.2952 12.6371C23.1845 12.5181 23.0312 12.4479 22.8688 12.4421C22.7064 12.4362 22.5483 12.495 22.4294 12.6057L22.1243 12.9018C21.909 13.1171 21.7206 13.3235 21.5411 13.5208C21.4377 13.6334 21.3804 13.7807 21.3804 13.9336C21.3804 14.0864 21.4377 14.2337 21.5411 14.3462" fill="#B86640"/>
<path d="M24.8075 16.4905L22.8068 18.4912L22.421 18.1055C22.797 17.2069 23.3183 16.3763 23.9641 15.6471L24.8075 16.4905ZM27.6606 13.6284L25.6598 15.6292L24.8255 14.7858C25.5549 14.1426 26.3855 13.6243 27.2838 13.2516L27.6606 13.6284ZM31.375 15.6292L29.3743 13.6284L30.2715 12.6864C31.3464 12.7103 32.3873 13.0677 33.2502 13.7092L31.375 15.6292ZM34.237 18.4912L32.2363 16.4905L34.1473 14.5705C34.7913 15.4292 35.1519 16.4672 35.1791 17.5402L34.237 18.4912ZM32.2363 22.2056L34.237 20.2049L34.6139 20.5817C34.2413 21.4821 33.7196 22.3132 33.0707 23.04L32.2363 22.2056ZM29.3743 25.0587L31.375 23.058L32.2184 23.9014C31.4898 24.5457 30.659 25.0642 29.76 25.4355L29.3743 25.0587ZM25.6598 23.1028L27.6606 25.1036L26.7634 26.0457C25.6885 26.0218 24.6475 25.6643 23.7847 25.0229L25.6598 23.1028ZM24.7627 22.2056L22.9055 24.1167C22.2625 23.258 21.9048 22.2194 21.8826 21.147L22.7798 20.2049L24.7627 22.2056ZM27.6157 19.3436L25.6598 21.3084L23.6591 19.3077L25.6598 17.3069L27.6157 19.3436ZM28.5129 18.4912L26.4942 16.4905L28.495 14.4898L30.4958 16.4905L28.5129 18.4912ZM30.5137 22.2056L28.5129 24.1974L26.4942 22.2056L28.495 20.2049L30.5137 22.2056ZM29.3653 19.3436L31.366 17.3429L33.3667 19.3436L31.375 21.3084L29.3653 19.3436ZM22.421 25.4355C25.1754 28.1899 30.1548 27.7055 33.5103 24.341C36.8658 20.9765 37.3683 16.015 34.569 13.2337C31.7698 10.4524 26.8352 10.9727 23.4797 14.3282C20.1242 17.6837 19.6396 22.6543 22.394 25.4176" fill="#B86640"/>
</svg>
