<svg width="48" height="48" viewBox="0 0 48 48" fill="none" xmlns="http://www.w3.org/2000/svg">
<path d="M48 0H0V48H48V0Z" fill="#3B402E"/>
<g clip-path="url(#clip0_1323_37473)">
<path d="M32.8761 31.7176C32.0345 31.714 31.2181 31.4306 30.5553 30.912C29.8926 30.3934 29.4211 29.6692 29.2152 28.8532C29.0094 28.0372 29.0808 27.1759 29.4182 26.405C29.7556 25.6341 30.3398 24.9972 31.0789 24.5948L32.1671 28.3458C32.2413 28.5719 32.3977 28.7618 32.6054 28.8779C32.8131 28.9939 33.0569 29.0277 33.2883 28.9724C33.5161 28.8981 33.7074 28.7404 33.8236 28.5309C33.9399 28.3213 33.9724 28.0755 33.9148 27.8429L32.8184 24.1497H32.8761C33.8797 24.1497 34.8421 24.5483 35.5517 25.258C36.2614 25.9676 36.66 26.9301 36.66 27.9336C36.66 28.9372 36.2614 29.8997 35.5517 30.6093C34.8421 31.3189 33.8797 31.7176 32.8761 31.7176ZM22.9257 26.5734H21.145C20.8056 25.2218 19.9735 24.0458 18.812 23.2758L19.7271 21.2396H27.5011L22.9257 26.5734ZM19.2572 26.5734H17.2786L18.0206 24.9246C18.5924 25.334 19.0242 25.9098 19.2572 26.5734ZM15.7123 31.7176C14.7087 31.7176 13.7462 31.3189 13.0366 30.6093C12.327 29.8997 11.9283 28.9372 11.9283 27.9336C11.9283 26.9301 12.327 25.9676 13.0366 25.258C13.7462 24.5483 14.7087 24.1497 15.7123 24.1497C15.9308 24.1537 16.1486 24.1757 16.3635 24.2157L15.0363 27.1092C14.9725 27.2396 14.9442 27.3845 14.9544 27.5292C14.9645 27.674 15.0127 27.8134 15.094 27.9336C15.1758 28.0622 15.2893 28.1677 15.4235 28.2398C15.5577 28.312 15.7083 28.3485 15.8607 28.3458H19.4632C19.3654 29.2721 18.9279 30.1293 18.2352 30.752C17.5425 31.3747 16.6437 31.7187 15.7123 31.7176ZM32.8761 22.3195C32.6813 22.3031 32.4855 22.3031 32.2908 22.3195L30.3699 15.8151C30.3182 15.6338 30.2108 15.4733 30.0628 15.3564C29.9149 15.2395 29.7339 15.1722 29.5455 15.1638H26.8251C26.5963 15.1855 26.3838 15.2918 26.2292 15.4617C26.0746 15.6317 25.9889 15.8532 25.9889 16.083C25.9889 16.3128 26.0746 16.5343 26.2292 16.7043C26.3838 16.8743 26.5963 16.9806 26.8251 17.0022H28.8283L29.5373 19.3929H20.469L20.9719 18.0327C21.026 17.8984 21.0463 17.7527 21.0308 17.6087C21.0153 17.4646 20.9646 17.3266 20.8831 17.2068C20.8016 17.087 20.6919 16.9891 20.5636 16.9218C20.4353 16.8545 20.2924 16.8198 20.1475 16.8209H17.0972C16.8546 16.8209 16.6218 16.9173 16.4502 17.0889C16.2786 17.2605 16.1822 17.4932 16.1822 17.7359C16.1822 17.9786 16.2786 18.2114 16.4502 18.383C16.6218 18.5546 16.8546 18.651 17.0972 18.651H18.812L18.3091 19.9865L17.1632 22.5998C16.6998 22.4813 16.2236 22.4204 15.7452 22.4185C14.2672 22.4185 12.8497 23.0056 11.8046 24.0507C10.7595 25.0958 10.1724 26.5133 10.1724 27.9913C10.1724 29.4694 10.7595 30.8869 11.8046 31.932C12.8497 32.9771 14.2672 33.5642 15.7452 33.5642C17.1506 33.5609 18.5035 33.0307 19.5369 32.0782C20.5702 31.1258 21.2087 29.8204 21.3264 28.42H23.3709C23.5003 28.4199 23.6281 28.391 23.745 28.3354C23.8619 28.2797 23.965 28.1988 24.0469 28.0985L30.0484 21.0912L30.576 22.8636C29.3129 23.4371 28.3063 24.4573 27.7499 25.7281C27.1935 26.9989 27.1266 28.4304 27.5619 29.7476C27.9973 31.0647 28.9043 32.1745 30.1084 32.8633C31.3125 33.5522 32.7288 33.7715 34.0849 33.4792C35.441 33.1869 36.6412 32.4036 37.4546 31.2798C38.268 30.1561 38.6373 28.7714 38.4914 27.3918C38.3455 26.0123 37.6947 24.7354 36.6642 23.8066C35.6338 22.8779 34.2963 22.363 32.9091 22.3608L32.8761 22.3195Z" fill="#B86640"/>
</g>
<defs>
<clipPath id="clip0_1323_37473">
<rect width="28.3673" height="18.318" fill="white" transform="translate(10.1313 15.1968)"/>
</clipPath>
</defs>
</svg>
