<svg width="48" height="48" viewBox="0 0 48 48" fill="none" xmlns="http://www.w3.org/2000/svg">
<path d="M48 0H0V48H48V0Z" fill="#3B402E"/>
<path d="M17.7194 20.6893L13.0899 22.035V13.8975L17.7194 15.2433V20.6893ZM31.2312 23.3808C30.4058 23.2253 29.2843 23.001 27.8667 22.7079C24.583 22.035 20.7789 21.0661 19.137 20.6893V15.1625C21.0032 14.7139 29.1407 12.7042 32.0477 12.4081C32.684 12.3397 33.3276 12.411 33.9335 12.6171C34.5395 12.8232 35.0931 13.1591 35.5557 13.6014C36.1633 14.1471 36.6503 14.8135 36.9855 15.5582C37.3208 16.3028 37.4969 17.1093 37.5026 17.9259C37.5295 19.2289 37.0935 20.4992 36.2721 21.5111C35.4508 22.523 34.2973 23.2109 33.0166 23.4526C32.6946 23.4886 32.3696 23.4886 32.0477 23.4526C31.9211 23.4576 31.7952 23.433 31.6798 23.3808C31.6103 23.4163 31.5335 23.4348 31.4555 23.4348C31.3775 23.4348 31.3007 23.4163 31.2312 23.3808ZM28.2435 24.278L31.5273 24.8702C31.6571 24.859 31.7875 24.8839 31.9041 24.942H32.2002L29.5893 35.4751H25.4802L28.2435 24.278ZM36.5247 12.5517C35.9049 11.9847 35.1743 11.5524 34.379 11.2822C33.5837 11.0119 32.741 10.9096 31.9041 10.9816C28.6921 11.3584 20.1777 13.4489 18.4462 13.8975L12.5426 12.2556C12.4395 12.2237 12.3295 12.2211 12.2249 12.248C12.1204 12.275 12.0254 12.3304 11.9505 12.4081C11.7799 12.5605 11.674 12.7724 11.6544 13.0003V23.0758C11.6478 23.193 11.6716 23.3099 11.7235 23.4152C11.7754 23.5205 11.8535 23.6107 11.9505 23.6769C12.1239 23.7955 12.3335 23.8495 12.5426 23.8294L18.3744 22.1876C18.9665 22.3311 23.1475 23.3808 26.808 24.1973L24.0447 35.3225C23.9822 35.5247 23.97 35.739 24.0091 35.9469C24.0482 36.1549 24.1374 36.3501 24.269 36.5158C24.3997 36.687 24.5701 36.8238 24.7655 36.9145C24.9608 37.0051 25.1753 37.0469 25.3905 37.0362H29.4906C29.7993 37.0393 30.1 36.9383 30.3442 36.7494C30.5884 36.5606 30.7618 36.2949 30.8364 35.9954L33.6447 25.0227C34.8995 24.6626 36.0354 23.9739 36.9349 23.0277C37.8344 22.0816 38.4649 20.9124 38.7613 19.6411C39.0576 18.3697 39.009 17.0422 38.6206 15.7959C38.2321 14.5495 37.5178 13.4295 36.5516 12.5517" fill="#B86640"/>
<path d="M34.964 17.8543C34.9227 18.5985 34.5979 19.2986 34.0565 19.8108C33.515 20.3231 32.798 20.6085 32.0526 20.6085C31.3073 20.6085 30.5902 20.3231 30.0488 19.8108C29.5073 19.2986 29.1825 18.5985 29.1412 17.8543C29.1352 17.4705 29.2062 17.0893 29.35 16.7334C29.4939 16.3775 29.7076 16.0541 29.9786 15.7822C30.2497 15.5103 30.5724 15.2956 30.9279 15.1507C31.2834 15.0057 31.6643 14.9335 32.0481 14.9384C32.8129 14.9652 33.5392 15.281 34.0803 15.8221C34.6214 16.3633 34.9372 17.0895 34.964 17.8543ZM36.2291 17.8543C36.2291 17.0274 35.9839 16.219 35.5244 15.5315C35.065 14.8439 34.4121 14.3081 33.6481 13.9916C32.8841 13.6752 32.0435 13.5924 31.2325 13.7537C30.4214 13.915 29.6765 14.3132 29.0918 14.8979C28.507 15.4826 28.1088 16.2276 27.9475 17.0386C27.7862 17.8496 27.869 18.6903 28.1854 19.4543C28.5019 20.2182 29.0378 20.8712 29.7253 21.3306C30.4129 21.79 31.2212 22.0352 32.0481 22.0352C32.5975 22.0364 33.1417 21.9291 33.6495 21.7194C34.1573 21.5097 34.6187 21.2018 35.0071 20.8133C35.3956 20.4248 35.7035 19.9635 35.9132 19.4557C36.1229 18.9479 36.2302 18.4037 36.2291 17.8543Z" fill="#B86640"/>
</svg>
