<svg width="48" height="48" viewBox="0 0 48 48" fill="none" xmlns="http://www.w3.org/2000/svg">
<path d="M48 0H0V48H48V0Z" fill="#3B402E"/>
<path d="M37.0181 24.4665H33.8869C33.7155 24.1335 33.4913 23.8306 33.223 23.5693H37.0181V24.4665ZM30.953 28.2168C30.4899 28.2168 30.0372 28.0795 29.6521 27.8222C29.267 27.5649 28.9668 27.1991 28.7896 26.7713C28.6124 26.3434 28.566 25.8725 28.6564 25.4183C28.7467 24.964 28.9697 24.5468 29.2972 24.2193C29.6247 23.8918 30.042 23.6688 30.4962 23.5784C30.9505 23.4881 31.4213 23.5344 31.8492 23.7117C32.2771 23.8889 32.6428 24.1891 32.9001 24.5742C33.1574 24.9592 33.2947 25.412 33.2947 25.8752C33.2947 26.4962 33.048 27.0918 32.6089 27.5309C32.1697 27.9701 31.5741 28.2168 30.953 28.2168ZM36.085 34.3088V35.7174H35.0891C35.1427 35.5677 35.17 35.4098 35.1699 35.2508V33.8691H32.3617V31.5275C32.3617 31.1539 32.2132 30.7956 31.9491 30.5314C31.6849 30.2673 31.3266 30.1189 30.953 30.1189H27.9743C28.7458 29.5865 29.6479 29.2748 30.5834 29.2173C31.5189 29.1599 32.4524 29.3587 33.2832 29.7926C34.114 30.2265 34.8106 30.8789 35.298 31.6794C35.7854 32.48 36.0451 33.3984 36.0491 34.3357L36.085 34.3088ZM37.0091 37.6194H9.84202V36.7222H37.0181L37.0091 37.6194ZM10.7661 35.2778V31.5275C10.7661 31.4037 10.8153 31.285 10.9028 31.1975C10.9903 31.1101 11.1089 31.0609 11.2327 31.0609H16.8581C16.9201 31.0597 16.9817 31.0709 17.0394 31.0938C17.097 31.1167 17.1495 31.1509 17.1938 31.1944C17.2381 31.2378 17.2732 31.2896 17.2973 31.3468C17.3213 31.404 17.3336 31.4654 17.3336 31.5275V35.7443H11.2147C11.0917 35.742 10.9744 35.6921 10.8874 35.6051C10.8004 35.5181 10.7505 35.4008 10.7482 35.2778H10.7661ZM18.2487 34.8022H20.1867V35.2778C20.1867 35.4015 20.1375 35.5201 20.0501 35.6076C19.9626 35.6951 19.8439 35.7443 19.7201 35.7443H18.3116L18.2487 34.8022ZM16.8402 29.1858C18.2068 29.1858 19.5176 29.728 20.4849 30.6936C21.4521 31.6591 21.9967 32.969 21.999 34.3357V35.7443H20.9762C21.0298 35.5946 21.0571 35.4368 21.057 35.2778V33.8691H18.2487V31.5275C18.2487 31.1539 18.1003 30.7956 17.8362 30.5314C17.572 30.2673 17.2137 30.1189 16.8402 30.1189H13.9063C14.7754 29.5252 15.8056 29.2121 16.8581 29.2217L16.8402 29.1858ZM14.5164 25.9379C14.5164 25.4748 14.6537 25.022 14.9111 24.637C15.1684 24.2519 15.5341 23.9517 15.962 23.7745C16.3899 23.5972 16.8607 23.5509 17.3149 23.6412C17.7692 23.7316 18.1864 23.9546 18.5139 24.2821C18.8414 24.6096 19.0644 25.0269 19.1548 25.4811C19.2451 25.9353 19.1988 26.4062 19.0215 26.8341C18.8443 27.2619 18.5441 27.6277 18.1591 27.885C17.774 28.1423 17.3212 28.2796 16.8581 28.2796C16.237 28.2796 15.6414 28.0329 15.2023 27.5938C14.7631 27.1546 14.5164 26.559 14.5164 25.9379ZM9.83305 24.5294V23.6322H14.5702C14.2964 23.8907 14.0688 24.1941 13.8974 24.5294H9.83305ZM26.5029 30.1547H25.3007C25.1161 30.1547 24.9334 30.1912 24.763 30.2621C24.5926 30.333 24.4379 30.4369 24.3078 30.5679C24.1778 30.6988 24.0748 30.8541 24.005 31.025C23.9352 31.1958 23.8999 31.3788 23.9011 31.5633V35.3136C23.9053 35.4722 23.9325 35.6294 23.9818 35.7802H22.959V34.3716C22.9583 33.0924 22.5549 31.846 21.8061 30.8089C21.0573 29.7718 20.001 28.9968 18.7871 28.5936C19.2141 28.2877 19.561 27.8834 19.7984 27.4148C20.0358 26.9462 20.1567 26.4273 20.1508 25.902C20.1601 25.7467 20.1601 25.5909 20.1508 25.4355H27.7231C27.7096 25.5907 27.7096 25.7468 27.7231 25.902C27.7224 26.4182 27.8439 26.9271 28.0778 27.3872C28.3118 27.8473 28.6514 28.2453 29.0689 28.5488C28.1262 28.8644 27.2736 29.403 26.5837 30.1189L26.5029 30.1547ZM31.4645 35.7443H25.3007C25.1777 35.742 25.0604 35.6921 24.9734 35.6051C24.8864 35.5181 24.8365 35.4008 24.8342 35.2778V31.5275C24.8342 31.4662 24.8462 31.4055 24.8697 31.3489C24.8931 31.2923 24.9275 31.2409 24.9708 31.1975C25.0141 31.1542 25.0656 31.1199 25.1222 31.0965C25.1788 31.073 25.2394 31.0609 25.3007 31.0609H30.953C31.0768 31.0609 31.1954 31.1101 31.2829 31.1975C31.3704 31.285 31.4196 31.4037 31.4196 31.5275L31.4645 35.7443ZM32.3617 34.8471H34.2368V35.3226C34.2345 35.4456 34.1846 35.563 34.0976 35.65C34.0106 35.737 33.8933 35.7869 33.7702 35.7892H32.3617V34.8471ZM20.6443 23.6052H28.6652C28.3914 23.8637 28.1638 24.1672 27.9923 24.5024H19.8278C19.6595 24.1676 19.4349 23.8641 19.1639 23.6052H20.6443ZM20.1777 22.1966V18.4463C20.1777 18.3226 20.2269 18.204 20.3144 18.1165C20.4019 18.029 20.5205 17.9798 20.6443 17.9798H26.2697C26.3934 17.9798 26.5121 18.029 26.5996 18.1165C26.6871 18.204 26.7362 18.3226 26.7362 18.4463V22.6632H20.6443C20.583 22.6632 20.5223 22.6511 20.4657 22.6276C20.4091 22.6042 20.3577 22.5698 20.3144 22.5265C20.271 22.4832 20.2367 22.4318 20.2132 22.3752C20.1898 22.3186 20.1777 22.2579 20.1777 22.1966ZM27.6783 21.7301H29.5534V22.1966C29.5534 22.2586 29.5411 22.3201 29.5171 22.3773C29.4931 22.4345 29.4579 22.4863 29.4136 22.5297C29.3693 22.5732 29.3168 22.6073 29.2592 22.6303C29.2016 22.6532 29.1399 22.6644 29.0779 22.6632H27.6783V21.7301ZM26.2697 16.1047C27.6363 16.107 28.9462 16.6516 29.9118 17.6189C30.8773 18.5861 31.4196 19.8969 31.4196 21.2635V22.6632H30.3968C30.4549 22.5144 30.4853 22.3563 30.4865 22.1966V20.788H27.6783V18.4463C27.6759 18.0743 27.5265 17.7183 27.2626 17.4561C26.9987 17.1939 26.6417 17.0467 26.2697 17.0467H23.3089C24.1796 16.4491 25.2138 16.1357 26.2697 16.1495V16.1047ZM23.928 12.8658C23.9298 12.403 24.0686 11.9512 24.327 11.5673C24.5854 11.1834 24.9517 10.8846 25.3798 10.7087C25.8078 10.5329 26.2783 10.4878 26.732 10.5792C27.1856 10.6705 27.6021 10.8943 27.9287 11.2221C28.2552 11.55 28.4774 11.9672 28.567 12.4212C28.6566 12.8752 28.6097 13.3455 28.4322 13.7729C28.2547 14.2003 27.9546 14.5655 27.5697 14.8224C27.1848 15.0793 26.7324 15.2165 26.2697 15.2165C25.9614 15.2165 25.6562 15.1556 25.3715 15.0373C25.0868 14.9191 24.8282 14.7458 24.6107 14.5274C24.3931 14.309 24.2208 14.0498 24.1037 13.7646C23.9865 13.4795 23.9268 13.1741 23.928 12.8658ZM37.9871 22.735H32.3617V21.3353C32.3587 20.0556 31.9547 18.809 31.2063 17.771C30.4579 16.7329 29.4029 15.9556 28.1897 15.5484C28.7531 15.1423 29.1733 14.568 29.3898 13.9081C29.6063 13.2482 29.608 12.5366 29.3946 11.8757C29.1813 11.2147 28.7638 10.6385 28.2023 10.2297C27.6409 9.82092 26.9642 9.60071 26.2697 9.60071C25.5752 9.60071 24.8985 9.82092 24.337 10.2297C23.7755 10.6385 23.3581 11.2147 23.1447 11.8757C22.9314 12.5366 22.9331 13.2482 23.1496 13.9081C23.3661 14.568 23.7862 15.1423 24.3497 15.5484C23.4112 15.862 22.564 16.4012 21.8824 17.1185H20.6443C20.2722 17.1185 19.9153 17.2657 19.6514 17.5279C19.3875 17.7901 19.238 18.1461 19.2357 18.5181V22.2684C19.2369 22.4281 19.2673 22.5862 19.3254 22.735H8.89996V25.5521H13.6282C13.6147 25.7073 13.6147 25.8635 13.6282 26.0187C13.6235 26.5428 13.744 27.0604 13.9796 27.5285C14.2152 27.9967 14.5592 28.4018 14.983 28.7103C14.0461 29.023 13.1994 29.5587 12.5157 30.2714H11.2147C11.0302 30.2714 10.8474 30.3079 10.677 30.3788C10.5066 30.4497 10.3519 30.5536 10.2219 30.6845C10.0918 30.8154 9.98886 30.9708 9.91905 31.1416C9.84925 31.3125 9.81392 31.4954 9.81511 31.68V35.4303C9.81934 35.5889 9.84653 35.746 9.89585 35.8968H8.87305V38.705H37.9332V35.8968H36.9643V34.4882C36.9629 33.2128 36.5613 31.97 35.816 30.935C35.0707 29.9 34.0194 29.125 32.8103 28.7192C33.2367 28.4122 33.5838 28.0079 33.8226 27.5397C34.0613 27.0716 34.1849 26.5532 34.183 26.0277C34.1922 25.8723 34.1922 25.7165 34.183 25.5611H37.9691L37.9871 22.735Z" fill="currentColor"/>
<path d="M28.1181 33.8691C28.0233 33.8708 27.9301 33.8442 27.8506 33.7927C27.771 33.7411 27.7087 33.667 27.6716 33.5797C27.6345 33.4925 27.6243 33.3961 27.6424 33.3031C27.6604 33.21 27.7059 33.1244 27.7729 33.0574C27.84 32.9904 27.9255 32.9449 28.0186 32.9269C28.1117 32.9088 28.208 32.9189 28.2952 32.956C28.3825 32.9931 28.4567 33.0554 28.5082 33.135C28.5598 33.2146 28.5864 33.3077 28.5846 33.4025C28.5846 33.5262 28.5355 33.6449 28.448 33.7324C28.3605 33.8199 28.2418 33.8691 28.1181 33.8691ZM28.1181 31.9939C27.8395 31.9939 27.5671 32.0766 27.3355 32.2313C27.1039 32.3861 26.9233 32.6061 26.8167 32.8635C26.7101 33.1209 26.6822 33.4041 26.7365 33.6773C26.7909 33.9506 26.925 34.2015 27.122 34.3985C27.319 34.5955 27.57 34.7297 27.8433 34.7841C28.1165 34.8384 28.3997 34.8105 28.6571 34.7039C28.9145 34.5973 29.1345 34.4167 29.2893 34.1851C29.444 33.9534 29.5267 33.6811 29.5267 33.4025C29.5267 33.2175 29.4902 33.0344 29.4194 32.8635C29.3487 32.6926 29.2449 32.5373 29.1141 32.4065C28.9833 32.2757 28.828 32.1719 28.6571 32.1011C28.4862 32.0303 28.303 31.9939 28.1181 31.9939Z" fill="currentColor"/>
<path d="M14.059 33.8691C13.9642 33.8708 13.871 33.8442 13.7915 33.7927C13.7119 33.7411 13.6496 33.667 13.6125 33.5797C13.5754 33.4925 13.5652 33.3961 13.5833 33.3031C13.6014 33.21 13.6468 33.1244 13.7139 33.0574C13.7809 32.9904 13.8664 32.9449 13.9595 32.9269C14.0526 32.9088 14.1489 32.9189 14.2362 32.956C14.3234 32.9931 14.3976 33.0554 14.4491 33.135C14.5007 33.2146 14.5273 33.3077 14.5255 33.4025C14.5255 33.5262 14.4764 33.6449 14.3889 33.7324C14.3014 33.8199 14.1827 33.8691 14.059 33.8691ZM14.059 31.9939C13.7804 31.9939 13.5081 32.0766 13.2764 32.2313C13.0448 32.3861 12.8642 32.6061 12.7576 32.8635C12.651 33.1209 12.6231 33.4041 12.6775 33.6773C12.7318 33.9506 12.866 34.2015 13.063 34.3985C13.26 34.5955 13.5109 34.7297 13.7842 34.7841C14.0574 34.8384 14.3406 34.8105 14.598 34.7039C14.8554 34.5973 15.0754 34.4167 15.2302 34.1851C15.385 33.9534 15.4676 33.6811 15.4676 33.4025C15.4676 33.2175 15.4311 33.0344 15.3604 32.8635C15.2896 32.6926 15.1858 32.5373 15.055 32.4065C14.9242 32.2757 14.7689 32.1719 14.598 32.1011C14.4271 32.0303 14.244 31.9939 14.059 31.9939Z" fill="currentColor"/>
<path d="M23.4347 20.7163C23.3424 20.7163 23.2522 20.6889 23.1755 20.6376C23.0987 20.5864 23.0389 20.5135 23.0036 20.4282C22.9683 20.343 22.9591 20.2492 22.9771 20.1587C22.9951 20.0682 23.0395 19.9851 23.1048 19.9198C23.17 19.8546 23.2531 19.8101 23.3436 19.7921C23.4341 19.7741 23.528 19.7834 23.6132 19.8187C23.6985 19.854 23.7713 19.9138 23.8226 19.9905C23.8738 20.0672 23.9012 20.1574 23.9012 20.2497C23.9012 20.3734 23.8521 20.4921 23.7646 20.5796C23.6771 20.6671 23.5584 20.7163 23.4347 20.7163ZM23.4347 18.8411C23.1557 18.8393 22.8825 18.9204 22.6497 19.0741C22.4168 19.2278 22.2349 19.4472 22.1269 19.7044C22.0189 19.9616 21.9897 20.2451 22.0431 20.519C22.0964 20.7928 22.2299 21.0446 22.4265 21.2425C22.6231 21.4404 22.8741 21.5755 23.1476 21.6305C23.4211 21.6856 23.7047 21.6582 23.9626 21.5519C24.2206 21.4456 24.4411 21.265 24.5963 21.0332C24.7514 20.8014 24.8343 20.5287 24.8343 20.2497C24.8343 19.8777 24.6871 19.5207 24.4249 19.2568C24.1627 18.9929 23.8067 18.8435 23.4347 18.8411Z" fill="currentColor"/>
<path d="M14.9922 13.2247H14.0591V14.1578H14.9922V13.2247Z" fill="currentColor"/>
<path d="M13.1172 13.2247H12.1841V14.1578H13.1172V13.2247Z" fill="currentColor"/>
<path d="M16.8672 13.2247H15.9341V14.1578H16.8672V13.2247Z" fill="currentColor"/>
</svg>
