<svg width="48" height="48" viewBox="0 0 48 48" fill="none" xmlns="http://www.w3.org/2000/svg">
<path d="M48 0H0V48H48V0Z" fill="#3B402E"/>
<g clip-path="url(#clip0_1322_37411)">
<path d="M12.1589 35.3831V18.7958H20.1865V26.5848H28.4435V18.7958H36.4711V35.3831H12.1589ZM15.1039 13.181H20.9938L20.3241 16.7682H12.9387L15.1039 13.181ZM22.4434 16.7682L23.0856 13.181H25.6269L26.2691 16.7682H22.4434ZM22.2416 18.7958H26.3792V24.5573H22.1498L22.2416 18.7958ZM35.7188 16.7682H28.3059L27.6637 13.181H33.5536L35.7188 16.7682ZM38.5262 17.5113L34.6362 11.1443H13.9571L10.1313 17.5113V37.4198H38.4986L38.5262 17.5113Z" fill="#B86640"/>
<path d="M15.9846 30.75H18.8653V32.1996H15.9846V30.75ZM13.957 34.1996H20.8745V28.6949H13.957V34.1996Z" fill="#B86640"/>
</g>
<defs>
<clipPath id="clip0_1322_37411">
<rect width="28.3673" height="26.2663" fill="white" transform="translate(10.1313 11.1443)"/>
</clipPath>
</defs>
</svg>
