<svg width="48" height="48" viewBox="0 0 48 48" fill="none" xmlns="http://www.w3.org/2000/svg">
<path d="M48 0H0V48H48V0Z" fill="#3B402E"/>
<path d="M19.882 29.6882L15.2973 25.3368C15.2145 25.2429 15.1512 25.1335 15.1111 25.0149C15.0711 24.8963 15.0551 24.7709 15.064 24.646C15.0969 24.5296 15.1549 24.4219 15.234 24.3304C15.313 24.2389 15.4112 24.166 15.5216 24.1166C15.6057 24.0767 15.6977 24.056 15.7908 24.056C15.8839 24.056 15.9758 24.0767 16.0599 24.1166L20.187 27.6247L20.2588 27.7054C20.577 27.9298 20.938 28.0861 21.3192 28.1649C21.7005 28.2436 22.0939 28.243 22.4749 28.163L29.5089 26.7095C29.5806 26.7095 29.6614 26.7095 29.7332 26.8621L34.6229 32.2452C34.7529 32.4506 34.8068 32.695 34.7754 32.9361C34.7478 33.0343 34.7 33.1257 34.6351 33.2045C34.5702 33.2833 34.4897 33.3477 34.3986 33.3936C34.2312 33.4718 34.0426 33.4921 33.8623 33.4516C33.6821 33.411 33.5205 33.3117 33.4027 33.1693L29.5807 29.114C29.2568 28.7878 28.82 28.5983 28.3605 28.5847C28.2282 28.5798 28.0964 28.6043 27.9747 28.6564L21.1739 30.0292C20.9531 30.1157 20.7112 30.1329 20.4803 30.0784C20.2495 30.0239 20.0408 29.9003 19.882 29.7241V29.6882ZM14.6782 22.0082C14.6763 22.4592 14.5141 22.8949 14.2207 23.2374C13.889 23.543 13.4513 23.7071 13.0005 23.695C12.6665 23.6967 12.3395 23.5993 12.061 23.415C11.7824 23.2308 11.5648 22.968 11.4358 22.66C11.3067 22.3519 11.272 22.0125 11.3361 21.6847C11.4002 21.3569 11.5601 21.0555 11.7957 20.8187C12.0312 20.5819 12.3317 20.4204 12.6591 20.3546C12.9866 20.2888 13.3262 20.3217 13.6349 20.449C13.9436 20.5764 14.2076 20.7926 14.3933 21.0702C14.5791 21.3478 14.6782 21.6742 14.6782 22.0082ZM30.8816 25.9828C30.6929 25.7274 30.4331 25.5333 30.1347 25.4248C29.8363 25.3163 29.5125 25.2982 29.2039 25.3727L22.2506 26.8262C22.0648 26.8654 21.8728 26.8649 21.6873 26.8247C21.5017 26.7845 21.3268 26.7055 21.1739 26.5929C18.7336 24.4576 17.7377 23.6142 17.3609 23.2374L17.0468 22.9323C16.81 22.7401 16.5172 22.6299 16.2124 22.6183C16.2124 22.394 16.2842 22.2415 16.2842 22.0082C16.2973 21.1574 15.975 20.3355 15.387 19.7204C15.0968 19.4297 14.751 19.2005 14.3702 19.0463C13.9895 18.8922 13.5817 18.8163 13.171 18.8232C12.3214 18.8255 11.5071 19.1635 10.9055 19.7634C10.3039 20.3633 9.96371 21.1766 9.95898 22.0262C9.95946 22.492 10.0621 22.9521 10.2597 23.374C10.4573 23.7958 10.7451 24.1692 11.1027 24.4678C11.4603 24.7664 11.879 24.9828 12.3294 25.102C12.7798 25.2211 13.2508 25.2401 13.7093 25.1574C13.7664 25.6247 13.9817 26.0584 14.3193 26.3865L18.904 30.7379C19.2438 31.063 19.6566 31.3018 20.1078 31.4345C20.5589 31.5672 21.0352 31.5898 21.4969 31.5005L28.2977 30.0471C28.3784 30.0471 28.3784 30.0471 28.4502 30.1278L32.2723 34.1742C32.4826 34.4128 32.7405 34.6047 33.0295 34.7375C33.3184 34.8704 33.632 34.9414 33.95 34.9458C34.2341 34.9499 34.5161 34.8972 34.7795 34.7909C35.043 34.6846 35.2825 34.5268 35.4842 34.3267C35.9204 33.9568 36.1959 33.4321 36.2528 32.8631C36.3097 32.2941 36.1435 31.7252 35.7892 31.2762L30.8816 25.9828Z" fill="#B86640"/>
<path d="M28.89 34.8112L14.2208 34.892V30.406L17.9711 34.0935C18.0625 34.1774 18.1702 34.2414 18.2876 34.2816C18.4049 34.3217 18.5294 34.3371 18.653 34.3267L27.0597 33.0258L28.89 34.8112ZM27.8223 31.68C27.7341 31.5915 27.6268 31.5245 27.5085 31.4841C27.3903 31.4436 27.2644 31.4308 27.1404 31.4467L18.7337 32.7477L11.6279 25.7226C11.5592 25.6502 11.4764 25.5924 11.3846 25.553C11.2929 25.5135 11.194 25.4932 11.0941 25.4932C10.9942 25.4932 10.8953 25.5135 10.8036 25.553C10.7118 25.5924 10.629 25.6502 10.5603 25.7226C10.4866 25.7907 10.4278 25.8732 10.3876 25.9651C10.3474 26.057 10.3267 26.1562 10.3267 26.2565C10.3267 26.3568 10.3474 26.456 10.3876 26.5478C10.4278 26.6397 10.4866 26.7222 10.5603 26.7903L12.6956 28.8538V37.4849C12.6956 37.6871 12.7759 37.8811 12.919 38.0241C13.062 38.1671 13.2559 38.2475 13.4582 38.2475C13.6605 38.2475 13.8545 38.1671 13.9975 38.0241C14.1405 37.8811 14.2208 37.6871 14.2208 37.4849V36.3365H28.89V37.3323C28.9105 37.5215 29.0001 37.6964 29.1417 37.8235C29.2833 37.9506 29.4669 38.0209 29.6571 38.0209C29.8474 38.0209 30.0309 37.9506 30.1725 37.8235C30.3141 37.6964 30.4037 37.5215 30.4242 37.3323V36.2647L32.0302 37.8707C32.0989 37.9431 32.1817 38.0009 32.2735 38.0403C32.3652 38.0798 32.4641 38.1001 32.564 38.1001C32.6639 38.1001 32.7628 38.0798 32.8545 38.0403C32.9463 38.0009 33.0291 37.9431 33.0978 37.8707C33.1695 37.8005 33.2263 37.7168 33.2652 37.6243C33.304 37.5319 33.3241 37.4326 33.3241 37.3323C33.3241 37.2321 33.304 37.1328 33.2652 37.0404C33.2263 36.9479 33.1695 36.8642 33.0978 36.794L27.8223 31.68Z" fill="#B86640"/>
<path d="M28.5128 17.0467C28.4932 16.7336 28.538 16.4198 28.6443 16.1246C28.7506 15.8295 28.9163 15.5593 29.1311 15.3306C29.3459 15.102 29.6053 14.9197 29.8932 14.7952C30.1811 14.6706 30.4914 14.6064 30.8052 14.6064C31.1189 14.6064 31.4293 14.6706 31.7172 14.7952C32.0051 14.9197 32.2645 15.102 32.4792 15.3306C32.694 15.5593 32.8597 15.8295 32.966 16.1246C33.0723 16.4198 33.1171 16.7336 33.0975 17.0467C33.1024 17.3492 33.0463 17.6497 32.9324 17.93C32.8186 18.2104 32.6495 18.465 32.4351 18.6785C32.2207 18.892 31.9655 19.0602 31.6847 19.1729C31.4039 19.2856 31.1032 19.3406 30.8007 19.3345C30.1939 19.3345 29.612 19.0935 29.1829 18.6644C28.7539 18.2354 28.5128 17.6534 28.5128 17.0467ZM30.7289 20.788C31.6906 20.7409 32.5974 20.3257 33.2614 19.6284C33.9255 18.9311 34.2958 18.0051 34.2958 17.0422C34.2958 16.0793 33.9255 15.1533 33.2614 14.456C32.5974 13.7587 31.6906 13.3435 30.7289 13.2964C29.7274 13.3 28.765 13.685 28.0373 14.373C27.3364 15.0924 26.9493 16.0603 26.9607 17.0646C26.9631 18.0577 27.3592 19.0093 28.0623 19.7107C28.7653 20.412 29.7179 20.8059 30.711 20.8059" fill="#B86640"/>
<path d="M30.7294 12.6504C30.9317 12.6504 31.1257 12.57 31.2687 12.427C31.4117 12.284 31.4921 12.09 31.4921 11.8878V10.5151C31.4921 10.3128 31.4117 10.1188 31.2687 9.97581C31.1257 9.83279 30.9317 9.75244 30.7294 9.75244C30.5272 9.75244 30.3332 9.83279 30.1902 9.97581C30.0472 10.1188 29.9668 10.3128 29.9668 10.5151V11.8878C29.9602 11.9896 29.9755 12.0917 30.0115 12.1872C30.0475 12.2827 30.1034 12.3695 30.1756 12.4417C30.2478 12.5139 30.3345 12.5698 30.43 12.6058C30.5255 12.6418 30.6276 12.657 30.7294 12.6504Z" fill="#B86640"/>
<path d="M26.6018 13.9514C26.6693 14.0269 26.7523 14.0869 26.8453 14.1272C26.9382 14.1675 27.0388 14.1871 27.1401 14.1847C27.3391 14.1741 27.5274 14.0912 27.6694 13.9514C27.7419 13.8827 27.7996 13.7999 27.8391 13.7081C27.8785 13.6163 27.8989 13.5175 27.8989 13.4176C27.8989 13.3177 27.8785 13.2189 27.8391 13.1271C27.7996 13.0353 27.7419 12.9525 27.6694 12.8837L26.6736 11.8879C26.532 11.7463 26.3399 11.6667 26.1397 11.6667C25.9395 11.6667 25.7475 11.7463 25.6059 11.8879C25.4643 12.0295 25.3848 12.2215 25.3848 12.4217C25.3848 12.6219 25.4643 12.814 25.6059 12.9555L26.6018 13.9514Z" fill="#B86640"/>
<path d="M24.233 17.7735H25.5968C25.799 17.7735 25.993 17.6932 26.136 17.5502C26.279 17.4071 26.3594 17.2132 26.3594 17.0109C26.3594 16.8087 26.279 16.6147 26.136 16.4717C25.993 16.3286 25.799 16.2483 25.5968 16.2483H24.224C24.0218 16.2483 23.8278 16.3286 23.6848 16.4717C23.5418 16.6147 23.4614 16.8087 23.4614 17.0109C23.4614 17.2132 23.5418 17.4071 23.6848 17.5502C23.8278 17.6932 24.0218 17.7735 24.224 17.7735" fill="#B86640"/>
<path d="M26.4942 20.1423L25.5073 21.1382C25.4348 21.2069 25.3771 21.2897 25.3376 21.3815C25.2982 21.4732 25.2778 21.5721 25.2778 21.672C25.2778 21.7719 25.2982 21.8707 25.3376 21.9625C25.3771 22.0543 25.4348 22.1371 25.5073 22.2058C25.5739 22.2795 25.6558 22.3377 25.7472 22.3765C25.8386 22.4152 25.9374 22.4335 26.0366 22.4301C26.2374 22.4233 26.4288 22.3436 26.575 22.2058L27.5709 21.2099C27.6446 21.1434 27.7028 21.0615 27.7415 20.9701C27.7803 20.8786 27.7986 20.7798 27.7952 20.6806C27.8068 20.5895 27.7919 20.4969 27.7521 20.4141C27.7123 20.3313 27.6493 20.2618 27.5709 20.214C27.5185 20.1423 27.4495 20.0845 27.3698 20.0454C27.2901 20.0063 27.202 19.9872 27.1133 19.9897C27.0062 19.9546 26.8914 19.9502 26.7819 19.9772C26.6724 20.0041 26.5727 20.0614 26.4942 20.1423Z" fill="#B86640"/>
<path d="M29.9663 22.7351V24.2244C29.9663 24.4267 30.0467 24.6206 30.1897 24.7637C30.3327 24.9067 30.5266 24.987 30.7289 24.987C30.9312 24.987 31.1252 24.9067 31.2682 24.7637C31.4112 24.6206 31.4916 24.4267 31.4916 24.2244V22.771C31.4981 22.6691 31.4829 22.567 31.4469 22.4715C31.4109 22.376 31.355 22.2892 31.2828 22.2171C31.2106 22.1449 31.1239 22.0889 31.0284 22.0529C30.9329 22.0169 30.8308 22.0017 30.7289 22.0083C30.5363 22.0356 30.3578 22.1247 30.2202 22.2623C30.0827 22.3998 29.9936 22.5784 29.9663 22.771" fill="#B86640"/>
<path d="M33.8601 20.1422C33.7865 20.2103 33.7277 20.2928 33.6875 20.3847C33.6473 20.4765 33.6265 20.5758 33.6265 20.6761C33.6265 20.7763 33.6473 20.8755 33.6875 20.9674C33.7277 21.0593 33.7865 21.1418 33.8601 21.2099L34.856 22.2058C34.9226 22.2794 35.0044 22.3377 35.0959 22.3764C35.1873 22.4152 35.2861 22.4335 35.3853 22.4301C35.5861 22.4233 35.7775 22.3435 35.9237 22.2058C35.995 22.1364 36.0517 22.0534 36.0905 21.9617C36.1292 21.87 36.1491 21.7715 36.1491 21.6719C36.1491 21.5724 36.1292 21.4739 36.0905 21.3822C36.0517 21.2905 35.995 21.2075 35.9237 21.1381L35.0265 20.2409C34.9741 20.1692 34.9051 20.1113 34.8254 20.0722C34.7457 20.0332 34.6576 20.0141 34.5689 20.0166C34.4508 19.9764 34.324 19.9694 34.2022 19.9963C34.0804 20.0232 33.9682 20.083 33.878 20.1691" fill="#B86640"/>
<path d="M37.2603 16.2483H35.8876C35.6853 16.2483 35.4914 16.3286 35.3484 16.4717C35.2053 16.6147 35.125 16.8087 35.125 17.0109C35.125 17.2132 35.2053 17.4071 35.3484 17.5502C35.4914 17.6932 35.6853 17.7735 35.8876 17.7735H37.2603C37.3622 17.7801 37.4643 17.7649 37.5598 17.7289C37.6553 17.6929 37.7421 17.637 37.8142 17.5648C37.8864 17.4926 37.9424 17.4059 37.9784 17.3104C38.0143 17.2149 38.0295 17.1128 38.0229 17.0109C38.0229 16.8087 37.9426 16.6147 37.7996 16.4717C37.6565 16.3286 37.4626 16.2483 37.2603 16.2483Z" fill="#B86640"/>
<path d="M34.3985 14.1038C34.5965 14.0965 34.785 14.0166 34.9279 13.8795L35.9238 12.8835C35.9963 12.8148 36.054 12.732 36.0934 12.6402C36.1329 12.5485 36.1532 12.4496 36.1532 12.3497C36.1532 12.2498 36.1329 12.151 36.0934 12.0592C36.054 11.9674 35.9963 11.8847 35.9238 11.8159C35.8557 11.7422 35.7732 11.6835 35.6813 11.6433C35.5894 11.603 35.4902 11.5823 35.3899 11.5823C35.2896 11.5823 35.1905 11.603 35.0986 11.6433C35.0067 11.6835 34.9242 11.7422 34.8561 11.8159L33.8602 12.8028C33.7863 12.8716 33.7274 12.955 33.6871 13.0476C33.6468 13.1402 33.626 13.2401 33.626 13.3411C33.626 13.4421 33.6468 13.5421 33.6871 13.6347C33.7274 13.7273 33.7863 13.8106 33.8602 13.8795C33.9224 13.9608 34.0048 14.0243 34.0993 14.0637C34.1938 14.1031 34.297 14.1169 34.3985 14.1038Z" fill="#B86640"/>
</svg>
