<svg width="48" height="48" viewBox="0 0 48 48" fill="none" xmlns="http://www.w3.org/2000/svg">
<path d="M48 0H0V48H48V0Z" fill="#3B402E"/>
<g clip-path="url(#clip0_1324_37361)">
<path d="M33.6356 11.2964C33.7115 11.2768 33.7905 11.2725 33.868 11.2839C33.9456 11.2953 34.02 11.3221 34.0871 11.3626C34.1541 11.4032 34.2123 11.4568 34.2583 11.5203C34.3043 11.5837 34.3372 11.6557 34.355 11.732L35.439 16.0377C35.5015 16.2851 35.4764 16.5464 35.3681 16.7773C35.2599 17.0085 35.0782 17.1972 34.8514 17.3142L32.1058 18.682L31.4169 16.9597L33.7066 16.0478C33.8331 15.9978 33.9369 15.9032 33.9985 15.7819C34.0601 15.6606 34.0752 15.521 34.0409 15.3893L33.2 12.0156C33.1632 11.8625 33.1884 11.7011 33.2699 11.5664C33.3515 11.4317 33.4829 11.3347 33.6356 11.2964ZM32.8353 15.1867L27.6785 17.2129C27.6088 17.2386 27.5449 17.2781 27.491 17.3292C27.437 17.3803 27.394 17.4419 27.3646 17.5101C27.3353 17.5784 27.3201 17.6519 27.32 17.7262C27.32 17.8005 27.3351 17.8741 27.3645 17.9424C27.4208 18.0798 27.5287 18.1896 27.665 18.2483C27.8014 18.307 27.9554 18.31 28.0939 18.2565L30.3734 17.3345L31.1028 19.148L28.1952 20.5968C28.1102 20.6395 28.037 20.7025 27.9822 20.7802C27.9274 20.858 27.8927 20.9481 27.8811 21.0425L27.3746 26.1081H22.309C22.2288 26.0973 22.1473 26.1038 22.0698 26.1271C21.9923 26.1504 21.9208 26.1901 21.8599 26.2433C21.799 26.2966 21.7502 26.3622 21.7168 26.4359C21.6833 26.5095 21.666 26.5895 21.666 26.6704C21.666 26.7513 21.6833 26.8312 21.7168 26.9049C21.7502 26.9785 21.799 27.0442 21.8599 27.0974C21.9208 27.1507 21.9923 27.1903 22.0698 27.2136C22.1473 27.2369 22.2288 27.2435 22.309 27.2327H27.3746L27.7292 31.0622C27.7418 31.2011 27.8061 31.3301 27.9093 31.4239C28.0124 31.5177 28.147 31.5694 28.2864 31.5688H28.337C28.4103 31.5624 28.4816 31.5416 28.5468 31.5076C28.612 31.4735 28.6699 31.4269 28.717 31.3704C28.7641 31.3139 28.7995 31.2486 28.8212 31.1784C28.843 31.1081 28.8506 31.0342 28.8436 30.9609L28.4586 26.6653L28.9854 21.4174L35.3681 18.226C35.8185 17.9942 36.176 17.6153 36.3812 17.1521C36.5947 16.6894 36.6447 16.1679 36.523 15.673L35.439 11.3672C35.3637 11.0777 35.2139 10.813 35.0045 10.5994C34.795 10.3858 34.5333 10.2308 34.2453 10.1499C33.9574 10.0689 33.6532 10.0648 33.3631 10.1379C33.0731 10.2111 32.8072 10.359 32.5921 10.5669C32.3742 10.7715 32.2144 11.0303 32.1289 11.3168C32.0435 11.6033 32.0355 11.9074 32.1058 12.198L32.8353 15.1867Z" fill="currentColor"/>
<path d="M33.0986 33.6961L34.2333 32.9363H35.1857V37.9005C34.8588 37.7811 34.576 37.5649 34.3751 37.2808C34.1742 36.9966 34.0647 36.6579 34.0611 36.3099V35.7426C34.0615 35.6577 34.0406 35.5741 34.0003 35.4995L33.0986 33.6961ZM20.2219 10.8807C20.1103 10.2999 20.1922 9.69846 20.4549 9.16856L20.8298 8.40872C22.182 9.02348 23.6502 9.34129 25.1355 9.34077H25.9156C26.4352 9.34816 26.9321 9.55491 27.3036 9.91826C27.6674 10.2846 27.8715 10.7799 27.8715 11.2961C27.8715 11.8124 27.6674 12.3077 27.3036 12.674V12.1573C27.3033 12.0816 27.288 12.0068 27.2584 11.9373C27.2288 11.8677 27.1856 11.8047 27.1314 11.752C27.0794 11.7003 27.0177 11.6594 26.9499 11.6316C26.8821 11.6038 26.8095 11.5896 26.7362 11.5899H26.5134C25.3066 11.5966 24.1251 11.2439 23.1194 10.5768C23.0274 10.5123 22.9178 10.4777 22.8054 10.4777C22.693 10.4777 22.5833 10.5123 22.4913 10.5768L20.8095 11.6912C20.731 11.7404 20.6678 11.8106 20.6271 11.8938C20.4218 11.5887 20.2836 11.2434 20.2219 10.8807ZM26.1993 14.9332C26.1968 15.3271 26.0918 15.7136 25.8947 16.0547C25.6975 16.3958 25.4149 16.6796 25.0747 16.8784C24.733 17.0757 24.3454 17.1796 23.9508 17.1797C23.5562 17.1798 23.1686 17.0761 22.8267 16.879C22.4849 16.682 22.201 16.3984 22.0034 16.0569C21.8058 15.7153 21.7015 15.3278 21.701 14.9332V12.4207L22.8358 11.671C23.8558 12.2819 25.0115 12.63 26.1993 12.6841V14.9332ZM25.0747 18.3069C25.0813 18.5114 25.0319 18.7138 24.9319 18.8924C24.832 19.0709 24.6852 19.2187 24.5074 19.32C24.3352 19.4149 24.1418 19.4646 23.9451 19.4646C23.7485 19.4646 23.555 19.4149 23.3828 19.32C23.2077 19.2166 23.0635 19.068 22.9655 18.8898C22.8675 18.7115 22.8192 18.5102 22.8256 18.3069V18.1043C23.5522 18.3674 24.3481 18.3674 25.0747 18.1043V18.3069ZM21.3667 37.3738C21.4961 37.3121 21.5967 37.2029 21.6476 37.0689C21.6986 36.935 21.6959 36.7865 21.6403 36.6544L20.1307 33.1389L23.1093 31.0012L24.3858 34.1926C24.6343 34.8193 25.0659 35.3566 25.6244 35.7343C26.1828 36.112 26.8422 36.3126 27.5164 36.3099H32.9163C32.9163 37.0542 33.2119 37.7681 33.7382 38.2944C34.2645 38.8207 34.9783 39.1163 35.7226 39.1163C35.8733 39.1153 36.018 39.0574 36.1279 38.9542C36.2304 38.8481 36.2884 38.7067 36.29 38.5591V32.3791C36.2903 32.3058 36.2761 32.2332 36.2483 32.1654C36.2204 32.0976 36.1795 32.0359 36.1279 31.984C36.0752 31.9297 36.0122 31.8865 35.9426 31.8569C35.873 31.8273 35.7982 31.812 35.7226 31.8118H34.0408C33.9285 31.8143 33.8194 31.8495 33.7268 31.9131L32.2274 32.9262L28.4991 32.3892C28.3514 32.3704 28.2022 32.4105 28.0837 32.5007C27.9947 32.5684 27.9277 32.661 27.8911 32.7667C27.8546 32.8724 27.85 32.9866 27.8782 33.0949C27.9063 33.2031 27.9659 33.3007 28.0493 33.3752C28.1328 33.4498 28.2364 33.498 28.3471 33.5138L31.9842 34.0304L32.5718 35.2057H27.5062C27.0569 35.2086 26.6173 35.0758 26.2448 34.8245C25.8724 34.5732 25.5846 34.2152 25.4192 33.7974L23.8793 29.9375C23.8458 29.8601 23.7958 29.791 23.7328 29.7349C23.6698 29.6789 23.5953 29.6374 23.5145 29.6133C23.4327 29.5886 23.3463 29.5831 23.2619 29.5971C23.1776 29.6112 23.0977 29.6444 23.0283 29.6943L19.0974 32.5007C18.9934 32.5755 18.9177 32.6833 18.8828 32.8065C18.8478 32.9298 18.8556 33.0612 18.9049 33.1794L20.384 36.6241L19.0467 37.2927L16.676 33.9089C16.3831 33.4923 16.2402 32.9887 16.2708 32.4804C16.3016 31.9739 16.5014 31.4924 16.8381 31.1127L20.4043 27.1514C20.4554 27.0917 20.4943 27.0225 20.5186 26.9477C20.5429 26.8729 20.5523 26.7941 20.5461 26.7158L19.9788 21.6502C19.9734 21.5733 19.9505 21.4986 19.9118 21.4319C19.8732 21.3652 19.8199 21.3082 19.7559 21.2652L17.7296 19.7556V17.0101L20.2726 18.2866C20.3504 18.3276 20.4383 18.3451 20.5259 18.3373H21.6504C21.6491 18.7333 21.7524 19.1228 21.9498 19.4661C22.1473 19.8095 22.432 20.0945 22.775 20.2926C23.1174 20.4903 23.506 20.5943 23.9014 20.594C24.2969 20.5936 24.6852 20.489 25.0273 20.2907C25.3695 20.0924 25.6533 19.8074 25.8501 19.4645C26.047 19.1215 26.15 18.7327 26.1486 18.3373V17.4761C26.5004 17.1607 26.7822 16.775 26.9759 16.344C27.1696 15.913 27.2709 15.4462 27.2732 14.9737V14.0518C27.9331 13.7688 28.4715 13.2613 28.793 12.6193C29.1145 11.9773 29.1984 11.2422 29.0296 10.5443C28.8609 9.84636 28.4506 9.23072 27.8713 8.80645C27.292 8.38218 26.5813 8.17666 25.865 8.22637H25.0849C23.5926 8.23743 22.1194 7.88998 20.7892 7.21325C20.6494 7.15743 20.4935 7.15743 20.3536 7.21325C20.2835 7.23665 20.2187 7.27381 20.163 7.32251C20.1073 7.37122 20.0619 7.43052 20.0294 7.49695L19.4013 8.75321C18.999 9.5481 18.8913 10.4598 19.0974 11.3265C19.3095 12.1894 19.8143 12.9521 20.5259 13.4844V15.0548C20.5283 15.8864 20.8386 16.6877 21.3971 17.3039H20.6677L17.4358 15.693C17.3465 15.6363 17.2428 15.6061 17.137 15.6061C17.0311 15.6061 16.9274 15.6363 16.8381 15.693C16.7497 15.7511 16.6804 15.834 16.639 15.9314C16.5975 16.0287 16.5857 16.1361 16.6051 16.2401V19.0769L13.8798 17.3748C13.3548 17.0456 12.9142 16.5979 12.5931 16.0679L10.4859 12.5423C10.3934 12.385 10.3671 12.1975 10.4127 12.0209C10.4582 11.8442 10.572 11.6929 10.729 11.6001C10.8841 11.5044 11.0705 11.473 11.2484 11.5128C11.4263 11.5525 11.5817 11.6602 11.6813 11.8128L13.8798 15.3283C13.9417 15.4311 14.0337 15.5124 14.1432 15.5613L15.1563 15.9565C15.2598 16.0043 15.3755 16.0192 15.4878 15.9992C15.6001 15.9793 15.7035 15.9253 15.7841 15.8447C15.8647 15.764 15.9187 15.6606 15.9387 15.5483C15.9587 15.4361 15.9437 15.3204 15.8959 15.2169C15.8309 15.0777 15.7148 14.9688 15.5717 14.9129L14.7308 14.5786L12.6337 11.2151C12.4659 10.9407 12.2284 10.7155 11.9455 10.5625C11.6626 10.4095 11.3443 10.3341 11.0228 10.3438C10.7028 10.3488 10.3899 10.4398 10.1172 10.6074C9.84443 10.775 9.62185 11.0129 9.47275 11.2961C9.31368 11.5737 9.22998 11.888 9.22998 12.2079C9.22998 12.5278 9.31368 12.8422 9.47275 13.1197L11.5902 16.6454C12.0057 17.3241 12.5705 17.8993 13.2415 18.3271L16.7672 20.5256L18.7934 22.0655L19.3 26.6347L15.906 30.4035C15.3961 30.9618 15.0892 31.6756 15.0348 32.4298C14.9925 33.1903 15.2066 33.9429 15.6426 34.5674L17.6689 37.5156C17.0132 37.6476 16.425 38.0063 16.0073 38.5287C15.5826 39.0337 15.3495 39.6722 15.3488 40.3321C15.3488 40.4061 15.3636 40.4794 15.3922 40.5477C15.4208 40.6159 15.4628 40.6778 15.5156 40.7297C15.5684 40.7815 15.631 40.8224 15.6998 40.8498C15.7686 40.8772 15.8421 40.8906 15.9162 40.8893H22.0962C22.1695 40.8901 22.2423 40.8762 22.3102 40.8484C22.3781 40.8205 22.4397 40.7793 22.4913 40.7272C22.543 40.6752 22.5839 40.6136 22.6117 40.5458C22.6395 40.478 22.6537 40.4053 22.6534 40.3321V38.6503C22.6642 38.5701 22.6577 38.4885 22.6344 38.4111C22.611 38.3336 22.5715 38.262 22.5182 38.2011C22.465 38.1402 22.3993 38.0915 22.3256 38.058C22.252 38.0246 22.172 38.0073 22.0911 38.0073C22.0102 38.0073 21.9303 38.0246 21.8566 38.058C21.7829 38.0915 21.7173 38.1402 21.664 38.2011C21.6108 38.262 21.5712 38.3336 21.5479 38.4111C21.5245 38.4885 21.5181 38.5701 21.5288 38.6503V39.7749H16.5747C16.6849 39.4436 16.8978 39.1562 17.1826 38.9542C17.4785 38.7459 17.834 38.6393 18.1957 38.6503H18.763C18.8487 38.6472 18.9323 38.6228 19.0062 38.5794L21.3667 37.3738Z" fill="currentColor"/>
<path d="M13.2621 28.9956C13.1515 28.996 13.0433 28.9634 12.9513 28.9021C12.8593 28.8407 12.7876 28.7533 12.7454 28.6511C12.7036 28.5474 12.6929 28.4338 12.7145 28.3241C12.736 28.2144 12.789 28.1133 12.8669 28.0331C12.9484 27.9574 13.0494 27.9058 13.1586 27.8844C13.2678 27.8629 13.3808 27.8723 13.4849 27.9116C13.5872 27.9567 13.6741 28.0304 13.7353 28.1239C13.7964 28.2174 13.8291 28.3267 13.8294 28.4384C13.8294 28.5125 13.8147 28.5858 13.786 28.654C13.7574 28.7223 13.7154 28.7841 13.6626 28.836C13.6098 28.8879 13.5472 28.9288 13.4784 28.9562C13.4096 28.9836 13.3361 28.997 13.2621 28.9956ZM10.4557 22.8156H13.8294V23.93H10.4557V22.8156ZM8.77395 27.3139C8.65217 27.3239 8.53041 27.2943 8.42677 27.2296C8.32314 27.1649 8.24315 27.0684 8.19875 26.9545C8.15436 26.8407 8.14791 26.7156 8.18036 26.5978C8.2128 26.4799 8.2824 26.3758 8.37882 26.3008C8.45514 26.2201 8.55459 26.1652 8.66345 26.1434C8.77231 26.1216 8.88524 26.1341 8.9867 26.1791C9.0889 26.2213 9.17622 26.293 9.23756 26.385C9.29891 26.4771 9.33149 26.5852 9.33115 26.6958C9.33013 26.8465 9.27223 26.9913 9.16905 27.1011C9.0629 27.2036 8.92153 27.2616 8.77395 27.2632V27.3139ZM14.3866 21.6404H9.8985C9.74803 21.6404 9.60373 21.7001 9.49734 21.8065C9.39094 21.9129 9.33115 22.0573 9.33115 22.2077V25.1154C9.15218 25.0514 8.96397 25.0172 8.77395 25.0141C8.5516 25.0126 8.33123 25.0558 8.12588 25.1411C7.92053 25.2264 7.73439 25.352 7.57848 25.5105C7.26262 25.8243 7.08407 26.2506 7.08203 26.6958C7.08203 27.1445 7.26029 27.5749 7.57758 27.8922C7.89488 28.2095 8.32523 28.3878 8.77395 28.3878C9.2192 28.3857 9.64546 28.2072 9.95928 27.8913C10.1178 27.7354 10.2434 27.5493 10.3287 27.3439C10.414 27.1386 10.4572 26.9182 10.4557 26.6958V25.0141H13.8294V26.7972C13.6469 26.7332 13.4554 26.699 13.2621 26.6958C12.8168 26.6979 12.3905 26.8764 12.0767 27.1922C11.7602 27.5098 11.5818 27.9395 11.5803 28.3878C11.5829 28.833 11.761 29.2592 12.0758 29.574C12.3906 29.8889 12.8168 30.0669 13.2621 30.0695C13.7104 30.068 14.14 29.8896 14.4575 29.5731C14.7734 29.2593 14.9519 28.833 14.954 28.3878V22.2077C14.9537 22.1321 14.9383 22.0573 14.9088 21.9877C14.8792 21.9181 14.836 21.8552 14.7817 21.8025C14.6703 21.7225 14.5332 21.6864 14.3967 21.7012L14.3866 21.6404Z" fill="currentColor"/>
<path d="M38.833 23.9298L37.3741 24.7707L37.0905 24.2844C37.0353 24.1479 37.0353 23.9954 37.0905 23.8589C37.108 23.7863 37.1405 23.7182 37.1859 23.6589C37.2312 23.5996 37.2885 23.5504 37.3539 23.5145L39.7043 22.1569C39.7647 22.5008 39.7184 22.855 39.5717 23.1719C39.425 23.4888 39.185 23.7532 38.8837 23.9298H38.833ZM38.4278 29.1575C38.3954 29.2821 38.3209 29.3917 38.2169 29.4676C38.1129 29.5435 37.9858 29.581 37.8572 29.5738C37.7287 29.5666 37.6066 29.5151 37.5117 29.428C37.4169 29.3409 37.3551 29.2237 37.3369 29.0963C37.3186 28.9688 37.3451 28.839 37.4118 28.7288C37.4785 28.6187 37.5813 28.535 37.7027 28.4921C37.8241 28.4492 37.9566 28.4496 38.0777 28.4934C38.1988 28.5371 38.301 28.6214 38.367 28.732C38.4051 28.7934 38.4301 28.8619 38.4406 28.9334C38.451 29.0048 38.4467 29.0777 38.4278 29.1474V29.1575ZM39.6537 20.86L36.7359 22.5418C36.3526 22.7682 36.0733 23.1358 35.9577 23.5657C35.8422 23.9956 35.8997 24.4536 36.1179 24.8416L36.6852 25.8548L37.5768 27.4048C37.3453 27.4493 37.1258 27.5417 36.9321 27.6761C36.7385 27.8104 36.575 27.9837 36.4522 28.1849C36.3279 28.3875 36.2483 28.6144 36.2186 28.8502C36.1889 29.0861 36.2098 29.3255 36.28 29.5526C36.3533 29.7759 36.4726 29.9814 36.6301 30.1558C36.7877 30.3302 36.9801 30.4696 37.1949 30.5651C37.4097 30.6606 37.6421 30.7099 37.8771 30.71C38.1122 30.7102 38.3446 30.661 38.5595 30.5657C38.776 30.4707 38.9699 30.331 39.1288 30.1559C39.2876 29.9808 39.4078 29.7742 39.4814 29.5496C39.555 29.3249 39.5804 29.0873 39.556 28.8521C39.5316 28.617 39.4578 28.3896 39.3396 28.1849L37.9415 25.7534L39.4004 24.9125C40.0434 24.535 40.5127 23.9203 40.7073 23.2004C40.8025 22.8446 40.8264 22.4734 40.7777 22.1083C40.7291 21.7432 40.6087 21.3913 40.4236 21.0728C40.388 21.0073 40.3393 20.9498 40.2806 20.9038C40.222 20.8578 40.1545 20.8244 40.0824 20.8054C40.0103 20.7864 39.9351 20.7824 39.8613 20.7935C39.7876 20.8047 39.7169 20.8307 39.6537 20.8702V20.86Z" fill="currentColor"/>
<path d="M15.2272 11.0026H15.7946V11.57C15.7946 11.7177 15.8533 11.8595 15.9578 11.964C16.0623 12.0685 16.204 12.1272 16.3518 12.1272C16.4995 12.1272 16.6413 12.0685 16.7458 11.964C16.8503 11.8595 16.909 11.7177 16.909 11.57V11.0026H17.4763C17.6241 11.0026 17.7659 10.9439 17.8704 10.8394C17.9749 10.7349 18.0335 10.5932 18.0335 10.4454C18.0336 10.2967 17.9752 10.1539 17.871 10.0478C17.7668 9.94164 17.625 9.88073 17.4763 9.87808H16.909V9.32087C16.909 9.17309 16.8503 9.03135 16.7458 8.92686C16.6413 8.82236 16.4995 8.76367 16.3518 8.76367C16.204 8.76367 16.0623 8.82236 15.9578 8.92686C15.8533 9.03135 15.7946 9.17309 15.7946 9.32087V9.87808H15.2272C15.1532 9.87806 15.0799 9.89279 15.0116 9.92142C14.9434 9.95006 14.8815 9.99203 14.8296 10.0448C14.7777 10.0977 14.7369 10.1603 14.7095 10.2291C14.6821 10.2978 14.6687 10.3714 14.67 10.4454C14.6686 10.519 14.6821 10.5921 14.7096 10.6603C14.7371 10.7285 14.7781 10.7904 14.8301 10.8425C14.8822 10.8945 14.9441 10.9355 15.0124 10.963C15.0806 10.9906 15.1537 11.004 15.2272 11.0026Z" fill="currentColor"/>
<path d="M10.4652 33.5039H9.90796V32.9365C9.88964 32.8004 9.82255 32.6755 9.71914 32.5851C9.61574 32.4946 9.48305 32.4448 9.34569 32.4448C9.20832 32.4448 9.0756 32.4946 8.9722 32.5851C8.86879 32.6755 8.8017 32.8004 8.78338 32.9365V33.5039H8.19579C8.05965 33.5222 7.93477 33.5893 7.84435 33.6927C7.75392 33.7961 7.7041 33.9288 7.7041 34.0662C7.7041 34.2035 7.75392 34.3362 7.84435 34.4396C7.93477 34.5431 8.05965 34.6101 8.19579 34.6284H8.76313V35.1856C8.75235 35.2658 8.75883 35.3474 8.78215 35.4248C8.80546 35.5023 8.84508 35.5739 8.89834 35.6347C8.95159 35.6956 9.01723 35.7445 9.09089 35.7779C9.16455 35.8113 9.24451 35.8287 9.3254 35.8287C9.4063 35.8287 9.48626 35.8113 9.55992 35.7779C9.63358 35.7445 9.69925 35.6956 9.7525 35.6347C9.80576 35.5739 9.84538 35.5023 9.86869 35.4248C9.89201 35.3474 9.89849 35.2658 9.88771 35.1856V34.6284H10.4449C10.5251 34.6392 10.6066 34.6328 10.6841 34.6094C10.7616 34.5861 10.8331 34.5465 10.894 34.4933C10.9549 34.44 11.0037 34.3743 11.0372 34.3006C11.0706 34.227 11.0879 34.1471 11.0879 34.0662C11.0879 33.9853 11.0706 33.9053 11.0372 33.8316C11.0037 33.758 10.9549 33.6923 10.894 33.6391C10.8331 33.5858 10.7616 33.5462 10.6841 33.5229C10.6066 33.4996 10.5251 33.4931 10.4449 33.5039" fill="currentColor"/>
<path d="M31.8121 29.573C31.9609 29.568 32.1023 29.5066 32.2077 29.4013C32.313 29.2959 32.3744 29.1546 32.3794 29.0057V28.4485H32.9366C33.0168 28.4593 33.0984 28.4528 33.1758 28.4295C33.2533 28.4061 33.3249 28.3665 33.3858 28.3133C33.4466 28.26 33.4954 28.1944 33.5289 28.1207C33.5623 28.047 33.5796 27.9671 33.5796 27.8862C33.5796 27.8053 33.5623 27.7253 33.5289 27.6517C33.4954 27.578 33.4466 27.5124 33.3858 27.4591C33.3249 27.4059 33.2533 27.3663 33.1758 27.3429C33.0984 27.3196 33.0168 27.3131 32.9366 27.3239H32.3794V26.7565C32.3611 26.6204 32.294 26.4956 32.1906 26.4051C32.0872 26.3147 31.9545 26.2649 31.8171 26.2649C31.6798 26.2649 31.5471 26.3147 31.4436 26.4051C31.3402 26.4956 31.2732 26.6204 31.2549 26.7565V27.3239H30.6875C30.5514 27.3422 30.4265 27.4093 30.3361 27.5127C30.2456 27.6161 30.1958 27.7489 30.1958 27.8862C30.1958 28.0236 30.2456 28.1562 30.3361 28.2597C30.4265 28.3631 30.5514 28.4302 30.6875 28.4485H31.2549V28.9956C31.2546 29.0688 31.2687 29.1415 31.2965 29.2093C31.3244 29.2771 31.3653 29.3387 31.417 29.3907C31.4677 29.4447 31.5289 29.4877 31.5968 29.5173C31.6648 29.5469 31.738 29.5624 31.8121 29.5629" fill="currentColor"/>
<path d="M39.1169 12.1575C39.2277 12.1558 39.3365 12.1878 39.4288 12.2493C39.5211 12.3108 39.5925 12.3989 39.6336 12.5019C39.6764 12.604 39.6878 12.7164 39.6665 12.825C39.6452 12.9336 39.592 13.0334 39.5138 13.1116C39.4355 13.1899 39.3358 13.243 39.2272 13.2644C39.1186 13.2857 39.0061 13.2742 38.9041 13.2314C38.7838 13.1829 38.6843 13.0939 38.6226 12.9798C38.5609 12.8657 38.5409 12.7337 38.5661 12.6064C38.5913 12.4792 38.6601 12.3647 38.7607 12.2828C38.8612 12.2008 38.9872 12.1565 39.1169 12.1575ZM39.1169 14.3965C39.5635 14.3966 39.9926 14.222 40.3124 13.9102C40.626 13.5916 40.8009 13.1618 40.7986 12.7147C40.7986 12.2687 40.6214 11.8409 40.3061 11.5255C39.9907 11.2101 39.5629 11.033 39.1169 11.033C38.6708 11.033 38.2431 11.2101 37.9277 11.5255C37.6123 11.8409 37.4351 12.2687 37.4351 12.7147C37.4329 13.1618 37.6077 13.5916 37.9214 13.9102C38.2412 14.222 38.6702 14.3966 39.1169 14.3965Z" fill="currentColor"/>
<path d="M8.78391 7.65908C8.76559 7.79522 8.69853 7.92007 8.59512 8.01049C8.49172 8.10092 8.359 8.1508 8.22164 8.1508C8.08427 8.1508 7.95158 8.10092 7.84818 8.01049C7.74477 7.92007 7.67768 7.79522 7.65936 7.65908C7.64858 7.57891 7.65506 7.49736 7.67838 7.4199C7.7017 7.34244 7.74132 7.27086 7.79457 7.20997C7.84782 7.14907 7.91346 7.10026 7.98712 7.06682C8.06078 7.03338 8.14074 7.01611 8.22164 7.01611C8.30253 7.01611 8.38249 7.03338 8.45615 7.06682C8.52981 7.10026 8.59548 7.14907 8.64874 7.20997C8.70199 7.27086 8.74158 7.34244 8.76489 7.4199C8.78821 7.49736 8.79469 7.57891 8.78391 7.65908Z" fill="currentColor"/>
<path d="M9.61469 16.6254C9.61204 16.7742 9.5511 16.9159 9.44499 17.0201C9.33887 17.1243 9.19608 17.1827 9.04735 17.1827C8.91121 17.1644 8.78633 17.0973 8.69591 16.9939C8.60548 16.8905 8.55566 16.7577 8.55566 16.6204C8.55566 16.483 8.60548 16.3504 8.69591 16.247C8.78633 16.1435 8.91121 16.0764 9.04735 16.0581C9.19782 16.0581 9.34214 16.1179 9.44854 16.2243C9.55494 16.3307 9.61469 16.475 9.61469 16.6254Z" fill="#B86640"/>
<path d="M34.0608 23.018C34.0716 23.0982 34.0651 23.1797 34.0417 23.2572C34.0184 23.3347 33.9788 23.4062 33.9256 23.4671C33.8723 23.528 33.8067 23.5768 33.733 23.6103C33.6593 23.6437 33.5794 23.6611 33.4985 23.6611C33.4176 23.6611 33.3376 23.6437 33.264 23.6103C33.1903 23.5768 33.1246 23.528 33.0714 23.4671C33.0181 23.4062 32.9786 23.3347 32.9552 23.2572C32.9319 23.1797 32.9254 23.0982 32.9362 23.018C32.9545 22.8819 33.0216 22.757 33.125 22.6666C33.2284 22.5762 33.3611 22.5264 33.4985 22.5264C33.6359 22.5264 33.7685 22.5762 33.8719 22.6666C33.9754 22.757 34.0424 22.8819 34.0608 23.018Z" fill="#B86640"/>
<path d="M34.0609 8.21647C34.0629 8.32952 34.031 8.44058 33.9695 8.53542C33.9079 8.63026 33.8194 8.70456 33.7154 8.74875C33.6113 8.79294 33.4964 8.80501 33.3854 8.78344C33.2744 8.76188 33.1724 8.70763 33.0924 8.62768C33.0125 8.54773 32.9583 8.44575 32.9367 8.33476C32.9151 8.22377 32.9272 8.10888 32.9714 8.00481C33.0156 7.90073 33.0899 7.81222 33.1847 7.75066C33.2796 7.6891 33.3906 7.65727 33.5037 7.65927C33.6506 7.66187 33.7908 7.72142 33.8948 7.82536C33.9987 7.9293 34.0583 8.0695 34.0609 8.21647Z" fill="#B86640"/>
</g>
<defs>
<clipPath id="clip0_1324_37361">
<rect width="33.7064" height="33.7064" fill="white" transform="translate(7.0918 7.0918)"/>
</clipPath>
</defs>
</svg>
