<svg width="14" height="14" viewBox="0 0 14 14" fill="none" xmlns="http://www.w3.org/2000/svg">
    <path fill-rule="evenodd" clip-rule="evenodd"
          d="M6.99967 0.335327C3.31967 0.335327 0.333008 3.32199 0.333008 7.00199C0.333008 10.682 3.31967 13.6687 6.99967 13.6687C10.6797 13.6687 13.6663 10.682 13.6663 7.00199C13.6663 3.32199 10.6797 0.335327 6.99967 0.335327ZM6.99967 7.66866C6.63301 7.66866 6.33301 7.36866 6.33301 7.00199V4.33533C6.33301 3.96866 6.63301 3.66866 6.99967 3.66866C7.36634 3.66866 7.66634 3.96866 7.66634 4.33533V7.00199C7.66634 7.36866 7.36634 7.66866 6.99967 7.66866ZM6.33301 9.00199V10.3353H7.66634V9.00199H6.33301Z"
          fill="currentColor"/>
</svg>
