<svg width="48" height="48" viewBox="0 0 48 48" fill="none" xmlns="http://www.w3.org/2000/svg">
<path d="M48 0H0V48H48V0Z" fill="#3B402E"/>
<path d="M27.0684 31.8506C27.2209 31.9314 27.2927 32.0031 27.4362 32.0031C27.5578 32.0011 27.6765 31.9657 27.7793 31.9009C27.8822 31.836 27.9652 31.7442 28.0194 31.6353C28.0514 31.5228 28.055 31.4041 28.03 31.2898C28.0049 31.1755 27.952 31.0692 27.8759 30.9804L26.9787 30.2536C27.2112 30.1655 27.4568 30.117 27.7054 30.1101C28.1331 30.11 28.5467 30.2627 28.8717 30.5407C29.1642 30.8576 29.3219 31.276 29.3114 31.7071C29.3202 32.0283 29.2256 32.3439 29.0415 32.6072C28.8573 32.8705 28.5933 33.0676 28.2886 33.1695C27.9955 33.2927 27.6718 33.3235 27.3608 33.2578C27.0497 33.192 26.7662 33.0329 26.548 32.8017C26.3323 32.5867 26.1829 32.3143 26.1177 32.0168C26.0525 31.7194 26.0741 31.4094 26.1802 31.1239L27.0684 31.8506ZM28.8628 29.0155C28.4088 28.8371 27.9169 28.7771 27.4335 28.8415C26.95 28.9059 26.4908 29.0924 26.0994 29.3833L24.4217 27.9927C24.3235 27.9028 24.1959 27.8517 24.0628 27.8491H22.6003C22.4457 27.8491 22.2973 27.9106 22.188 28.02C22.0786 28.1293 22.0172 28.2777 22.0172 28.4323C22.0159 28.5092 22.0302 28.5856 22.0591 28.6569C22.088 28.7282 22.1309 28.793 22.1853 28.8474C22.2397 28.9018 22.3044 28.9447 22.3757 28.9736C22.447 29.0025 22.5234 29.0167 22.6003 29.0155H23.7757L25.2291 30.2536C25.0289 30.6189 24.9122 31.024 24.8874 31.4398C24.8626 31.8555 24.9303 32.2717 25.0856 32.6581C25.3003 33.1797 25.6625 33.6273 26.1278 33.946C26.5932 34.2648 27.1415 34.4408 27.7054 34.4525C28.4597 34.4525 29.1831 34.1529 29.7165 33.6195C30.2499 33.0861 30.5495 32.3627 30.5495 31.6084C30.5189 31.0643 30.3396 30.539 30.0311 30.0897C29.7226 29.6404 29.2968 29.2844 28.8 29.0604" fill="currentColor"/>
<path d="M30.2714 36.8746V37.6103H29.5447V36.8746H30.2714ZM19.5051 23.4166H18.7066V21.6222H19.5051V23.4166ZM30.2086 35.7262H19.3526C18.5318 35.7182 17.7185 35.5695 16.9481 35.2866C16.2149 35.0134 15.546 34.5919 14.9832 34.0484C14.4199 33.5539 13.9727 32.9412 13.6733 32.254C13.2077 31.2416 13.0837 30.1052 13.32 29.0162C13.5562 27.9272 14.1399 26.9444 14.9832 26.2159C15.5623 25.6935 16.227 25.2748 16.9481 24.9778C17.3157 24.8092 17.7109 24.7089 18.1144 24.6817C18.7078 24.5883 19.3099 24.5642 19.9088 24.6099H19.9806C20.5796 24.6841 21.1672 24.8318 21.7301 25.0495L31.5993 27.6694L32.0299 27.8129C32.1735 27.8847 32.2542 27.8846 32.3978 27.9564C32.7755 28.1787 33.1409 28.4213 33.4924 28.6831C33.9071 29.0414 34.2301 29.4936 34.4344 30.0021C34.6519 30.508 34.7641 31.0529 34.7641 31.6035C34.7641 32.1542 34.6519 32.6991 34.4344 33.2051C34.2022 33.695 33.883 34.1388 33.4924 34.5149C33.0499 34.8818 32.5575 35.1839 32.0299 35.4121C31.4438 35.573 30.8424 35.6723 30.2355 35.7082L30.2086 35.7262ZM31.8505 21.2275C31.7483 20.007 31.5044 18.8027 31.1238 17.6387C30.9713 17.199 30.8277 16.8402 30.6841 16.4723L31.1238 15.5751C31.4246 16.1478 31.668 16.7489 31.8505 17.3695C32.6081 19.7684 32.8316 22.3039 32.5055 24.7983C32.4291 25.3667 32.3061 25.9279 32.1376 26.4761L31.4109 26.2608C31.5506 25.7338 31.6495 25.1969 31.7069 24.6547C31.9723 23.5349 32.021 22.3746 31.8505 21.2364V21.2275ZM30.5406 14.0589L29.5178 16.3198L28.7911 17.9168C28.7744 17.9667 28.7474 18.0126 28.7119 18.0514C28.6765 18.0902 28.6333 18.1212 28.5851 18.1423C28.5369 18.1634 28.4848 18.1743 28.4322 18.1741C28.3796 18.1739 28.3277 18.1626 28.2797 18.1411L27.9208 17.9886L31.2673 10.7123L31.6352 10.8559L31.8505 11.0712V11.3673L30.5406 14.0589ZM18.1144 20.411H16.7327C16.7584 19.845 16.8548 19.2843 17.0199 18.7423L22.1249 19.9086C22.1992 19.9393 22.2645 19.9883 22.3147 20.051C22.3649 20.1138 22.3984 20.1883 22.412 20.2675V20.411H18.1144ZM18.6976 36.8656H19.4961V37.6013H18.6976V36.8656ZM35.4393 29.4548C35.1494 28.8146 34.7274 28.2428 34.2012 27.777C33.9326 27.4956 33.6088 27.2726 33.2501 27.122C33.4765 26.4629 33.624 25.7793 33.6898 25.0854C34.0312 22.3937 33.7832 19.6599 32.963 17.0735C32.6764 16.0661 32.2345 15.1095 31.6531 14.2383L32.8105 11.762C32.9838 11.3752 32.9971 10.9355 32.8475 10.5389C32.6979 10.1422 32.3976 9.82077 32.012 9.64467L31.1148 9.21403C31.0483 9.17455 30.9723 9.15369 30.895 9.15369C30.8176 9.15369 30.7417 9.17455 30.6752 9.21403C30.5273 9.26781 30.4012 9.36869 30.3163 9.50114L26.5301 17.9437C26.4907 18.0103 26.4698 18.0862 26.4698 18.1635C26.4698 18.2409 26.4907 18.3168 26.5301 18.3834C26.5834 18.5339 26.6842 18.663 26.8172 18.7512L27.7144 19.1819C27.9238 19.2655 28.1446 19.3169 28.3694 19.3344C28.6767 19.3242 28.9753 19.2302 29.2331 19.0626C29.4908 18.895 29.6979 18.6601 29.8318 18.3834L29.9754 18.0245C30.3359 19.0828 30.5561 20.1837 30.6303 21.2992C30.7132 22.4145 30.6892 23.5351 30.5585 24.6458C30.4997 25.1375 30.4006 25.6237 30.2625 26.0993L22.2595 23.919C21.7581 23.7395 21.2456 23.5926 20.7253 23.4794V21.685H22.6184C22.9089 21.6661 23.1885 21.5666 23.4258 21.3979C23.6233 21.1801 23.7265 20.8931 23.7129 20.5995V20.3752C23.7141 20.0171 23.5915 19.6697 23.3659 19.3917C23.1402 19.1137 22.8254 18.9223 22.4748 18.8499L17.2352 17.6836C16.9659 17.626 16.6848 17.6678 16.444 17.8014C16.2032 17.935 16.0189 18.1513 15.9253 18.4103C15.7349 19.0996 15.6117 19.8057 15.5574 20.5187C15.5497 20.6663 15.5719 20.8139 15.6228 20.9527C15.6737 21.0915 15.7522 21.2186 15.8535 21.3262C16.0624 21.5457 16.3491 21.6746 16.652 21.685H17.5492V23.6499C17.2448 23.7317 16.9453 23.8306 16.652 23.946C15.7982 24.2958 15.0096 24.7872 14.3193 25.3994C13.6657 26.0072 13.1223 26.7235 12.7133 27.5168C12.3192 28.3467 12.1147 29.2538 12.1147 30.1725C12.1147 31.0912 12.3192 31.9984 12.7133 32.8282C13.1004 33.6325 13.6468 34.3498 14.3193 34.9366C15.0115 35.5486 15.7996 36.0427 16.652 36.3991C16.9371 36.5338 17.2388 36.6303 17.5492 36.6862V37.7807C17.556 38.0689 17.6735 38.3434 17.8774 38.5472C18.0812 38.751 18.3556 38.8685 18.6438 38.8753H19.6666C19.9552 38.8535 20.232 38.7509 20.4651 38.5793C20.5633 38.4717 20.6392 38.3457 20.6884 38.2087C20.7377 38.0716 20.7594 37.9262 20.7522 37.7807V36.8835H28.3963V37.7807C28.4031 38.0689 28.5206 38.3434 28.7245 38.5472C28.9283 38.751 29.2027 38.8685 29.4909 38.8753H30.5137C30.8023 38.8535 31.0791 38.7509 31.3122 38.5793C31.4116 38.4721 31.4889 38.3465 31.5397 38.2095C31.5905 38.0724 31.6138 37.9268 31.6083 37.7807V36.7579C31.9169 36.6954 32.2178 36.5991 32.5055 36.4709C33.151 36.1901 33.7548 35.8217 34.2998 35.3763C34.813 34.8986 35.2329 34.3297 35.538 33.6985C35.8329 33.0326 35.9793 32.3104 35.9669 31.5822C35.9545 30.854 35.7836 30.1372 35.4662 29.4817" fill="currentColor"/>
<path d="M18.3296 25.5162C17.9815 25.5759 17.6413 25.6752 17.3158 25.8123C16.6552 26.0297 16.045 26.3774 15.5214 26.835C15.053 27.2606 14.68 27.7804 14.4268 28.3603C14.1454 28.9167 13.998 29.5312 13.9962 30.1547C13.995 30.2316 14.0092 30.308 14.0381 30.3793C14.067 30.4506 14.1099 30.5154 14.1643 30.5698C14.2187 30.6242 14.2834 30.667 14.3547 30.6959C14.426 30.7248 14.5024 30.7391 14.5793 30.7379C14.7318 30.7229 14.879 30.6738 15.01 30.5943C15.064 30.5356 15.1049 30.466 15.1296 30.3901C15.1544 30.3143 15.1625 30.234 15.1535 30.1547C15.1473 29.7008 15.2488 29.2519 15.4496 28.8448C15.6803 28.4079 15.9837 28.0134 16.3468 27.6784C16.7197 27.3196 17.1669 27.047 17.6567 26.8799C17.9528 26.8082 18.1681 26.7274 18.4642 26.6556C18.547 26.6453 18.6266 26.6177 18.698 26.5744C18.7693 26.5312 18.8307 26.4733 18.8781 26.4047C18.9256 26.3361 18.958 26.2583 18.9732 26.1763C18.9885 26.0943 18.9862 26.01 18.9666 25.9289C18.9394 25.7876 18.8631 25.6605 18.7513 25.57C18.6924 25.5176 18.6203 25.4824 18.5428 25.4682C18.4653 25.4539 18.3853 25.4612 18.3117 25.4892" fill="currentColor"/>
</svg>
