<svg width="506" height="189" viewBox="0 0 506 189" fill="none" xmlns="http://www.w3.org/2000/svg">
    <g clip-path="url(#clip0_1207_38288)">
        <g clip-path="url(#clip1_1207_38288)">
            <path d="M468.574 24.4116C468.191 24.155 467.789 23.9575 467.321 23.7009C466.846 24.1747 466.431 24.5564 466.048 24.9513C451.981 39.794 434.236 49.0493 412.814 52.7172C408.183 53.549 403.497 54.0395 398.794 54.1848C395.926 54.2374 393.057 54.4743 390.222 54.402C372.418 53.9479 355.82 49.7951 340.825 41.1014C335.379 37.9678 330.336 34.1819 325.81 29.8279C325.533 29.5581 325.21 29.3607 324.755 28.9921C324.247 29.591 323.792 30.0977 323.357 30.6242C313.789 42.2926 307.267 55.1456 304.346 69.3872C303.289 74.2561 302.669 79.2094 302.493 84.1882C302.44 86.8207 302.111 89.4071 302.275 92.0001C302.585 97.265 302.988 102.53 303.673 107.762C304.656 115.284 306.001 122.767 307.122 130.269C307.94 135.85 308.81 141.457 309.41 147.045C310.122 153.718 309.483 160.24 305.817 166.347C303.633 169.915 300.657 172.934 297.119 175.173C291.876 178.575 285.955 180.806 279.802 182.524C271.18 184.826 262.409 186.53 253.551 187.624C239.646 189.506 225.719 191.307 211.77 193.027C196.887 194.87 182.05 196.976 167.326 199.655C156.472 201.629 145.684 203.88 135.1 206.762C131.583 207.723 128.079 208.754 124.589 209.855C124.206 209.987 123.824 210.112 123.27 210.309C123.274 210.831 123.305 211.351 123.362 211.869C124.905 220.569 126.284 229.263 128.051 237.911C131.513 254.851 135.238 271.758 138.812 288.678C139.175 290.455 139.525 292.232 139.848 294.028H171.295C171.17 293.067 171.058 292.107 170.966 291.146C169.152 270.652 176.109 252.692 191.21 237.259C199.525 228.776 210.201 223.439 222.347 220.438C228.944 218.702 235.736 217.817 242.559 217.805C250.312 217.925 257.973 219.499 265.144 222.445C278.035 227.664 286.964 236.45 293.901 247.072C299.585 255.752 303.363 265.098 306.179 274.792C307.979 281.122 309.451 287.54 310.591 294.022H330.921C331.158 288.421 331.323 282.834 331.718 277.22C332.286 269.283 333.116 261.386 334.356 253.528C336.822 237.963 340.034 222.524 343.502 207.124C349.82 178.684 359.219 151.014 371.534 124.603C376.605 113.843 382.302 103.333 389.859 93.7112C394.475 87.7881 399.625 82.2929 405.962 77.7453C411.952 73.4216 419.107 70.9977 426.496 70.789C431.416 70.585 435.728 72.1974 439.843 74.3955C445.395 77.3636 449.319 81.6742 452.497 86.5904C456.454 92.6911 458.979 99.292 461.136 106.011C464.478 116.681 467.11 127.559 469.016 138.575C470.743 147.96 472.194 157.384 473.157 166.874C473.737 172.488 474.337 178.062 474.792 183.722C475.175 188.434 475.498 193.166 475.59 197.897C475.827 209.546 475.933 221.214 476.006 232.883C476.058 238.806 476.006 244.683 475.88 250.566C475.788 255.733 475.643 260.899 475.478 266.065C475.372 269.579 475.32 273.113 475.043 276.595C474.588 282.413 474.067 288.211 473.539 294.028H515.65V45.649C509.679 43.8963 503.801 41.8448 498.037 39.5022C487.761 35.4113 477.896 30.3586 468.574 24.4116Z"
                  fill="#F1CAC1"/>
            <path d="M342.882 11.9074C357.086 1.19987 373.216 -6.55931 390.525 -12.41C400.835 -15.8036 411.353 -18.5338 422.013 -20.5838C422.386 -20.636 422.763 -20.6668 423.14 -20.6759C432.418 -5.65112 444.532 7.30717 459.672 18.324C457.127 20.4958 454.825 22.6347 452.319 24.5761C441.775 32.8287 429.557 38.6902 416.513 41.7529C410.258 43.1715 403.864 43.8889 397.449 43.8918C393.691 43.9247 389.919 43.9445 386.16 43.7602C375.691 43.2011 365.366 41.0758 355.53 37.4554C346.881 34.2946 338.932 29.4818 332.127 23.2862C331.872 23.0712 331.635 22.8519 331.415 22.6281C331.299 22.4572 331.201 22.274 331.125 22.0819C334.824 18.4451 338.751 15.0468 342.882 11.9074ZM484.855 -24.9471C480.899 -12.1401 475.722 0.146881 466.431 10.9466C453.355 1.34465 442.243 -9.5669 433.256 -22.1961C439.777 -24.5851 472.023 -26.3291 484.855 -24.9471ZM297.851 -41.5118C288.3 -31.525 279.895 -20.5058 272.793 -8.6587C269.52 -3.10224 266.574 2.63966 263.97 8.53785L268.856 10.4595C271.05 5.41842 273.54 0.511269 276.314 -4.23616C282.407 -14.3743 289.474 -23.8961 297.416 -32.6667C297.618 -32.9046 297.864 -33.1013 298.141 -33.2459C297.904 -12.2454 305.223 6.47137 319.295 23.1612C317.765 25.0829 316.282 26.8927 314.884 28.7617C304.992 42.0754 298.504 56.5737 295.761 72.375C294.457 80.046 293.982 87.8344 294.343 95.6065C294.745 104.083 296.103 112.494 297.706 120.865C299.308 129.236 300.897 137.607 302.322 145.998C302.981 149.894 303.298 153.843 302.487 157.772C301.635 161.883 299.285 165.531 295.892 168.012C291.006 171.816 285.197 174.067 279.15 175.91C272.317 177.97 265.338 179.51 258.273 180.517C247.636 182.129 236.973 183.583 226.298 185.031C198.464 188.782 170.722 193.073 143.527 199.687C140.276 200.471 137.045 201.359 133.834 202.261L135.047 206.723C145.631 203.84 156.419 201.609 167.273 199.615C181.998 196.983 196.835 194.831 211.718 192.988C225.662 191.264 239.589 189.463 253.498 187.585C262.345 186.491 271.105 184.789 279.717 182.491C285.869 180.773 291.791 178.542 297.033 175.14C300.571 172.901 303.547 169.882 305.731 166.314C309.397 160.207 310.037 153.685 309.325 147.012C308.725 141.398 307.854 135.824 307.037 130.237C305.916 122.734 304.57 115.251 303.588 107.729C302.928 102.464 302.5 97.1991 302.19 91.9671C302.025 89.3741 302.355 86.768 302.407 84.1553C302.583 79.1765 303.203 74.2232 304.26 69.3543C307.182 55.1061 313.703 42.2597 323.271 30.5913C323.707 30.0648 324.162 29.5581 324.669 28.9592C325.124 29.3211 325.447 29.5251 325.724 29.795C330.251 34.149 335.293 37.9349 340.739 41.0685C355.735 49.7293 372.312 53.9149 390.136 54.369C393.005 54.4414 395.873 54.2045 398.709 54.1518C403.44 54.0227 408.155 53.541 412.814 52.7105C434.258 49.0514 452.003 39.7983 466.048 24.9513C466.431 24.5564 466.846 24.1747 467.321 23.7008C467.789 23.9575 468.192 24.1549 468.574 24.4116C477.896 30.3585 487.761 35.4113 498.037 39.5022C503.801 41.8447 509.679 43.8963 515.65 45.649V34.3228C507.291 31.8089 499.099 28.7757 491.119 25.2408C485.498 22.6822 480.047 19.7674 474.799 16.5142C474.441 16.2779 474.095 16.0231 473.764 15.7508C482.317 3.64941 488.37 -10.0314 491.568 -24.493C499.712 -23.7559 507.737 -22.7226 515.65 -21.1826V-26.1448C513.434 -26.5989 511.186 -26.9609 508.93 -27.2834C503.813 -27.9941 498.676 -28.5535 493.533 -29.1919C493.21 -29.1919 492.874 -29.2775 492.445 -29.3367C492.61 -31.311 492.775 -33.2459 492.939 -35.1676C493.045 -36.4838 493.23 -37.8 493.302 -39.1558C493.427 -41.3802 493.605 -43.6309 493.573 -45.8751C493.52 -49.2118 493.447 -52.5484 493.137 -55.8587C492.798 -60.0717 492.168 -64.2563 491.251 -68.3827H484.717C485.919 -63.7701 486.738 -59.066 487.163 -54.3187C487.57 -49.3644 487.625 -44.3876 487.328 -39.4256C487.143 -36.3456 486.602 -33.2854 486.18 -29.9685C481.373 -30.2054 476.705 -30.5345 472.036 -30.6266C467.367 -30.7187 462.6 -30.699 457.878 -30.5542C453.157 -30.4094 448.475 -30.1396 443.787 -29.7381C439.098 -29.3367 434.456 -28.7049 429.536 -28.1652C429.154 -28.7246 428.666 -29.3564 428.264 -30.0474C421.419 -42.1633 416.553 -54.865 414.667 -68.3827H406.661C407.565 -54.1213 411.976 -40.6036 419.025 -27.6651C419.17 -27.3952 419.296 -27.1254 419.533 -26.6516C418.155 -26.362 416.863 -26.0922 415.577 -25.8355C401.973 -23.3018 388.666 -19.8598 375.906 -14.8911C361.267 -9.20494 347.782 -1.88011 335.781 7.52435C332.259 10.295 328.989 13.3223 325.467 16.3497C324.722 15.4941 323.904 14.6057 323.179 13.7172C316.277 4.87407 311.332 -5.32969 308.672 -16.2204C307.523 -21.0033 306.788 -25.8759 306.476 -30.7845C306.199 -34.266 306.694 -37.675 306.694 -41.1367C306.694 -42.0778 307.307 -42.6898 308.012 -43.3085C317.446 -51.9165 327.815 -59.444 338.926 -65.7502C340.509 -66.6321 342.104 -67.5074 343.72 -68.3827H331.791C324.109 -63.806 316.814 -58.6116 309.978 -52.8511C309.687 -52.6011 309.364 -52.4036 308.744 -51.9495C308.85 -52.6537 308.89 -53.0881 308.982 -53.4895C310.236 -58.6064 311.974 -63.593 314.171 -68.3827L307.511 -68.3827C303.642 -60.946 300.959 -52.9526 299.559 -44.6905C299.336 -43.4772 298.739 -42.3636 297.851 -41.5052"
                  fill="#B86640"/>
            <path d="M473.764 15.7311C474.093 16.0122 474.439 16.2737 474.799 16.5142C480.047 19.7674 485.498 22.6822 491.12 25.2408C499.099 28.7757 507.291 31.8089 515.65 34.3228V-21.1826C507.675 -22.6936 499.628 -23.805 491.542 -24.5127C488.344 -10.0512 482.291 3.62967 473.737 15.7311"
                  fill="#F2C2A6"/>
            <path d="M466.431 10.9465C475.722 0.146881 480.866 -12.1401 484.855 -24.947C472.023 -26.3225 439.777 -24.5851 433.256 -22.1961C442.244 -9.5669 453.355 1.34465 466.431 10.9465Z"
                  fill="#3B402E"/>
            <path d="M475.504 266.045C475.669 260.879 475.814 255.713 475.907 250.547C475.999 244.663 476.085 238.773 476.032 232.863C475.959 221.195 475.854 209.526 475.616 197.878C475.524 193.146 475.201 188.414 474.818 183.702C474.363 178.068 473.763 172.468 473.183 166.854C472.22 157.377 470.77 147.953 469.042 138.555C467.136 127.548 464.503 116.679 461.162 106.018C459.006 99.2986 456.48 92.6977 452.524 86.5969C449.345 81.6808 445.422 77.3833 439.869 74.4021C435.761 72.204 431.442 70.5916 426.523 70.7956C419.137 70.9946 411.982 73.407 405.988 77.719C399.651 82.2665 394.515 87.7552 389.886 93.6848C382.329 103.306 376.631 113.817 371.567 124.577C359.25 150.993 349.853 178.67 343.542 207.118C340.073 222.517 336.862 237.957 334.396 253.521C333.156 261.386 332.325 269.316 331.758 277.213C331.362 282.814 331.197 288.401 330.96 294.015H335.576C335.774 290.442 335.939 286.855 336.189 283.288C336.539 278.523 336.974 273.739 337.409 268.974C338.279 259.727 339.948 250.547 341.708 241.432C344.524 226.894 347.703 212.415 351.461 198.069C356.268 179.727 361.557 161.504 368.672 143.741C373.717 131.132 379.618 118.845 387.136 107.216C392.22 99.3183 398.082 91.954 405.804 85.8467C409.152 83.1214 412.944 80.989 417.014 79.5419C424.604 76.9095 431.416 78.3639 437.456 82.8325C440.681 85.2619 443.335 88.3662 445.23 91.9277C447.809 96.7738 449.854 101.884 451.33 107.17C455.643 121.734 458.056 136.554 460.259 151.428C461.261 158.147 462.079 164.906 462.824 171.652C463.569 178.397 464.182 185.169 464.71 191.941C465.125 197.206 465.369 202.471 465.547 207.736C465.765 214.245 465.962 220.747 465.962 227.236C465.962 240.063 465.778 252.903 465.705 265.723C465.675 274.164 465.675 282.614 465.705 291.073C465.705 292.054 465.745 293.048 465.778 294.028H473.533C474.06 288.211 474.581 282.413 475.036 276.595C475.313 273.1 475.366 269.566 475.471 266.065"
                  fill="#B86640"/>
            <path d="M465.718 265.716C465.791 252.89 465.956 240.05 465.976 227.23C465.976 220.741 465.778 214.238 465.56 207.73C465.376 202.465 465.138 197.2 464.723 191.935C464.195 185.161 463.567 178.397 462.837 171.645C462.092 164.9 461.274 158.141 460.272 151.421C458.056 136.561 455.656 121.74 451.323 107.209C449.847 101.924 447.802 96.8133 445.224 91.9671C443.328 88.4057 440.675 85.3014 437.449 82.872C431.389 78.377 424.577 76.9094 417.007 79.5814C412.936 81.0258 409.144 83.1585 405.797 85.8861C398.075 91.9935 392.213 99.3709 387.129 107.255C379.612 118.884 373.71 131.171 368.665 143.781C361.55 161.55 356.268 179.766 351.455 198.108C347.696 212.455 344.518 226.933 341.702 241.465C339.941 250.599 338.273 259.767 337.403 269.013C336.967 273.778 336.532 278.563 336.183 283.327C335.932 286.894 335.767 290.481 335.569 294.055H366.503C366.648 292.837 366.793 291.639 366.938 290.428C367.742 283.742 368.553 277.049 369.371 270.349C369.971 265.42 370.551 260.478 371.171 255.548C374.673 227.822 380.779 200.642 392.866 174.751C395.843 168.086 399.409 161.699 403.522 155.666C405.873 152.155 408.746 149.022 412.042 146.374C414.581 144.399 417.541 143.511 420.792 143.083C424.043 142.655 426.674 143.886 428.818 145.946C430.961 148.006 431.996 150.46 432.939 153.014C434.526 157.563 435.568 162.284 436.045 167.078C436.625 172.08 437.04 177.094 437.423 182.116C437.766 186.723 437.931 191.329 438.26 195.903C439.203 208.533 439.203 221.162 439.019 233.798C438.926 240.445 438.359 247.111 437.838 253.765C437.476 258.655 437.06 263.551 436.46 268.421C435.537 275.963 434.442 283.459 433.394 290.981C433.249 291.995 433.104 293.008 432.939 294.028H465.817C465.817 293.048 465.745 292.054 465.745 291.073C465.692 282.61 465.692 274.16 465.745 265.723"
                  fill="#F2C2A6"/>
            <path d="M332.095 23.2862C338.899 29.4818 346.848 34.2946 355.497 37.4554C365.333 41.0758 375.659 43.2011 386.127 43.7602C389.886 43.9445 393.658 43.9247 397.416 43.8918C403.831 43.8922 410.226 43.1747 416.48 41.7529C429.524 38.6902 441.743 32.8287 452.287 24.5761C454.792 22.6347 457.094 20.4958 459.639 18.324C444.473 7.30717 432.385 -5.65112 423.107 -20.6693C422.73 -20.6653 422.353 -20.6368 421.98 -20.5838C411.322 -18.5336 400.807 -15.8034 390.499 -12.41C373.163 -6.55932 357.06 1.19986 342.856 11.9403C338.723 15.0816 334.793 18.4821 331.092 22.1213C331.169 22.3135 331.266 22.4967 331.382 22.6676C331.598 22.8826 331.835 23.1019 332.095 23.3257"
                  fill="#8FB7B4"/>
            <path d="M436.453 268.414C437.053 263.544 437.469 258.648 437.832 253.758C438.326 247.105 438.92 240.438 439.012 233.791C439.197 221.162 439.197 208.526 438.254 195.897C437.924 191.29 437.759 186.683 437.416 182.109C437.034 177.088 436.618 172.073 436.038 167.071C435.562 162.277 434.519 157.557 432.932 153.007C431.989 150.454 430.895 147.933 428.811 145.939C426.727 143.945 424.07 142.649 420.786 143.076C417.502 143.504 414.574 144.393 412.035 146.367C408.753 149.017 405.892 152.148 403.549 155.653C399.435 161.686 395.869 168.073 392.892 174.738C380.799 200.629 374.699 227.809 371.197 255.535C370.578 260.464 369.997 265.407 369.397 270.336C368.58 277.044 367.769 283.737 366.964 290.415C366.819 291.633 366.674 292.824 366.529 294.041H370.927C371.125 292.725 371.343 291.409 371.54 290.093C373.196 279.405 374.772 268.711 376.499 258.042C378.777 243.956 381.825 230.005 385.632 216.252C390.006 200.007 396.079 184.266 403.753 169.289C406.509 163.978 409.615 158.832 413.882 154.324C415.436 152.54 417.372 151.128 419.546 150.191C422.236 149.157 424.3 150.335 424.993 152.218C425.428 153.376 425.903 154.521 426.246 155.699C427.716 160.714 428.191 165.86 428.587 170.994C429.009 176.555 429.246 182.135 429.424 187.716C429.642 195.107 429.714 202.517 429.859 209.928C429.859 210.494 429.892 211.033 429.892 211.58C429.892 217.647 429.985 223.742 429.859 229.809C429.747 235.206 429.424 240.589 429.154 245.992C429.009 248.888 428.844 251.804 428.587 254.706C428.132 259.708 427.591 264.729 427.096 269.724C426.753 273.348 426.435 276.972 426.14 280.596C425.771 285.078 425.481 289.553 425.118 294.028H432.965C433.13 293.015 433.275 291.995 433.42 290.981C434.469 283.465 435.563 275.963 436.486 268.421"
                  fill="#B86640"/>
            <path d="M427.064 269.717C427.558 264.722 428.099 259.701 428.554 254.699C428.811 251.797 428.976 248.882 429.121 245.986C429.391 240.583 429.715 235.199 429.827 229.803C429.952 223.735 429.86 217.641 429.86 211.573C429.86 211.027 429.827 210.487 429.827 209.921C429.682 202.511 429.609 195.1 429.391 187.71C429.227 182.129 428.976 176.522 428.554 170.987C428.158 165.854 427.684 160.707 426.213 155.692C425.87 154.514 425.395 153.369 424.96 152.211C424.268 150.329 422.204 149.151 419.513 150.184C417.341 151.121 415.405 152.531 413.849 154.31C409.583 158.825 406.477 163.971 403.72 169.282C396.047 184.259 389.973 200 385.6 216.246C381.793 230.001 378.744 243.954 376.467 258.042C374.739 268.711 373.17 279.405 371.508 290.093C371.31 291.409 371.092 292.725 370.895 294.041H385.837C386.668 289.639 387.485 285.216 388.415 280.833C391.007 268.289 393.75 255.785 398.597 243.755C399.508 241.651 400.527 239.595 401.65 237.595C403.081 234.962 405.916 234.475 408.745 234.423C409.515 234.398 410.275 234.601 410.929 235.008C411.583 235.414 412.101 236.006 412.418 236.706C413.232 238.422 413.835 240.229 414.212 242.09C414.897 246.029 415.358 250.004 415.59 253.995C415.9 260.787 416.025 267.605 416.012 274.397C416.012 279.543 415.722 284.69 415.465 289.856C415.412 291.251 415.3 292.646 415.194 294.041H425.085C425.435 289.566 425.745 285.091 426.108 280.609C426.398 276.99 426.716 273.366 427.064 269.737"
                  fill="#F1CAC1"/>
            <path d="M307.999 -43.3414C307.34 -42.7227 306.68 -42.1107 306.68 -41.163C306.68 -37.7079 306.186 -34.2989 306.463 -30.8174C306.774 -25.9088 307.509 -21.0361 308.659 -16.2533C311.319 -5.36259 316.263 4.84117 323.166 13.6843C323.891 14.6057 324.709 15.4941 325.454 16.3168C328.975 13.2895 332.246 10.2621 335.767 7.49146C347.769 -1.91301 361.254 -9.23783 375.893 -14.924C388.652 -19.8927 401.96 -23.3347 415.563 -25.8684C416.849 -26.1251 418.142 -26.3949 419.52 -26.6845C419.282 -27.1583 419.157 -27.4281 419.012 -27.698C411.976 -40.6036 407.565 -54.1213 406.661 -68.3827H343.713C342.098 -67.5337 340.502 -66.6584 338.919 -65.7502C327.806 -59.4572 317.434 -51.9406 307.999 -43.3414Z"
                  fill="#F1CAC1"/>
            <path d="M252.898 67.0311C252.206 73.2437 251.771 79.4761 251.223 85.6953C250.63 92.7042 250.102 99.7197 249.43 106.755C249 111.6 248.054 116.385 246.608 121.029C245.045 125.972 242.921 130.724 239.268 134.764C233.993 140.595 226.977 143.695 218.787 144.926C209.878 146.288 200.903 145.959 191.995 145.182C181.642 144.294 171.421 142.55 161.233 140.793C145.657 138.114 130.115 135.324 114.322 133.909C113.662 133.856 113.003 133.784 112.126 133.692C114.955 157.792 118.351 181.563 122.38 205.505C123.165 205.288 123.699 205.156 124.2 205.012C127.444 204.123 130.682 203.182 133.913 202.294C137.144 201.405 140.356 200.504 143.607 199.72C170.801 193.106 198.549 188.815 226.377 185.064C237.053 183.616 247.715 182.162 258.352 180.549C265.418 179.543 272.397 178.003 279.229 175.943C285.276 174.08 291.098 171.829 295.972 168.045C299.364 165.564 301.714 161.915 302.566 157.805C303.383 153.856 303.054 149.908 302.401 146.031C300.963 137.64 299.368 129.269 297.785 120.898C296.202 112.527 294.824 104.116 294.422 95.6394C294.061 87.8673 294.536 80.0789 295.84 72.4079C298.563 56.6132 305.025 42.1346 314.963 28.7946C316.361 26.9256 317.844 25.1157 319.374 23.194C305.302 6.50425 297.983 -12.2126 298.22 -33.213C297.943 -33.0684 297.697 -32.8717 297.495 -32.6339C289.553 -23.8632 282.486 -14.3414 276.393 -4.20329C273.622 0.545544 271.131 5.45255 268.935 10.4924C266.72 15.4941 264.755 20.5682 262.849 25.6751C257.861 39.0137 254.539 52.9147 252.958 67.064"
                  fill="#3B402E"/>
            <path d="M103.052 -32.7194C100.533 -30.3304 100.514 -30.3502 100.639 -27.1254C100.843 -21.9592 100.988 -16.8127 101.206 -11.6465C101.424 -6.26974 101.727 -0.866615 101.984 4.51677C102.149 8.34042 102.241 12.1641 102.439 15.9877C102.617 19.5547 102.874 23.1217 103.099 26.6755C103.171 27.9917 103.171 29.354 103.244 30.6966C103.514 35.9615 103.771 41.2264 104.094 46.4914C104.455 52.4144 104.868 58.3374 105.334 64.2605C105.712 69.4069 106.116 74.5402 106.547 79.6604C107.147 86.4389 107.8 93.1978 108.453 99.9566C108.893 104.647 109.352 109.352 109.831 114.073C110.214 117.936 110.649 121.793 111.084 125.649C111.189 126.159 111.323 126.662 111.486 127.157C113.102 127.321 114.718 127.519 116.333 127.663C130.28 128.841 144.075 130.954 157.876 133.066C169.37 134.824 180.956 136.324 192.483 137.831C195.641 138.226 198.892 138.213 202.084 138.371C204.062 138.463 206.04 138.68 208.018 138.588C211.836 138.391 215.701 138.338 219.426 137.667C228.882 135.942 235.49 130.96 239.123 122.991C241.034 118.671 242.288 114.09 242.842 109.401C243.7 102.819 244.333 96.2383 244.985 89.6571C245.605 83.4445 246.113 77.2253 246.641 70.993C248.209 53.1552 252.531 35.6666 259.453 19.1467C260.924 15.5928 262.407 12.0588 263.99 8.56418C266.594 2.66599 269.54 -3.07591 272.813 -8.63237C279.915 -20.4795 288.32 -31.4987 297.871 -41.4855C298.755 -42.3518 299.345 -43.4725 299.559 -44.6905C300.959 -52.9526 303.642 -60.946 307.511 -68.3827H274.864C259.596 -57.0017 247.553 -43.3633 238.734 -27.4676C234.217 -19.2741 230.511 -10.7778 226.865 -2.26182C222.908 7.01761 218.879 16.2181 213.795 25.0631C209.337 33.0114 203.842 40.3343 197.455 46.8402C191.005 53.2568 183.673 58.6862 174.612 61.9768C168.328 64.2802 161.793 65.0568 155.153 63.5036C148.124 61.8518 142.894 57.9162 138.958 52.6645C133.979 46.0307 130.728 38.7848 129.95 30.8085C129.207 23.7148 129.944 16.5445 132.113 9.74879C136.577 -4.24274 144.385 -16.5758 155.423 -27.2899C163.112 -34.753 172.093 -40.8405 181.688 -46.1844C191.493 -51.6402 201.47 -56.7669 211.447 -62.0253C215.298 -64.0523 219.11 -66.1385 222.796 -68.3827H165.077C153.808 -64.5244 142.903 -59.6793 132.489 -53.9041C121.721 -47.889 111.77 -40.9853 103.052 -32.7194Z"
                  fill="#F2C2A6"/>
            <path d="M181.688 -46.1844C172.094 -40.8405 163.112 -34.753 155.437 -27.3031C144.398 -16.5956 136.591 -4.26907 132.126 9.73562C129.953 16.5419 129.217 23.7237 129.963 30.8282C130.742 38.798 133.992 46.0438 138.971 52.6776C142.928 57.9426 148.137 61.8913 155.166 63.5168C161.807 65.0699 168.355 64.2934 174.626 61.99C183.686 58.6994 191.019 53.2568 197.468 46.8533C203.856 40.3455 209.351 33.0203 213.808 25.0697C218.892 16.2246 222.941 7.02419 226.878 -2.25523C230.511 -10.7712 234.217 -19.2675 238.747 -27.4611C247.54 -43.3874 259.583 -57.0258 274.877 -68.3761H265.645C262.032 -65.3685 258.622 -62.1766 255.352 -58.8597C244.424 -47.8177 235.477 -34.9844 228.902 -20.9194C223.673 -9.83014 218.642 1.31175 213.175 12.3154C207.318 24.3189 199.006 34.9653 188.777 43.5693C184.138 47.4935 178.968 50.7459 173.419 53.2305C169.211 55.1891 164.517 55.8623 159.927 55.1653C155.753 54.5072 152.087 53.191 149.093 50.4532C146.926 48.4827 145.044 46.2213 143.501 43.7339C140.125 38.1301 138.17 31.7891 137.804 25.2606C137.497 19.7865 138.106 14.2996 139.604 9.02486C143.561 -5.38128 152.133 -17.3919 163.877 -27.7375C168.779 -31.971 174.007 -35.8131 179.512 -39.2282C188.744 -45.0591 198.371 -50.2647 208.144 -55.2796C215.398 -58.9979 222.651 -62.6044 229.456 -66.9348L231.692 -68.3827H222.796C219.11 -66.1385 215.299 -64.0523 211.448 -62.0253C201.497 -56.7603 191.494 -51.6402 181.688 -46.1844Z"
                  fill="#B86640"/>
            <path d="M22.933 142.425L27.76 141.865C27.76 141.536 27.6875 141.207 27.6545 140.852C53.5234 133.382 79.8869 131.118 106.996 133.152C107.029 133.494 107.068 133.81 107.088 134.165L112.099 133.692C113.003 133.784 113.642 133.856 114.295 133.909C130.088 135.324 145.631 138.114 161.206 140.793C171.394 142.556 181.648 144.294 191.968 145.182C200.877 145.959 209.851 146.288 218.767 144.926C226.95 143.695 233.98 140.595 239.242 134.764C242.895 130.724 245.018 125.972 246.581 121.029C248.038 116.377 248.993 111.583 249.43 106.729C250.089 99.7197 250.63 92.7042 251.223 85.6689C251.771 79.4498 252.206 73.2174 252.898 67.0048C254.48 52.8555 257.802 38.9545 262.79 25.6159C264.695 20.509 266.66 15.4349 268.876 10.4332L263.99 8.51151C262.414 12.0061 260.923 15.5402 259.453 19.094C252.51 35.6411 248.177 53.1616 246.607 71.0325C246.08 77.2648 245.572 83.484 244.952 89.6966C244.293 96.2778 243.666 102.859 242.809 109.44C242.255 114.13 241.001 118.71 239.09 123.03C235.457 131 228.849 135.982 219.393 137.706C215.668 138.364 211.803 138.43 207.992 138.627C206.014 138.72 204.035 138.502 202.057 138.41C198.866 138.246 195.615 138.266 192.456 137.871C180.91 136.364 169.343 134.863 157.85 133.106C144.048 130.98 130.253 128.881 116.307 127.703C114.691 127.558 113.075 127.361 111.46 127.196C111.295 126.703 111.163 126.199 111.064 125.689C110.622 121.832 110.187 117.976 109.811 114.113C109.319 109.401 108.857 104.695 108.427 99.9961C107.767 93.2373 107.108 86.4784 106.521 79.6998H101.859C102.004 81.6018 102.162 83.5037 102.347 85.4123C102.947 92.0592 103.6 98.7062 104.213 105.34C104.688 110.25 105.143 115.146 105.617 120.036C105.835 122.142 106.053 124.261 106.277 126.702C79.2803 125.09 52.864 127.137 26.9555 134.771C26.0983 122.846 25.2872 111.158 24.4299 99.2327L19.9459 99.5354C20.7108 111.697 21.4889 123.84 22.267 136.265C8.89165 140.699 -3.63593 147.358 -14.7856 155.962L-12.6227 160.53C-2.1975 152.783 9.42168 146.781 21.7791 142.76C22.089 142.655 22.4385 142.583 22.8869 142.471"
                  fill="#B86640"/>
            <path d="M208.143 -55.2796C198.371 -50.2647 188.717 -45.0591 179.511 -39.2282C174.004 -35.8153 168.777 -31.973 163.877 -27.7375C152.146 -17.3919 143.56 -5.36153 139.603 9.02486C138.105 14.2996 137.497 19.7865 137.803 25.2606C138.178 31.7891 140.143 38.1279 143.527 43.7273C145.07 46.2147 146.952 48.4761 149.119 50.4466C152.113 53.1844 155.779 54.527 159.953 55.1588C164.543 55.8557 169.237 55.1825 173.445 53.2239C178.993 50.7393 184.163 47.487 188.803 43.5628C199.032 34.9587 207.343 24.3123 213.201 12.3089C218.668 1.30518 223.699 -9.83672 228.928 -20.926C235.503 -34.9909 244.449 -47.8243 255.377 -58.8663C258.674 -62.1569 262.057 -65.3751 265.671 -68.3827H231.704L229.462 -66.9348C222.67 -62.6044 215.377 -58.9979 208.15 -55.2796"
                  fill="#3B402E"/>
            <path d="M21.027 -37.3986C20.7699 -34.3713 20.6116 -31.3242 20.427 -28.3035C20.0643 -22.4331 19.7214 -16.5429 19.3917 -10.6726C19.2862 -8.78376 19.2664 -6.90155 19.2136 -5.01934C19.0686 0.146858 18.8839 5.31306 18.8114 10.4793C18.6663 20.0285 18.5213 29.5646 18.541 39.1073C18.541 46.3465 18.7784 53.5858 18.9367 60.8251C19.0488 65.5043 19.2136 70.1769 19.3389 74.8495C19.484 80.1144 19.6093 85.4189 19.7544 90.7101C19.8071 92.0263 19.9522 93.3426 20.0643 94.8365C9.89609 96.5213 -0.10728 98.2784 -9.98535 100.76L-8.98302 104.708C0.559581 102.388 10.2361 100.656 19.9918 99.5223L24.4758 99.2195C24.4758 99.1471 24.4758 99.055 24.4758 98.9826C26.5662 98.7259 28.4323 98.5482 30.305 98.3245C36.3189 97.5808 42.346 96.8766 48.3533 96.0408C51.5146 95.6768 54.5636 94.652 57.3016 93.0332C59.4744 91.657 61.2514 89.7407 62.4582 87.4722C64.8189 83.2866 65.8345 78.7719 66.5994 74.1914C67.5094 68.6632 67.9182 63.1153 68.36 57.5345C69.147 45.7208 70.6333 33.9639 72.8111 22.3253C75.8972 6.68853 82.0429 -7.8624 92.4354 -20.9062C92.6332 -21.1432 92.8376 -21.3933 93.0552 -21.6302C93.0552 -21.6697 93.1607 -21.6828 93.4904 -21.7947C93.5827 -20.5772 93.6684 -19.4387 93.741 -18.2804C94.1059 -13.3313 94.4641 -8.37135 94.8158 -3.40038C95.0334 -0.320404 95.1785 2.77932 95.3961 5.8593C95.739 10.5122 96.1215 15.1519 96.4644 19.8113C96.6688 22.6017 96.8139 25.3922 97.0447 28.1628C97.4997 33.4738 98.0272 38.7848 98.5152 44.109C98.8449 47.6628 99.1746 51.2298 99.4977 54.7968C100.118 61.1936 100.77 67.5905 101.384 73.9874C101.568 75.8893 101.733 77.7913 101.898 79.713H106.56C106.12 74.5797 105.716 69.4442 105.347 64.3065C104.907 58.3835 104.494 52.4604 104.107 46.5374C103.784 41.2725 103.527 36.0076 103.256 30.7426C103.184 29.4264 103.184 28.0641 103.111 26.7215C102.894 23.1677 102.637 19.6008 102.452 16.0338C102.254 12.2101 102.162 8.38646 101.997 4.56281C101.74 -0.820572 101.436 -6.2237 101.219 -11.6005C101.001 -16.7667 100.856 -21.9132 100.652 -27.0794C100.526 -30.3041 100.546 -30.2844 103.072 -32.6734C111.783 -40.9393 121.733 -47.81 132.502 -53.8581C142.911 -59.6457 153.812 -64.5061 165.077 -68.3827H144.688C130.987 -62.8145 118.058 -55.5157 106.217 -46.6649C104.305 -45.217 102.458 -43.7099 100.335 -42.0252C99.7483 -47.5138 99.8208 -52.7524 99.8208 -57.991C99.8208 -61.4659 99.8208 -64.9276 99.8208 -68.409H92.3035C92.198 -64.513 92.0858 -60.5972 92.0858 -56.7011C92.0858 -50.9953 91.9935 -45.2697 92.6134 -39.5901C92.9761 -36.2403 91.888 -33.9567 89.5669 -31.4558C75.3498 -16.1283 66.4345 1.44994 62.7682 21.0223C61.8384 26.0371 61.3306 31.1112 60.6976 36.1589C59.9327 42.1873 59.8799 48.2617 59.8404 54.3295C59.8404 60.5816 59.6821 66.8337 59.4051 73.1055C59.246 75.6466 58.8955 78.1721 58.3567 80.6607C57.4796 85.2675 54.4002 88.3606 49.4413 89.7887C46.297 90.6532 43.1072 91.343 39.8864 91.8552C35.0594 92.6713 30.1929 93.3228 25.3264 94.0336C25.024 94.0462 24.7212 94.0264 24.423 93.9743C24.3505 92.7963 24.2186 91.6775 24.1857 90.5192C24.0406 85.9124 23.8559 81.3056 23.7636 76.6988C23.6054 68.5557 23.4669 60.4193 23.3482 52.2893C23.2427 43.1744 23.0976 34.0595 23.0976 24.9446C23.0976 18.3635 23.3284 11.7034 23.4933 5.0893C23.6054 0.666771 23.7307 -3.77551 23.9087 -8.19804C24.1461 -13.9039 24.4033 -19.59 24.7461 -25.309C25.0759 -30.6398 25.4913 -35.9442 25.9661 -41.2749C26.7442 -50.0278 27.5948 -58.7742 28.4323 -67.5271C28.4719 -67.8364 28.5048 -68.126 28.5444 -68.4353H23.7504C23.2954 -63.743 22.88 -59.0309 22.4316 -54.3188C21.9436 -48.705 21.4359 -43.065 20.9809 -37.4513"
                  fill="#B86640"/>
            <path d="M128.077 237.904C126.31 229.257 124.932 220.563 123.389 211.863C123.331 211.345 123.3 210.824 123.296 210.303C123.824 210.105 124.206 209.98 124.615 209.849C128.101 208.752 131.605 207.721 135.126 206.756L133.913 202.294C130.682 203.182 127.444 204.123 124.2 205.012C123.692 205.156 123.164 205.288 122.38 205.505C118.351 181.57 114.955 157.792 112.126 133.692L107.114 134.165C107.332 136.377 107.53 138.371 107.728 140.358C108.369 146.755 109 153.146 109.62 159.529C109.963 163.05 110.233 166.545 110.596 170.059C111.341 177.127 112.139 184.176 112.904 191.224C113.379 195.324 113.847 199.418 114.302 203.531C114.469 205.018 114.632 206.521 114.79 208.039L112.647 208.855L114.374 213.37C114.704 213.258 115.034 213.152 115.443 213.008C115.865 216.16 116.208 219.095 116.663 222.03C118.206 231.942 119.564 241.873 121.457 251.731C124.14 265.861 127.194 279.945 130.115 294.041H139.9C139.577 292.245 139.241 290.468 138.865 288.691C135.291 271.771 131.565 254.864 128.103 237.924"
                  fill="#B86640"/>
            <path d="M27.6812 140.852C27.6812 141.194 27.7537 141.51 27.7866 141.865C28.3867 147.012 28.9538 151.974 29.5671 156.956C30.4045 163.879 31.1629 170.822 32.2047 177.726C33.6752 187.453 35.1853 197.167 36.9987 206.861C39.3594 219.47 42.0103 232.047 44.5688 244.643C44.8985 246.275 45.3535 247.888 45.8217 249.79C46.5471 249.046 47.0548 248.572 47.5296 248.085C53.8554 241.372 60.936 235.41 68.6309 230.316C79.9597 222.741 92.3238 216.798 105.248 211.691C107.682 210.731 110.135 209.803 112.654 208.862L114.797 208.045C114.638 206.523 114.476 205.02 114.309 203.537C113.854 199.424 113.386 195.331 112.911 191.231C112.146 184.182 111.348 177.134 110.603 170.066C110.24 166.571 109.943 163.076 109.627 159.536C109.007 153.148 108.376 146.757 107.734 140.365C107.537 138.391 107.339 136.383 107.121 134.172C107.121 133.843 107.062 133.514 107.029 133.159C79.9202 131.125 53.5567 133.389 27.6878 140.859"
                  fill="#F2C2A6"/>
            <path d="M48.2943 260.3C48.0948 259.732 48.0507 259.122 48.1666 258.532C48.2825 257.942 48.5543 257.394 48.9537 256.943C60.21 242.978 74.394 231.935 91.1169 223.38C98.351 219.714 105.793 216.473 113.405 213.672C113.715 213.567 114.025 213.455 114.368 213.35L112.647 208.835C110.121 209.776 107.668 210.704 105.235 211.665C92.3104 216.772 79.9463 222.715 68.6175 230.29C60.9225 235.383 53.842 241.346 47.5162 248.059C47.0414 248.546 46.5336 249.02 45.8083 249.763C45.3401 247.861 44.8851 246.249 44.5554 244.617C41.9969 232.021 39.346 219.444 36.9853 206.835C35.1719 197.141 33.6882 187.427 32.1913 177.7C31.1429 170.796 30.3779 163.879 29.5537 156.93C28.9404 151.948 28.3733 146.986 27.7732 141.839L22.9463 142.398C23.2562 145.551 23.5266 148.631 23.8563 151.698C24.6168 158.691 25.3905 165.678 26.1774 172.659C26.6852 177.265 27.2127 181.833 27.8656 186.394C28.9536 194.153 30.0614 201.905 31.3341 209.645C32.5342 216.95 33.853 224.246 35.2906 231.534C36.7611 239.056 38.436 246.552 40.1241 254.054C40.3142 254.745 40.3355 255.471 40.1864 256.172C40.0372 256.873 39.7219 257.528 39.2669 258.082C33.2925 266.144 29.4086 275.002 26.7775 284.301C25.8675 287.506 25.1092 290.751 24.3838 293.995H32.4089C32.6793 292.633 32.9694 291.291 33.3123 289.935C35.1653 282.649 37.4139 275.456 41.1 268.697C41.5352 267.881 42.0298 267.085 42.7354 265.874C43.1574 267.394 43.4476 268.507 43.7179 269.566C45.8237 277.793 48.2415 285.936 50.9715 293.995H57.203C56.8206 292.488 56.4183 291.001 56.0226 289.5C53.4575 279.767 50.9188 270 48.3009 260.274"
                  fill="#B86640"/>
            <path d="M106.323 126.696C106.073 124.254 105.849 122.135 105.664 120.029C105.196 115.139 104.741 110.243 104.266 105.333C103.653 98.6996 103 92.0527 102.4 85.4057C102.215 83.4971 102.057 81.5952 101.905 79.6932C101.754 77.7913 101.582 75.8696 101.398 73.9677C100.784 67.5708 100.132 61.1739 99.5117 54.777C99.1688 51.21 98.8523 47.643 98.5291 44.0892C98.0412 38.7585 97.5137 33.4541 97.0587 28.1431C96.8279 25.3724 96.6828 22.582 96.4784 19.7916C96.1355 15.1321 95.753 10.4924 95.4101 5.83955C95.1925 2.75957 95.0474 -0.340153 94.8298 -3.42013C94.4825 -8.3911 94.1242 -13.3511 93.755 -18.3001C93.6824 -19.4584 93.5901 -20.5969 93.5044 -21.8145C93.1747 -21.7026 93.1021 -21.6894 93.0691 -21.6499C92.8515 -21.413 92.6471 -21.1629 92.4493 -20.926C82.0635 -7.88215 75.9111 6.66878 72.8251 22.3056C70.6469 33.9441 69.1606 45.701 68.374 57.5148C67.9586 63.0956 67.5233 68.6435 66.6133 74.1651C65.8484 78.7719 64.8329 83.2668 62.4722 87.4524C61.2654 89.7209 59.4884 91.6373 57.3156 93.0135C54.5776 94.6323 51.5286 95.657 48.3673 96.0211C42.36 96.8569 36.3263 97.5611 30.319 98.3047C28.4463 98.5417 26.5801 98.7194 24.4897 98.9629C24.4897 99.0353 24.4897 99.1274 24.4897 99.1998C25.3404 111.138 26.1581 122.826 27.0153 134.738C52.9568 127.104 79.3401 125.057 106.337 126.67"
                  fill="#F1CAC1"/>
            <path d="M25.9856 -41.2222C25.5109 -35.8915 25.0954 -30.5871 24.7657 -25.2564C24.4228 -19.5702 24.1656 -13.8775 23.9283 -8.14537C23.7502 -3.72283 23.6249 0.719452 23.5128 5.14198C23.348 11.7231 23.1304 18.3833 23.1172 24.9973C23.1172 34.1122 23.2623 43.2271 23.3678 52.342C23.4777 60.4763 23.6162 68.6128 23.7832 76.7515C23.8755 81.3583 24.0601 85.9651 24.2052 90.5719C24.2052 91.7368 24.3701 92.8556 24.4426 94.0336C24.7408 94.0856 25.0436 94.1055 25.346 94.0928C30.2125 93.3821 35.079 92.7306 39.9059 91.9145C43.1206 91.3929 46.3038 90.6943 49.4411 89.8217C54.3933 88.3936 57.4794 85.3136 58.3498 80.6936C58.8941 78.2058 59.2468 75.68 59.4049 73.1385C59.6753 66.8864 59.8072 60.6343 59.8401 54.3624C59.8797 48.2946 59.9324 42.2202 60.6974 36.1853C61.3568 31.131 61.8382 26.0569 62.7679 21.0486C66.4343 1.45654 75.3496 -16.102 89.5666 -31.4295C91.8878 -33.9303 92.9758 -36.214 92.6131 -39.5638C91.9933 -45.2367 92.1054 -50.9623 92.0856 -56.6748C92.0856 -60.5708 92.1977 -64.4866 92.3032 -68.3827H28.5442C28.5046 -68.0733 28.4717 -67.7838 28.4321 -67.4745C27.5946 -58.7215 26.744 -49.9752 25.9659 -41.2222"
                  fill="#F2C2A6"/>
            <path d="M39.2537 258.108C39.7087 257.554 40.024 256.899 40.1732 256.199C40.3223 255.498 40.301 254.772 40.1109 254.081C38.4228 246.578 36.7479 239.082 35.2774 231.56C33.8267 224.272 32.5079 216.976 31.3209 209.671C30.0482 201.932 28.9404 194.179 27.8524 186.42C27.1929 181.859 26.672 177.272 26.1643 172.685C25.3642 165.709 24.5904 158.722 23.8431 151.724C23.5134 148.657 23.243 145.577 22.9331 142.425C22.4583 142.537 22.1352 142.609 21.8253 142.714C9.46588 146.735 -2.15548 152.737 -12.5831 160.484C-14.5943 162.004 -15.6494 163.544 -15.3065 165.9C-15.1746 166.828 -15.5043 167.821 -15.5373 168.782C-15.6824 173.764 -15.8275 178.733 -15.9396 183.715C-16.1044 189.71 -16.2495 195.726 -16.355 201.728C-16.5176 210.84 -16.6583 219.949 -16.777 229.053C-16.8517 236.48 -16.8935 243.897 -16.9023 251.303C-16.9023 259.859 -16.9023 268.414 -16.9023 277.016C-16.9353 282.669 -17.0276 288.342 -17.1001 293.995H24.3838C25.1092 290.751 25.8675 287.506 26.7775 284.301C29.4152 275.002 33.2926 266.144 39.2669 258.082"
                  fill="#F2C2A6"/>
            <path d="M-4.22833 -51.4757C-4.55804 -47.4875 -4.95369 -43.5191 -5.26362 -39.5375C-5.50101 -36.3851 -5.62628 -33.2327 -5.82411 -30.0738C-6.1736 -25.184 -6.56925 -20.2942 -6.89896 -15.3781C-7.20888 -10.8502 -7.45946 -6.30266 -7.71663 -1.77483C-8.00677 3.31898 -8.28374 8.40622 -8.5475 13.4869C-8.82446 18.7057 -9.11459 23.9048 -9.36517 29.1237C-9.65532 34.6848 -9.93227 40.2656 -10.1828 45.8266C-10.3675 49.5976 -10.473 53.3686 -10.5983 57.1199C-10.6708 58.7455 -10.6906 60.4105 -10.7631 62.0294C-10.9807 66.5244 -11.2379 70.9996 -11.4226 75.4747C-11.6072 79.7854 -11.6995 84.0961 -11.8776 88.3935C-11.9501 90.6377 -12.1677 92.8687 -12.2402 95.1129C-12.3128 97.0872 -12.2402 99.1011 -12.2402 101.332C-11.4753 101.128 -10.7302 100.931 -9.97183 100.753C-0.0805664 98.2653 9.90957 96.5081 20.0778 94.8299C19.9657 93.3492 19.8206 92.0263 19.7679 90.7035C19.6228 85.4386 19.4975 80.1342 19.3524 74.843C19.2272 70.1703 19.0623 65.4977 18.9502 60.8185C18.7919 53.5793 18.5545 46.34 18.5545 39.1007C18.5545 29.5712 18.6798 20.0154 18.8249 10.4727C18.8975 5.3065 19.0821 0.140289 19.2271 -5.02591C19.2799 -6.90812 19.2997 -8.79033 19.4052 -10.6791C19.7349 -16.5495 20.0646 -22.4396 20.4405 -28.31C20.6251 -31.3308 20.7834 -34.3779 21.0405 -37.4052C21.4955 -43.0189 22.0033 -48.659 22.4913 -54.2727C22.9133 -58.9848 23.3287 -63.6969 23.8101 -68.3893H-2.88309C-3.13367 -65.0987 -3.41066 -61.8476 -3.66124 -58.5702C-3.85906 -56.2141 -3.99094 -53.8581 -4.18876 -51.4823"
                  fill="#8FB7B4"/>
            <path d="M19.9921 99.5157C10.2364 100.65 0.559862 102.382 -8.98274 104.702C-10.1982 105.009 -11.394 105.389 -12.5634 105.84C-12.7283 108.394 -12.9261 110.987 -13.0711 113.599C-13.236 116.929 -13.3613 120.266 -13.4866 123.603C-13.5393 124.866 -13.5789 126.136 -13.6514 127.42C-13.8493 130.993 -14.1262 134.547 -14.3108 138.134C-14.4955 142.008 -14.6406 145.884 -14.7461 149.763C-14.7988 151.737 -14.7461 153.751 -14.7461 155.943C-3.59637 147.339 8.93121 140.679 22.3066 136.245C21.5285 123.82 20.7504 111.678 19.9855 99.5157"
                  fill="#3B402E"/>
        </g>
    </g>
    <defs>
        <clipPath id="clip0_1207_38288">
            <rect width="506" height="222" fill="white" transform="translate(0 -33)"/>
        </clipPath>
        <clipPath id="clip1_1207_38288">
            <rect width="544.679" height="362.404" fill="white" transform="translate(-29.0288 -68.3827)"/>
        </clipPath>
    </defs>
</svg>
