<svg width="100%" viewBox="0 0 132 509" fill="none" xmlns="http://www.w3.org/2000/svg">
<path d="M44.7022 465.014C44.9374 464.656 45.1257 464.28 45.3609 463.847C44.9186 463.405 44.561 463.019 44.194 462.661C30.3037 449.533 21.627 432.952 18.2014 412.916C17.458 408.587 16.931 404.23 16.8275 399.816C16.7804 397.134 16.5546 394.452 16.6204 391.77C17.0439 375.113 20.9588 359.623 29.0709 345.61C32.0541 340.453 35.5831 335.757 39.6204 331.579C39.8745 331.325 40.0627 331.024 40.4015 330.6C39.8462 330.12 39.3663 329.697 38.8769 329.292C27.951 320.352 15.9241 314.263 2.589 311.524C-1.99405 310.593 -6.60533 309.896 -11.2731 309.793C-13.7199 309.746 -16.1572 309.435 -18.5852 309.586C-23.507 309.878 -28.4477 310.245 -33.3413 310.894C-40.3806 311.807 -47.3916 313.068 -54.412 314.112C-59.635 314.875 -64.8674 315.693 -70.1186 316.249C-76.3579 316.907 -82.4655 316.315 -88.1872 312.889C-91.5092 310.885 -94.2478 308.155 -96.4499 304.758C-99.6401 299.855 -101.729 294.322 -103.339 288.572C-105.578 280.563 -106.99 272.338 -108.11 264.075C-109.879 251.079 -111.554 238.064 -113.163 225.04C-114.895 211.13 -116.881 197.268 -119.375 183.51C-121.238 173.365 -123.327 163.286 -126.028 153.395C-126.931 150.102 -127.891 146.827 -128.926 143.571C-129.049 143.213 -129.162 142.855 -129.35 142.366C-129.839 142.404 -130.338 142.366 -130.809 142.451C-138.949 143.891 -147.099 145.18 -155.192 146.827C-171.058 150.064 -186.887 153.546 -202.735 156.887C-204.401 157.226 -206.057 157.546 -207.742 157.856V187.236C-206.848 187.114 -205.944 187.02 -205.041 186.935C-185.852 185.241 -169.035 191.735 -154.58 205.851C-146.637 213.624 -141.669 223.6 -138.836 234.949C-137.311 241.123 -136.295 247.381 -136.38 253.836C-136.464 261.215 -138.008 268.207 -140.718 274.945C-145.602 286.991 -153.837 295.338 -163.774 301.822C-171.905 307.13 -180.657 310.659 -189.729 313.294C-195.668 315.006 -201.672 316.333 -207.732 317.416V336.416C-202.49 336.632 -197.249 336.792 -192.007 337.159C-184.572 337.686 -177.175 338.467 -169.816 339.616C-155.239 341.921 -140.784 344.923 -126.367 348.17C-99.866 354.146 -74.0617 362.663 -49.1043 374.37C-39.0254 379.103 -29.1817 384.43 -20.1756 391.488C-14.6233 395.817 -9.48503 400.616 -5.23135 406.536C-1.19414 412.135 0.998581 418.534 1.2809 425.724C1.46912 430.326 -0.0460205 434.363 -2.09758 438.193C-4.88316 443.388 -8.92036 447.049 -13.5128 450.023C-19.2346 453.721 -25.408 456.083 -31.7038 458.097C-41.7169 461.325 -51.9088 463.593 -62.1947 465.466C-70.9844 467.075 -79.8022 468.43 -88.6766 469.334C-93.9372 469.879 -99.179 470.435 -104.458 470.858C-108.872 471.216 -113.295 471.517 -117.728 471.602C-128.635 471.818 -139.561 471.922 -150.486 471.987C-156.02 472.034 -161.535 471.95 -167.049 471.865C-171.887 471.78 -176.724 471.649 -181.551 471.489C-184.845 471.385 -188.148 471.338 -191.423 471.084C-196.872 470.66 -202.302 470.171 -207.742 469.672V508.991H24.8172C26.4453 503.401 28.3933 497.914 30.5672 492.54C34.4727 482.829 39.1498 473.634 44.7022 465.005V465.014Z" fill="#F3D2C8"/>
<path d="M106.427 305.473C96.9225 296.43 86.6648 288.638 75.673 282.078C70.4501 278.954 65.0483 276.291 59.5712 273.835L57.7738 278.399C62.4604 280.45 67.0528 282.747 71.5323 285.372C80.9807 290.953 89.7892 297.625 98.1554 305.069C98.3248 305.238 98.513 305.389 98.7012 305.746C79.0327 305.53 61.5099 312.362 45.888 325.509C44.0905 324.088 42.3966 322.695 40.6462 321.387C28.1769 312.127 14.6066 306.085 -0.196518 303.535C-7.42399 302.293 -14.6891 301.888 -21.9448 302.208C-29.8875 302.584 -37.7549 303.855 -45.5941 305.342C-53.4332 306.838 -61.2724 308.325 -69.1304 309.671C-72.7817 310.282 -76.4802 310.584 -80.1598 309.821C-84.0088 309.04 -87.199 306.97 -89.7493 303.676C-93.316 299.112 -95.4146 293.682 -97.165 288.035C-99.1319 281.692 -100.487 275.143 -101.494 268.527C-103.009 258.58 -104.364 248.623 -105.719 238.648C-109.23 212.636 -113.248 186.719 -119.44 161.301C-120.174 158.261 -121.002 155.24 -121.849 152.238L-126.018 153.377C-123.318 163.267 -121.238 173.346 -119.365 183.491C-116.871 197.25 -114.886 211.112 -113.154 225.021C-111.545 238.055 -109.86 251.06 -108.1 264.057C-106.98 272.319 -105.569 280.544 -103.329 288.553C-101.72 294.303 -99.6306 299.836 -96.4404 304.739C-94.2383 308.127 -91.4998 310.866 -88.1777 312.87C-82.456 316.296 -76.3484 316.889 -70.1091 316.23C-64.8485 315.665 -59.6255 314.856 -54.4025 314.094C-47.3821 313.04 -40.3711 311.788 -33.3318 310.875C-28.4288 310.235 -23.4882 309.859 -18.5757 309.567C-16.1478 309.417 -13.7104 309.718 -11.2636 309.774C-6.59583 309.878 -1.98457 310.574 2.59848 311.506C15.9335 314.235 27.9605 320.333 38.8864 329.273C39.3757 329.678 39.8557 330.101 40.4109 330.581C40.0721 331.005 39.8839 331.306 39.6298 331.56C35.5926 335.739 32.0636 340.434 29.0804 345.592C20.9683 359.604 17.0534 375.094 16.6299 391.751C16.5641 394.433 16.7805 397.116 16.837 399.798C16.9405 404.211 17.4675 408.568 18.2109 412.897C21.6364 432.933 30.3132 449.505 44.2035 462.643C44.5799 463 44.9281 463.386 45.3704 463.828C45.1351 464.271 44.9469 464.638 44.7116 464.995C39.1593 473.634 34.4821 482.829 30.5767 492.531C28.4028 497.905 26.4548 503.391 24.8267 508.981H35.4326C37.8606 501.161 40.5709 493.482 43.9306 486.066C46.3397 480.758 49.1065 475.705 52.1273 470.811C52.3156 470.51 52.532 470.237 52.8426 469.842C64.4649 477.982 77 483.45 90.5232 486.452C89.808 494.093 88.8387 501.584 87.3989 508.981H92.0478C92.4713 506.92 92.8101 504.812 93.1206 502.704C93.7794 497.924 94.3064 493.124 94.8992 488.325C94.9369 488.014 94.9839 487.713 95.031 487.299C96.8943 487.449 98.6918 487.6 100.489 487.76C101.741 487.864 102.964 488.033 104.225 488.099C106.314 488.221 108.423 488.391 110.521 488.353C113.645 488.306 116.77 488.24 119.866 487.948C123.809 487.591 127.724 487.064 131.592 486.17V480.062C127.272 481.201 122.877 481.944 118.426 482.349C113.758 482.754 109.109 482.772 104.461 482.518C101.571 482.349 98.7106 481.841 95.605 481.445C95.8215 476.947 96.1321 472.59 96.2356 468.233C96.3391 463.819 96.3015 459.415 96.1697 455.001C96.0379 450.606 95.7839 446.211 95.4074 441.835C95.031 437.459 94.4381 433.112 93.9299 428.519C94.4569 428.162 95.0498 427.71 95.6992 427.333C107.058 420.934 118.944 416.389 131.601 414.629V407.147C118.247 407.994 105.599 412.116 93.4782 418.704C93.2241 418.845 92.97 418.958 92.5277 419.184C92.2548 417.895 92.0007 416.69 91.7655 415.485C89.394 402.781 86.166 390.34 81.5171 378.416C76.1906 364.742 69.3396 352.132 60.5311 340.924C57.9338 337.63 55.1011 334.581 52.2685 331.287C53.0684 330.591 53.8965 329.829 54.7623 329.151C63.2791 322.488 72.6992 318.159 82.7876 315.609C87.2671 314.489 91.8314 313.896 96.4238 313.557C99.6799 313.303 102.87 313.764 106.117 313.764C107.001 313.764 107.576 314.338 108.159 314.969C116.092 323.74 123.207 333.273 129.164 343.86C129.992 345.337 130.811 346.834 131.601 348.34V337.188C127.244 329.96 122.445 323.119 117.062 316.813C116.826 316.541 116.638 316.239 116.215 315.656C116.873 315.759 117.287 315.788 117.654 315.872C122.426 317.058 127.093 318.639 131.601 320.728V314.498C124.543 310.847 117.146 308.372 109.429 307.064C108.263 306.857 107.321 306.32 106.446 305.473H106.427ZM90.9185 480.222C78.9198 476.486 67.4198 471.686 57.3127 463C66.3094 450.785 76.52 440.405 88.3399 432.001C90.5797 438.09 92.2078 468.223 90.9185 480.222ZM56.4092 347.53C66.4317 360.799 73.6968 375.847 79.1739 392.053C82.4017 401.642 84.8391 411.476 86.8248 421.471C86.8907 421.781 86.8719 422.101 86.9095 422.525C72.8404 431.192 60.7099 442.513 50.3958 456.657C48.363 454.286 46.3585 452.131 44.5423 449.788C36.8913 440.029 31.4801 428.905 28.4593 416.332C27.0665 410.516 26.5206 404.541 26.4548 398.518C26.4171 395.008 26.4077 391.478 26.5771 387.968C27.0853 378.059 29.1368 368.544 32.4776 359.35C35.4985 350.984 40.0816 343.813 45.7468 337.48C45.9539 337.244 46.1515 337.018 46.3585 336.821C46.4432 336.736 46.5656 336.698 46.8667 336.548C50.264 340.011 53.4449 343.644 56.3998 347.54L56.4092 347.53Z" fill="#BF7344"/>
<path d="M52.8331 469.861C52.532 470.246 52.3061 470.519 52.1179 470.83C49.097 475.714 46.3303 480.768 43.9211 486.085C40.5615 493.5 37.8512 501.18 35.4232 509H87.3895C88.8293 501.603 89.7986 494.112 90.5138 486.471C76.9906 483.469 64.4554 478.001 52.8331 469.861Z" fill="#F9C194"/>
<path d="M110.521 488.372C108.423 488.409 106.315 488.24 104.225 488.117C102.974 488.052 101.75 487.882 100.489 487.779C98.6919 487.628 96.8944 487.478 95.0311 487.318C94.984 487.722 94.9275 488.033 94.8993 488.343C94.3064 493.143 93.7794 497.942 93.1207 502.723C92.8195 504.831 92.4807 506.939 92.0479 509H131.592V486.188C127.724 487.082 123.809 487.609 119.866 487.967C116.77 488.259 113.646 488.324 110.521 488.372Z" fill="#F2C2A5"/>
<path d="M93.9206 428.529C94.4287 433.131 95.0216 437.469 95.398 441.845C95.7745 446.221 96.0286 450.616 96.1603 455.011C96.2921 459.424 96.3297 463.838 96.2262 468.242C96.1227 472.599 95.8215 476.966 95.5957 481.455C98.7012 481.841 101.572 482.358 104.451 482.528C109.091 482.782 113.749 482.763 118.417 482.358C122.868 481.954 127.263 481.201 131.582 480.071V414.638C118.925 416.408 107.039 420.953 95.6804 427.343C95.031 427.719 94.4381 428.171 93.9111 428.529H93.9206Z" fill="#9CBFBD"/>
<path d="M57.3126 463.01C67.4198 471.696 78.9291 476.495 90.9185 480.231C92.2077 468.233 90.5796 438.099 88.3399 432.01C76.5106 440.405 66.2999 450.794 57.3126 463.01Z" fill="#3B402E"/>
<path d="M-181.542 471.489C-176.705 471.639 -171.868 471.78 -167.04 471.865C-161.525 471.95 -156.011 472.035 -150.477 471.987C-139.551 471.922 -128.625 471.818 -117.718 471.602C-113.286 471.517 -108.863 471.206 -104.449 470.858C-99.1695 470.435 -93.9277 469.87 -88.6671 469.334C-79.7927 468.43 -70.9748 467.075 -62.1852 465.466C-51.9086 463.602 -41.7074 461.325 -31.6943 458.097C-25.3985 456.083 -19.2251 453.721 -13.5033 450.023C-8.90144 447.049 -4.86421 443.388 -2.08804 438.193C-0.036499 434.363 1.47864 430.317 1.29042 425.724C0.998688 418.534 -1.18462 412.135 -5.22183 406.536C-9.48491 400.616 -14.6232 395.817 -20.1661 391.488C-29.1722 384.43 -39.0159 379.103 -49.0948 374.37C-74.0522 362.663 -99.8565 354.146 -126.357 348.17C-140.774 344.933 -155.229 341.931 -169.807 339.616C-177.166 338.458 -184.563 337.686 -191.997 337.159C-197.239 336.783 -202.481 336.632 -207.723 336.416V340.726C-204.382 340.914 -201.022 341.065 -197.681 341.3C-193.221 341.62 -188.741 342.025 -184.28 342.439C-175.632 343.258 -167.04 344.81 -158.495 346.457C-144.887 349.083 -131.335 352.057 -117.897 355.567C-100.732 360.065 -83.6606 364.997 -67.0317 371.65C-55.2212 376.365 -43.7213 381.879 -32.8236 388.9C-25.4456 393.652 -18.5381 399.129 -12.8163 406.338C-10.3413 409.462 -8.27092 412.869 -6.91577 416.803C-4.44073 423.898 -5.81471 430.26 -10.0213 435.925C-12.327 439.05 -15.282 441.403 -18.5381 443.191C-23.1023 445.703 -27.9206 447.454 -32.8048 448.893C-46.4127 452.912 -60.2936 455.189 -74.2027 457.26C-80.4985 458.191 -86.8226 458.954 -93.1372 459.65C-99.4706 460.346 -105.795 460.92 -112.138 461.419C-117.059 461.805 -122 462.031 -126.931 462.2C-133.02 462.407 -139.109 462.596 -145.188 462.596C-157.196 462.577 -169.214 462.426 -181.222 462.36C-189.127 462.323 -197.032 462.323 -204.956 462.379C-205.869 462.379 -206.81 462.417 -207.723 462.445V469.691C-202.274 470.181 -196.844 470.679 -191.404 471.103C-188.129 471.357 -184.817 471.413 -181.532 471.508L-181.542 471.489Z" fill="#BF7344"/>
<path d="M45.7562 337.47C40.091 343.794 35.5079 350.975 32.4871 359.341C29.1463 368.535 27.0947 378.059 26.5865 387.959C26.4171 391.469 26.436 394.998 26.4642 398.508C26.5301 404.531 27.0759 410.507 28.4687 416.323C31.4896 428.896 36.9007 440.029 44.5517 449.778C46.368 452.121 48.3724 454.277 50.4052 456.648C60.7194 442.494 72.8499 431.183 86.9189 422.515C86.8813 422.092 86.9001 421.772 86.8343 421.461C84.8486 411.467 82.4018 401.633 79.1833 392.043C73.7062 375.838 66.4411 360.79 56.4187 347.521C53.4637 343.615 50.2734 339.992 46.8856 336.529C46.5844 336.68 46.4621 336.717 46.3774 336.802C46.1703 337.009 45.9727 337.225 45.7657 337.461L45.7562 337.47Z" fill="#F2C2A5"/>
<path d="M108.15 314.959C107.566 314.329 106.992 313.755 106.107 313.755C102.87 313.755 99.6799 313.294 96.4143 313.548C91.8219 313.887 87.2577 314.479 82.7782 315.599C72.6804 318.14 63.2697 322.469 54.7529 329.141C53.8871 329.819 53.0589 330.581 52.259 331.278C55.0917 334.571 57.9243 337.621 60.5217 340.914C69.3302 352.132 76.1812 364.733 81.5077 378.407C86.1566 390.33 89.3845 402.771 91.756 415.476C91.9913 416.68 92.2454 417.885 92.5183 419.174C92.9606 418.958 93.2147 418.835 93.4688 418.694C105.58 412.116 118.238 407.994 131.592 407.138V348.321C130.801 346.815 129.983 345.319 129.154 343.841C123.197 333.254 116.083 323.721 108.15 314.95V314.959Z" fill="#F3D2C8"/>
<path d="M116.205 315.656C116.629 316.23 116.817 316.54 117.052 316.813C122.435 323.128 127.235 329.96 131.592 337.188V320.728C127.084 318.639 122.416 317.067 117.645 315.872C117.278 315.788 116.864 315.75 116.205 315.656Z" fill="#F3D2C8"/>
<path d="M4.80064 263.464C-1.01521 262.824 -6.85928 262.41 -12.6751 261.902C-19.2439 261.337 -25.8032 260.848 -32.3719 260.217C-36.8985 259.794 -41.378 258.947 -45.754 257.554C-50.3841 256.095 -54.8354 254.11 -58.6091 250.703C-64.0767 245.781 -66.9752 239.222 -68.1234 231.561C-69.3938 223.233 -69.0927 214.848 -68.3586 206.519C-67.5305 196.845 -65.9024 187.293 -64.2555 177.779C-61.7429 163.22 -59.1361 148.7 -57.8092 133.934C-57.7621 133.322 -57.6868 132.73 -57.6021 131.883C-80.1691 134.527 -102.426 137.698 -124.842 141.472C-124.635 142.197 -124.522 142.696 -124.381 143.166C-123.553 146.206 -122.668 149.227 -121.831 152.247C-120.984 155.249 -120.155 158.27 -119.421 161.31C-113.229 186.729 -109.211 212.646 -105.701 238.657C-104.345 248.633 -102.99 258.589 -101.475 268.536C-100.478 275.152 -99.113 281.702 -97.1462 288.045C-95.3958 293.691 -93.2972 299.121 -89.7305 303.685C-87.1802 306.979 -83.9993 309.05 -80.1409 309.831C-76.4613 310.593 -72.7629 310.292 -69.1115 309.68C-61.2535 308.344 -53.4143 306.848 -45.5752 305.351C-37.736 303.855 -29.8592 302.584 -21.9259 302.217C-14.6608 301.897 -7.40511 302.302 -0.177643 303.544C14.6161 306.095 28.1864 312.127 40.6651 321.397C42.4155 322.705 44.1094 324.097 45.9069 325.518C61.5287 312.372 79.061 305.53 98.7201 305.756C98.5319 305.398 98.3436 305.248 98.1743 305.078C89.8081 297.634 81.009 290.962 71.5512 285.382C67.0717 282.756 62.4698 280.46 57.7927 278.408C53.1061 276.338 48.3631 274.503 43.573 272.724C30.9532 268.056 18.0416 264.923 4.81947 263.473L4.80064 263.464Z" fill="#3B402E"/>
<path d="M98.2023 123.45C95.9626 121.088 95.9814 121.079 92.9605 121.192C88.1234 121.38 83.3051 121.512 78.4679 121.719C73.4332 121.926 68.3702 122.208 63.3354 122.453C59.7594 122.603 56.1739 122.688 52.5978 122.876C49.2569 123.046 45.9161 123.281 42.5847 123.488C41.3331 123.554 40.072 123.554 38.8204 123.62C33.8986 123.874 28.9673 124.109 24.0267 124.42C18.4743 124.759 12.9314 125.144 7.37904 125.577C2.56072 125.935 -2.23878 126.302 -7.03827 126.716C-13.3811 127.271 -19.7146 127.883 -26.0386 128.495C-30.4334 128.899 -34.8471 129.323 -39.2513 129.784C-42.865 130.142 -46.4788 130.546 -50.0925 130.951C-50.5348 130.998 -50.9771 131.186 -51.5041 131.327C-51.6547 132.833 -51.8429 134.348 -51.9747 135.854C-53.0757 148.888 -55.0426 161.78 -57.0282 174.673C-58.6751 185.411 -60.0773 196.224 -61.489 207.009C-61.8654 209.964 -61.8466 212.994 -61.9971 215.986C-62.0818 217.84 -62.2889 219.704 -62.2042 221.539C-62.0159 225.106 -61.9689 228.719 -61.3384 232.192C-59.7291 241.029 -55.0614 247.202 -47.5987 250.599C-43.5144 252.463 -39.2137 253.498 -34.8753 254.081C-28.7301 254.881 -22.5754 255.474 -16.4114 256.086C-10.5955 256.66 -4.77027 257.14 1.0644 257.629C17.7779 259.041 33.9456 263.125 49.671 269.609C52.993 270.983 56.3056 272.376 59.5805 273.853C65.0576 276.309 70.4594 278.973 75.6824 282.097C86.6741 288.666 96.9413 296.449 106.437 305.492C107.312 306.339 108.253 306.885 109.42 307.083C117.137 308.391 124.534 310.866 131.592 314.517V284.007C120.939 269.741 108.197 258.457 93.2805 250.242C85.6107 246.016 77.6586 242.553 69.6783 239.165C60.9922 235.486 52.3719 231.702 44.0904 226.95C36.7783 222.743 29.8519 217.84 23.6973 211.676C17.6932 205.653 12.6208 198.802 9.51528 190.333C7.36021 184.46 6.63558 178.353 8.09425 172.142C9.63761 165.573 13.3172 160.689 18.2391 157.009C24.4502 152.36 31.2353 149.321 38.698 148.596C45.3703 147.918 51.9861 148.558 58.4513 150.619C71.551 154.788 83.0981 162.091 93.1299 172.405C100.103 179.586 105.806 187.98 110.813 196.939C115.913 206.105 120.722 215.45 125.635 224.748C127.536 228.343 129.493 231.91 131.592 235.354V181.421C127.912 170.834 123.47 160.651 118.04 150.968C112.403 140.907 105.938 131.61 98.2023 123.469V123.45Z" fill="#F2C2A5"/>
<path d="M110.813 196.929C105.806 187.97 100.103 179.576 93.1299 172.396C83.098 162.081 71.551 154.788 58.4512 150.61C51.986 148.558 45.3703 147.909 38.698 148.586C31.2353 149.311 24.4501 152.351 18.239 157C13.3172 160.679 9.6376 165.563 8.09424 172.132C6.63557 178.343 7.36021 184.451 9.51527 190.323C12.6208 198.793 17.6932 205.644 23.6973 211.667C29.8519 217.821 36.7782 222.724 44.0904 226.94C52.3719 231.693 60.9921 235.476 69.6783 239.156C77.6492 242.543 85.6107 246.007 93.2805 250.232C108.197 258.448 120.939 269.722 131.592 283.998V275.396C128.778 272.018 125.795 268.828 122.689 265.779C112.083 255.295 100.169 247.183 87.1635 241.057C76.7834 236.172 66.3469 231.467 56.0515 226.366C45.0032 220.918 35.1125 213.474 26.784 203.583C23.1703 199.292 20.1118 194.539 17.7403 189.231C15.9428 185.222 15.2464 181.091 15.924 176.621C16.5169 172.716 17.7779 169.29 20.3376 166.495C22.2386 164.425 24.3278 162.693 26.6334 161.272C32.0258 157.978 37.8511 156.35 43.921 155.927C49.0405 155.588 54.1223 156.247 59.1194 157.602C72.605 161.3 83.8509 169.328 93.544 180.282C97.5153 184.78 101.026 189.73 104.3 194.887C109.759 203.489 114.624 212.514 119.329 221.642C122.802 228.39 126.181 235.212 130.237 241.565C130.698 242.261 131.14 242.958 131.592 243.654V235.344C129.493 231.9 127.536 228.333 125.635 224.738C120.722 215.44 115.913 206.096 110.813 196.929Z" fill="#BF7344"/>
<path d="M-65.7895 48.5783L-65.2625 53.0955C-64.9613 53.0579 -64.632 53.0296 -64.312 52.992C-57.3198 77.1682 -55.2024 101.806 -57.1033 127.13C-57.4233 127.168 -57.7527 127.196 -58.0538 127.215L-57.6115 131.901C-57.6962 132.748 -57.7621 133.341 -57.8186 133.953C-59.1455 148.709 -61.7523 163.239 -64.2649 177.798C-65.9118 187.312 -67.5399 196.864 -68.368 206.538C-69.1021 214.867 -69.4032 223.252 -68.1328 231.58C-66.9752 239.231 -64.0767 245.8 -58.6185 250.722C-54.8354 254.128 -50.3935 256.114 -45.7634 257.573C-41.3874 258.965 -36.9078 259.812 -32.3813 260.236C-25.8126 260.866 -19.2533 261.356 -12.6845 261.92C-6.86869 262.429 -1.0246 262.833 4.79125 263.483C18.004 264.922 30.9155 268.066 43.5448 272.733C48.3255 274.512 53.0779 276.347 57.7644 278.417L59.5619 273.853C56.2869 272.376 52.9838 270.983 49.6524 269.609C33.927 263.125 17.7593 259.041 1.04577 257.629C-4.7889 257.14 -10.6142 256.66 -16.43 256.086C-22.5847 255.474 -28.7487 254.881 -34.8939 254.081C-39.2323 253.507 -43.533 252.472 -47.6173 250.599C-55.08 247.202 -59.7478 241.028 -61.357 232.192C-61.9875 228.71 -62.0346 225.096 -62.2228 221.539C-62.3075 219.704 -62.1005 217.84 -62.0158 215.986C-61.8652 213.003 -61.884 209.964 -61.5076 207.009C-60.096 196.214 -58.6938 185.411 -57.0469 174.673C-55.0612 161.78 -53.0944 148.888 -51.9933 135.854C-51.8615 134.348 -51.6733 132.833 -51.5228 131.327C-50.9958 131.195 -50.5534 131.007 -50.1111 130.951C-46.4974 130.546 -42.8837 130.141 -39.27 129.784C-34.8563 129.323 -30.4426 128.899 -26.0572 128.495C-19.7332 127.883 -13.3997 127.271 -7.0569 126.716L-7.07572 122.359C-8.85435 122.49 -10.6424 122.65 -12.421 122.82C-18.651 123.385 -24.8715 123.987 -31.0826 124.57C-35.6844 125.013 -40.2581 125.436 -44.8411 125.878C-46.808 126.085 -48.7936 126.283 -51.0899 126.518C-49.5747 101.288 -51.4945 76.6412 -58.6373 52.3897C-47.4761 51.5898 -36.5314 50.8275 -25.3514 50.0276L-25.6432 45.8398C-37.0302 46.555 -48.3984 47.2797 -60.0301 48.0137C-64.2179 35.2903 -70.5137 23.7716 -78.4752 13.3821L-82.7477 15.396C-75.5202 25.0326 -70.0055 35.7609 -66.0906 47.5432C-65.9871 47.8349 -65.9212 48.136 -65.8177 48.5783H-65.7895Z" fill="#BF7344"/>
<path d="M119.33 221.652C114.624 212.523 109.759 203.498 104.301 194.897C101.026 189.74 97.5154 184.79 93.544 180.291C83.851 169.328 72.6051 161.31 59.1194 157.612C54.1129 156.256 49.0405 155.588 43.9211 155.936C37.8511 156.36 32.0259 157.988 26.6335 161.282C24.3279 162.703 22.2387 164.434 20.3377 166.505C17.778 169.3 16.5169 172.735 15.9241 176.631C15.2465 181.091 15.9429 185.232 17.7403 189.241C20.1118 194.549 23.1703 199.301 26.7841 203.593C35.1126 213.483 45.0033 220.937 56.0515 226.376C66.3469 231.486 76.7834 236.182 87.1635 241.066C100.179 247.193 112.083 255.295 122.689 265.788C125.795 268.847 128.778 272.037 131.592 275.406V243.664C131.14 242.967 130.698 242.271 130.237 241.574C126.181 235.232 122.802 228.409 119.33 221.652Z" fill="#3B402E"/>
<path d="M102.578 46.7903C99.7458 46.5551 96.8943 46.3951 94.0617 46.2257C88.5658 45.8869 83.0511 45.5669 77.5552 45.2564C75.786 45.1529 74.0262 45.134 72.2664 45.087C67.4292 44.9552 62.5921 44.7858 57.7644 44.7106C48.8241 44.5788 39.8839 44.4376 30.9625 44.4565C24.1774 44.4565 17.411 44.6729 10.6353 44.8329C6.25925 44.9364 1.88325 45.087 -2.49275 45.2093C-7.45223 45.3411 -12.3835 45.4634 -17.3429 45.5952C-18.5852 45.6422 -19.818 45.7834 -21.2108 45.8869C-22.7918 36.382 -24.4387 27.0371 -26.7631 17.8052L-30.4615 18.7368C-28.7864 25.0797 -26.5467 37.2666 -25.6056 45.8116L-25.3139 49.9994L-25.088 49.9806C-24.8527 51.9286 -24.6833 53.679 -24.4575 55.4294C-23.7611 61.0476 -23.1023 66.6753 -22.3212 72.2935C-21.8977 75.2673 -21.079 78.147 -19.5074 80.6597C-18.1805 82.8147 -16.3736 84.311 -14.3033 85.478C-10.3884 87.6801 -6.16295 88.6306 -1.86223 89.3458C3.31369 90.1928 8.49902 90.5974 13.7314 90.9927C24.7608 91.8208 35.7902 93.016 46.6973 95.1522C61.3405 98.0319 74.9673 103.791 87.1824 113.494C87.3989 113.682 87.6436 113.87 87.86 114.068C87.8977 114.106 87.9071 114.171 88.0106 114.473C86.8719 114.557 85.8085 114.642 84.7168 114.708C80.0867 115.047 75.4378 115.385 70.7889 115.705C67.9092 115.912 65.0013 116.044 62.1216 116.251C57.7644 116.571 53.4166 116.929 49.0594 117.249C46.4432 117.437 43.8364 117.569 41.2391 117.795C36.2702 118.218 31.2919 118.707 26.3136 119.169C22.9916 119.47 19.6414 119.761 16.3005 120.081C10.3153 120.655 4.32064 121.267 -1.6646 121.851C-3.44324 122.02 -5.23128 122.171 -7.02874 122.331L-7.00992 126.688C-2.21043 126.283 2.58906 125.907 7.40738 125.549C12.9503 125.126 18.5027 124.73 24.055 124.391C28.9957 124.09 33.9269 123.846 38.8487 123.592C40.1004 123.526 41.3614 123.526 42.613 123.46C45.935 123.253 49.2853 123.018 52.6261 122.848C56.2022 122.66 59.7877 122.575 63.3638 122.425C68.3985 122.189 73.4615 121.898 78.4963 121.691C83.3334 121.484 88.1517 121.352 92.9889 121.164C96.0097 121.041 95.9909 121.06 98.2307 123.422C105.966 131.562 112.432 140.86 118.069 150.92C123.499 160.604 127.94 170.787 131.62 181.374V162.317C126.265 149.368 119.555 137.322 111.265 126.368C109.909 124.589 108.498 122.858 106.917 120.872C112.064 120.326 116.967 120.401 121.87 120.401C125.127 120.401 128.364 120.42 131.62 120.42V113.4C127.978 113.296 124.308 113.193 120.666 113.193C115.321 113.212 109.956 113.108 104.649 113.682C101.515 114.021 99.3694 113.004 97.0355 110.831C82.6841 97.5426 66.2435 89.2141 47.9019 85.7885C43.2059 84.9227 38.4535 84.4428 33.7199 83.8499C28.0734 83.1347 22.3893 83.0877 16.7052 83.05C10.8517 83.0124 4.97939 82.8994 -0.874102 82.6453C-3.24562 82.5418 -5.60772 82.1183 -7.951 81.6572C-12.28 80.8385 -15.1596 77.9588 -16.5054 73.3287C-17.3335 70.4114 -17.9264 67.4093 -18.444 64.4073C-19.2063 59.8901 -19.818 55.3447 -20.4767 50.7993C-20.5144 50.564 -20.4579 50.31 -20.4297 49.9524C-19.3286 49.8865 -18.2746 49.7641 -17.1924 49.7359C-12.8822 49.6041 -8.57211 49.4348 -4.24316 49.3501C3.37015 49.1995 10.9929 49.0583 18.6062 48.9642C27.1417 48.8607 35.6773 48.7289 44.2129 48.7289C50.4052 48.7478 56.6163 48.9454 62.8086 49.1054C66.9493 49.2089 71.1088 49.3218 75.2402 49.4912C80.5855 49.7077 85.912 49.9523 91.2385 50.2723C96.2262 50.5735 101.195 50.9687 106.183 51.411C114.38 52.1356 122.567 52.9356 130.764 53.7167C131.055 53.7543 131.328 53.7825 131.611 53.8202V49.3407C127.216 48.9172 122.812 48.5219 118.398 48.1361C113.137 47.6749 107.858 47.2044 102.597 46.7809L102.578 46.7903Z" fill="#BF7344"/>
<path d="M106.889 120.9C108.47 122.886 109.881 124.617 111.236 126.396C119.527 137.359 126.237 149.405 131.592 162.345V120.439C128.336 120.439 125.098 120.42 121.842 120.42C116.939 120.42 112.036 120.354 106.889 120.891V120.9Z" fill="#F3D2C8"/>
<path d="M-51.0712 126.499C-48.7844 126.264 -46.7987 126.057 -44.8225 125.86C-40.2394 125.417 -35.6658 124.994 -31.0639 124.551C-24.8528 123.977 -18.6323 123.366 -12.4024 122.801C-10.6237 122.632 -8.83569 122.481 -7.05706 122.34C-5.2596 122.189 -3.48097 122.029 -1.69292 121.86C4.29232 121.286 10.287 120.674 16.2722 120.091C19.613 119.771 22.9539 119.479 26.2853 119.178C31.273 118.717 36.2419 118.227 41.2107 117.804C43.8081 117.588 46.4243 117.446 49.0311 117.258C53.3883 116.938 57.7361 116.581 62.0932 116.261C64.9729 116.054 67.8808 115.922 70.7605 115.715C75.4095 115.395 80.0584 115.056 84.6885 114.717C85.7707 114.651 86.8436 114.567 87.9823 114.482C87.8787 114.181 87.8599 114.106 87.8317 114.077C87.6152 113.87 87.3706 113.691 87.1541 113.503C74.9389 103.801 61.3121 98.0508 46.669 95.1617C35.7619 93.0254 24.7325 91.8397 13.7031 91.0021C8.48011 90.6068 3.28536 90.2022 -1.89056 89.3552C-6.18187 88.64 -10.4073 87.6895 -14.3316 85.4874C-16.402 84.3205 -18.2182 82.8241 -19.5357 80.6691C-21.1167 78.1564 -21.9261 75.2767 -22.3496 72.3029C-23.1306 66.6847 -23.7894 61.057 -24.4858 55.4388C-24.7022 53.6884 -24.8716 51.9474 -25.1163 49.99L-25.3422 50.0088C-36.5222 50.8087 -47.4669 51.571 -58.6281 52.3709C-51.4853 76.613 -49.5655 101.269 -51.0806 126.499H-51.0712Z" fill="#F3D2C8"/>
<path d="M106.155 51.4299C101.167 50.9876 96.1979 50.6017 91.2102 50.2912C85.8837 49.9712 80.5572 49.7265 75.2119 49.5101C71.0712 49.3407 66.9116 49.2183 62.7803 49.1242C56.588 48.9737 50.3769 48.7666 44.1846 48.7478C35.6491 48.7478 27.1135 48.8796 18.5779 48.9831C10.9552 49.0866 3.34192 49.2183 -4.27139 49.3689C-8.60034 49.4536 -12.9105 49.623 -17.2206 49.7548C-18.3028 49.7924 -19.3568 49.9053 -20.4579 49.9712C-20.4955 50.3288 -20.5426 50.5829 -20.505 50.8182C-19.8462 55.3636 -19.2345 59.909 -18.4722 64.4261C-17.9641 67.4282 -17.3712 70.4302 -16.5336 73.3475C-15.1973 77.9776 -12.3082 80.8667 -7.97924 81.6761C-5.63595 82.1372 -3.28326 82.5607 -0.902336 82.6642C4.95116 82.9183 10.8235 83.0406 16.677 83.0689C22.3611 83.1065 28.0452 83.1536 33.6916 83.8688C38.4253 84.4617 43.1777 84.9416 47.8736 85.8074C66.2152 89.2329 82.6558 97.5614 97.0073 110.849C99.3505 113.023 101.487 114.04 104.621 113.701C109.928 113.127 115.292 113.221 120.638 113.212C124.28 113.212 127.95 113.315 131.592 113.419V53.839C131.31 53.8014 131.037 53.7732 130.745 53.7355C122.548 52.9544 114.361 52.1545 106.164 51.4299H106.155Z" fill="#F2C2A5"/>
<path d="M115.763 23.1974C112.036 22.8963 108.319 22.5199 104.583 22.2281C101.628 22.0023 98.6823 21.8893 95.7274 21.7011C91.1443 21.3812 86.5613 21.0047 81.9688 20.7036C77.7246 20.4118 73.4709 20.1766 69.2266 19.9413C64.4554 19.6684 59.6936 19.4143 54.9411 19.1602C50.0569 18.9061 45.1822 18.6332 40.298 18.3979C35.0938 18.125 29.8614 17.8709 24.6573 17.6357C21.1282 17.4663 17.5992 17.3628 14.089 17.2498C12.5645 17.184 11.0211 17.1651 9.49654 17.0993C5.28993 16.8922 1.10213 16.657 -3.09507 16.4876C-7.13229 16.3182 -11.1695 16.2335 -15.1973 16.0641C-17.2959 15.9982 -19.3851 15.7912 -21.4931 15.7253C-23.3564 15.6594 -25.2292 15.7065 -27.309 15.7065C-27.1207 16.4217 -26.9325 17.1181 -26.7631 17.8239C-24.4387 27.0558 -22.7918 36.4007 -21.2108 45.9056C-19.818 45.8021 -18.5852 45.6703 -17.343 45.6139C-12.3929 45.4821 -7.45225 45.3598 -2.49278 45.228C1.88322 45.1057 6.25923 44.9551 10.6352 44.8516C17.4016 44.701 24.1773 44.4752 30.9625 44.4752C39.8839 44.4564 48.8241 44.5975 57.7643 44.7293C62.6015 44.7951 67.4386 44.9645 72.2663 45.1057C74.0356 45.1528 75.7954 45.1716 77.5552 45.2751C83.0511 45.5762 88.5658 45.9056 94.0617 46.2444C96.8943 46.4138 99.7458 46.5644 102.578 46.809C107.839 47.2325 113.118 47.7125 118.379 48.1642C122.793 48.55 127.197 48.9453 131.592 49.3688V24.4114C128.524 24.1762 125.465 23.9221 122.397 23.6774C120.195 23.4892 117.984 23.3762 115.763 23.188V23.1974Z" fill="#9CBFBD"/>
<path d="M-91.0574 6.29578C-91.7162 6.34283 -92.0267 6.41812 -92.3467 6.41812C-101.325 6.24872 -110.293 6.07933 -119.252 5.89112C-122.376 5.83465 -125.501 5.68408 -128.616 5.65585C-136.521 5.58997 -144.426 5.57115 -152.331 5.5241C-165.92 5.4394 -179.509 5.28883 -193.098 5.30765C-197.964 5.32647 -202.857 5.64644 -207.723 5.90053V11.1611C-202.434 11.227 -197.117 11.3117 -191.828 11.3494C-183.8 11.387 -175.783 11.3305 -167.755 11.3682C-160.819 11.387 -153.874 11.4152 -146.92 11.4905C-138.403 11.594 -129.867 11.7258 -121.332 11.8764C-115.714 11.9799 -110.086 12.1116 -104.468 12.2716C-99.8 12.3751 -95.1511 12.5069 -90.4928 12.648C-89.5893 12.6857 -88.6577 12.9868 -87.7919 12.8645C-85.5898 12.5445 -84.1405 13.5232 -82.7195 15.4054L-78.447 13.3915C-76.3954 13.3915 -74.5321 13.3444 -72.6594 13.3915C-69.0268 13.495 -65.3943 13.6268 -61.7711 13.7962C-58.4115 13.9656 -55.0895 14.2196 -51.7486 14.4079C-50.5441 14.4737 -49.3583 14.5114 -48.1726 14.5584C-45.0482 14.6808 -41.9332 14.7937 -38.8089 14.9443C-36.362 15.076 -33.9435 15.2642 -31.5437 15.4148C-31.2426 16.1488 -30.8662 17.297 -30.4709 18.7556L-26.7725 17.824C-26.9419 17.1087 -27.1301 16.4123 -27.3183 15.7065C-25.2291 15.7065 -23.3658 15.6595 -21.5025 15.7254C-19.4039 15.7912 -17.3147 15.9983 -15.2066 16.0641C-11.1882 16.2335 -7.15103 16.3182 -3.1044 16.4876C1.08339 16.657 5.28059 16.8923 9.4872 17.0993C11.0117 17.1652 12.5551 17.184 14.0796 17.2499C17.5899 17.3722 21.1189 17.4664 24.6479 17.6357C29.8615 17.871 35.0844 18.1251 40.2886 18.398C45.1728 18.6333 50.0475 18.9062 54.9317 19.1603C59.6842 19.4144 64.446 19.6685 69.2173 19.9414C73.4615 20.1767 77.7152 20.4119 81.9595 20.7037C86.5613 21.0142 91.135 21.3812 95.718 21.7012C98.673 21.8894 101.619 22.0023 104.574 22.2282C108.31 22.5199 112.027 22.887 115.754 23.1975C117.974 23.3857 120.186 23.4987 122.388 23.6869C125.456 23.9221 128.515 24.1762 131.582 24.4209V19.0285C127.348 18.6709 123.085 18.2945 118.84 17.9557C114.7 17.6169 110.578 17.344 106.437 17.0429C100.941 16.657 95.4639 16.2618 89.9586 15.8853C85.7708 15.6124 81.5736 15.3583 77.3858 15.1231C72.2758 14.8502 67.1751 14.6149 62.0839 14.342C57.1433 14.0879 52.212 13.8526 47.2714 13.5797C42.406 13.3256 37.5313 13.0715 32.6471 12.8174C27.8288 12.5633 23.0105 12.2904 18.1922 12.0552C12.8186 11.7823 7.41682 11.547 2.04327 11.2741C-0.685837 11.1517 -3.40555 11.0388 -6.13467 10.8976C-11.6306 10.6436 -17.1264 10.4083 -22.6223 10.1165C-24.7303 10.013 -26.8101 9.80599 -29.0405 9.65542C-29.2099 9.27899 -29.4263 8.85551 -29.5957 8.40379C-30.6121 5.50527 -31.7696 2.70087 -33.1436 0.0187988H-37.4349C-36.0609 2.51265 -34.8563 5.13825 -33.8588 7.87679C-33.6894 8.33791 -33.567 8.80845 -33.3788 9.4578C-35.8915 9.30722 -38.263 9.16606 -40.6251 9.03431C-43.3542 8.88374 -46.074 8.7614 -48.8031 8.592C-53.772 8.27204 -58.7597 7.91443 -63.7285 7.59446C-64.9331 7.52859 -66.1189 7.50977 -67.3046 7.46271C-70.7678 7.33096 -74.231 7.20862 -77.7035 7.07687C-79.501 6.99218 -81.3173 6.86983 -83.1336 6.80396C-83.9146 6.78514 -84.5263 6.44635 -85.1192 5.87229C-87.1896 3.7831 -89.3635 1.8539 -91.6032 0.0376204H-98.6425C-96.8639 1.32689 -95.1135 2.71969 -93.4195 4.17836C-92.7043 4.77123 -92.0267 5.42999 -91.0574 6.3146V6.29578Z" fill="#BF7344"/>
<path d="M-29.0311 9.65542C-26.8101 9.80599 -24.7209 10.013 -22.6129 10.1165C-17.117 10.4083 -11.6212 10.6436 -6.12526 10.8976C-3.39614 11.0294 -0.67643 11.1517 2.05269 11.2741C7.42624 11.547 12.828 11.7823 18.2016 12.0552C23.0199 12.2904 27.8382 12.5633 32.6565 12.8174C37.5407 13.0715 42.4155 13.3256 47.2808 13.5797C52.2215 13.8526 57.1527 14.0879 62.0934 14.342C67.1846 14.6149 72.2852 14.8502 77.3953 15.1231C81.5831 15.3583 85.7803 15.6124 89.9681 15.8853C95.4639 16.2618 100.941 16.6476 106.446 17.0429C110.587 17.3534 114.709 17.6169 118.85 17.9557C123.094 18.2945 127.357 18.6709 131.592 19.0285V0.0187988H-33.1342C-31.7602 2.70087 -30.6027 5.49586 -29.5863 8.40379C-29.4169 8.86492 -29.191 9.2884 -29.0311 9.65542Z" fill="#F3D2C8"/>
</svg>
