<svg width="507" height="680" viewBox="0 0 507 680" fill="none" xmlns="http://www.w3.org/2000/svg">
<g clip-path="url(#clip0_1336_37334)">
<g clip-path="url(#clip1_1336_37334)">
<path d="M129.489 -9.768C129.134 -9.23612 128.852 -8.68621 128.497 -8.02812C129.152 -7.37003 129.689 -6.79308 130.244 -6.22514C151.059 13.2651 164.038 37.8758 169.181 67.607C170.348 74.0297 171.035 80.5291 171.237 87.0521C171.309 91.0277 171.646 95.0123 171.546 98.9879C170.909 123.716 165.041 146.704 152.887 167.501C148.499 175.057 143.192 182.051 137.085 188.326C136.703 188.704 136.421 189.155 135.911 189.786C136.758 190.489 137.467 191.12 138.204 191.724C154.579 204.994 172.583 214.036 192.561 218.084C199.389 219.55 206.338 220.401 213.321 220.626C216.96 220.707 220.599 221.158 224.238 220.933C231.607 220.5 239.003 219.95 246.345 218.994C256.888 217.633 267.387 215.767 277.903 214.207C285.736 213.072 293.56 211.864 301.438 211.034C310.79 210.052 319.933 210.935 328.503 216.019C333.503 219.05 337.736 223.177 340.875 228.081C345.652 235.356 348.781 243.569 351.192 252.106C354.417 264.05 356.803 276.201 358.333 288.472C360.978 307.752 363.504 327.065 365.911 346.411C368.504 367.064 371.47 387.636 375.209 408.055C378.002 423.119 381.131 438.075 385.216 452.751C386.562 457.637 388.012 462.499 389.565 467.337C389.737 467.86 389.919 468.392 390.192 469.14C390.925 469.134 391.657 469.092 392.385 469.014C404.575 466.868 416.775 464.957 428.902 462.514C452.655 457.709 476.372 452.544 500.107 447.585C502.59 447.081 505.083 446.603 507.603 446.152V402.511C506.257 402.682 504.874 402.835 503.564 402.962C474.816 405.477 449.635 395.831 427.983 374.88C416.093 363.35 408.642 348.548 404.402 331.699C401.984 322.549 400.761 313.13 400.763 303.671C400.927 292.917 403.134 282.289 407.268 272.345C414.546 254.468 426.909 242.073 441.838 232.454C454.01 224.575 467.129 219.337 480.72 215.433C489.596 212.934 498.596 210.891 507.685 209.312V181.114C499.834 180.78 491.974 180.555 484.123 180.005C472.997 179.221 461.916 178.067 450.89 176.354C429.056 172.928 407.405 168.466 385.807 163.661C345.921 154.903 307.116 141.866 270.08 124.78C254.987 117.757 240.249 109.842 226.749 99.3665C218.443 92.9479 210.746 85.8441 204.36 77.0366C198.303 68.7267 194.905 58.8051 194.608 48.5585C194.326 41.7342 196.591 35.7393 199.666 30.0418C203.832 22.3431 209.882 16.8981 216.769 12.4898C225.33 7.00875 234.582 3.47491 244.007 0.509003C258.93 -4.12433 274.147 -7.77433 289.557 -10.4171C302.721 -12.815 315.939 -14.8254 329.222 -16.1596C337.1 -16.9709 344.951 -17.8003 352.875 -18.4313C359.479 -18.9542 366.111 -19.4139 372.743 -19.5402C389.119 -19.8647 405.494 -20.0179 421.815 -20.1171C430.102 -20.1892 438.363 -20.063 446.614 -19.9368C453.892 -19.8106 461.106 -19.6123 468.348 -19.3869C473.279 -19.2337 478.228 -19.1615 483.131 -18.7829C491.319 -18.1519 499.424 -17.4217 507.585 -16.6914V-75.063H159.264C156.809 -66.7822 153.937 -58.6285 150.658 -50.6326C144.913 -36.3823 137.825 -22.7003 129.489 -9.768" fill="#F1CAC1"/>
<path d="M111.949 164.589C96.9294 144.901 86.058 122.562 77.8522 98.5101C73.0919 84.2153 69.263 69.6322 66.3894 54.8509C66.3127 54.3343 66.2703 53.8134 66.2621 53.2913C87.3226 40.418 105.499 23.6232 120.946 2.6185C123.994 6.15234 126.996 9.34362 129.716 12.8234C141.295 27.442 149.516 44.3872 153.806 62.4775C155.797 71.1528 156.801 80.0216 156.799 88.9182C156.854 94.1289 156.881 99.3665 156.626 104.586C155.834 119.103 152.853 133.421 147.784 147.064C143.345 159.058 136.594 170.08 127.906 179.518C127.606 179.87 127.296 180.194 126.996 180.501C126.758 180.662 126.502 180.796 126.232 180.897C121.122 175.768 116.351 170.318 111.949 164.58V164.589ZM60.3033 -32.3503C78.2615 -26.8152 95.4919 -19.7295 110.639 -6.79306C97.1749 11.3359 81.8732 26.7424 64.1606 39.183C60.8037 30.1681 58.3656 -14.582 60.3033 -32.3774V-32.3503ZM37.0686 226.991C51.0776 240.227 66.5325 251.874 83.1468 261.716C90.9372 266.258 98.9901 270.343 107.264 273.949L109.993 267.179C102.923 264.133 96.0392 260.677 89.3785 256.83C75.1657 248.388 61.8148 238.597 49.5138 227.595C49.1816 227.31 48.9042 226.968 48.695 226.585C78.1524 226.909 104.398 216.768 127.842 197.25C130.571 199.369 133.073 201.433 135.693 203.372C154.37 217.119 174.703 226.08 196.864 229.857C207.621 231.666 218.543 232.325 229.442 231.823C241.332 231.273 253.095 229.38 264.867 227.162C276.639 224.944 288.347 222.736 300.11 220.743C305.569 219.842 311.109 219.382 316.631 220.518C322.353 221.714 327.427 224.963 330.878 229.641C336.209 236.42 339.365 244.471 341.976 252.863C344.868 262.341 347.036 272.02 348.463 281.819C350.719 296.577 352.757 311.361 354.831 326.164C360.098 364.766 366.121 403.241 375.391 440.969C376.483 445.476 377.729 449.983 379.03 454.41L385.28 452.724C381.241 438.048 378.111 423.092 375.273 408.028C371.534 387.609 368.568 367.037 365.975 346.384C363.549 327.05 361.023 307.737 358.397 288.445C356.867 276.174 354.481 264.023 351.256 252.079C348.845 243.542 345.715 235.329 340.939 228.054C337.8 223.15 333.567 219.023 328.567 215.992C319.997 210.908 310.854 210.025 301.502 211.007C293.624 211.837 285.8 213.045 277.967 214.18C267.451 215.74 256.952 217.606 246.408 218.967C239.067 219.923 231.671 220.473 224.302 220.906C220.663 221.131 217.024 220.68 213.385 220.599C206.401 220.365 199.452 219.505 192.625 218.03C172.61 213.982 154.634 204.94 138.268 191.67C137.531 191.066 136.812 190.435 135.975 189.732C136.485 189.101 136.767 188.65 137.149 188.272C143.256 181.997 148.563 175.003 152.951 167.447C165.096 146.641 170.973 123.653 171.61 98.9338C171.71 94.9582 171.373 90.9736 171.3 86.9981C171.099 80.475 170.412 73.9756 169.244 67.5529C164.113 37.8217 151.135 13.211 130.308 -6.27921C129.753 -6.80208 129.216 -7.38805 128.561 -8.0822C128.861 -8.67897 129.191 -9.25973 129.553 -9.82207C137.889 -22.7526 144.974 -36.435 150.713 -50.6867C153.976 -58.6644 156.83 -66.8002 159.265 -75.063L143.39 -75.063C139.859 -63.4718 135.606 -52.1091 130.653 -41.0407C127.052 -33.2443 122.953 -25.6835 118.381 -18.4043C118.052 -17.908 117.697 -17.4295 117.317 -16.9709C100.354 -28.8166 81.1793 -37.1953 60.9129 -41.6177C61.8944 -52.8359 63.4429 -63.9984 65.5525 -75.063L58.5839 -75.063C57.9471 -71.9889 57.4467 -68.8697 56.9827 -65.7416C55.9911 -58.6468 55.2088 -51.516 54.3173 -44.3943C54.2627 -43.9345 54.1898 -43.4928 54.117 -42.8798C51.3151 -43.1051 48.6586 -43.3305 45.9294 -43.5649C44.0463 -43.7091 42.2178 -43.9615 40.3437 -44.0607C37.2142 -44.241 34.0664 -44.4934 30.9096 -44.4393C26.2336 -44.3672 21.5576 -44.2681 16.9089 -43.8353C11.0014 -43.3598 5.13455 -42.4772 -0.649122 -41.194V-32.125C5.81914 -33.7961 12.4162 -34.9329 19.074 -35.5236C26.0338 -36.0995 33.0261 -36.1839 39.998 -35.776C44.3193 -35.5236 48.6132 -34.7754 53.2711 -34.1894C52.9345 -27.5183 52.4796 -21.0456 52.3613 -14.5729C52.243 -8.10023 52.2612 -1.48329 52.4614 5.06154C52.6615 11.6064 53.0527 18.1061 53.6077 24.6059C54.1626 31.1056 55.0541 37.5513 55.8183 44.3756C55.0359 44.8984 54.1444 45.5836 53.1801 46.1335C36.1771 55.6262 18.3645 62.3603 -0.594484 65.0017V76.099C19.4197 74.846 38.3604 68.7248 56.5097 58.9707C56.8827 58.7724 57.2648 58.5921 57.9289 58.2675C58.3383 60.1787 58.7204 61.9727 59.0752 63.7576C62.6323 82.6168 67.4539 101.079 74.4225 118.749C82.4009 139.05 92.6171 157.756 105.854 174.407C109.748 179.284 113.987 183.818 118.235 188.704C117.035 189.741 115.788 190.868 114.496 191.878C102.092 201.441 87.7829 208.29 72.512 211.972C65.8052 213.567 58.972 214.587 52.0883 215.019C47.2031 215.397 42.4269 214.721 37.5325 214.721C36.2043 214.721 35.3401 213.865 34.4758 212.918C22.397 199.841 11.8357 185.462 2.98983 170.052C1.74349 167.862 0.52444 165.653 -0.649122 163.408V179.951C5.76734 190.603 13.0512 200.719 21.1299 210.196C21.4847 210.602 21.7668 211.052 22.4036 211.909C21.412 211.755 20.8025 211.701 20.2384 211.584C13.0504 209.838 6.04472 207.423 -0.685547 204.372V213.612C9.74138 218.974 20.9471 222.693 32.529 224.638C34.231 224.947 35.7928 225.776 36.9958 227.009" fill="#B86640"/>
<path d="M55.7543 44.3756C54.9902 37.5513 54.1077 31.1056 53.5436 24.6059C52.9796 18.1061 52.634 11.5883 52.3975 5.06154C52.1609 -1.46526 52.1426 -8.02811 52.2973 -14.5729C52.4519 -21.1178 52.9068 -27.5183 53.207 -34.1894C48.5492 -34.7754 44.2552 -35.5236 39.934 -35.776C32.9622 -36.1884 25.9696 -36.1041 19.01 -35.5236C12.373 -34.9338 5.79709 -33.797 -0.649414 -32.125V64.9927C18.3095 62.3783 36.1222 55.6262 53.1252 46.1335C54.0895 45.5836 54.9447 44.8984 55.7634 44.3756" fill="#F2C2A6"/>
<path d="M110.603 -6.79307C95.4559 -19.6844 78.2254 -26.8152 60.2672 -32.3503C58.3294 -14.5549 60.7675 30.1681 64.1245 39.21C81.8371 26.7424 97.1389 11.3359 110.603 -6.76603" fill="#3B402E"/>
<path d="M468.358 -19.3869C461.08 -19.6123 453.875 -19.8106 446.624 -19.9368C438.373 -20.063 430.112 -20.1892 421.825 -20.1171C405.449 -20.0179 389.074 -19.8647 372.753 -19.5401C366.121 -19.4139 359.489 -18.9542 352.885 -18.4313C344.979 -17.8003 337.128 -16.9709 329.231 -16.1596C315.94 -14.8253 302.731 -12.815 289.567 -10.4261C274.118 -7.78104 258.862 -4.12806 243.898 0.509022C234.473 3.50197 225.221 6.99976 216.661 12.4898C209.774 16.8981 203.724 22.3431 199.557 30.0419C196.482 35.7393 194.217 41.7612 194.499 48.5495C194.795 58.7992 198.193 68.7242 204.252 77.0366C210.62 85.8261 218.334 92.9479 226.64 99.3665C240.141 109.842 254.842 117.757 269.971 124.78C307.008 141.866 345.813 154.903 385.699 163.661C407.296 168.466 428.948 172.928 450.781 176.354C461.808 178.067 472.888 179.221 484.014 180.005C491.865 180.555 499.725 180.78 507.576 181.114V174.713C502.564 174.434 497.569 174.208 492.529 173.857C485.843 173.379 479.138 172.775 472.452 172.171C459.497 170.963 446.633 168.646 433.824 166.203C413.446 162.3 393.141 157.891 373.017 152.681C347.299 146.01 321.735 138.681 296.836 128.809C279.141 121.805 261.92 113.619 245.599 103.198C234.546 96.1482 224.202 88.0168 215.642 77.307C211.817 72.6705 208.825 67.4162 206.799 61.7743C203.087 51.2449 205.143 41.8063 211.448 33.3954C214.846 28.9121 219.193 25.2198 224.184 22.5775C230.992 19.0212 238.17 16.2072 245.59 14.1846C265.977 8.21677 286.765 4.83618 307.598 1.77111C317.023 0.382815 326.502 -0.753066 335.964 -1.78077C345.425 -2.80847 354.913 -3.6739 364.42 -4.40411C371.789 -4.98106 379.185 -5.3056 386.581 -5.55802C395.679 -5.86452 404.776 -6.13497 413.873 -6.13497C431.868 -6.13497 449.863 -5.89157 467.848 -5.78339C479.693 -5.73531 491.544 -5.73531 503.401 -5.78339C504.775 -5.78339 506.13 -5.83748 507.549 -5.88255V-16.6914C499.362 -17.4216 491.256 -18.1518 483.095 -18.7829C478.192 -19.1615 473.243 -19.2336 468.312 -19.3869" fill="#B86640"/>
<path d="M467.866 -5.81047C449.881 -5.91865 431.886 -6.14402 413.892 -6.16205C404.794 -6.16205 395.697 -5.8916 386.599 -5.58509C379.203 -5.33268 371.807 -5.00814 364.438 -4.43119C354.932 -3.70098 345.452 -2.84456 335.973 -1.80785C326.493 -0.771131 317.041 0.355728 307.616 1.74402C286.783 4.80909 265.995 8.18969 245.608 14.1576C238.198 16.2027 231.032 19.0379 224.238 22.6135C219.248 25.2558 214.901 28.9481 211.502 33.4314C205.198 41.8423 203.142 51.281 206.853 61.8104C208.88 67.4523 211.871 72.7065 215.696 77.3431C224.257 88.0528 234.6 96.1842 245.654 103.234C261.965 113.655 279.196 121.841 296.89 128.845C321.79 138.717 347.353 146.046 373.072 152.717C393.195 157.927 413.5 162.336 433.879 166.239C446.688 168.682 459.551 170.999 472.506 172.207C479.193 172.811 485.897 173.415 492.584 173.893C497.587 174.244 502.591 174.47 507.631 174.749V131.838L502.546 131.234C493.163 130.122 483.778 128.999 474.389 127.863C467.475 127.033 460.543 126.222 453.629 125.365C414.747 120.506 376.629 112.05 340.312 95.2737C330.977 91.1462 322.032 86.2015 313.584 80.4983C308.661 77.2372 304.266 73.2555 300.547 68.6888C297.818 65.1549 296.526 61.0531 295.944 56.5457C295.362 52.0382 297.063 48.4322 299.965 45.4123C302.867 42.3923 306.288 41.013 309.872 39.6968C316.252 37.4954 322.872 36.0519 329.595 35.3967C336.609 34.5853 343.642 34.0084 350.683 33.4765C357.142 32.9987 363.592 32.7733 370.024 32.3226C387.737 31.0154 405.449 31.0154 423.162 31.2679C432.487 31.3941 441.839 32.2234 451.164 32.8996C458.023 33.4044 464.882 33.9813 471.724 34.8107C482.295 36.0998 492.811 37.6144 503.355 39.0748C504.783 39.2731 506.203 39.4714 507.631 39.6968V-5.93668C506.257 -5.93668 504.856 -5.83751 503.482 -5.83751C491.619 -5.76539 479.769 -5.76539 467.93 -5.83751" fill="#F2C2A6"/>
<path d="M127.906 179.527C136.593 170.089 143.345 159.067 147.783 147.073C152.853 133.43 155.833 119.112 156.626 104.595C156.881 99.3755 156.853 94.1378 156.799 88.9272C156.8 80.0306 155.796 71.1617 153.806 62.4865C149.515 44.3962 141.294 27.4509 129.716 12.8323C126.987 9.35259 123.994 6.1523 120.946 2.62747C105.481 23.6322 87.2858 40.427 66.2617 53.3003C66.2702 53.8223 66.3127 54.3433 66.389 54.8599C69.2626 69.6411 73.0915 84.2242 77.8518 98.5191C86.0394 122.571 96.9562 144.91 111.949 164.598C116.351 170.336 121.122 175.786 126.232 180.915C126.502 180.812 126.759 180.676 126.996 180.51C127.296 180.212 127.605 179.888 127.906 179.536" fill="#F2C2A6"/>
<path d="M34.4668 212.936C35.3765 213.838 36.1953 214.739 37.5235 214.739C42.3724 214.739 47.1485 215.415 52.0793 215.037C58.9629 214.605 65.7962 213.585 72.503 211.99C87.7739 208.308 102.083 201.459 114.487 191.895C115.779 190.886 117.026 189.759 118.226 188.722C113.978 183.836 109.739 179.302 105.845 174.425C92.6537 157.774 82.3918 139.068 74.4134 118.767C67.4539 101.07 62.5868 82.6077 59.0662 63.7756C58.7114 61.9726 58.3293 60.1696 57.9199 58.2855C57.2558 58.6101 56.8736 58.7904 56.5006 58.9887C38.3059 68.7608 19.3925 74.882 -0.603516 76.117V163.426C0.609468 165.662 1.82245 167.877 3.03544 170.07C11.8716 185.485 22.4237 199.869 34.4941 212.954" fill="#F1CAC1"/>
<path d="M22.4033 211.909C21.7665 211.052 21.4936 210.601 21.1297 210.196C13.0509 200.719 5.76705 190.603 -0.649414 179.951V204.399C6.08086 207.45 13.0866 209.865 20.2746 211.611C20.8386 211.728 21.4481 211.782 22.4397 211.936" fill="#F1CAC1"/>
<path d="M189.258 289.365C197.974 290.32 206.716 290.924 215.432 291.682C225.266 292.511 235.1 293.241 244.934 294.179C251.729 294.783 258.439 296.107 264.949 298.127C271.881 300.291 278.54 303.239 284.208 308.305C292.395 315.607 296.735 325.352 298.463 336.711C300.374 349.07 299.91 361.511 298.818 373.88C297.572 388.231 295.179 402.403 292.668 416.529C288.911 438.165 284.999 459.692 283.016 481.599C282.934 482.5 282.834 483.402 282.707 484.646C316.503 480.724 349.845 476.009 383.415 470.42C383.115 469.338 382.933 468.617 382.732 467.905C381.486 463.398 380.167 458.89 378.921 454.428C377.674 449.965 376.401 445.494 375.282 440.987C366.011 403.259 359.989 364.783 354.722 326.182C352.693 311.379 350.655 296.595 348.353 281.837C346.931 272.037 344.763 262.357 341.867 252.881C339.256 244.489 336.099 236.438 330.768 229.659C327.289 224.962 322.173 221.714 316.413 220.545C310.89 219.409 305.35 219.869 299.892 220.77C288.129 222.763 276.384 224.98 264.648 227.189C252.913 229.398 241.114 231.3 229.223 231.85C218.324 232.352 207.402 231.693 196.646 229.884C174.484 226.107 154.152 217.146 135.475 203.399C132.855 201.46 130.317 199.396 127.624 197.277C104.216 216.795 77.9703 226.937 48.4766 226.612C48.6857 226.995 48.9632 227.337 49.2953 227.622C61.5963 238.624 74.9472 248.415 89.16 256.857C95.8207 260.704 102.704 264.16 109.775 267.206C116.789 270.28 123.903 272.994 131.072 275.644C149.776 282.565 169.27 287.173 189.113 289.365" fill="#3B402E"/>
<path d="M49.3862 497.185C52.7431 500.692 52.7158 500.719 57.2372 500.539C64.5151 500.26 71.702 500.061 78.9435 499.755C86.4944 499.457 94.0634 499.024 101.614 498.673C106.973 498.448 112.331 498.321 117.698 498.042C122.702 497.789 127.705 497.438 132.691 497.14C134.574 497.041 136.448 497.041 138.331 496.942C145.7 496.563 153.096 496.212 160.492 495.752C168.801 495.247 177.11 494.676 185.419 494.039C192.63 493.516 199.83 492.954 207.016 492.353C216.523 491.524 226.003 490.614 235.482 489.712C242.06 489.108 248.673 488.477 255.278 487.801C260.736 487.269 266.104 486.665 271.517 486.061C272.231 485.917 272.936 485.73 273.627 485.502C273.855 483.266 274.128 480.995 274.337 478.786C275.984 459.44 278.886 440.301 281.906 421.163C284.371 405.224 286.455 389.187 288.593 373.167C289.147 368.786 289.129 364.279 289.357 359.852C289.484 357.103 289.784 354.335 289.657 351.613C289.375 346.33 289.302 340.966 288.365 335.801C285.918 322.684 278.931 313.48 267.723 308.476C261.649 305.825 255.21 304.087 248.619 303.32C239.421 302.13 230.197 301.255 220.972 300.345C212.257 299.488 203.541 298.785 194.799 298.055C169.759 295.881 145.21 289.884 122.02 280.278C117.034 278.231 112.085 276.167 107.182 273.967C98.908 270.361 90.8551 266.276 83.0647 261.734C66.4504 251.892 50.9955 240.245 36.9864 227.009C35.7834 225.776 34.2216 224.947 32.5196 224.638C20.9538 222.692 9.76386 218.975 -0.649414 213.621V258.894C15.3074 280.073 34.4331 296.778 56.7277 309.008C68.2177 315.274 80.1353 320.412 92.0802 325.451C105.089 330.914 117.999 336.531 130.398 343.58C141.548 349.764 151.82 357.384 160.947 366.244C169.945 375.187 177.541 385.355 182.19 397.922C185.419 406.64 186.511 415.7 184.328 424.967C182.008 434.712 176.495 441.96 169.126 447.423C159.828 454.329 149.667 458.836 138.477 459.918C128.515 460.944 118.446 459.922 108.901 456.916C89.2873 450.723 71.9749 439.896 56.9551 424.588C46.5113 413.933 37.978 401.465 30.4818 388.177C22.8309 374.574 15.6349 360.7 8.26606 346.898C5.42768 341.561 2.49828 336.269 -0.649414 331.158V411.21C4.76236 426.84 11.5572 441.966 19.6559 456.411C28.0892 471.349 37.7688 485.151 49.3588 497.231" fill="#F2C2A6"/>
<path d="M30.4818 388.132C37.978 401.42 46.5113 413.888 56.9551 424.543C71.9749 439.869 89.2873 450.687 108.901 456.871C118.449 459.879 128.521 460.901 138.486 459.873C149.667 458.791 159.828 454.284 169.126 447.378C176.495 441.915 182.008 434.667 184.328 424.922C186.511 415.7 185.419 406.64 182.19 397.877C177.541 385.311 169.945 375.142 160.947 366.199C151.82 357.34 141.548 349.719 130.398 343.535C117.999 336.486 105.089 330.869 92.0802 325.406C80.1353 320.367 68.2177 315.229 56.7277 308.963C34.3906 296.775 15.2649 280.07 -0.649414 258.849V271.614C3.57177 276.627 8.03862 281.36 12.6965 285.894C28.1803 301.056 46.1793 313.467 65.907 322.585C81.4545 329.842 97.0837 336.81 112.513 344.392C129.345 352.512 144.276 364.034 156.344 378.216C161.848 384.65 166.408 391.821 169.89 399.518C172.646 405.349 173.596 411.858 172.619 418.224C171.709 424.021 169.89 429.105 166.015 433.261C163.248 436.267 160.073 438.876 156.581 441.014C148.729 445.704 139.842 448.427 130.689 448.947C123.022 449.372 115.336 448.532 107.946 446.459C87.7407 440.969 70.8923 429.051 56.382 412.788C50.4497 405.988 45.0628 398.739 40.2706 391.107C32.0829 378.342 24.805 364.964 17.7637 351.441C12.5509 341.417 7.49273 331.293 1.38839 321.873C0.706086 320.845 0.0419955 319.808 -0.640308 318.78V331.113C2.50738 336.224 5.43678 341.516 8.27517 346.853C15.6531 360.655 22.8309 374.529 30.4909 388.132" fill="#B86640"/>
<path d="M295.015 608.312L294.224 601.614L292.805 601.767C282.334 565.888 279.159 529.324 281.997 491.722C282.479 491.677 282.97 491.623 283.425 491.596L282.761 484.646C282.889 483.393 282.989 482.509 283.07 481.599C285.054 459.692 288.966 438.138 292.723 416.529C295.188 402.403 297.626 388.231 298.873 373.88C299.964 361.511 300.428 349.071 298.518 336.711C296.789 325.352 292.45 315.607 284.262 308.305C278.595 303.239 271.935 300.291 265.003 298.127C258.494 296.102 251.784 294.778 244.989 294.179C235.155 293.277 225.32 292.511 215.486 291.682C206.771 290.924 198.028 290.32 189.313 289.365C169.466 287.165 149.969 282.547 131.263 275.617C124.094 272.967 116.98 270.253 109.966 267.179L107.236 273.949C112.14 276.14 117.098 278.204 122.074 280.26C145.265 289.866 169.814 295.863 194.853 298.037C203.596 298.767 212.311 299.47 221.026 300.327C230.251 301.228 239.476 302.13 248.673 303.302C255.265 304.069 261.704 305.807 267.778 308.458C278.959 313.498 285.973 322.666 288.365 335.783C289.275 340.948 289.384 346.312 289.657 351.595C289.784 354.299 289.484 357.085 289.357 359.834C289.129 364.261 289.147 368.768 288.593 373.149C286.482 389.169 284.371 405.206 281.906 421.145C278.931 440.283 275.984 459.422 274.337 478.768C274.137 481.004 273.855 483.275 273.627 485.484C272.936 485.712 272.231 485.899 271.517 486.043C266.058 486.647 260.691 487.251 255.278 487.783C248.673 488.459 242.06 489.09 235.482 489.694C226.003 490.596 216.523 491.497 207.016 492.335V498.808C209.682 498.61 212.357 498.384 215.022 498.132C224.347 497.294 233.672 496.392 242.978 495.536C249.865 494.878 256.724 494.247 263.584 493.598L272.936 492.642C270.671 530.081 273.546 566.672 284.244 602.624L234.381 606.122L234.818 612.342C251.866 611.287 268.897 610.205 286.327 609.115C292.546 627.663 301.884 645.036 313.947 660.5L320.315 657.498C309.442 643.038 301.014 626.922 295.361 609.782C295.2 609.275 295.066 608.761 294.961 608.24" fill="#B86640"/>
<path d="M17.7275 351.441C24.7598 364.964 32.0559 378.387 40.2344 391.107C45.0267 398.739 50.4137 405.988 56.346 412.788C70.8563 429.015 87.7046 440.968 107.91 446.45C115.298 448.53 122.985 449.374 130.653 448.947C139.806 448.427 148.693 445.704 156.545 441.014C160.035 438.873 163.21 436.264 165.978 433.261C169.808 429.105 171.692 424.02 172.583 418.224C173.56 411.858 172.61 405.349 169.854 399.518C166.372 391.821 161.812 384.65 156.308 378.216C144.24 364.034 129.309 352.512 112.477 344.392C97.0112 336.81 81.4183 329.842 65.8709 322.585C46.1421 313.464 28.1406 301.053 12.6512 285.894C8.00248 281.387 3.55383 276.627 -0.685547 271.614V318.735C-0.00324351 319.763 0.660847 320.8 1.34315 321.827C7.4202 331.248 12.4783 341.372 17.7184 351.396" fill="#3B402E"/>
<path d="M42.8087 610.972C47.0481 611.323 51.3148 611.549 55.5451 611.801C63.7327 612.306 72.0385 612.784 80.2717 613.234C82.9099 613.388 85.5573 613.415 88.1956 613.487C95.4735 613.685 102.679 613.938 109.929 614.046C123.321 614.244 136.712 614.442 150.076 614.415C160.238 614.415 170.381 614.091 180.516 613.865C187.075 613.712 193.634 613.487 200.184 613.316C207.608 613.108 215.004 612.937 222.427 612.73C224.247 612.657 226.13 612.459 228.222 612.306C230.579 626.405 233.044 640.252 236.528 653.982L242.069 652.593C238.814 639.358 236.383 625.936 234.791 612.405L234.354 606.185H234.026C233.672 603.291 233.417 600.695 233.117 598.071C232.071 589.742 231.079 581.376 229.914 573.046C229.402 568.658 227.964 564.425 225.693 560.623C223.758 557.616 221.073 555.153 217.897 553.475C212.02 550.202 205.697 548.796 199.265 547.732C191.514 546.479 183.736 545.875 175.912 545.289C159.347 544.201 142.861 542.142 126.541 539.123C104.607 534.841 84.2018 526.304 65.907 511.898C65.5704 511.627 65.2156 511.348 64.8881 511.041C64.8335 510.996 64.8153 510.897 64.6607 510.437C66.3619 510.311 67.9629 510.185 69.5914 510.086C76.5236 509.581 83.4922 509.085 90.4517 508.598C94.7729 508.301 99.1215 508.103 103.434 507.796C109.966 507.318 116.47 506.786 123.002 506.309C126.914 506.038 130.835 505.831 134.72 505.506C142.161 504.875 149.612 504.145 157.081 503.469C162.066 503.009 167.088 502.567 172.073 502.108C181.043 501.251 190.013 500.305 198.983 499.484C201.658 499.232 204.324 499.006 207.016 498.781V492.308C199.829 492.909 192.63 493.471 185.419 493.994C177.11 494.625 168.801 495.196 160.492 495.707C153.096 496.167 145.7 496.518 138.331 496.897C136.448 496.996 134.565 496.996 132.691 497.095C127.705 497.393 122.684 497.753 117.698 497.997C112.331 498.276 106.973 498.403 101.614 498.628C94.0634 498.979 86.4943 499.412 78.9435 499.71C71.6656 500.016 64.4787 500.215 57.2372 500.494C52.6885 500.674 52.743 500.647 49.3861 497.14C37.7961 485.06 28.1164 471.259 19.6832 456.321C11.5775 441.891 4.77357 426.781 -0.649464 411.165V439.445C7.17017 458.451 17.4187 476.384 29.845 492.804C31.8737 495.455 33.9843 498.024 36.3496 500.963C28.6532 501.774 21.3026 501.675 13.961 501.675C9.08478 501.675 4.22673 501.675 -0.649464 501.675V512.096C4.80896 512.249 10.2674 512.403 15.7258 512.403C23.7315 512.403 31.7645 512.529 39.7156 511.672C44.4189 511.168 47.6213 512.682 51.1329 515.9C72.63 535.616 97.2475 547.985 124.722 553.069C131.763 554.358 138.877 555.061 145.964 555.945C154.424 556.999 162.94 557.072 171.437 557.126C180.206 557.126 188.994 557.351 197.764 557.73C201.329 557.952 204.872 558.44 208.363 559.19C214.84 560.398 219.161 564.68 221.172 571.549C222.375 575.912 223.34 580.336 224.065 584.801C225.211 591.499 226.121 598.243 227.112 604.995C227.134 605.417 227.109 605.84 227.04 606.257C225.384 606.356 223.81 606.527 222.182 606.581C215.732 606.78 209.273 607.032 202.795 607.158C191.387 607.387 179.976 607.579 168.562 607.735C155.825 607.889 142.998 608.096 130.216 608.096C120.946 608.096 111.639 607.762 102.369 607.537C96.1648 607.384 89.9422 607.212 83.7378 606.96C75.7321 606.635 67.7538 606.275 59.7754 605.797C52.3064 605.346 44.8557 604.769 37.3867 604.111C25.1144 603.03 12.8237 601.849 0.569554 600.686L-0.704102 600.541V607.185C5.8733 607.816 12.4871 608.393 19.0918 608.988C26.9701 609.674 34.8758 610.377 42.745 611.008" fill="#B86640"/>
<path d="M36.3497 500.99C33.9843 498.042 31.8737 495.473 29.845 492.831C17.4205 476.406 7.17214 458.471 -0.649414 439.463V501.666C4.22678 501.666 9.08483 501.666 13.961 501.666C21.3026 501.666 28.6533 501.765 36.3497 500.963" fill="#F1CAC1"/>
<path d="M428.894 462.487C416.767 464.93 404.576 466.85 392.377 468.987C391.648 469.065 390.917 469.107 390.184 469.113C389.911 468.383 389.729 467.851 389.556 467.31C387.998 462.472 386.548 457.61 385.208 452.724L378.958 454.41C380.204 458.917 381.523 463.38 382.77 467.887C382.97 468.59 383.152 469.32 383.452 470.402C349.883 475.991 316.541 480.706 282.744 484.628L283.408 491.578L292.096 490.677C301.066 489.799 310.03 488.928 318.988 488.062C323.91 487.585 328.822 487.161 333.726 486.701C343.633 485.664 353.522 484.565 363.402 483.501C369.151 482.852 374.892 482.194 380.687 481.563L387.055 480.887C387.428 481.887 387.81 482.87 388.192 483.852L394.56 481.463C394.405 481.013 394.251 480.562 394.051 479.976C398.472 479.399 402.584 478.921 406.705 478.29C420.606 476.154 434.534 474.261 448.353 471.646C468.176 467.914 487.917 463.686 507.695 459.629V446.125C505.175 446.576 502.682 447.026 500.199 447.558C476.464 452.517 452.756 457.682 428.994 462.487" fill="#B86640"/>
<path d="M292.788 601.767L294.207 601.614C301.421 600.785 308.39 600.01 315.376 599.153C325.083 597.99 334.818 596.935 344.488 595.475C358.134 593.438 371.78 591.346 385.354 588.822C403.039 585.55 420.679 581.881 438.337 578.329C440.62 577.869 442.885 577.247 445.551 576.589C444.514 575.579 443.85 574.876 443.167 574.218C433.741 565.455 425.365 555.645 418.204 544.983C407.588 529.27 399.254 512.123 392.086 494.193C390.739 490.821 389.438 487.422 388.119 483.916C387.737 482.933 387.355 481.959 386.973 480.95L380.65 481.626C374.882 482.257 369.142 482.915 363.365 483.564C353.485 484.628 343.597 485.737 333.69 486.764C328.777 487.269 323.873 487.666 318.943 488.126C309.973 488.982 301.03 489.865 292.06 490.74L283.372 491.641C282.917 491.641 282.462 491.723 281.944 491.768C279.105 529.369 282.28 565.933 292.751 601.813" fill="#8FB7B4"/>
<path d="M272.936 492.66L263.584 493.616C256.725 494.274 249.866 494.896 242.979 495.554C233.672 496.41 224.347 497.357 215.023 498.15C212.357 498.402 209.682 498.628 207.017 498.826C204.351 499.024 201.658 499.277 198.984 499.529C190.014 500.431 181.044 501.332 172.074 502.153C167.07 502.63 162.067 503.054 157.081 503.514C149.612 504.19 142.171 504.92 134.72 505.551C130.835 505.876 126.924 506.074 123.003 506.354C116.471 506.831 109.966 507.363 103.443 507.841C99.122 508.148 94.7734 508.346 90.4522 508.643C83.4927 509.121 76.524 509.626 69.5918 510.131C67.9634 510.23 66.3623 510.356 64.6611 510.482C64.8158 510.942 64.834 511.041 64.8886 511.086C65.2161 511.393 65.5709 511.672 65.9075 511.943C84.2023 526.367 104.608 534.886 126.542 539.168C142.861 542.191 159.347 544.25 175.913 545.334C183.737 545.92 191.515 546.524 199.266 547.777C205.698 548.841 212.002 550.247 217.897 553.52C221.073 555.198 223.759 557.661 225.694 560.668C227.965 564.47 229.403 568.703 229.915 573.091C231.079 581.421 232.071 589.787 233.117 598.116C233.445 600.713 233.699 603.309 234.027 606.23H234.364L284.217 602.732C273.519 566.744 270.644 530.153 272.909 492.75" fill="#F1CAC1"/>
<path d="M37.4423 604.084C44.9113 604.742 52.362 605.319 59.831 605.77C67.8094 606.248 75.7877 606.599 83.7934 606.933C89.9978 607.185 96.2205 607.357 102.425 607.51C111.695 607.735 121.002 608.042 130.272 608.06C143.008 608.06 155.836 607.862 168.617 607.708C180.032 607.564 191.443 607.372 202.851 607.131C209.328 607.005 215.787 606.753 222.237 606.554C223.866 606.5 225.44 606.329 227.095 606.23C227.165 605.813 227.189 605.39 227.168 604.968C226.177 598.216 225.267 591.445 224.12 584.774C223.396 580.309 222.43 575.885 221.228 571.522C219.217 564.653 214.859 560.371 208.418 559.163C204.928 558.413 201.385 557.925 197.82 557.703C189.05 557.324 180.262 557.144 171.492 557.099C162.977 557.044 154.462 556.972 146.019 555.918C138.933 555.016 131.819 554.331 124.777 553.042C97.3031 547.957 72.6856 535.589 51.1884 515.873C47.6769 512.655 44.4747 511.14 39.7713 511.645C31.8202 512.502 23.7872 512.348 15.7815 512.376C10.3231 512.376 4.86468 512.222 -0.59375 512.069V600.505L0.679794 600.659C12.9522 601.822 25.2428 603.003 37.497 604.084" fill="#F2C2A6"/>
<path d="M23.0588 645.986C28.6537 646.445 34.2121 646.995 39.807 647.419C44.2283 647.752 48.6497 647.924 53.071 648.203C59.9304 648.681 66.7898 649.24 73.6765 649.691C80.0446 650.114 86.4128 650.475 92.781 650.827C99.9194 651.223 107.052 651.608 114.178 651.98C121.456 652.359 128.788 652.765 136.112 653.116C143.908 653.522 151.741 653.892 159.538 654.252C164.823 654.496 170.109 654.649 175.376 654.829C177.66 654.928 179.925 654.955 182.263 655.055C188.558 655.352 194.835 655.704 201.113 655.956C207.162 656.208 213.212 656.335 219.235 656.587C222.382 656.686 225.512 656.993 228.66 657.092C231.452 657.191 234.254 657.092 237.375 657.092C237.102 656.037 236.82 655 236.565 653.946C233.081 640.243 230.615 626.369 228.259 612.27C226.167 612.423 224.32 612.621 222.464 612.693C215.041 612.901 207.645 613.072 200.221 613.27C193.671 613.451 187.112 613.676 180.553 613.829C170.418 614.055 160.274 614.388 150.113 614.388C136.749 614.388 123.357 614.208 109.966 614.01C102.688 613.901 95.4738 613.658 88.2323 613.451C85.594 613.379 82.9467 613.351 80.3085 613.198C72.1209 612.747 63.815 612.297 55.5819 611.765C51.3334 611.512 47.0668 611.287 42.8456 610.936C34.9672 610.304 27.0616 609.601 19.1924 608.916C12.5877 608.339 5.97389 607.762 -0.603516 607.113V644.128C3.99976 644.48 8.56654 644.859 13.1698 645.21C16.4722 645.49 19.7746 645.67 23.1042 645.94" fill="#8FB7B4"/>
<path d="M234.818 612.396C236.411 625.927 238.841 639.349 242.096 652.585C242.526 654.268 243.061 655.924 243.697 657.543C247.282 657.777 250.912 658.048 254.614 658.255C259.29 658.48 263.966 658.652 268.642 658.832C270.462 658.904 272.2 658.958 274.01 659.057C279.014 659.337 284.017 659.715 289.03 659.959C294.488 660.199 299.925 660.4 305.341 660.563C308.134 660.635 310.927 660.563 314.002 660.563C301.94 645.098 292.602 627.725 286.382 609.178C268.952 610.26 251.921 611.341 234.873 612.396" fill="#3B402E"/>
<path d="M332.834 671.065C333.826 670.993 334.281 670.894 334.763 670.894C348.209 671.146 361.643 671.404 375.064 671.669C379.74 671.75 384.417 671.975 389.093 672.029C400.919 672.129 412.746 672.156 424.572 672.228C444.932 672.354 465.283 672.579 485.643 672.552C492.921 672.552 500.254 672.048 507.55 671.651V663.853C499.617 663.745 491.665 663.619 483.733 663.573C471.715 663.519 459.697 663.573 447.68 663.573C437.284 663.573 426.88 663.513 416.467 663.393C403.73 663.249 390.957 663.057 378.148 662.816C369.736 662.666 361.315 662.474 352.885 662.239C345.898 662.086 338.939 661.888 331.961 661.689C330.615 661.635 329.232 661.185 327.922 661.356C324.61 661.834 322.463 660.373 320.316 657.579L313.948 660.581C310.873 660.581 308.08 660.653 305.288 660.581C299.829 660.43 294.392 660.229 288.976 659.977C283.936 659.724 278.969 659.346 273.956 659.075C272.137 658.976 270.372 658.922 268.589 658.85C263.913 658.669 259.237 658.498 254.561 658.273C250.922 658.065 247.283 657.795 243.644 657.561C243.007 655.942 242.473 654.286 242.043 652.602L236.502 653.991C236.757 655.045 237.039 656.082 237.312 657.137C234.191 657.137 231.389 657.209 228.597 657.137C225.449 657.038 222.319 656.731 219.172 656.632C213.149 656.38 207.099 656.253 201.05 656.001C194.772 655.758 188.495 655.397 182.2 655.1C179.907 655 177.597 654.973 175.313 654.874C170.046 654.694 164.76 654.541 159.475 654.297C151.678 653.937 143.845 653.567 136.049 653.161C128.771 652.81 121.439 652.404 114.115 652.025C107.001 651.647 99.8687 651.262 92.7181 650.872C86.35 650.52 79.9818 650.159 73.6136 649.736C66.7269 649.285 59.8675 648.726 53.008 648.248C48.5867 647.969 44.1654 647.797 39.7441 647.473C34.1492 647.04 28.5907 646.49 22.9958 646.031C19.6662 645.76 16.3638 645.58 13.0614 645.3C8.45815 644.949 3.89136 644.57 -0.711914 644.219V652.224C5.65625 652.756 12.0244 653.315 18.3926 653.81C24.5879 654.315 30.7649 654.712 36.9694 655.172C45.157 655.758 53.4083 656.335 61.6414 656.884C67.9186 657.293 74.1959 657.672 80.4731 658.02C88.124 658.426 95.7657 658.778 103.389 659.174C110.785 659.553 118.182 659.904 125.578 660.31L147.484 661.446C154.699 661.825 161.913 662.221 169.136 662.582C177.187 662.979 185.275 663.33 193.326 663.736C197.42 663.916 201.514 664.087 205.571 664.286C213.759 664.664 222.046 665.016 230.28 665.449C233.427 665.602 236.557 665.899 239.877 666.125C240.132 666.684 240.469 667.315 240.723 667.991C242.201 672.253 243.973 676.41 246.027 680.431H252.459C250.38 676.685 248.589 672.788 247.101 668.775C246.846 668.09 246.664 667.387 246.391 666.431L257.235 667.062C261.329 667.288 265.423 667.459 269.489 667.711C276.931 668.189 284.4 668.721 291.851 669.199C293.67 669.298 295.435 669.325 297.209 669.406C302.395 669.604 307.58 669.776 312.793 669.983C315.522 670.109 318.197 670.281 320.917 670.38C321.481 670.405 322.034 670.54 322.545 670.779C323.055 671.017 323.513 671.353 323.892 671.768C326.968 674.826 330.208 677.718 333.599 680.431H344.142C341.477 678.52 338.857 676.456 336.319 674.283C335.254 673.382 334.235 672.426 332.789 671.11" fill="#B86640"/>
<path d="M239.921 666.08C236.601 665.854 233.471 665.557 230.324 665.404C222.09 664.971 213.857 664.619 205.615 664.241C201.53 664.042 197.427 663.871 193.37 663.691C185.319 663.285 177.231 662.934 169.18 662.528C161.966 662.176 154.743 661.78 147.528 661.401L125.622 660.265C118.226 659.859 110.83 659.508 103.433 659.129C95.8098 658.733 88.1679 658.381 80.517 657.975C74.2398 657.627 67.9627 657.248 61.6855 656.839C53.4979 656.29 45.2465 655.704 37.0134 655.127C30.809 654.676 24.6318 654.225 18.4365 653.765C12.0684 653.269 5.7002 652.711 -0.667969 652.179V680.386H246.053C243.999 676.365 242.227 672.208 240.749 667.946C240.494 667.27 240.158 666.639 239.903 666.08" fill="#F1CAC1"/>
<path d="M320.961 670.335C318.232 670.236 315.503 670.064 312.828 669.938C307.625 669.731 302.439 669.56 297.254 669.361C295.434 669.28 293.696 669.253 291.895 669.154C284.444 668.676 276.975 668.144 269.534 667.667C265.44 667.414 261.346 667.243 257.28 667.017L246.436 666.386C246.708 667.342 246.89 668.045 247.145 668.73C248.634 672.743 250.425 676.64 252.504 680.386H333.643C330.253 677.673 327.013 674.781 323.936 671.723C323.558 671.308 323.1 670.972 322.589 670.734C322.078 670.495 321.525 670.36 320.961 670.335Z" fill="#F2C2A6"/>
</g>
</g>
<defs>
<clipPath id="clip0_1336_37334">
<rect width="507" height="680" fill="white"/>
</clipPath>
<clipPath id="clip1_1336_37334">
<rect width="507.998" height="1102.17" fill="white" transform="translate(0 -75.063)"/>
</clipPath>
</defs>
</svg>
