<svg width="347" height="657" viewBox="0 0 347 657" fill="none" xmlns="http://www.w3.org/2000/svg">
  <title> </title>
<path d="M388.194 641.841C387.205 646.894 386.115 651.89 384.868 656.871H392.996C394.487 651.947 395.691 646.923 396.694 641.841C397.468 638.062 398.099 634.212 398.644 630.375C399.862 621.629 400.823 612.869 401.898 604.094C401.955 603.536 402.055 602.978 402.141 602.233C405.553 602.505 408.85 602.792 412.133 603.063C414.426 603.25 416.662 603.565 418.956 603.679C422.769 603.894 426.625 604.209 430.467 604.137C436.172 604.037 441.891 603.922 447.568 603.393C454.764 602.734 461.945 601.775 469.012 600.143C470.073 599.9 471.119 599.642 472.18 599.37C474.101 598.841 476.022 598.411 477.957 597.939V586.688C476.839 586.931 475.721 587.031 474.631 587.375C472.768 587.962 470.904 588.491 469.012 588.992C461.1 591.068 453.058 592.428 444.93 593.172C436.387 593.917 427.886 593.945 419.386 593.487C414.111 593.172 408.864 592.242 403.188 591.54C403.589 583.324 404.148 575.365 404.335 567.392C404.521 559.333 404.464 551.274 404.206 543.215C403.962 535.185 403.489 527.154 402.815 519.167C402.127 511.165 401.038 503.235 400.12 494.832C401.081 494.174 402.17 493.344 403.346 492.657C424.116 480.976 445.876 472.659 469.027 469.439C472.008 469.038 474.99 468.565 477.971 468.107V455.496C474.99 455.496 471.979 455.582 469.027 455.783C444.6 457.329 421.436 464.872 399.275 476.896C398.802 477.14 398.343 477.369 397.54 477.77C397.038 475.408 396.58 473.218 396.15 471.013C391.806 447.795 385.9 425.078 377.4 403.277C367.653 378.299 355.11 355.267 338.998 334.769C334.253 328.757 329.064 323.174 323.889 317.162C325.351 315.888 326.871 314.5 328.448 313.254C344.029 301.073 361.259 293.171 379.722 288.519C387.922 286.472 396.264 285.384 404.679 284.769C410.642 284.296 416.476 285.141 422.411 285.141C424.03 285.141 425.077 286.2 426.138 287.345C440.673 303.377 453.674 320.798 464.568 340.137C466.088 342.828 467.579 345.562 469.041 348.325C471.406 352.791 473.728 357.314 476.122 361.78C476.71 362.868 477.369 363.913 477.986 364.972V343.243C475.85 339.521 473.671 335.828 471.535 332.149C470.732 330.761 469.887 329.358 469.055 327.969C461.071 314.772 452.298 302.275 442.45 290.738C442.02 290.237 441.676 289.678 440.902 288.634C442.121 288.82 442.866 288.877 443.54 289.034C452.269 291.21 460.798 294.087 469.055 297.895C471.076 298.825 473.083 299.784 475.076 300.844C476.007 301.316 477.025 301.502 478 301.831V291.296C476.968 290.766 475.921 290.308 474.889 289.721C472.969 288.605 471.005 287.546 469.055 286.529C456.14 279.859 442.608 275.335 428.488 272.959C426.353 272.587 424.647 271.599 423.027 270.039C405.639 253.52 386.861 239.292 366.75 227.296C357.188 221.599 347.312 216.732 337.292 212.238C331.3 209.546 325.251 206.999 319.159 204.494C290.389 192.656 260.803 185.183 230.227 182.607C219.548 181.705 208.897 180.846 198.247 179.787C186.98 178.67 175.713 177.582 164.475 176.122C156.533 175.063 148.678 173.174 141.195 169.767C127.534 163.569 119.005 152.289 116.053 136.142C114.906 129.787 114.805 123.188 114.461 116.675C114.304 113.325 114.676 109.918 114.834 106.54C115.121 101.086 115.078 95.5323 115.766 90.1501C118.346 70.4392 120.912 50.6854 123.937 31.0746C125.485 21.0546 127.004 11.0345 128.423 1.0001L116.755 1.0001C114.848 12.9383 112.756 24.8622 110.706 36.7861C107.695 54.1781 104.714 71.6273 103.194 89.2913C101.861 104.507 101.302 119.824 103.624 135.04C105.732 149.025 111.035 161.021 121.041 170.01C127.965 176.237 136.092 179.873 144.564 182.535C152.577 185.083 160.762 186.629 169.062 187.402C181.074 188.547 193.086 189.449 205.099 190.465C215.749 191.396 226.429 192.14 237.065 193.314C261.247 195.948 284.871 201.688 307.964 210.205C316.722 213.454 325.409 216.804 333.981 220.583C342.553 224.333 350.967 228.513 359.152 233.323C376.44 243.515 392.552 255.71 407.861 269.309C408.176 269.624 408.506 269.896 408.85 270.554C372.87 270.154 340.804 282.636 312.221 306.67C308.924 304.064 305.828 301.531 302.631 299.14C279.81 282.221 254.983 271.184 227.919 266.532C214.703 264.27 201.415 263.526 188.127 264.113C173.591 264.8 159.2 267.119 144.851 269.853C130.516 272.573 116.167 275.307 101.804 277.755C95.1241 278.871 88.3582 279.429 81.6209 278.041C74.5683 276.609 68.7342 272.83 64.0898 266.818C57.5675 258.487 53.7259 248.568 50.5293 238.247C46.9313 226.652 44.4514 214.685 42.6166 202.604C39.85 184.439 37.3702 166.245 34.8903 148.023C28.4684 100.499 21.1148 53.1331 9.77613 6.71154C9.31743 4.80772 8.81575 2.91822 8.32837 1.02872L0 1.02872C3.85599 16.2736 7.03827 31.7188 9.90518 47.2642C14.4636 72.4003 18.1045 97.7224 21.2725 123.145C24.2254 146.95 27.2929 170.726 30.5182 194.473C32.5681 209.561 35.1483 224.605 39.248 239.235C42.2009 249.741 46.0139 259.847 51.848 268.808C55.876 275.006 60.8788 280.002 66.971 283.652C77.4352 289.908 88.6019 290.995 100.026 289.793C109.645 288.777 119.206 287.288 128.767 285.885C141.611 283.967 154.44 281.662 167.327 280.002C176.301 278.828 185.331 278.141 194.333 277.611C198.777 277.339 203.235 277.898 207.708 277.984C216.237 278.17 224.68 279.444 233.065 281.147C257.463 286.143 279.466 297.265 299.463 313.598C300.366 314.342 301.226 315.115 302.258 315.988C301.642 316.761 301.298 317.32 300.825 317.792C293.443 325.422 286.978 333.996 281.516 343.429C266.68 369.037 259.513 397.337 258.739 427.769C258.61 432.665 259.025 437.561 259.111 442.456C259.298 450.515 260.258 458.488 261.634 466.39C267.898 502.992 283.767 533.281 309.196 557.272C309.884 557.916 310.529 558.632 311.332 559.448C310.902 560.249 310.558 560.936 310.114 561.58C299.965 577.355 291.393 594.16 284.254 611.895C280.283 621.715 276.714 631.735 273.733 641.97C272.299 646.923 271.038 651.919 269.92 657H288.669C290.131 651.976 291.593 646.951 293.142 641.97C297.585 627.684 302.545 613.642 308.695 600.086C313.095 590.381 318.155 581.148 323.688 572.216C324.033 571.658 324.434 571.157 324.993 570.455C346.251 585.328 369.201 595.319 393.942 600.802C392.638 614.744 390.875 628.457 388.237 641.97L388.194 641.841ZM309.813 533.653C295.808 515.832 285.917 495.491 280.384 472.531C277.832 461.895 276.843 450.987 276.714 439.98C276.657 433.567 276.614 427.111 276.929 420.698C277.861 402.59 281.617 385.213 287.737 368.408C293.256 353.12 301.642 340.008 312.006 328.456C312.379 328.027 312.751 327.612 313.124 327.254C313.282 327.096 313.497 327.039 314.056 326.753C320.263 333.08 326.097 339.707 331.501 346.836C349.849 371.07 363.137 398.568 373.157 428.17C379.049 445.677 383.521 463.656 387.162 481.921C387.291 482.479 387.262 483.066 387.32 483.839C361.589 499.685 339.385 520.355 320.521 546.207C316.794 541.869 313.138 537.933 309.813 533.653ZM333.164 557.801C349.62 535.485 368.298 516.519 389.943 501.174C394.042 512.296 397.024 567.349 394.659 589.264C372.713 582.451 351.67 573.676 333.164 557.801Z" fill="currentColor"/>
<path d="M529.965 259.699C529.206 258.842 528.398 258.05 527.722 257.16C525.116 253.697 522.444 250.334 519.69 247.052C513.769 239.946 507.469 233.235 500.938 226.805C478.623 204.743 453.538 187.678 426.144 174.784C404.291 164.495 382.322 154.618 360.651 143.868C337.396 132.408 316.583 116.728 299.051 95.9196C291.448 86.884 285.016 76.892 280.018 65.7128C276.225 57.2872 274.774 48.5814 276.192 39.183C277.446 30.9717 280.084 23.7663 285.477 17.8634C289.485 13.5105 293.872 9.86656 298.721 6.86567C303.042 4.22753 307.512 2.10052 312.064 0.418703L277.94 0.418701C269.166 7.83849 262.635 17.3688 259.716 29.7516C256.648 42.8269 258.182 55.6714 262.718 68.0212C269.249 85.8452 279.936 100.256 292.569 112.936C305.533 125.896 320.112 136.217 335.5 145.072C352.933 155.064 371.074 163.027 389.348 170.777C406.138 177.917 422.878 185.204 439.024 194.092C470.41 211.372 497.243 235.115 519.674 265.14C519.888 265.388 520.069 265.668 520.284 265.932C523.384 270.136 526.749 274.176 529.965 278.249V259.683V259.699Z" fill="currentColor"/>
<path d="M439.569 46.8994C447.93 56.3637 455.319 66.7844 462.213 77.6338C473.708 95.7381 483.967 114.733 493.862 133.942C501.185 148.155 508.294 162.5 516.82 175.855C517.777 177.323 518.717 178.774 519.674 180.241C522.774 184.957 526.023 189.491 529.965 193.382V178.032C529.173 177.026 528.316 176.103 527.607 175.064C524.852 171.024 522.213 166.919 519.674 162.747C515.253 155.492 511.13 148.006 507.139 140.438C496.782 120.866 486.672 101.196 475.918 81.9208C465.38 63.0745 453.389 45.3989 438.711 30.2956C427.166 18.4239 414.665 8.46489 401.19 0.435033L371.388 0.435032C397.892 8.69573 420.206 25.0028 439.569 46.8994Z" fill="currentColor"/>
<path d="M528.53 77.4689C528.893 78.722 529.487 79.8597 529.965 81.0469V35.8027C528.745 32.5874 527.458 29.4052 526.287 26.1899C524.209 20.4355 521.999 14.7635 519.674 9.15741C518.453 6.22247 517.2 3.32051 515.913 0.435038L499.223 0.435038C507.09 16.1815 513.835 32.472 519.674 49.2572C522.89 58.5402 525.858 67.9221 528.53 77.4689Z" fill="currentColor"/>
</svg>
