<svg width="213" height="640" viewBox="0 0 213 640" fill="none" xmlns="http://www.w3.org/2000/svg">
<path d="M109.135 584.102C108.837 583.651 108.608 583.186 108.303 582.629C108.86 582.08 109.31 581.584 109.776 581.141C127.232 564.646 138.117 543.817 142.431 518.655C143.406 513.218 143.982 507.718 144.155 502.198C144.216 498.833 144.491 495.461 144.407 492.096C143.873 471.168 138.951 451.712 128.766 434.111C125.081 427.719 120.63 421.801 115.513 416.486C115.193 416.166 114.956 415.784 114.529 415.25C115.231 414.655 115.826 414.121 116.444 413.61C130.177 402.379 145.284 394.727 162.031 391.301C167.759 390.047 173.589 389.315 179.45 389.111C182.501 389.042 185.553 388.661 188.605 388.852C194.793 389.218 200.988 389.683 207.153 390.492C215.995 391.644 224.8 393.224 233.62 394.543C240.181 395.505 246.751 396.527 253.358 397.229C261.201 398.061 268.869 397.313 276.056 393.01C280.251 390.447 283.801 386.954 286.432 382.801C290.438 376.644 293.062 369.694 295.084 362.468C297.788 352.362 299.789 342.081 301.073 331.698C303.286 315.371 305.402 299.023 307.421 282.655C309.596 265.175 312.091 247.765 315.226 230.484C317.569 217.742 320.193 205.077 323.581 192.656C324.71 188.521 325.923 184.406 327.22 180.311C327.373 179.869 327.518 179.418 327.754 178.785C328.366 178.79 328.977 178.825 329.585 178.892C339.817 180.708 350.048 182.325 360.211 184.393C380.139 188.46 400.022 192.831 419.928 197.028C422.018 197.455 424.109 197.859 426.215 198.241V235.153C425.085 235.008 423.926 234.878 422.827 234.771C398.725 232.643 377.606 240.806 359.448 258.538C349.476 268.296 343.227 280.831 339.672 295.084C337.627 302.825 336.588 310.797 336.582 318.804C336.724 327.915 338.582 336.918 342.06 345.34C348.164 360.477 358.532 370.96 371.052 379.101C381.261 385.769 392.255 390.202 403.661 393.506C411.103 395.621 418.648 397.351 426.268 398.686V422.552C419.684 422.834 413.099 423.025 406.515 423.49C397.176 424.154 387.891 425.131 378.636 426.58C360.325 429.48 342.174 433.256 324.062 437.323C290.6 444.731 258.045 455.765 226.975 470.229C214.309 476.18 201.949 482.872 190.635 491.737C183.669 497.17 177.206 503.182 171.858 510.636C166.775 517.67 163.922 526.07 163.671 534.746C163.443 540.521 165.335 545.587 167.914 550.409C171.408 556.963 176.497 561.541 182.257 565.264C189.467 569.933 197.196 572.871 205.108 575.404C217.655 579.327 230.447 582.419 243.401 584.659C254.441 586.68 265.527 588.382 276.674 589.511C283.281 590.198 289.866 590.9 296.511 591.434C302.05 591.884 307.612 592.265 313.174 592.372C326.907 592.647 340.603 592.776 354.328 592.86C361.271 592.921 368.199 592.815 375.127 592.708C381.23 592.601 387.273 592.433 393.346 592.242C397.481 592.113 401.64 592.052 405.752 591.731C412.619 591.197 419.417 590.579 426.253 589.961V639.363H134.114C132.061 632.354 129.655 625.453 126.904 618.687C122.092 606.623 116.147 595.043 109.15 584.102" fill="#F2D1C7"/>
<path d="M94.4323 436.537C81.8358 453.2 72.7108 472.106 65.8288 492.462C61.8401 504.561 58.6291 516.903 56.2155 529.412C56.155 529.85 56.1193 530.291 56.1087 530.732C73.7789 541.627 89.0153 555.841 101.978 573.618C104.534 570.628 107.052 567.927 109.325 564.982C119.035 552.608 125.932 538.268 129.536 522.958C131.206 515.616 132.048 508.11 132.046 500.58C132.092 496.17 132.115 491.737 131.901 487.32C131.237 475.033 128.737 462.915 124.485 451.369C120.76 441.22 115.098 431.892 107.815 423.902C107.563 423.605 107.303 423.33 107.052 423.071C106.852 422.934 106.637 422.821 106.411 422.735C102.125 427.076 98.1242 431.689 94.4323 436.545V436.537ZM51.0807 603.221C66.1493 598.537 80.5998 592.54 93.3031 581.591C82.0037 566.248 69.1782 553.209 54.3233 542.68C51.508 550.31 49.4633 588.183 51.0807 603.244V603.221ZM31.6023 383.732C43.347 372.528 56.3061 362.671 70.2388 354.343C76.774 350.502 83.5275 347.045 90.4649 343.99L92.7538 349.719C86.8258 352.296 81.0554 355.22 75.4727 358.478C63.5505 365.623 52.351 373.91 42.032 383.221C41.7562 383.463 41.5261 383.752 41.353 384.076C66.0501 383.801 88.0692 392.384 107.731 408.902C110.02 407.109 112.118 405.362 114.315 403.722C129.979 392.087 147.023 384.503 165.609 381.306C174.631 379.775 183.79 379.218 192.931 379.643C202.91 380.108 212.768 381.71 222.641 383.587C232.513 385.464 242.333 387.333 252.205 389.02C256.783 389.783 261.43 390.172 266.053 389.21C270.864 388.203 275.131 385.45 278.032 381.482C282.51 375.744 285.15 368.931 287.348 361.828C289.774 353.807 291.59 345.615 292.78 337.321C294.68 324.832 296.389 312.319 298.121 299.791C302.53 267.121 307.581 234.558 315.364 202.628C316.279 198.813 317.324 194.998 318.415 191.252L323.665 192.679C320.269 205.1 317.652 217.757 315.31 230.506C312.174 247.788 309.679 265.198 307.505 282.678C305.47 299.041 303.354 315.386 301.157 331.713C299.87 342.098 297.869 352.382 295.168 362.491C293.146 369.717 290.521 376.667 286.516 382.824C283.882 386.978 280.329 390.47 276.132 393.033C268.952 397.336 261.285 398.084 253.441 397.252C246.834 396.55 240.265 395.528 233.704 394.566C224.884 393.246 216.079 391.667 207.236 390.515C201.072 389.706 194.876 389.241 188.689 388.875C185.637 388.684 182.585 389.065 179.533 389.134C173.636 389.321 167.767 390.043 162 391.293C145.215 394.719 130.139 402.371 116.413 413.602C115.795 414.113 115.2 414.648 114.498 415.243C114.926 415.777 115.162 416.158 115.482 416.479C120.612 421.799 125.073 427.725 128.766 434.126C138.951 451.735 143.872 471.191 144.406 492.111C144.49 495.476 144.216 498.848 144.155 502.213C143.983 507.734 143.404 513.234 142.423 518.67C138.12 543.832 127.237 564.661 109.776 581.157C109.31 581.599 108.86 582.095 108.303 582.644C108.601 583.201 108.837 583.667 109.135 584.117C116.136 595.053 122.086 606.628 126.904 618.687C129.66 625.453 132.071 632.353 134.129 639.363H120.8C117.843 629.552 114.276 619.935 110.119 610.569C107.099 603.97 103.661 597.571 99.8265 591.411C99.5504 590.989 99.2498 590.584 98.9262 590.198C84.7015 600.226 68.6201 607.317 51.6225 611.057C52.5228 620.648 53.7359 630.07 55.5441 639.363H49.7074C49.1733 636.761 48.7461 634.121 48.3646 631.474C47.533 625.469 46.8387 619.434 46.1291 613.407C46.0833 613.018 46.0223 612.644 45.9536 612.125L39.087 612.705C37.5077 612.827 35.9741 613.041 34.3947 613.125C31.7778 613.277 29.1303 613.491 26.4905 613.445C22.5688 613.384 18.6472 613.3 14.7484 612.934C9.79413 612.532 4.87384 611.785 0.0232849 610.698V603.023C5.44537 604.437 10.9755 605.4 16.5567 605.899C22.3936 606.387 28.2578 606.458 34.1048 606.113C37.7289 605.899 41.3301 605.266 45.2288 604.77C44.9542 599.124 44.5727 593.646 44.4659 588.168C44.3591 582.69 44.3819 577.09 44.5498 571.551C44.7177 566.012 45.0381 560.511 45.5111 555.01C45.9842 549.509 46.7242 544.054 47.3651 538.278C46.7014 537.836 45.9536 537.256 45.1449 536.752C30.8928 528.718 15.9463 523.019 0.053772 520.783V511.429C16.839 512.49 32.7238 517.67 47.9373 525.926C48.2578 526.094 48.5782 526.246 49.1352 526.521C49.4709 524.903 49.7914 523.385 50.0889 521.874C53.0721 505.913 57.1234 490.288 62.9677 475.334C69.6589 458.152 78.2651 442.32 89.3281 428.228C92.5859 424.101 96.149 420.263 99.7044 416.128C98.7049 415.25 97.6596 414.297 96.5762 413.442C86.1507 405.337 74.1232 399.538 61.2892 396.428C55.6618 395.078 49.9286 394.215 44.153 393.849C40.0636 393.529 36.058 394.101 31.9838 394.101C30.8775 394.101 30.1527 394.864 29.4279 395.627C19.3025 406.699 10.4526 418.873 3.04462 431.921C1.99936 433.775 0.97699 435.644 -0.00723267 437.544V423.536C5.37402 414.52 11.4828 405.96 18.2581 397.939C18.5557 397.595 18.7845 397.176 19.3186 396.489C18.487 396.619 17.9758 396.665 17.5104 396.764C11.4821 398.242 5.60666 400.286 -0.0377808 402.867V395.039C8.70691 390.502 18.1047 387.354 27.818 385.708C29.2448 385.445 30.554 384.743 31.5641 383.702" fill="#BF7345"/>
<path d="M98.9261 590.198C99.2498 590.584 99.5504 590.989 99.8264 591.411C103.661 597.572 107.099 603.971 110.119 610.569C114.276 619.935 117.843 629.552 120.8 639.363H55.5212C53.713 630.07 52.4693 620.648 51.5996 611.057C68.5972 607.317 84.6785 600.226 98.9033 590.198" fill="#FCC294"/>
<path d="M26.4676 613.422C29.1075 613.468 31.7549 613.254 34.3719 613.102C35.9512 613.018 37.4848 612.804 39.0641 612.682L45.9308 612.102C45.9995 612.613 46.0605 612.995 46.1063 613.384C46.8692 619.411 47.5101 625.446 48.3418 631.451C48.7232 634.098 49.1505 636.738 49.6846 639.34H0.00804901V610.698C4.85849 611.785 9.77884 612.532 14.7332 612.934C18.632 613.3 22.5536 613.384 26.4752 613.445" fill="#F2C2A6"/>
<path d="M47.312 538.278C46.6711 544.054 45.9234 549.509 45.458 555.01C44.9926 560.511 44.6951 566.027 44.4967 571.551C44.2983 577.075 44.2831 582.629 44.4128 588.168C44.5425 593.708 44.9239 599.125 45.1757 604.771C41.277 605.266 37.6758 605.9 34.0517 606.113C28.2048 606.462 22.3403 606.391 16.5036 605.9C10.9219 605.404 5.39148 604.441 -0.0298309 603.023V520.829C15.8627 523.042 30.8091 528.757 45.0613 536.791C45.87 537.256 46.5872 537.836 47.2815 538.316" fill="#9CBFBD"/>
<path d="M93.334 581.584C80.6307 592.494 66.1801 598.529 51.1116 603.214C49.4941 588.153 51.5389 550.302 54.3542 542.65C69.2091 553.202 82.0345 566.241 93.334 581.561" fill="#3B402E"/>
<path d="M393.331 592.242C387.227 592.433 381.184 592.601 375.111 592.708C368.183 592.815 361.256 592.921 354.313 592.86C340.579 592.776 326.846 592.647 313.159 592.372C307.597 592.265 302.035 591.876 296.495 591.434C289.865 590.9 283.281 590.198 276.658 589.511C265.512 588.382 254.426 586.68 243.386 584.658C230.437 582.418 217.65 579.327 205.108 575.404C197.196 572.871 189.444 569.91 182.219 565.264C176.497 561.541 171.408 556.963 167.913 550.409C165.335 545.587 163.442 540.491 163.671 534.745C163.922 526.07 166.774 517.67 171.858 510.636C177.199 503.197 183.669 497.17 190.634 491.737C201.949 482.872 214.286 476.173 226.974 470.229C258.035 455.767 290.579 444.733 324.031 437.323C342.144 433.256 360.302 429.479 378.606 426.58C387.86 425.131 397.146 424.154 406.484 423.49C413.069 423.025 419.653 422.834 426.237 422.552V427.969C422.041 428.205 417.845 428.396 413.626 428.732C408.018 429.136 402.395 429.647 396.787 430.158C385.915 431.181 375.134 433.142 364.392 435.209C347.301 438.513 330.272 442.244 313.395 446.654C291.826 452.3 270.387 458.503 249.497 466.857C234.665 472.785 220.214 479.713 206.535 488.533C197.265 494.461 188.59 501.343 181.41 510.422C178.203 514.348 175.692 518.794 173.987 523.568C170.881 532.479 172.606 540.468 177.893 547.586C180.743 551.381 184.389 554.505 188.574 556.742C194.279 559.746 200.294 562.123 206.512 563.83C223.602 568.88 241.036 571.742 258.515 574.336C266.419 575.511 274.37 576.472 282.297 577.342C290.224 578.211 298.197 578.944 306.17 579.562C312.35 580.05 318.553 580.325 324.756 580.538C332.385 580.798 340.053 581.027 347.683 581.027C362.774 581.027 377.858 580.821 392.949 580.729C402.883 580.694 412.822 580.694 422.766 580.729C423.918 580.729 425.093 580.775 426.237 580.813V589.915C419.371 590.533 412.58 591.151 405.737 591.685C401.624 592.006 397.466 592.067 393.331 592.197" fill="#BF7345"/>
<path d="M392.949 580.752C377.858 580.844 362.774 581.034 347.683 581.05C340.053 581.05 332.423 580.821 324.748 580.561C318.553 580.348 312.35 580.073 306.17 579.585C298.197 578.967 290.247 578.242 282.297 577.365C274.347 576.487 266.419 575.533 258.515 574.359C241.036 571.764 223.602 568.903 206.512 563.853C200.296 562.123 194.287 559.723 188.59 556.696C184.404 554.46 180.758 551.335 177.908 547.54C172.621 540.422 170.897 532.434 174.002 523.522C175.707 518.765 178.213 514.335 181.41 510.422C188.59 501.358 197.265 494.476 206.535 488.51C220.214 479.675 234.665 472.747 249.497 466.819C270.387 458.426 291.826 452.262 313.395 446.616C330.272 442.206 347.301 438.475 364.392 435.171C375.134 433.104 385.915 431.143 396.787 430.12C402.395 429.609 408.018 429.098 413.626 428.694C417.822 428.396 422.018 428.205 426.237 427.931V464.248L421.98 464.759C414.111 465.695 406.24 466.646 398.366 467.612C392.568 468.314 386.746 469.001 380.955 469.726C348.346 473.838 316.378 480.995 285.921 495.193C278.08 498.698 270.568 502.895 263.474 507.737C259.349 510.501 255.663 513.87 252.541 517.731C250.252 520.722 249.176 524.194 248.688 528.009C248.2 531.823 249.627 534.913 252.053 537.431C254.479 539.949 257.394 541.154 260.369 542.268C265.717 544.131 271.267 545.352 276.903 545.908C282.785 546.594 288.69 547.083 294.596 547.533C300.005 547.937 305.422 548.128 310.809 548.509C325.664 549.616 340.518 549.616 355.373 549.402C363.194 549.295 371.037 548.593 378.865 548.021C384.618 547.594 390.37 547.105 396.1 546.404C404.966 545.312 413.793 544.031 422.636 542.795C423.826 542.627 425.024 542.459 426.214 542.268V580.859C425.07 580.821 423.926 580.775 422.743 580.775C412.794 580.714 402.855 580.714 392.926 580.775" fill="#F2C2A6"/>
<path d="M107.83 423.895C115.114 431.884 120.776 441.212 124.501 451.361C128.753 462.908 131.253 475.026 131.917 487.312C132.131 491.73 132.108 496.163 132.062 500.572C132.063 508.102 131.221 515.608 129.552 522.95C125.953 538.261 119.061 552.605 109.356 564.982C107.068 567.927 104.565 570.635 102.009 573.618C89.0387 555.841 73.7794 541.627 56.1474 530.732C56.1523 530.291 56.1855 529.85 56.2465 529.412C58.6601 516.903 61.8711 504.561 65.8599 492.462C72.7265 472.106 81.8821 453.2 94.4634 436.537C98.1553 431.681 102.156 427.068 106.442 422.727C106.669 422.814 106.884 422.93 107.083 423.071C107.335 423.322 107.594 423.597 107.846 423.895" fill="#F2C2A6"/>
<path d="M29.4511 395.619C30.1759 394.856 30.9007 394.093 32.007 394.093C36.0812 394.093 40.0868 393.521 44.1763 393.842C49.9443 394.211 55.6699 395.076 61.2895 396.428C74.0961 399.546 86.0966 405.342 96.5003 413.435C97.5837 414.289 98.6289 415.243 99.6284 416.12C96.073 420.255 92.51 424.093 89.2521 428.221C78.1892 442.313 69.5829 458.144 62.8918 475.326C57.0475 490.303 52.9732 505.929 50.0129 521.867C49.7154 523.393 49.3949 524.919 49.0592 526.513C48.5023 526.239 48.1818 526.086 47.8614 525.918C32.6479 517.648 16.7478 512.467 -0.0221634 511.422V437.536C0.995125 435.644 2.01241 433.77 3.02969 431.913C10.4377 418.866 19.2875 406.692 29.4129 395.619" fill="#F2D1C7"/>
<path d="M19.3264 396.489C18.7923 397.252 18.5635 397.595 18.2659 397.939C11.4906 405.959 5.38182 414.52 0.000577927 423.536V402.844C5.645 400.263 11.5204 398.219 17.5487 396.741C18.0141 396.642 18.5253 396.596 19.3569 396.466" fill="#F2D1C7"/>
<path d="M159.262 330.935C166.579 330.126 173.903 329.6 181.212 328.974C189.46 328.272 197.708 327.654 205.955 326.861C211.654 326.351 217.281 325.23 222.74 323.519C228.562 321.688 234.147 319.193 238.9 314.905C245.767 308.725 249.406 300.478 250.856 290.864C252.45 280.404 252.069 269.875 251.153 259.407C250.108 247.261 248.101 235.267 245.996 223.312C242.837 205 239.556 186.781 237.893 168.241C237.832 167.478 237.748 166.715 237.641 165.662C265.985 168.981 293.948 172.971 322.101 177.702C321.842 178.617 321.697 179.228 321.521 179.83C320.484 183.645 319.37 187.46 318.324 191.275C317.279 195.09 316.219 198.836 315.273 202.651C307.49 234.581 302.44 267.144 298.03 299.814C296.328 312.342 294.619 324.854 292.689 337.344C291.499 345.638 289.683 353.83 287.257 361.85C285.059 368.954 282.419 375.767 277.948 381.504C275.042 385.445 270.786 388.178 265.993 389.18C261.369 390.141 256.723 389.752 252.145 388.989C242.272 387.303 232.43 385.426 222.58 383.557C212.73 381.687 202.85 380.078 192.87 379.612C183.73 379.187 174.57 379.745 165.549 381.275C146.963 384.472 129.918 392.056 114.255 403.691C112.057 405.332 109.929 407.079 107.67 408.872C88.0393 392.354 66.0202 383.77 41.2926 384.045C41.4657 383.722 41.6957 383.432 41.9716 383.19C52.2906 373.879 63.4901 365.592 75.4123 358.448C80.9958 355.191 86.7661 352.267 92.6934 349.689C98.5758 347.087 104.55 344.791 110.554 342.547C126.241 336.691 142.59 332.791 159.231 330.935" fill="#3B402E"/>
<path d="M41.9405 155.049C44.7558 152.081 44.7329 152.058 48.5249 152.211C54.6286 152.448 60.6483 152.615 66.7292 152.875C73.0541 153.127 79.4096 153.493 85.7346 153.79C90.236 153.981 94.7299 154.088 99.2237 154.324C103.428 154.538 107.616 154.836 111.797 155.087C113.377 155.171 114.956 155.171 116.535 155.255C122.715 155.576 128.918 155.873 135.114 156.262C142.087 156.69 149.058 157.173 156.026 157.712C162.074 158.155 168.112 158.63 174.139 159.139C182.112 159.841 190.062 160.611 198.012 161.374C203.506 161.888 209.05 162.427 214.645 162.992C219.184 163.442 223.716 163.953 228.256 164.464C228.856 164.584 229.447 164.742 230.026 164.937C230.217 166.829 230.453 168.752 230.629 170.621C232.01 186.995 234.482 203.192 236.977 219.39C239.044 232.879 240.792 246.452 242.584 260.01C243.05 263.718 243.027 267.533 243.218 271.279C243.325 273.606 243.584 275.948 243.477 278.253C243.241 282.723 243.18 287.263 242.386 291.635C240.334 302.736 234.482 310.526 225.097 314.76C220.003 317.004 214.603 318.475 209.075 319.124C201.362 320.132 193.625 320.872 185.889 321.642C178.58 322.367 171.263 322.962 163.938 323.58C142.939 325.42 122.35 330.495 102.901 338.626C98.7202 340.358 94.562 342.105 90.4497 343.967C83.5122 347.022 76.7587 350.479 70.2235 354.32C56.2909 362.648 43.3317 372.505 31.5871 383.709C30.5769 384.751 29.2677 385.452 27.8409 385.716C18.1277 387.362 8.72983 390.51 -0.0148468 395.047V356.723C13.3879 338.804 29.433 324.676 48.1205 314.341C57.7567 309.038 67.7515 304.689 77.7692 300.424C88.6796 295.801 99.506 291.047 109.905 285.081C119.253 279.848 127.866 273.398 135.518 265.9C143.064 258.332 149.442 249.725 153.341 239.09C156.042 231.712 156.965 224.044 155.126 216.239C153.188 207.991 148.565 201.857 142.385 197.234C134.587 191.389 126.057 187.574 116.68 186.659C108.326 185.788 99.8812 186.653 91.8764 189.199C75.4193 194.441 60.9077 203.604 48.3112 216.559C39.5524 225.578 32.3958 236.129 26.109 247.375C19.6925 258.889 13.6575 270.631 7.47745 282.311C5.08939 286.828 2.64027 291.307 0.000427246 295.633V227.882C4.53986 214.643 10.241 201.831 17.0374 189.596C24.11 176.954 32.228 165.273 41.9481 155.049" fill="#F2C2A6"/>
<path d="M26.1089 247.345C32.3958 236.099 39.5524 225.547 48.3112 216.529C60.9077 203.558 75.4193 194.403 91.8764 189.169C99.8811 186.623 108.326 185.758 116.68 186.628C126.057 187.544 134.587 191.359 142.385 197.203C148.565 201.827 153.188 207.961 155.126 216.208C156.965 224.014 156.049 231.681 153.341 239.059C149.442 249.695 143.064 258.301 135.525 265.87C127.871 273.368 119.256 279.818 109.905 285.051C99.506 291.017 88.6796 295.77 77.7692 300.394C67.7515 304.659 57.7567 309.008 48.1204 314.31C29.3871 324.625 13.3471 338.763 0.000366211 356.723V345.92C3.53288 341.678 7.28664 337.672 11.1854 333.834C24.1734 321.005 39.268 310.502 55.8111 302.782C68.8578 296.64 81.9655 290.742 94.8977 284.326C109.017 277.454 121.541 267.702 131.665 255.699C136.281 250.254 140.105 244.185 143.025 237.671C145.333 232.735 146.13 227.226 145.314 221.839C144.551 216.933 142.987 212.63 139.768 209.113C137.452 206.567 134.792 204.359 131.863 202.551C125.278 198.582 117.825 196.277 110.149 195.837C103.719 195.477 97.2726 196.189 91.0752 197.943C74.1298 202.59 59.9998 212.676 47.8305 226.44C42.8545 232.181 38.3366 238.303 34.3184 244.751C27.4518 255.554 21.3481 266.877 15.4351 278.359C11.0709 286.844 6.82887 295.412 1.70175 303.385C1.12953 304.254 0.572586 305.132 0.000366211 306.002V295.602C2.64021 291.276 5.08931 286.798 7.47739 282.281C13.6574 270.6 19.6848 258.858 26.1089 247.345Z" fill="#BF7345"/>
<path d="M247.941 61.037L247.285 66.7058L246.087 66.5761C237.305 96.942 234.642 127.888 237.03 159.711C237.435 159.749 237.839 159.795 238.228 159.818L237.671 165.7C237.778 166.761 237.862 167.508 237.923 168.279C239.586 186.819 242.875 205.061 246.026 223.35C248.093 235.305 250.138 247.299 251.183 259.445C252.099 269.913 252.48 280.442 250.886 290.902C249.436 300.516 245.789 308.763 238.93 314.943C234.177 319.231 228.592 321.726 222.771 323.557C217.312 325.272 211.684 326.392 205.985 326.899C197.738 327.662 189.49 328.311 181.243 329.012C173.933 329.653 166.601 330.165 159.292 330.973C142.641 332.822 126.282 336.717 110.585 342.57C104.58 344.813 98.606 347.11 92.7312 349.712L90.4423 343.982C94.5623 342.128 98.7128 340.381 102.894 338.641C122.343 330.511 142.931 325.435 163.931 323.595C171.263 322.977 178.572 322.382 185.881 321.658C193.618 320.895 201.354 320.132 209.068 319.14C214.583 318.486 219.97 317.016 225.052 314.776C234.429 310.511 240.311 302.751 242.318 291.65C243.081 287.278 243.165 282.739 243.401 278.268C243.508 275.979 243.249 273.621 243.142 271.294C242.951 267.548 242.974 263.733 242.508 260.025C240.738 246.467 238.968 232.894 236.901 219.405C234.406 203.208 231.934 187.01 230.553 170.637C230.377 168.744 230.148 166.822 229.95 164.953C229.373 164.758 228.784 164.6 228.188 164.48C223.648 163.968 219.108 163.457 214.569 163.007C209.019 162.437 203.485 161.898 197.967 161.39C190.017 160.627 182.067 159.864 174.094 159.154V153.676C176.326 153.844 178.565 154.035 180.808 154.248C188.628 154.958 196.448 155.721 204.246 156.446C210.021 157.002 215.782 157.537 221.535 158.086L229.378 158.895C227.478 127.209 229.889 96.2401 238.861 65.8132L197.097 62.8071L197.463 57.5426C211.776 58.4353 226.089 59.3509 240.677 60.274C245.893 44.5761 253.724 29.8726 263.841 16.7852L269.182 19.3258C260.072 31.5591 253.014 45.1934 248.284 59.6942C248.145 60.135 248.03 60.5833 247.941 61.037Z" fill="#BF7345"/>
<path d="M15.4045 278.397C21.3099 266.953 27.4288 255.592 34.2879 244.789C38.3035 238.34 42.8216 232.217 47.7999 226.478C60.0074 212.744 74.0993 202.628 91.0447 197.989C97.2409 196.228 103.687 195.514 110.119 195.875C117.795 196.315 125.248 198.62 131.833 202.589C134.759 204.399 137.42 206.607 139.737 209.151C142.957 212.668 144.536 216.971 145.284 221.877C146.099 227.265 145.303 232.773 142.995 237.709C140.075 244.223 136.25 250.292 131.634 255.737C121.504 267.728 108.978 277.466 94.8595 284.326C81.8891 290.742 68.8196 296.64 55.7729 302.782C39.2298 310.502 24.1352 321.005 11.1472 333.834C7.24846 337.649 3.51756 341.678 -0.0378418 345.92V306.04C0.534378 305.17 1.09135 304.292 1.66357 303.423C6.76016 295.45 11.0022 286.882 15.3969 278.397" fill="#3B402E"/>
<path d="M36.44 58.7481C40.0031 58.4505 43.5814 58.2598 47.1215 58.0461C54.0238 57.624 60.9413 57.2221 67.8741 56.8407C70.0943 56.711 72.3069 56.6881 74.5272 56.627C80.6309 56.4592 86.6735 56.2456 92.7467 56.154C103.978 55.9861 115.208 55.8183 126.424 55.8412C134.946 55.8412 143.453 56.1159 151.953 56.3066C157.454 56.4363 162.947 56.627 168.448 56.772C174.674 56.9475 180.877 57.0924 187.095 57.2679C188.621 57.329 190.208 57.4968 191.955 57.6265C193.938 45.6938 196.006 33.9747 198.928 22.3547L203.575 23.5297C200.841 34.7307 198.803 46.09 197.471 57.5426L197.105 62.807H196.83C196.533 65.2561 196.319 67.4535 196.067 69.6737C195.19 76.7235 194.358 83.8038 193.382 90.8536C192.952 94.5676 191.746 98.1498 189.841 101.367C188.218 103.915 185.963 106 183.295 107.417C178.374 110.187 173.071 111.377 167.677 112.278C161.177 113.338 154.654 113.849 148.092 114.345C134.197 115.266 120.368 117.009 106.678 119.564C88.291 123.188 71.1777 130.413 55.8269 142.605C55.5523 142.834 55.2547 143.071 54.98 143.368C54.9343 143.368 54.9114 143.49 54.7893 143.879C56.216 143.986 57.5589 144.093 58.9169 144.177C64.7358 144.604 70.5699 145.024 76.4193 145.436C80.0434 145.688 83.6827 145.856 87.3068 146.115C92.7849 146.519 98.24 146.969 103.718 147.374C106.999 147.603 110.28 147.778 113.545 148.053C119.786 148.587 126.035 149.205 132.299 149.777C136.472 150.166 140.691 150.54 144.872 150.929C152.395 151.654 159.918 152.455 167.441 153.149C169.676 153.363 171.919 153.554 174.178 153.745V159.223C168.145 158.714 162.108 158.238 156.065 157.796C149.092 157.262 142.121 156.779 135.152 156.346C128.957 155.957 122.754 155.66 116.574 155.339C114.995 155.255 113.415 155.255 111.836 155.171C107.663 154.92 103.443 154.614 99.2624 154.408C94.7686 154.172 90.2747 154.065 85.7732 153.874C79.4483 153.577 73.0928 153.211 66.7678 152.959C60.6641 152.699 54.6367 152.531 48.5635 152.295C44.7487 152.142 44.7945 152.165 41.9792 155.133C32.259 165.357 24.1411 177.038 17.0684 189.68C10.2763 201.905 4.57774 214.707 0.039093 227.935V203.917C6.59416 187.83 15.1894 172.653 25.6136 158.757C27.315 156.514 29.0851 154.34 31.0688 151.852C24.6065 151.166 18.4494 151.25 12.2923 151.25C8.19516 151.25 4.12857 151.25 0.039093 151.25V142.453C4.61687 142.323 9.19464 142.193 13.7724 142.193C20.4865 142.193 27.2234 142.087 33.8917 142.811C37.8363 143.239 40.5219 141.957 43.4593 139.233C61.4881 122.547 82.1415 112.079 105.183 107.776C111.081 106.685 117.055 106.09 122.998 105.342C130.094 104.45 137.235 104.389 144.361 104.343C151.708 104.343 159.086 104.152 166.441 103.832C169.429 103.644 172.397 103.231 175.322 102.596C180.762 101.573 184.386 97.9491 186.065 92.1353C187.08 88.4439 187.892 84.6998 188.499 80.9198C189.468 75.251 190.23 69.544 191.062 63.8294C191.077 63.4719 191.054 63.1139 190.993 62.7613C189.612 62.6773 188.293 62.5324 186.927 62.4866C181.51 62.3187 176.1 62.1051 170.668 61.9983C161.09 61.8101 151.52 61.6473 141.958 61.51C131.276 61.3803 120.519 61.2048 109.799 61.2048C102.017 61.2048 94.2192 61.4871 86.437 61.6778C81.2412 61.8076 76.0149 61.9525 70.8192 62.1661C64.1051 62.4408 57.4139 62.746 50.7227 63.1504C44.4588 63.5318 38.2101 64.0201 31.9462 64.5771C21.6538 65.4927 11.3462 66.4921 1.06146 67.4764L0.000961304 67.5984V61.9754C5.51718 61.4413 11.0563 60.953 16.603 60.4495C23.2103 59.8696 29.8328 59.2745 36.44 58.7404" fill="#BF7345"/>
<path d="M31.0303 151.83C29.0466 154.317 27.2765 156.491 25.5751 158.734C15.1509 172.63 6.55565 187.808 0.000583649 203.894V151.25C4.09007 151.25 8.15666 151.25 12.2538 151.25C18.4109 151.25 24.568 151.166 31.0303 151.853" fill="#F2D1C7"/>
<path d="M229.447 158.879L221.603 158.071C215.851 157.521 210.09 156.987 204.315 156.43C196.517 155.705 188.697 154.943 180.876 154.233C178.633 154.019 176.395 153.829 174.162 153.661C171.873 153.47 169.661 153.279 167.425 153.066C159.902 152.303 152.38 151.54 144.857 150.845C140.661 150.441 136.464 150.082 132.283 149.693C126.019 149.121 119.771 148.503 113.53 147.969C110.264 147.694 106.983 147.527 103.703 147.29C98.2245 146.886 92.7693 146.435 87.2913 146.031C83.6672 145.772 80.0279 145.604 76.4038 145.352C70.5595 144.945 64.7279 144.526 58.9091 144.093C57.5434 144.009 56.2005 143.902 54.7738 143.796C54.8959 143.407 54.9188 143.323 54.9645 143.284C55.2392 143.025 55.5368 142.789 55.8114 142.521C71.1622 130.314 88.2755 123.104 106.663 119.48C120.352 116.921 134.181 115.179 148.077 114.261C154.638 113.765 161.161 113.254 167.662 112.194C173.048 111.293 178.343 110.103 183.28 107.334C185.949 105.915 188.205 103.828 189.826 101.276C191.728 98.0685 192.935 94.4967 193.366 90.7926C194.343 83.7428 195.174 76.6625 196.044 69.6128C196.326 67.4154 196.54 65.2181 196.807 62.7461H197.082L238.93 65.7674C229.958 96.2249 227.547 127.194 229.447 158.849" fill="#F2D1C7"/>
<path d="M31.9462 64.5771C38.2102 64.0201 44.4588 63.5318 50.7228 63.1503C57.414 62.746 64.1051 62.4484 70.8192 62.1661C76.015 61.9525 81.2413 61.8075 86.4371 61.6778C94.2193 61.4871 102.017 61.2277 109.799 61.2124C120.48 61.2124 131.238 61.3803 141.958 61.51C151.525 61.632 161.096 61.7948 170.668 61.9983C176.1 62.1051 181.51 62.3187 186.927 62.4865C188.293 62.5323 189.613 62.6773 190.994 62.7612C191.054 63.1139 191.077 63.4719 191.062 63.8294C190.231 69.544 189.46 75.2738 188.506 80.9197C187.9 84.6998 187.087 88.4439 186.072 92.1353C184.394 97.9491 180.77 101.573 175.33 102.596C172.405 103.231 169.436 103.644 166.449 103.832C159.094 104.152 151.716 104.305 144.369 104.343C137.228 104.388 130.086 104.45 123.006 105.342C117.062 106.105 111.088 106.685 105.191 107.776C82.1492 112.079 61.4958 122.547 43.467 139.233C40.5296 141.957 37.844 143.239 33.8994 142.811C27.2311 142.048 20.4942 142.216 13.7801 142.193C9.20233 142.193 4.62456 142.323 0.0467834 142.453V67.606L1.10728 67.4763C11.3997 66.4921 21.7073 65.4926 31.992 64.5771" fill="#F2C2A6"/>
<path d="M19.8832 29.1145C24.5678 28.7254 29.2372 28.26 33.9294 27.9014C37.6374 27.6191 41.3454 27.4741 45.0534 27.2376C50.8061 26.8332 56.5589 26.3602 62.3345 25.9787C67.6752 25.6201 73.016 25.3226 78.3567 25.0174C84.3485 24.6817 90.3302 24.3561 96.3016 24.0408C102.405 23.7203 108.555 23.377 114.697 23.0795C121.235 22.7438 127.804 22.4233 134.343 22.1181C138.776 21.9121 143.209 21.7824 147.619 21.6298C149.541 21.5459 151.479 21.523 153.394 21.4391C158.681 21.1873 163.946 20.8898 169.21 20.6761C174.284 20.4625 179.358 20.3557 184.409 20.142C187.048 20.0581 189.673 19.7987 192.313 19.7148C194.655 19.6309 196.997 19.7148 199.622 19.7148C199.386 20.6075 199.157 21.4849 198.943 22.3775C196.021 33.9746 193.953 45.7166 191.97 57.6493C190.222 57.5196 188.666 57.3517 187.109 57.2907C180.891 57.1152 174.688 56.9703 168.463 56.8024C162.969 56.6498 157.468 56.4591 151.967 56.3294C143.468 56.1386 134.961 55.8563 126.439 55.8563C115.223 55.8563 103.992 56.0089 92.7615 56.1768C86.6578 56.2683 80.6151 56.4743 74.5419 56.6498C72.3217 56.7109 70.1091 56.7338 67.8889 56.8635C60.9866 57.2449 54.0767 57.6493 47.1592 58.0766C43.5961 58.2902 40.0178 58.4809 36.4777 58.7785C29.8704 59.3126 23.2479 59.9077 16.6407 60.4875C11.0939 60.9758 5.55481 61.4641 0.0385895 62.0135V30.648C3.89154 30.3505 7.72923 30.0301 11.5898 29.7325C14.3594 29.496 17.129 29.3434 19.9214 29.1145" fill="#9CBFBD"/>
<path d="M197.478 57.5424C198.81 46.0898 200.848 34.7305 203.582 23.5295C203.939 22.1034 204.387 20.7017 204.925 19.3332C207.923 19.1349 210.975 18.906 214.042 18.7305C217.964 18.5398 221.885 18.3948 225.807 18.2422C227.333 18.1812 228.79 18.1354 230.301 18.0515C234.505 17.8149 238.693 17.4945 242.897 17.2885C247.46 17.0749 252.03 16.907 256.608 16.7849C258.95 16.7239 261.292 16.7849 263.871 16.7849C253.743 29.8699 245.901 44.5735 240.677 60.2738C226.059 59.3583 211.776 58.4427 197.478 57.5501" fill="#3B402E"/>
<path d="M279.68 7.88904C280.504 7.95007 280.893 8.034 281.297 8.034C292.574 7.82037 303.84 7.60165 315.097 7.37785C319.018 7.30919 322.94 7.11844 326.861 7.07267C336.78 6.98874 346.698 6.96585 356.617 6.90482C373.692 6.798 390.76 6.60726 407.827 6.63015C413.931 6.63015 420.088 7.05741 426.199 7.39311V13.9927C419.554 14.0843 412.878 14.1911 406.232 14.2293C396.154 14.275 386.067 14.2293 375.989 14.2293C367.276 14.2293 358.552 14.2801 349.819 14.3819C339.138 14.5039 328.426 14.6667 317.683 14.8701C310.623 15.0024 303.561 15.1652 296.496 15.3584C290.636 15.4881 284.799 15.656 278.947 15.8239C277.818 15.8696 276.658 16.2511 275.56 16.1061C272.79 15.7018 270.982 16.9378 269.189 19.303L263.848 16.7623C261.262 16.7852 258.897 16.7089 256.608 16.7852C252.03 16.9123 247.468 17.0827 242.92 17.2964C238.701 17.51 234.528 17.8304 230.324 18.0593C228.798 18.1433 227.325 18.189 225.83 18.2501C221.908 18.4027 217.987 18.5476 214.065 18.7384C211.013 18.9139 207.961 19.1427 204.909 19.3411C204.372 20.7096 203.924 22.1113 203.567 23.5374L198.928 22.3548C199.141 21.4621 199.37 20.5847 199.607 19.6921C196.982 19.6921 194.64 19.631 192.298 19.6921C189.658 19.776 187.033 20.0354 184.393 20.1193C179.343 20.333 174.269 20.4398 169.195 20.6534C163.931 20.8594 158.666 21.1646 153.379 21.4164C151.464 21.5003 149.564 21.5232 147.603 21.6071C143.193 21.7597 138.761 21.8894 134.328 22.0954C127.782 22.4006 121.22 22.7134 114.681 23.0567C108.578 23.3543 102.421 23.6976 96.2864 24.0181C90.32 24.3385 84.3384 24.664 78.3415 24.9947C73.0008 25.2922 67.6601 25.5974 62.3193 25.956C56.5437 26.3375 50.7909 26.8105 45.0382 27.2149C41.3302 27.4514 37.6222 27.5964 33.9142 27.871C29.222 28.2373 24.5526 28.7027 19.868 29.0918C17.0756 29.3207 14.3061 29.4733 11.5365 29.7098C7.6759 30.0073 3.8382 30.3278 -0.0147705 30.6253V23.8731C5.32596 23.423 10.6667 22.9499 16.0074 22.5303C21.2108 22.103 26.3914 21.7673 31.5872 21.3782C38.4945 20.8696 45.3942 20.3864 52.2863 19.9286C57.5508 19.5827 62.8152 19.2623 68.0797 18.9673C74.4886 18.6239 80.9051 18.3264 87.2987 17.9907C93.5016 17.6702 99.7045 17.3727 105.907 17.0293L124.28 16.068C130.33 15.7476 136.38 15.4119 142.43 15.1067C149.19 14.771 155.965 14.4734 162.725 14.1301C166.151 13.9775 169.592 13.8325 172.995 13.6647C179.9 13.3442 186.804 13.0467 193.709 12.6804C196.357 12.5507 198.974 12.299 201.766 12.1082C201.98 11.6352 202.254 11.1011 202.468 10.5289C203.711 6.92264 205.197 3.40493 206.916 0L212.31 0C210.554 3.16993 209.039 6.46763 207.778 9.86511C207.572 10.445 207.42 11.0401 207.183 11.8488L216.285 11.3147C219.719 11.124 223.152 10.979 226.555 10.7654C232.834 10.361 239.06 9.91852 245.339 9.50652C246.865 9.42259 248.345 9.3997 249.84 9.33104C254.189 9.16319 258.538 9.01822 262.902 8.84274C265.191 8.73593 267.48 8.59096 269.723 8.50704C270.196 8.48595 270.66 8.37124 271.088 8.16955C271.517 7.96787 271.901 7.68321 272.218 7.33207C274.796 4.74196 277.514 2.29431 280.359 0L289.202 0C286.966 1.61748 284.769 3.36467 282.64 5.20341C281.747 5.96637 280.893 6.77511 279.68 7.88904Z" fill="#BF7345"/>
<path d="M201.758 12.1082C198.966 12.299 196.349 12.5507 193.701 12.6804C186.797 13.0467 179.892 13.3442 172.987 13.6647C169.554 13.8325 166.12 13.9775 162.718 14.1301C155.958 14.4734 149.183 14.771 142.43 15.1143C136.372 15.4119 130.322 15.7476 124.272 16.068L105.9 17.0293C99.6968 17.3727 93.4939 17.6702 87.2911 17.9907C80.8974 18.3264 74.4809 18.6239 68.072 18.9673C62.8076 19.2674 57.5431 19.5878 52.2787 19.9286C45.3739 20.394 38.4843 20.8899 31.5795 21.3782C26.3837 21.7597 21.2032 22.103 15.9998 22.5303C10.6591 22.9499 5.31831 23.423 -0.0224304 23.8731V0H206.916C205.186 3.40412 203.69 6.92186 202.437 10.5289C202.224 11.1011 201.949 11.6352 201.735 12.1082" fill="#F2C2A6"/>
<path d="M269.723 8.50704C267.434 8.59096 265.145 8.73593 262.902 8.84274C258.538 9.01822 254.189 9.16319 249.84 9.33104C248.314 9.3997 246.857 9.42259 245.347 9.50652C239.098 9.91089 232.834 10.361 226.585 10.7654C223.16 10.979 219.719 11.124 216.316 11.3147L207.214 11.8488C207.45 11.0401 207.595 10.445 207.809 9.86511C209.06 6.46852 210.564 3.17084 212.31 0L280.359 0C277.514 2.29431 274.796 4.74196 272.218 7.33207C271.901 7.68321 271.517 7.96787 271.088 8.16955C270.66 8.37124 270.196 8.48595 269.723 8.50704Z" fill="#FCC294"/>
</svg>
