<svg width="48" height="48" viewBox="0 0 48 48" fill="none" xmlns="http://www.w3.org/2000/svg">
<path d="M48 0H0V48H48V0Z" fill="#3B402E"/>
<g clip-path="url(#clip0_1322_37433)">
<path d="M22.0214 21.5808H21.104C21.1047 22.8112 21.4859 24.0114 22.1955 25.0166C22.9051 26.0218 23.9082 26.7829 25.0674 27.1955L25.3701 26.3332C24.3907 25.9819 23.5436 25.337 22.9443 24.4865C22.345 23.636 22.0227 22.6213 22.0214 21.5808Z" fill="#BF7345"/>
<path d="M26.0674 27.4432C26.3953 27.4938 26.7264 27.5214 27.0582 27.5257V26.6083C26.7784 26.6074 26.4991 26.5829 26.2233 26.5349L26.0674 27.4432Z" fill="#BF7345"/>
<path d="M28.1588 35.3422L25.8009 32.9844C26.2244 33.032 26.6501 33.0565 27.0762 33.0578C27.3698 33.0578 27.6725 33.0578 27.9936 33.0578C30.7166 32.8384 33.2697 31.6465 35.1864 29.6999C34.5717 33.1403 32.0395 35.2321 28.1588 35.3422ZM20.1954 35.3422V36.1496C20.193 36.543 20.0356 36.9197 19.7574 37.1979C19.4792 37.4761 19.1025 37.6334 18.7091 37.6358C18.5141 37.6365 18.321 37.5979 18.1413 37.5223C17.9616 37.4466 17.799 37.3354 17.6632 37.1955L11.4797 31.0119C11.3409 30.8757 11.2312 30.7128 11.1571 30.533C11.083 30.3533 11.046 30.1604 11.0485 29.966C11.0485 29.5734 11.2038 29.1967 11.4805 28.9183C11.7573 28.6398 12.133 28.4822 12.5256 28.4798H13.3329C14.6925 28.483 16.0252 28.1013 17.177 27.3788C17.2779 27.5531 17.388 27.7275 17.4981 27.9018L15.8192 29.0119L16.3329 29.7733L18.0302 28.6449C18.232 28.8926 18.4339 29.1403 18.6541 29.3789L16.6724 31.3605L17.3146 32.0119L19.2963 30.0211C19.5348 30.2413 19.7825 30.4431 20.0302 30.6449L18.9018 32.3422L19.6633 32.8559L20.7734 31.1771L21.2963 31.4981C20.5738 32.6499 20.1921 33.9826 20.1954 35.3422ZM20.1036 12.5713C18.8362 13.5431 17.7857 14.769 17.0195 16.1703C16.2532 17.5716 15.7882 19.1175 15.654 20.709C15.654 20.8008 15.654 20.9017 15.654 20.9934L14.2595 19.599C14.3237 15.6356 16.4706 13.1034 20.1128 12.5713H20.1036ZM30.7092 11.7457C30.4237 12.0743 30.2644 12.4938 30.2597 12.9291C30.2597 13.4158 30.453 13.8825 30.7971 14.2266C31.1412 14.5707 31.6079 14.764 32.0946 14.764C32.5812 14.764 33.0479 14.5707 33.392 14.2266C33.7361 13.8825 33.9295 13.4158 33.9295 12.9291C33.9278 12.5509 33.8092 12.1823 33.59 11.8741C33.942 11.7858 34.2835 11.6597 34.6084 11.4979L35.0396 11.2778C35.285 11.1568 35.555 11.094 35.8286 11.0943C36.238 11.099 36.6334 11.2448 36.9478 11.5071C36.3897 12.2159 35.612 12.7193 34.7368 12.9383L34.957 13.8558C35.9372 13.6092 36.8199 13.0719 37.4891 12.3145C37.5509 12.498 37.5849 12.6897 37.5901 12.8833C37.5903 13.1569 37.5276 13.4269 37.4066 13.6723L37.1864 14.1034C36.6753 15.1381 36.5329 16.3163 36.7827 17.4429C36.3046 17.3389 35.8074 17.3643 35.3423 17.5163C34.8578 17.6697 34.4277 17.9596 34.1038 18.3512C33.4895 17.0424 32.5231 15.9305 31.3127 15.1398C30.1023 14.349 28.6958 13.9108 27.2505 13.8741C27.0514 13.7038 26.8911 13.493 26.7803 13.2556C26.6696 13.0182 26.6109 12.7598 26.6083 12.4979C26.6111 12.2382 26.6689 11.9821 26.778 11.7465C26.8872 11.5108 27.0451 11.301 27.2413 11.1309C28.4059 11.1453 29.5598 11.3563 30.6542 11.7548L30.7092 11.7457ZM33.0028 12.9291C33.0028 13.1725 32.9062 13.4058 32.7341 13.5779C32.5621 13.7499 32.3287 13.8466 32.0854 13.8466C31.8421 13.8466 31.6087 13.7499 31.4367 13.5779C31.2646 13.4058 31.168 13.1725 31.168 12.9291C31.168 12.6858 31.2646 12.4525 31.4367 12.2804C31.6087 12.1084 31.8421 12.0117 32.0854 12.0117H32.2138C32.4393 12.0366 32.6475 12.1442 32.7983 12.3136C32.9491 12.4831 33.0317 12.7023 33.0304 12.9291H33.0028ZM36.2139 23.1403C35.7301 22.9842 35.2125 22.9651 34.7185 23.0852C34.8141 22.6017 34.8632 22.1101 34.8652 21.6173C34.8637 20.8621 34.7524 20.1111 34.535 19.3879C34.6363 19.1476 34.7878 18.9316 34.9792 18.7544C35.1706 18.5772 35.3976 18.4429 35.6451 18.3604C35.8932 18.2763 36.1568 18.2484 36.417 18.2786C36.6771 18.3087 36.9274 18.3962 37.1497 18.5347C37.5428 19.826 37.6861 21.1806 37.5717 22.5256C37.5297 22.9761 37.4592 23.4234 37.3607 23.865C37.0425 23.5109 36.6379 23.2454 36.1864 23.0944L36.2139 23.1403ZM34.0763 29.4523C34.0124 29.0042 33.8391 28.5788 33.5717 28.2137C33.2695 27.8044 32.8599 27.4868 32.3882 27.2962C33.304 26.4447 33.9998 25.3838 34.4157 24.2045C34.6401 24.0671 34.8914 23.9797 35.1526 23.9481C35.4138 23.9164 35.6788 23.9412 35.9295 24.021C36.1744 24.1036 36.399 24.2371 36.5887 24.4126C36.7785 24.588 36.929 24.8017 37.0304 25.0394C36.4201 26.7229 35.3945 28.225 34.0487 29.4064L34.0763 29.4523ZM28.0487 29.333C29.2878 29.1756 30.4709 28.7225 31.4982 28.0119C31.7619 28.0319 32.018 28.1087 32.2492 28.237C32.4804 28.3652 32.6812 28.5419 32.8377 28.755C32.9858 28.9642 33.0884 29.202 33.139 29.4533C33.1896 29.7045 33.1869 29.9635 33.1313 30.2137C31.6486 31.2488 29.9225 31.8811 28.1221 32.0486C28.3428 31.6464 28.4595 31.1954 28.4615 30.7366C28.4632 30.2271 28.32 29.7275 28.0487 29.2963V29.333ZM22.8193 29.8284C23.1167 29.4168 23.2945 28.9311 23.333 28.4247C24.4256 29.0255 25.6462 29.3558 26.8927 29.388C27.0946 29.5584 27.2573 29.7704 27.3698 30.0095C27.4822 30.2486 27.5416 30.5092 27.5441 30.7734C27.5413 31.0331 27.4834 31.2891 27.3743 31.5248C27.2652 31.7604 27.1073 31.9703 26.911 32.1404C25.1005 32.1079 23.3286 31.612 21.7642 30.7C22.1789 30.4862 22.5325 30.1705 22.7917 29.7825L22.8193 29.8284ZM20.0669 13.7824C20.1307 14.2304 20.304 14.6558 20.5715 15.0209C20.8683 15.4316 21.2755 15.7497 21.7458 15.9383C20.8355 16.7927 20.1434 17.8529 19.7275 19.0301C19.5031 19.1674 19.2517 19.2549 18.9905 19.2865C18.7294 19.3182 18.4644 19.2933 18.2137 19.2136C17.9697 19.132 17.7456 19 17.5559 18.8261C17.3662 18.6522 17.2153 18.4404 17.1128 18.2044C17.7012 16.488 18.718 14.9501 20.0669 13.7365V13.7824ZM26.0945 13.9108C24.8547 14.0594 23.6702 14.5098 22.6449 15.2227C22.3821 15.2038 22.1263 15.1284 21.8952 15.0018C21.6641 14.8751 21.4629 14.7002 21.3055 14.4888C21.1561 14.2785 21.0528 14.039 21.0022 13.7861C20.9516 13.5332 20.9549 13.2724 21.0119 13.0209C22.4946 11.9858 24.2207 11.3535 26.0211 11.186C25.7966 11.59 25.6798 12.0449 25.6817 12.5071C25.6982 12.988 25.8406 13.4562 26.0945 13.8649V13.9108ZM16.5715 20.7824C16.6083 20.3071 16.6789 19.835 16.7825 19.3696C17.0983 19.7031 17.4925 19.9522 17.9293 20.0944C18.2047 20.1849 18.4926 20.2313 18.7825 20.232C18.9989 20.2277 19.2142 20.2 19.4247 20.1494C19.3291 20.6329 19.28 21.1244 19.2779 21.6173C19.2788 22.3725 19.3901 23.1236 19.6082 23.8467C19.5111 24.0906 19.3612 24.3101 19.1693 24.4894C18.9774 24.6686 18.7482 24.8032 18.4981 24.8834C18.2506 24.964 17.9884 24.9894 17.73 24.9577C17.4716 24.926 17.2233 24.838 17.0027 24.6999C16.6104 23.4335 16.4641 22.1038 16.5715 20.7824ZM33.9203 21.6173C33.9179 23.4366 33.1941 25.1807 31.9076 26.4671C30.6212 27.7535 28.8771 28.4773 27.0578 28.4798C25.2378 28.4798 23.4923 27.7568 22.2053 26.4698C20.9184 25.1828 20.1954 23.4373 20.1954 21.6173C20.1978 19.798 20.9216 18.0539 22.208 16.7675C23.4945 15.4811 25.2385 14.7573 27.0578 14.7548C28.8708 14.7572 30.6093 15.4759 31.8947 16.7545C33.1801 18.033 33.9082 19.7677 33.9203 21.5806V21.6173ZM17.4063 25.8008C17.5729 25.8323 17.7416 25.8507 17.9109 25.8559C18.2039 25.8562 18.495 25.8097 18.7733 25.7183C19.2552 25.5595 19.6839 25.2705 20.0119 24.8834C20.5439 26.0104 21.3402 26.9923 22.333 27.7458C22.3955 28.0029 22.4016 28.2705 22.3509 28.5302C22.3002 28.7899 22.194 29.0356 22.0394 29.2504C21.8859 29.4601 21.6895 29.6348 21.4633 29.7629C21.2371 29.891 20.9863 29.9696 20.7275 29.9935C20.3314 29.6968 19.9573 29.3718 19.6082 29.021C18.6845 28.089 17.9411 26.9941 17.4155 25.7917L17.4063 25.8008ZM37.9937 14.4429L38.2047 14.0209C38.3894 13.647 38.4866 13.236 38.4891 12.819C38.4891 12.1086 38.2069 11.4272 37.7045 10.9248C37.2021 10.4224 36.5207 10.1401 35.8102 10.1401C35.3932 10.1427 34.9823 10.2399 34.6084 10.4245L34.1864 10.6355C33.5668 10.9459 32.8787 11.0943 32.1863 11.0667H32.0671C31.6872 11.0497 31.3125 10.9723 30.957 10.8373C29.3897 10.271 27.7181 10.0519 26.0578 10.1952C24.5168 10.3304 23.0206 10.7833 21.6633 11.5254H21.5624C16.4797 11.5254 13.3054 14.6814 13.3054 19.7824V19.9659L15.6173 22.2779C15.7082 23.7631 16.0819 25.2172 16.7183 26.5623C15.6992 27.2131 14.5145 27.5571 13.3054 27.5532H12.498C11.8621 27.5556 11.2531 27.8099 10.8043 28.2604C10.3555 28.7109 10.1035 29.3209 10.1035 29.9568C10.1024 30.5925 10.3531 31.2028 10.8008 31.6541L16.9843 37.8376C17.4356 38.2853 18.0459 38.5361 18.6816 38.5349C19.3175 38.5349 19.9275 38.283 20.378 37.8342C20.8285 37.3854 21.0829 36.7763 21.0853 36.1404V35.3422C21.0824 34.1332 21.4263 32.9488 22.0761 31.9294C22.7572 32.2513 23.4667 32.5092 24.1954 32.7L27.7551 36.2597H27.9477C32.8561 36.2597 35.9937 33.2688 36.2047 28.4522C37.4953 26.7572 38.2779 24.7306 38.4616 22.6081C38.6095 20.9508 38.3902 19.2811 37.8194 17.7182C37.6296 17.1936 37.5487 16.6359 37.5819 16.079C37.615 15.5222 37.7614 14.9779 38.0121 14.4796L37.9937 14.4429Z" fill="#BF7345"/>
</g>
<defs>
<clipPath id="clip0_1322_37433">
<rect width="28.3673" height="28.3673" fill="white" transform="translate(10.1313 10.1311)"/>
</clipPath>
</defs>
</svg>
