<svg width="48" height="48" viewBox="0 0 48 48" fill="none" xmlns="http://www.w3.org/2000/svg">
<path d="M48 0H0V48H48V0Z" fill="#3B402E"/>
<g clip-path="url(#clip0_1324_37379)">
<path d="M12.0254 29.0456C11.9009 29.0445 11.7774 29.068 11.662 29.1149C11.5466 29.1617 11.4417 29.231 11.3532 29.3186C11.2647 29.4063 11.1945 29.5105 11.1466 29.6255C11.0987 29.7404 11.074 29.8638 11.074 29.9883C11.0992 30.2312 11.2077 30.4578 11.3812 30.6297C11.5546 30.8016 11.7823 30.9081 12.0254 30.931H36.6046C36.7291 30.9321 36.8526 30.9086 36.968 30.8617C37.0834 30.8149 37.1883 30.7456 37.2768 30.6579C37.3653 30.5703 37.4355 30.466 37.4834 30.3511C37.5313 30.2361 37.556 30.1128 37.556 29.9883C37.5308 29.7454 37.4223 29.5187 37.2488 29.3469C37.0753 29.175 36.8477 29.0685 36.6046 29.0456H12.0254ZM36.6046 31.8823H12.0254C11.5313 31.8571 11.0641 31.6494 10.7142 31.2995C10.3643 30.9496 10.1566 30.4824 10.1313 29.9883C10.1313 29.4859 10.3309 29.0042 10.6861 28.649C11.0413 28.2938 11.5231 28.0942 12.0254 28.0942H36.6046C37.0987 28.1195 37.5659 28.3272 37.9158 28.6771C38.2657 29.0269 38.4734 29.4941 38.4986 29.9883C38.4986 30.4906 38.2991 30.9724 37.9439 31.3276C37.5887 31.6828 37.1069 31.8823 36.6046 31.8823Z" fill="currentColor"/>
<path d="M24.315 16.747C23.6587 16.7453 23.0166 16.9384 22.47 17.3018C21.9234 17.6652 21.4969 18.1826 21.2445 18.7885C20.9921 19.3944 20.9252 20.0615 21.0522 20.7055C21.1792 21.3495 21.4944 21.9413 21.9579 22.4061C22.4214 22.8708 23.0124 23.1876 23.656 23.3162C24.2997 23.4449 24.967 23.3797 25.5736 23.1289C26.1802 22.8782 26.6987 22.453 27.0635 21.9074C27.4284 21.3618 27.6231 20.7202 27.6231 20.0638C27.6231 19.1857 27.2749 18.3433 26.6547 17.7216C26.0346 17.0998 25.1932 16.7494 24.315 16.747ZM24.315 24.3145C23.4719 24.3163 22.6471 24.0677 21.9453 23.6004C21.2435 23.133 20.6962 22.4678 20.3728 21.6892C20.0493 20.9105 19.9642 20.0533 20.1283 19.2262C20.2924 18.3992 20.6982 17.6394 21.2944 17.0432C21.8907 16.447 22.6504 16.0412 23.4775 15.8771C24.3046 15.713 25.1617 15.7981 25.9404 16.1216C26.719 16.445 27.3842 16.9923 27.8516 17.6941C28.3189 18.3959 28.5675 19.2206 28.5658 20.0638C28.5635 21.1905 28.1149 22.2703 27.3182 23.067C26.5216 23.8636 25.4417 24.3122 24.315 24.3145Z" fill="currentColor"/>
<path d="M34.7192 11.074C34.1582 11.074 33.6097 11.2403 33.1432 11.552C32.6767 11.8637 32.3131 12.3068 32.0984 12.8251C31.8837 13.3435 31.8275 13.9138 31.937 14.4641C32.0464 15.0144 32.3166 15.5198 32.7133 15.9165C33.1101 16.3133 33.6155 16.5835 34.1658 16.6929C34.7161 16.8024 35.2864 16.7461 35.8048 16.5314C36.3231 16.3167 36.7662 15.9532 37.0779 15.4867C37.3896 15.0202 37.5559 14.4717 37.5559 13.9107C37.5559 13.1583 37.2571 12.4368 36.7251 11.9048C36.1931 11.3728 35.4716 11.074 34.7192 11.074ZM34.7192 17.6988C33.9696 17.7005 33.2364 17.4798 32.6123 17.0646C31.9882 16.6494 31.5013 16.0584 31.2132 15.3664C30.9252 14.6744 30.8489 13.9124 30.9941 13.177C31.1393 12.4416 31.4993 11.7658 32.0288 11.2352C32.5582 10.7045 33.2332 10.3429 33.9682 10.196C34.7033 10.0491 35.4654 10.1236 36.1581 10.4101C36.8508 10.6965 37.4429 11.182 37.8596 11.8052C38.2762 12.4283 38.4986 13.1611 38.4986 13.9107C38.4963 14.9131 38.0977 15.874 37.3896 16.5836C36.6816 17.2933 35.7217 17.6942 34.7192 17.6988Z" fill="currentColor"/>
<path d="M16.4852 29.0454C15.8122 29.0451 15.1652 28.7857 14.6784 28.321C14.4203 28.0788 14.2185 27.7828 14.0872 27.454C13.956 27.1252 13.8986 26.7716 13.9191 26.4182C13.9368 26.0647 14.031 25.7193 14.1952 25.4058C14.3595 25.0924 14.5899 24.8184 14.8705 24.6027L20.2559 20.3694L20.8407 21.1113L15.4465 25.3533C15.273 25.4852 15.1306 25.6536 15.0295 25.8467C14.9285 26.0398 14.8712 26.2528 14.8617 26.4705C14.8502 26.6873 14.8856 26.904 14.9655 27.1058C15.0453 27.3077 15.1677 27.4899 15.3243 27.6402C15.6385 27.9351 16.0543 28.0976 16.4852 28.094H24.9343V29.0454H16.4852Z" fill="currentColor"/>
<path d="M32.1444 29.0454H23.6953V28.094H32.1444C32.5769 28.0971 32.9934 27.9311 33.3053 27.6314C33.4622 27.4832 33.5849 27.3026 33.6647 27.1021C33.7446 26.9016 33.7798 26.686 33.7679 26.4705C33.7567 26.2532 33.6986 26.0408 33.5977 25.848C33.4968 25.6551 33.3553 25.4864 33.1831 25.3533L27.7889 21.1113L28.3737 20.3694L33.7679 24.6027C34.046 24.8203 34.274 25.0952 34.4365 25.4088C34.5989 25.7223 34.692 26.0672 34.7094 26.4199C34.7268 26.7726 34.6681 27.125 34.5372 27.453C34.4064 27.781 34.2065 28.0771 33.9512 28.321C33.4644 28.7857 32.8174 29.0451 32.1444 29.0454Z" fill="currentColor"/>
<path d="M22.8314 29.0455H21.8363V28.0941H22.779C22.9135 28.1125 23.0505 28.1018 23.1805 28.0628C23.3106 28.0239 23.4309 27.9575 23.5332 27.8682C23.6355 27.7789 23.7175 27.6687 23.7737 27.5451C23.8299 27.4214 23.859 27.2872 23.859 27.1514C23.859 27.0156 23.8299 26.8814 23.7737 26.7578C23.7175 26.6342 23.6355 26.524 23.5332 26.4347C23.4309 26.3454 23.3106 26.279 23.1805 26.24C23.0505 26.2011 22.9135 26.1904 22.779 26.2087H18.729V25.2574H22.7528C23.2688 25.2407 23.7708 25.4269 24.151 25.7761C24.5312 26.1253 24.7594 26.6097 24.7865 27.1252V27.1776C24.7619 27.6802 24.5454 28.154 24.1816 28.5016C23.8178 28.8492 23.3345 29.0438 22.8314 29.0455Z" fill="currentColor"/>
<path d="M25.7989 29.0455C25.2951 29.046 24.8106 28.852 24.4464 28.5041C24.0821 28.1561 23.8662 27.6809 23.8438 27.1776V27.1252C23.8709 26.6097 24.0991 26.1253 24.4793 25.7761C24.8595 25.4269 25.3615 25.2407 25.8775 25.2574H29.9449V26.2087H25.8425C25.708 26.1904 25.5711 26.2011 25.441 26.24C25.3109 26.279 25.1906 26.3454 25.0883 26.4347C24.986 26.524 24.904 26.6342 24.8478 26.7578C24.7916 26.8814 24.7626 27.0156 24.7626 27.1514C24.7626 27.2872 24.7916 27.4214 24.8478 27.5451C24.904 27.6687 24.986 27.7789 25.0883 27.8682C25.1906 27.9575 25.3109 28.0239 25.441 28.0628C25.5711 28.1018 25.708 28.1125 25.8425 28.0941H26.794V29.0455H25.7989Z" fill="currentColor"/>
<path d="M37.0762 29.0456H31.8828V28.5568H32.3542V28.0942H37.0762C37.202 28.0943 37.3228 28.0449 37.4126 27.9567C37.5024 27.8686 37.554 27.7487 37.5563 27.6229V19.1127C37.554 18.7369 37.4031 18.3772 37.1365 18.1123C36.8699 17.8474 36.5094 17.6987 36.1335 17.6987H34.2395C33.8652 17.701 33.5068 17.8507 33.2421 18.1154C32.9775 18.3801 32.8278 18.7384 32.8255 19.1127V20.518H31.8828V19.1127C31.8828 18.4868 32.1308 17.8865 32.5725 17.4432C33.0142 16.9998 33.6137 16.7496 34.2395 16.7473H36.1335C36.7602 16.7496 37.3605 16.9995 37.8036 17.4426C38.2467 17.8857 38.4966 18.486 38.4989 19.1127V27.588C38.4989 27.9653 38.349 28.3272 38.0822 28.594C37.8154 28.8608 37.4535 29.0107 37.0762 29.0107" fill="currentColor"/>
<path d="M32.8255 24.0527H31.8828V24.0958H32.8255V24.0527Z" fill="currentColor"/>
<path d="M31.8825 31.8823V36.3687C31.8781 36.5295 31.9059 36.6897 31.9644 36.8396C32.0229 36.9895 32.1108 37.1261 32.2229 37.2415C32.3325 37.3524 32.463 37.4404 32.6069 37.5004C32.7507 37.5605 32.905 37.5914 33.0609 37.5914C33.2168 37.5914 33.3711 37.5605 33.5149 37.5004C33.6587 37.4404 33.7892 37.3524 33.8988 37.2415C34.011 37.1261 34.0989 36.9895 34.1573 36.8396C34.2158 36.6897 34.2437 36.5295 34.2392 36.3687V31.8823H31.8825ZM33.0609 38.4984C32.7821 38.4998 32.5057 38.4457 32.248 38.3393C31.9903 38.2329 31.7563 38.0763 31.5596 37.8787C31.1583 37.4785 30.9323 36.9354 30.9312 36.3687V30.9309H35.1819V36.3687C35.1808 36.9354 34.9547 37.4785 34.5534 37.8787C34.3568 38.0763 34.1228 38.2329 33.865 38.3393C33.6073 38.4457 33.331 38.4998 33.0521 38.4984" fill="currentColor"/>
<path d="M14.3822 31.8823V36.3687C14.3794 36.5301 14.4088 36.6904 14.4688 36.8403C14.5287 36.9902 14.618 37.1266 14.7313 37.2415C14.8409 37.3524 14.9714 37.4404 15.1152 37.5004C15.2591 37.5605 15.4134 37.5914 15.5693 37.5914C15.7251 37.5914 15.8795 37.5605 16.0233 37.5004C16.1671 37.4404 16.2976 37.3524 16.4072 37.2415C16.5193 37.1261 16.6072 36.9895 16.6657 36.8396C16.7242 36.6897 16.752 36.5295 16.7476 36.3687V31.8823H14.3822ZM15.5693 38.4984C15.2889 38.5007 15.0109 38.4472 14.7515 38.341C14.4921 38.2348 14.2563 38.078 14.0581 37.8798C13.8599 37.6816 13.7031 37.4459 13.5969 37.1864C13.4907 36.927 13.4372 36.649 13.4395 36.3687V30.9309H17.7252V36.3687C17.7241 36.9354 17.498 37.4785 17.0967 37.8787C16.9 38.0763 16.6661 38.2329 16.4083 38.3393C16.1506 38.4457 15.8743 38.4998 15.5954 38.4984" fill="currentColor"/>
<path d="M35.6618 38.4983H33.2964V37.5557H35.6618C35.7237 37.5557 35.785 37.5435 35.8422 37.5198C35.8993 37.4961 35.9513 37.4614 35.9951 37.4176C36.0388 37.3739 36.0735 37.3219 36.0972 37.2647C36.1209 37.2075 36.1331 37.1462 36.1331 37.0843V31.4109H37.0758V37.0843C37.0758 37.4594 36.9268 37.819 36.6616 38.0842C36.3965 38.3494 36.0368 38.4983 35.6618 38.4983Z" fill="currentColor"/>
<path d="M32.5809 24.4718L32.0659 23.6775L32.0834 23.6687L35.2692 21.2859L35.8279 22.0453L32.6245 24.4456L32.5809 24.4718Z" fill="currentColor"/>
<path d="M30.3027 22.6389L29.7354 21.8795L32.0658 20.1426L33.5671 19.0166L34.1345 19.776L32.6332 20.8932L30.3027 22.6389Z" fill="currentColor"/>
<path d="M28.8624 21.5216L28.3213 20.7535L32.2229 18.0215L32.4673 18.3706L32.8339 18.7372L32.799 18.7721L28.8624 21.5216Z" fill="currentColor"/>
<path d="M24.3149 33.7676C24.1264 33.7659 23.9416 33.8201 23.784 33.9236C23.6264 34.0271 23.5031 34.1751 23.4298 34.3488C23.3564 34.5225 23.3363 34.7141 23.372 34.8992C23.4078 35.0843 23.4977 35.2546 23.6304 35.3886C23.7631 35.5225 23.9326 35.614 24.1174 35.6514C24.3022 35.6888 24.4939 35.6705 24.6682 35.5988C24.8426 35.527 24.9917 35.4051 25.0966 35.2484C25.2016 35.0918 25.2576 34.9075 25.2576 34.719C25.2588 34.5944 25.2352 34.4709 25.1884 34.3555C25.1415 34.2401 25.0723 34.1352 24.9846 34.0467C24.897 33.9583 24.7926 33.8881 24.6777 33.8401C24.5628 33.7922 24.4395 33.7676 24.3149 33.7676ZM24.3149 36.6043C23.9399 36.6043 23.5734 36.493 23.2618 36.2845C22.9501 36.0759 22.7073 35.7796 22.5642 35.433C22.4211 35.0864 22.3841 34.7052 22.4579 34.3375C22.5317 33.9699 22.713 33.6324 22.9787 33.3678C23.2445 33.1033 23.5828 32.9236 23.9508 32.8515C24.3188 32.7794 24.6999 32.8182 25.0458 32.9629C25.3918 33.1076 25.687 33.3517 25.894 33.6643C26.1011 33.9769 26.2107 34.344 26.209 34.719C26.2067 35.2198 26.0061 35.6993 25.6512 36.0526C25.2962 36.4059 24.8158 36.6043 24.3149 36.6043Z" fill="currentColor"/>
<path d="M31.8825 36.1329H25.3711V35.1902H30.9311V34.2475H25.3711V33.2961H31.8825V36.1329Z" fill="currentColor"/>
<path d="M23.2585 36.1331H16.7471V33.2964H23.2585V34.2478H17.6985V35.1904H23.2585V36.1331Z" fill="currentColor"/>
</g>
<defs>
<clipPath id="clip0_1324_37379">
<rect width="28.3673" height="28.3673" fill="white" transform="translate(10.1313 10.1311)"/>
</clipPath>
</defs>
</svg>
