<svg width="48" height="48" viewBox="0 0 48 48" fill="none" xmlns="http://www.w3.org/2000/svg">
<path d="M48 0H0V48H48V0Z" fill="#3B402E"/>
<g clip-path="url(#clip0_1324_37307)">
<path d="M34.9847 19.526H29.8782L30.1741 17.0539H35.5764L34.9847 19.526ZM34.0302 23.678H29.4391L29.735 21.2059H34.6315L34.0302 23.678ZM28.9237 27.83L29.2291 25.3483H33.6197L33.0184 27.83H28.9237ZM17.613 25.3483H22.0323L22.3282 27.83H18.2048L17.613 25.3483ZM21.0396 17.0539L21.3451 19.526H16.2099L15.6086 17.0539H21.0396ZM23.0154 19.526L22.7195 17.0539H28.5037L28.1983 19.526H23.0154ZM16.6204 21.2059H21.5551L21.851 23.678H17.2217L16.6204 21.2059ZM27.5492 25.3483L27.2438 27.83H23.989L23.6931 25.3483H27.5492ZM23.5117 23.678L23.2159 21.2059H28.0551L27.7497 23.678H23.5117ZM37.3422 15.708C37.2673 15.6037 37.1683 15.5188 37.0537 15.4607C36.9391 15.4025 36.8122 15.3728 36.6837 15.374H15.1409L14.5205 12.7778C14.4768 12.597 14.3724 12.4368 14.2247 12.3239C14.0771 12.2109 13.895 12.1522 13.7092 12.1574H9.89126C9.77408 12.1448 9.65557 12.1571 9.54344 12.1933C9.43131 12.2296 9.32806 12.289 9.24041 12.3678C9.15276 12.4466 9.08266 12.5429 9.03468 12.6505C8.98669 12.7582 8.96191 12.8747 8.96191 12.9925C8.96191 13.1104 8.98669 13.2269 9.03468 13.3345C9.08266 13.4422 9.15276 13.5385 9.24041 13.6173C9.32806 13.6961 9.43131 13.7555 9.54344 13.7917C9.65557 13.828 9.77408 13.8403 9.89126 13.8277H13.022L17.5367 32.4879C17.5765 32.6696 17.6782 32.8318 17.8245 32.9467C17.9708 33.0617 18.1525 33.1221 18.3385 33.1178H19.4457C19.2087 33.2876 19.0151 33.511 18.8808 33.7698C18.7464 34.0285 18.6751 34.3153 18.6725 34.6068C18.6245 34.8812 18.637 35.1628 18.7093 35.4319C18.7817 35.7009 18.912 35.9508 19.0912 36.1641C19.2704 36.3774 19.4941 36.5489 19.7466 36.6666C19.9991 36.7842 20.2743 36.8452 20.5529 36.8452C20.8314 36.8452 21.1066 36.7842 21.3591 36.6666C21.6117 36.5489 21.8354 36.3774 22.0145 36.1641C22.1937 35.9508 22.324 35.7009 22.3964 35.4319C22.4687 35.1628 22.4813 34.8812 22.4332 34.6068C22.4262 34.3161 22.353 34.0309 22.219 33.7728C22.085 33.5148 21.8938 33.2908 21.66 33.1178H29.21C28.984 33.2956 28.8025 33.5236 28.6799 33.7837C28.5573 34.0438 28.497 34.3289 28.5037 34.6164C28.4556 34.8908 28.4682 35.1724 28.5405 35.4414C28.6129 35.7104 28.7432 35.9604 28.9224 36.1737C29.1016 36.387 29.3253 36.5585 29.5778 36.6761C29.8303 36.7938 30.1055 36.8548 30.384 36.8548C30.6626 36.8548 30.9378 36.7938 31.1903 36.6761C31.4428 36.5585 31.6665 36.387 31.8457 36.1737C32.0249 35.9604 32.1552 35.7104 32.2276 35.4414C32.2999 35.1724 32.3125 34.8908 32.2644 34.6164C32.2574 34.3257 32.1842 34.0405 32.0502 33.7824C31.9162 33.5243 31.725 33.3003 31.4913 33.1274H32.0258C32.2485 33.1274 32.4622 33.0389 32.6197 32.8814C32.7772 32.7238 32.8657 32.5102 32.8657 32.2874C32.8608 32.0671 32.7704 31.8573 32.6137 31.7024C32.4569 31.5474 32.2461 31.4595 32.0258 31.457H19.0638L18.5866 29.5481H33.6388C33.8227 29.5494 34.0016 29.4889 34.1469 29.3764C34.2923 29.2639 34.3957 29.1059 34.4406 28.9277L37.4568 16.4716C37.4962 16.3422 37.5037 16.2052 37.4788 16.0723C37.4538 15.9394 37.3972 15.8144 37.3136 15.708H37.3422Z" fill="currentColor"/>
</g>
<defs>
<clipPath id="clip0_1324_37307">
<rect width="28.3673" height="24.3394" fill="white" transform="translate(9.11816 12.1573)"/>
</clipPath>
</defs>
</svg>
