<svg width="48" height="48" viewBox="0 0 48 48" fill="none" xmlns="http://www.w3.org/2000/svg">
<path d="M48 0H0V48H48V0Z" fill="#3B402E"/>
<g clip-path="url(#clip0_1324_37354)">
<mask id="path-2-inside-1_1324_37354" fill="white">
<path d="M22.3293 24.4363C22.3235 24.1601 22.385 23.8866 22.5086 23.6395C22.6321 23.3924 22.814 23.1791 23.0385 23.018V25.8446C22.8154 25.6844 22.6345 25.4727 22.511 25.2275C22.3875 24.9823 22.3251 24.7108 22.3293 24.4363ZM18.6111 24.4363C18.6211 22.4282 17.9111 20.4831 16.6101 18.9534C15.3091 17.4237 13.503 16.4108 11.5193 16.0984C11.6535 15.8425 11.8587 15.6309 12.1103 15.4889C12.362 15.3469 12.6493 15.2806 12.9377 15.298H23.0688V20.7993C22.278 21.0366 21.5848 21.5226 21.092 22.1851C20.5992 22.8475 20.333 23.6512 20.333 24.4769C20.333 25.3026 20.5992 26.1062 21.092 26.7687C21.5848 27.4312 22.278 27.9171 23.0688 28.1545V33.6456H12.9377C12.6438 33.6314 12.3565 33.5533 12.0958 33.4169C11.8351 33.2804 11.6073 33.0887 11.4281 32.8553C13.4212 32.5141 15.2316 31.4847 16.544 29.9464C17.8565 28.4081 18.588 26.4583 18.6111 24.4363ZM11.1647 27.3541H12.9377C13.0746 27.3704 13.2135 27.3554 13.3438 27.3103C13.4742 27.2651 13.5926 27.191 13.6901 27.0935C13.7876 26.9959 13.8618 26.8775 13.9069 26.7472C13.9521 26.6169 13.9671 26.478 13.9508 26.341V22.6229C13.9651 22.4863 13.9487 22.3483 13.9029 22.2188C13.8571 22.0894 13.7829 21.9719 13.6858 21.8748C13.5887 21.7777 13.4711 21.7035 13.3417 21.6576C13.2123 21.6118 13.0742 21.5954 12.9377 21.6097H11.1647V18.155C12.6545 18.4154 14.0075 19.1851 14.9925 20.3327C15.9775 21.4803 16.5332 22.9345 16.5646 24.4465C16.5365 26.1321 15.8746 27.7454 14.7106 28.965C13.7901 29.9318 12.5683 30.5569 11.2458 30.7379V27.2832L11.1647 27.3541ZM11.8739 25.2266H11.1647V23.5144H11.8739V25.2266ZM25.8752 24.4363C25.8691 24.709 25.8024 24.977 25.6797 25.2206C25.557 25.4642 25.3815 25.6774 25.166 25.8446V23.0991C25.3726 23.2586 25.5427 23.4605 25.665 23.6911C25.7873 23.9217 25.859 24.1758 25.8752 24.4363ZM36.3305 23.636H37.0397V25.3178H36.3609L36.3305 23.636ZM37.0397 21.5085H35.2668C35.0052 21.5014 34.7511 21.5958 34.5576 21.7719L34.6488 21.863L34.5576 21.7719C34.3815 21.9654 34.2871 22.2195 34.2942 22.481V26.1992C34.2871 26.4607 34.3815 26.7148 34.5576 26.9083L34.6488 26.8273L34.5576 26.9083C34.7495 27.0881 35.0038 27.1862 35.2668 27.1819H37.0397V30.6062C35.7173 30.4342 34.4959 29.8074 33.585 28.8333C32.7543 27.9986 32.1706 26.9505 31.8986 25.8047C31.6267 24.6589 31.677 23.4602 32.044 22.3413C32.4111 21.2223 33.0805 20.2267 33.9783 19.4647C34.8761 18.7026 35.9672 18.2037 37.1309 18.0233L37.0397 21.5085ZM25.2166 28.0633C25.9672 27.8029 26.6163 27.3119 27.0712 26.6606C27.526 26.0092 27.7634 25.2307 27.7494 24.4363C27.7534 23.6317 27.5135 22.8449 27.0614 22.1793C26.6093 21.5138 25.9661 21.0008 25.2166 20.7081V15.217H34.5474C34.8154 15.2227 35.0772 15.2987 35.3066 15.4374C35.5359 15.5761 35.7249 15.7726 35.8544 16.0072C33.9785 16.4585 32.3101 17.5302 31.1197 19.0486C29.9293 20.5669 29.2867 22.4429 29.2961 24.3722C29.3055 26.3015 29.9663 28.1711 31.1714 29.6778C32.3765 31.1845 34.0553 32.2399 35.9354 32.673C35.798 32.9194 35.5964 33.124 35.352 33.2649C35.1076 33.4059 34.8295 33.4779 34.5474 33.4734H25.2166V28.0633ZM35.3478 13.1705H13.0592C12.5569 13.1678 12.059 13.2648 11.5944 13.4558C11.1298 13.6468 10.7077 13.928 10.3525 14.2832C9.9973 14.6384 9.71604 15.0605 9.52505 15.5251C9.33405 15.9897 9.23711 16.4876 9.2398 16.9899V31.8726C9.23711 32.375 9.33405 32.8728 9.52505 33.3375C9.71604 33.8021 9.9973 34.2242 10.3525 34.5794C10.7077 34.9346 11.1298 35.2158 11.5944 35.4068C12.059 35.5978 12.5569 35.6948 13.0592 35.6921H35.3478C35.8497 35.6948 36.3471 35.5978 36.8111 35.4067C37.2752 35.2156 37.6966 34.9342 38.051 34.5788C38.4054 34.2235 38.6857 33.8012 38.8756 33.3367C39.0655 32.8721 39.1612 32.3745 39.1572 31.8726V16.9899C39.1612 16.4881 39.0655 15.9905 38.8756 15.5259C38.6857 15.0614 38.4054 14.6391 38.051 14.2838C37.6966 13.9284 37.2752 13.647 36.8111 13.4559C36.3471 13.2648 35.8497 13.1678 35.3478 13.1705Z"/>
</mask>
<path d="M22.3293 24.4363C22.3235 24.1601 22.385 23.8866 22.5086 23.6395C22.6321 23.3924 22.814 23.1791 23.0385 23.018V25.8446C22.8154 25.6844 22.6345 25.4727 22.511 25.2275C22.3875 24.9823 22.3251 24.7108 22.3293 24.4363ZM18.6111 24.4363C18.6211 22.4282 17.9111 20.4831 16.6101 18.9534C15.3091 17.4237 13.503 16.4108 11.5193 16.0984C11.6535 15.8425 11.8587 15.6309 12.1103 15.4889C12.362 15.3469 12.6493 15.2806 12.9377 15.298H23.0688V20.7993C22.278 21.0366 21.5848 21.5226 21.092 22.1851C20.5992 22.8475 20.333 23.6512 20.333 24.4769C20.333 25.3026 20.5992 26.1062 21.092 26.7687C21.5848 27.4312 22.278 27.9171 23.0688 28.1545V33.6456H12.9377C12.6438 33.6314 12.3565 33.5533 12.0958 33.4169C11.8351 33.2804 11.6073 33.0887 11.4281 32.8553C13.4212 32.5141 15.2316 31.4847 16.544 29.9464C17.8565 28.4081 18.588 26.4583 18.6111 24.4363ZM11.1647 27.3541H12.9377C13.0746 27.3704 13.2135 27.3554 13.3438 27.3103C13.4742 27.2651 13.5926 27.191 13.6901 27.0935C13.7876 26.9959 13.8618 26.8775 13.9069 26.7472C13.9521 26.6169 13.9671 26.478 13.9508 26.341V22.6229C13.9651 22.4863 13.9487 22.3483 13.9029 22.2188C13.8571 22.0894 13.7829 21.9719 13.6858 21.8748C13.5887 21.7777 13.4711 21.7035 13.3417 21.6576C13.2123 21.6118 13.0742 21.5954 12.9377 21.6097H11.1647V18.155C12.6545 18.4154 14.0075 19.1851 14.9925 20.3327C15.9775 21.4803 16.5332 22.9345 16.5646 24.4465C16.5365 26.1321 15.8746 27.7454 14.7106 28.965C13.7901 29.9318 12.5683 30.5569 11.2458 30.7379V27.2832L11.1647 27.3541ZM11.8739 25.2266H11.1647V23.5144H11.8739V25.2266ZM25.8752 24.4363C25.8691 24.709 25.8024 24.977 25.6797 25.2206C25.557 25.4642 25.3815 25.6774 25.166 25.8446V23.0991C25.3726 23.2586 25.5427 23.4605 25.665 23.6911C25.7873 23.9217 25.859 24.1758 25.8752 24.4363ZM36.3305 23.636H37.0397V25.3178H36.3609L36.3305 23.636ZM37.0397 21.5085H35.2668C35.0052 21.5014 34.7511 21.5958 34.5576 21.7719L34.6488 21.863L34.5576 21.7719C34.3815 21.9654 34.2871 22.2195 34.2942 22.481V26.1992C34.2871 26.4607 34.3815 26.7148 34.5576 26.9083L34.6488 26.8273L34.5576 26.9083C34.7495 27.0881 35.0038 27.1862 35.2668 27.1819H37.0397V30.6062C35.7173 30.4342 34.4959 29.8074 33.585 28.8333C32.7543 27.9986 32.1706 26.9505 31.8986 25.8047C31.6267 24.6589 31.677 23.4602 32.044 22.3413C32.4111 21.2223 33.0805 20.2267 33.9783 19.4647C34.8761 18.7026 35.9672 18.2037 37.1309 18.0233L37.0397 21.5085ZM25.2166 28.0633C25.9672 27.8029 26.6163 27.3119 27.0712 26.6606C27.526 26.0092 27.7634 25.2307 27.7494 24.4363C27.7534 23.6317 27.5135 22.8449 27.0614 22.1793C26.6093 21.5138 25.9661 21.0008 25.2166 20.7081V15.217H34.5474C34.8154 15.2227 35.0772 15.2987 35.3066 15.4374C35.5359 15.5761 35.7249 15.7726 35.8544 16.0072C33.9785 16.4585 32.3101 17.5302 31.1197 19.0486C29.9293 20.5669 29.2867 22.4429 29.2961 24.3722C29.3055 26.3015 29.9663 28.1711 31.1714 29.6778C32.3765 31.1845 34.0553 32.2399 35.9354 32.673C35.798 32.9194 35.5964 33.124 35.352 33.2649C35.1076 33.4059 34.8295 33.4779 34.5474 33.4734H25.2166V28.0633ZM35.3478 13.1705H13.0592C12.5569 13.1678 12.059 13.2648 11.5944 13.4558C11.1298 13.6468 10.7077 13.928 10.3525 14.2832C9.9973 14.6384 9.71604 15.0605 9.52505 15.5251C9.33405 15.9897 9.23711 16.4876 9.2398 16.9899V31.8726C9.23711 32.375 9.33405 32.8728 9.52505 33.3375C9.71604 33.8021 9.9973 34.2242 10.3525 34.5794C10.7077 34.9346 11.1298 35.2158 11.5944 35.4068C12.059 35.5978 12.5569 35.6948 13.0592 35.6921H35.3478C35.8497 35.6948 36.3471 35.5978 36.8111 35.4067C37.2752 35.2156 37.6966 34.9342 38.051 34.5788C38.4054 34.2235 38.6857 33.8012 38.8756 33.3367C39.0655 32.8721 39.1612 32.3745 39.1572 31.8726V16.9899C39.1612 16.4881 39.0655 15.9905 38.8756 15.5259C38.6857 15.0614 38.4054 14.6391 38.051 14.2838C37.6966 13.9284 37.2752 13.647 36.8111 13.4559C36.3471 13.2648 35.8497 13.1678 35.3478 13.1705Z" fill="currentColor" stroke="#3B402E" stroke-width="0.4" mask="url(#path-2-inside-1_1324_37354)"/>
</g>
<defs>
<clipPath id="clip0_1324_37354">
<rect width="29.9579" height="22.5115" fill="white" transform="translate(9.11816 13.1704)"/>
</clipPath>
</defs>
</svg>
