<svg width="48" height="48" viewBox="0 0 48 48" fill="none" xmlns="http://www.w3.org/2000/svg">
<path d="M48 0H0V48H48V0Z" fill="#3B402E"/>
<path d="M32.6396 24.0001C32.6185 25.8656 31.9522 27.6663 30.7537 29.096C29.5553 30.5258 27.8987 31.4965 26.0656 31.8432C24.2324 32.1898 22.3359 31.8909 20.6981 30.9974C19.0604 30.1039 17.7826 28.6709 17.0818 26.9419C16.3811 25.2129 16.3007 23.2946 16.8543 21.513C17.4078 19.7314 18.5613 18.1965 20.1185 17.169C21.6757 16.1416 23.5406 15.6851 25.3963 15.8771C27.2521 16.0691 28.984 16.8977 30.2979 18.2222C31.8046 19.7675 32.6453 21.8419 32.6396 24.0001ZM24.4571 14.6514C22.6232 14.6514 20.8304 15.1944 19.3047 16.212C17.779 17.2296 16.5889 18.6763 15.8842 20.3694C15.1796 22.0625 14.992 23.9264 15.3453 25.726C15.6985 27.5255 16.5767 29.1802 17.8691 30.4814C19.1615 31.7825 20.8102 32.6718 22.6074 33.0372C24.4045 33.4025 26.2696 33.2276 27.9675 32.5343C29.6653 31.8411 31.1198 30.6607 32.1477 29.1419C33.1756 27.6231 33.7308 25.834 33.7432 24.0001C33.7432 22.7807 33.503 21.5732 33.0363 20.4466C32.5696 19.3199 31.8857 18.2963 31.0234 17.434C30.1611 16.5717 29.1374 15.8877 28.0108 15.421C26.8841 14.9544 25.6766 14.7142 24.4571 14.7142" fill="currentColor"/>
<path d="M30.5589 24.0001C30.5589 25.2068 30.201 26.3864 29.5306 27.3897C28.8603 28.393 27.9075 29.1749 26.7927 29.6367C25.6779 30.0985 24.4511 30.2192 23.2677 29.9838C22.0842 29.7484 20.9971 29.1674 20.1439 28.3142C19.2907 27.461 18.7096 26.3738 18.4742 25.1904C18.2388 24.0069 18.3596 22.7802 18.8214 21.6654C19.2832 20.5506 20.0651 19.5978 21.0684 18.9274C22.0717 18.257 23.2512 17.8992 24.4579 17.8992C25.2594 17.898 26.0533 18.0551 26.794 18.3612C27.5348 18.6674 28.2078 19.1167 28.7746 19.6835C29.3413 20.2502 29.7907 20.9233 30.0969 21.664C30.403 22.4047 30.5601 23.1986 30.5589 24.0001ZM24.4579 16.7239C23.0188 16.7239 21.612 17.1506 20.4154 17.9502C19.2188 18.7497 18.2863 19.8861 17.7355 21.2156C17.1848 22.5452 17.0407 24.0082 17.3214 25.4197C17.6022 26.8311 18.2952 28.1276 19.3128 29.1452C20.3304 30.1628 21.6269 30.8558 23.0384 31.1366C24.4498 31.4173 25.9128 31.2733 27.2424 30.7225C28.572 30.1718 29.7084 29.2392 30.5079 28.0426C31.3074 26.846 31.7342 25.4393 31.7342 24.0001C31.7366 23.044 31.5499 22.0967 31.1851 21.2128C30.8203 20.329 30.2844 19.5259 29.6083 18.8498C28.9321 18.1736 28.1291 17.6378 27.2452 17.2729C26.3613 16.9081 25.4141 16.7215 24.4579 16.7239Z" fill="currentColor"/>
<path d="M36.7313 25.3279H35.7534V18.6169C35.8193 18.1426 35.9795 17.6863 36.2245 17.2749C36.4695 16.8635 36.7943 16.5053 37.1799 16.2214V25.31L36.7313 25.3279ZM37.1799 31.1058H36.9197V27.4004H37.1799V31.1058ZM38.1579 25.5163V14.9384C38.1579 14.8756 38.1579 14.8038 38.095 14.8038C38.0322 14.8038 37.9605 14.741 37.9605 14.8038L37.5119 15.0011C36.7846 15.3058 36.1517 15.7991 35.6785 16.4299C35.2054 17.0608 34.9091 17.8064 34.8203 18.5899V26.1264C34.8224 26.159 34.8363 26.1898 34.8594 26.2129C34.8825 26.236 34.9133 26.2499 34.9459 26.252H35.9238V31.8415C35.926 31.8742 35.9399 31.9049 35.963 31.928C35.9861 31.9511 36.0168 31.965 36.0495 31.9672H37.9964C38.0592 31.9672 38.0591 31.9672 38.1309 31.9044C38.2027 31.8415 38.1937 31.8415 38.1937 31.7697V25.4894L38.1579 25.5163Z" fill="currentColor"/>
<path d="M13.1619 31.1058H11.7354V26.557H13.1619V31.1058ZM12.5787 25.5253H12.3186V22.8337H12.5787V25.5253ZM11.4034 20.6535H12.0583C12.0924 20.6512 12.1244 20.636 12.1478 20.611C12.1711 20.586 12.184 20.5531 12.184 20.5189V17.3428H12.6415V20.5189C12.6415 20.5531 12.6544 20.586 12.6777 20.611C12.7011 20.636 12.733 20.6512 12.7672 20.6535H13.4221C13.4562 20.6512 13.4882 20.636 13.5115 20.611C13.5348 20.586 13.5478 20.5531 13.5477 20.5189V17.3428H13.9335V20.2587C13.9335 20.6894 13.7624 21.1025 13.4578 21.407C13.1533 21.7116 12.7403 21.8827 12.3096 21.8827C11.8789 21.8827 11.4658 21.7116 11.1613 21.407C10.8568 21.1025 10.6857 20.6894 10.6857 20.2587V17.3428H11.0714V20.5189C11.206 20.5189 11.2688 20.6535 11.3944 20.6535H11.4034ZM14.9025 16.2393H9.96791C9.93529 16.2414 9.90455 16.2553 9.88144 16.2784C9.85832 16.3015 9.8444 16.3323 9.84229 16.3649V20.1331C9.85469 20.63 9.99918 21.1147 10.2609 21.5373C10.5227 21.9599 10.8922 22.3051 11.3316 22.5376V25.5253H10.883C10.8488 25.5252 10.8159 25.5381 10.7909 25.5615C10.7659 25.5848 10.7507 25.6168 10.7485 25.6509V31.8864C10.7507 31.9205 10.7659 31.9525 10.7909 31.9758C10.8159 31.9991 10.8488 32.0121 10.883 32.012H13.9963C14.0289 32.0099 14.0597 31.9959 14.0828 31.9728C14.1059 31.9497 14.1198 31.919 14.1219 31.8864V25.6509C14.1198 25.6183 14.1059 25.5875 14.0828 25.5644C14.0597 25.5413 14.0289 25.5274 13.9963 25.5253H13.6105V22.5376C14.0635 22.3222 14.4448 21.9809 14.709 21.5545C14.9731 21.1281 15.1088 20.6346 15.0998 20.1331V16.4277C15.0998 16.3021 15.0371 16.2393 14.9025 16.2393Z" fill="currentColor"/>
<path d="M32.7745 17.666L32.8463 17.7916L33.7435 17.0828L33.6807 16.9482C32.2028 15.0418 30.1917 13.6178 27.9027 12.857L27.7681 12.7942L27.3823 13.8977L27.5079 13.9605C29.5814 14.6624 31.4073 15.9493 32.7655 17.666" fill="currentColor"/>
<path d="M26.0184 13.5747H26.144L26.4042 12.4712H26.2786C25.3814 12.2738 24.7803 12.2109 24.7803 12.2109H24.6995L24.6367 13.3773H24.6995C25.1392 13.3942 25.5756 13.4604 26.0005 13.5747" fill="currentColor"/>
</svg>
