<svg width="48" height="48" viewBox="0 0 48 48" fill="none" xmlns="http://www.w3.org/2000/svg">
<path d="M48 0H0V48H48V0Z" fill="#3B402E"/>
<path d="M33.9414 19.2449C33.0902 19.4399 32.3303 19.9179 31.786 20.6007C31.2416 21.2836 30.9451 22.1309 30.9448 23.0042V24.2333H16.9844V23.0042C16.9841 22.1309 16.6875 21.2836 16.1432 20.6007C15.5989 19.9179 14.839 19.4399 13.9878 19.2449V17.7825C13.9924 17.3366 14.1716 16.9102 14.487 16.5949C14.8023 16.2796 15.2286 16.1004 15.6745 16.0957H32.2547C32.7006 16.1004 33.1269 16.2796 33.4422 16.5949C33.7575 16.9102 33.9367 17.3366 33.9414 17.7825V19.2449ZM16.6793 26.0726H31.2588C31.6542 26.0752 32.0352 25.9242 32.3214 25.6514C32.6076 25.3786 32.7767 25.0052 32.793 24.6101V23.0759C32.7918 22.8034 32.8446 22.5334 32.9483 22.2814C33.052 22.0294 33.2047 21.8005 33.3973 21.6078C33.59 21.4151 33.819 21.2625 34.071 21.1587C34.323 21.055 34.593 21.0022 34.8655 21.0034C35.4234 20.9985 35.9608 21.2131 36.3619 21.6008C36.763 21.9885 36.9957 22.5182 37.0098 23.0759V24.6101C37.0098 25.362 36.8606 26.1065 36.5707 26.8002C36.2808 27.494 35.8561 28.1232 35.3211 28.6516C34.7861 29.1799 34.1515 29.5967 33.4542 29.8779C32.7568 30.159 32.0106 30.2989 31.2588 30.2894H16.6793C15.1635 30.2966 13.7065 29.7031 12.627 28.6388C11.5476 27.5745 10.9336 26.126 10.9194 24.6101V23.0759C10.9216 22.7975 10.9795 22.5224 11.0895 22.2667C11.1995 22.011 11.3595 21.7798 11.5601 21.5868C11.7606 21.3937 11.9978 21.2426 12.2575 21.1425C12.5172 21.0423 12.7943 20.995 13.0726 21.0034C13.6304 20.9985 14.1679 21.2131 14.569 21.6008C14.9701 21.9885 15.2028 22.5182 15.2169 23.0759V24.6101C15.2107 24.8039 15.2442 24.9968 15.3155 25.1771C15.3868 25.3573 15.4943 25.521 15.6314 25.6581C15.7685 25.7951 15.9322 25.9026 16.1124 25.9739C16.2927 26.0452 16.4856 26.0788 16.6793 26.0726ZM35.7806 19.2449V17.7825C35.7688 16.8576 35.3912 15.975 34.7305 15.3277C34.0697 14.6804 33.1796 14.321 32.2547 14.3282H15.6745C14.7503 14.3234 13.8615 14.6835 13.2012 15.3303C12.541 15.9771 12.1627 16.8583 12.1485 17.7825V19.2449C11.2973 19.4399 10.5374 19.9179 9.99303 20.6007C9.4487 21.2836 9.15215 22.1309 9.15186 23.0042V24.5383C9.16184 26.3611 9.83922 28.117 11.0559 29.4743C12.2726 30.8315 13.9444 31.696 15.7553 31.9043V32.7477C15.7553 32.9856 15.8497 33.2138 16.018 33.3821C16.1863 33.5504 16.4145 33.6449 16.6525 33.6449C16.8904 33.6449 17.1186 33.5504 17.2869 33.3821C17.4551 33.2138 17.5497 32.9856 17.5497 32.7477V31.9851H30.3706V32.7477C30.3706 32.9856 30.4651 33.2138 30.6334 33.3821C30.8016 33.5504 31.0298 33.6449 31.2678 33.6449C31.5057 33.6449 31.7339 33.5504 31.9022 33.3821C32.0704 33.2138 32.165 32.9856 32.165 32.7477V31.9043C33.9749 31.6958 35.6457 30.831 36.8609 29.4736C38.0761 28.1161 38.7515 26.3602 38.7593 24.5383V23.0042C38.7202 22.1309 38.4005 21.2935 37.8477 20.6163C37.295 19.9391 36.5386 19.4582 35.6909 19.2449" fill="#B86640"/>
</svg>
