<svg width="48" height="49" viewBox="0 0 48 49" fill="none" xmlns="http://www.w3.org/2000/svg">
<path d="M48 0.75708H0V48.7571H48V0.75708Z" fill="#3B402E"/>
<g clip-path="url(#clip0_1439_37915)">
<path d="M32.2901 14.6613C32.1701 14.275 31.9297 13.9372 31.604 13.6973C31.2783 13.4574 30.8844 13.328 30.4799 13.328C30.0754 13.328 29.6815 13.4574 29.3558 13.6973C29.0301 13.9372 28.7897 14.275 28.6697 14.6613H32.2901ZM19.7798 14.6613C19.6742 14.2739 19.4448 13.9317 19.1264 13.687C18.8081 13.4423 18.4184 13.3085 18.0169 13.306C17.6032 13.2992 17.1986 13.428 16.8648 13.6727C16.5311 13.9174 16.2867 14.2646 16.1688 14.6613H19.7798ZM23.3812 19.6844H32.4038V18.5755H23.3812V19.6844ZM32.4133 20.8691H23.3812V22.4329H32.4133V20.8691ZM23.3812 17.4003H32.4038V15.8365H23.3812V17.4003ZM14.9367 14.6613L14.9936 14.4433C15.1323 13.9315 15.4004 13.4639 15.7721 13.0857C16.1438 12.7075 16.6066 12.4313 17.116 12.2837C17.6253 12.1362 18.1641 12.1222 18.6804 12.2431C19.1968 12.3641 19.6733 12.6159 20.0641 12.9743C20.4018 13.2889 20.6673 13.6729 20.8424 14.0999C21.0175 14.527 21.0979 14.9868 21.0782 15.4479C21.0782 19.3527 21.0782 23.2574 21.0782 27.1622V27.5128H22.1586C22.1642 27.4435 22.1642 27.3738 22.1586 27.3044C22.1586 23.229 22.1586 19.1537 22.1586 15.0783C22.1589 14.8326 22.1302 14.5876 22.0733 14.3485C21.86 13.3843 21.3151 12.5254 20.5335 11.9217C19.7519 11.318 18.7833 11.0077 17.7964 11.0449C16.8095 11.0821 15.867 11.4645 15.1331 12.1254C14.3992 12.7862 13.9205 13.6837 13.7805 14.6613H14.9367ZM34.7069 27.5128V15.2774C34.7088 15.0231 34.6865 14.7692 34.6406 14.5191C34.4669 13.5272 33.9448 12.6298 33.1683 11.9886C32.3917 11.3475 31.4118 11.0046 30.4049 11.0217C29.398 11.0389 28.4304 11.4149 27.6761 12.0822C26.9219 12.7494 26.4306 13.664 26.2908 14.6613H27.4376C27.4376 14.5665 27.485 14.4623 27.5134 14.3675C27.7279 13.6595 28.1892 13.0519 28.8137 12.6552C29.4381 12.2585 30.1841 12.099 30.9161 12.2057C31.6482 12.3125 32.3176 12.6783 32.8028 13.2367C33.288 13.7952 33.5567 14.5092 33.5601 15.2489C33.5601 19.2295 33.5601 23.21 33.5601 27.1906V27.5128H34.7069ZM32.4133 23.5986H23.3812V24.7359H25.2199C25.6274 24.7359 25.8928 24.9634 25.8928 25.3046C25.8928 25.6458 25.6274 25.8733 25.2199 25.8827H23.3244C23.3244 26.603 23.3244 27.3044 23.3244 28.0057C23.3369 28.0686 23.3703 28.1253 23.4191 28.1668C23.5677 28.3525 23.7547 28.5038 23.9672 28.6105C24.1798 28.7171 24.4129 28.7765 24.6506 28.7846C24.8882 28.7927 25.1248 28.7493 25.3442 28.6574C25.5635 28.5655 25.7603 28.4273 25.9212 28.2521C26.4355 27.7718 27.113 27.5045 27.8167 27.5045C28.5205 27.5045 29.1979 27.7718 29.7122 28.2521C29.866 28.4227 30.0538 28.559 30.2636 28.6524C30.4734 28.7457 30.7005 28.7939 30.9301 28.7939C31.1597 28.7939 31.3868 28.7457 31.5966 28.6524C31.8064 28.559 31.9942 28.4227 32.148 28.2521C32.2238 28.1858 32.328 28.091 32.328 28.0152C32.328 27.3138 32.328 26.6125 32.328 25.8922H30.4325C30.3119 25.8994 30.1915 25.8766 30.0819 25.8258C29.9691 25.766 29.8797 25.67 29.8281 25.5533C29.7766 25.4365 29.7658 25.3058 29.7975 25.1821C29.8292 25.0585 29.9016 24.9491 30.0031 24.8716C30.1045 24.7941 30.2291 24.753 30.3567 24.7549H32.3091L32.4133 23.5986ZM31.1054 9.87515C31.5576 9.97259 32.0038 10.096 32.4418 10.2448C33.3321 10.5839 34.1141 11.1576 34.7047 11.9051C35.2954 12.6527 35.6728 13.5461 35.7968 14.4907C35.7968 14.5476 35.7968 14.6044 35.8537 14.6803H38.6969C39.1424 14.6803 39.3888 14.8888 39.3888 15.2584C39.3888 15.628 39.1329 15.8176 38.7064 15.8176H35.8632V16.1019C35.8632 20.0067 35.8632 23.9114 35.8632 27.8161C35.8583 27.8949 35.8721 27.9737 35.9034 28.0462C35.9347 28.1186 35.9826 28.1827 36.0432 28.2332C36.1937 28.401 36.3767 28.5364 36.5812 28.6311C36.7857 28.7258 37.0073 28.7779 37.2326 28.7841C37.4579 28.7903 37.6821 28.7505 37.8915 28.6672C38.1009 28.5839 38.2911 28.4588 38.4505 28.2995C38.5072 28.2503 38.5729 28.2128 38.644 28.1891C38.7152 28.1653 38.7903 28.1558 38.8651 28.1611C38.9399 28.1664 39.0129 28.1863 39.08 28.2198C39.1471 28.2534 39.207 28.2997 39.2561 28.3564C39.3053 28.413 39.3428 28.4788 39.3666 28.5499C39.3903 28.621 39.3998 28.6961 39.3945 28.771C39.3893 28.8458 39.3693 28.9188 39.3358 28.9859C39.3023 29.053 39.2559 29.1128 39.1993 29.162C38.6871 29.6465 38.0088 29.9166 37.3037 29.9166C36.5987 29.9166 35.9204 29.6465 35.4082 29.162C35.1901 28.9266 34.908 28.7599 34.5966 28.6825C34.2851 28.6051 33.9579 28.6202 33.6549 28.726C33.4147 28.8168 33.1954 28.9554 33.0104 29.1335C32.4921 29.6283 31.803 29.9044 31.0865 29.9044C30.3699 29.9044 29.6809 29.6283 29.1625 29.1335C29.0087 28.9614 28.8203 28.8237 28.6096 28.7294C28.399 28.6352 28.1707 28.5864 27.9399 28.5864C27.7091 28.5864 27.4809 28.6352 27.2702 28.7294C27.0595 28.8237 26.8711 28.9614 26.7173 29.1335C26.2041 29.616 25.5262 29.8846 24.8218 29.8846C24.1174 29.8846 23.4395 29.616 22.9263 29.1335C22.7715 28.9533 22.5795 28.8086 22.3636 28.7094C22.1477 28.6102 21.9129 28.5589 21.6753 28.5589C21.4376 28.5589 21.2028 28.6102 20.9869 28.7094C20.771 28.8086 20.579 28.9533 20.4242 29.1335C19.9099 29.6139 19.2325 29.8811 18.5287 29.8811C17.825 29.8811 17.1475 29.6139 16.6332 29.1335C16.4793 28.9518 16.2876 28.8059 16.0716 28.7057C15.8556 28.6056 15.6203 28.5537 15.3822 28.5537C15.1441 28.5537 14.9088 28.6056 14.6927 28.7057C14.4767 28.8059 14.2851 28.9518 14.1311 29.1335C13.6169 29.6139 12.9394 29.8811 12.2356 29.8811C11.5319 29.8811 10.8544 29.6139 10.3401 29.1335C10.2476 29.0422 10.162 28.944 10.0842 28.8397V28.4417C10.4539 27.9678 10.7003 27.9488 11.1741 28.3279C11.473 28.5945 11.8628 28.7361 12.2631 28.7238C12.6634 28.7115 13.0436 28.546 13.3255 28.2616C13.8583 27.732 14.5789 27.4348 15.33 27.4348C16.0812 27.4348 16.8018 27.732 17.3346 28.2616C17.4847 28.4163 17.6645 28.5394 17.8631 28.6234C18.0617 28.7074 18.2752 28.7507 18.4908 28.7507C18.7065 28.7507 18.9199 28.7074 19.1185 28.6234C19.3172 28.5394 19.4969 28.4163 19.6471 28.2616C19.7199 28.1984 19.7773 28.1195 19.8151 28.0308C19.8529 27.9422 19.8699 27.846 19.8651 27.7498V15.8176H10.9372C10.7841 15.8337 10.6294 15.8099 10.4882 15.7485C10.347 15.687 10.2241 15.59 10.1316 15.4669V15.012C10.2184 14.8827 10.3404 14.7809 10.4831 14.7188C10.6259 14.6567 10.7835 14.6367 10.9372 14.6613C11.155 14.6755 11.3734 14.6755 11.5912 14.6613H12.6147C12.7224 13.6892 13.0923 12.7647 13.6849 11.9868C14.2776 11.2088 15.0707 10.6067 15.9793 10.2448C16.4233 10.0897 16.8758 9.95995 17.3346 9.8562H18.5951L18.7467 9.91306C19.6425 10.0313 20.4926 10.3786 21.2148 10.9215C21.9371 11.4645 22.507 12.1846 22.8694 13.0122C23.082 13.5507 23.2624 14.1014 23.4097 14.6613H25.0019C25.0473 14.6423 25.0875 14.6126 25.1189 14.5746C25.1503 14.5366 25.1719 14.4916 25.182 14.4433C25.3415 13.4043 25.8002 12.4342 26.502 11.6515C27.2039 10.8689 28.1185 10.3076 29.1341 10.0363L29.8828 9.86566L31.1054 9.87515Z" fill="#B86640"/>
<path d="M10.1311 37.7109C10.5007 37.2465 10.7471 37.2276 11.221 37.6067C11.5235 37.8696 11.9139 38.0087 12.3144 37.9964C12.715 37.9841 13.0962 37.8213 13.3819 37.5403C13.8267 37.1048 14.3968 36.8198 15.012 36.7252C15.4091 36.6727 15.8127 36.7047 16.1965 36.819C16.5804 36.9334 16.9357 37.1275 17.2393 37.3887C17.4976 37.6211 17.7963 37.8042 18.1207 37.9289C18.4068 38.0068 18.7089 38.0037 18.9934 37.9201C19.2778 37.8364 19.5335 37.6754 19.7319 37.455C20.1699 37.0386 20.7323 36.777 21.333 36.7103C21.9337 36.6435 22.5397 36.7753 23.0585 37.0854C23.2504 37.2084 23.4311 37.3479 23.5987 37.5024C23.7498 37.6589 23.931 37.7834 24.1312 37.8684C24.3315 37.9534 24.5469 37.9972 24.7644 37.9972C24.982 37.9972 25.1974 37.9534 25.3976 37.8684C25.5979 37.7834 25.779 37.6589 25.9302 37.5024C26.4496 36.9913 27.1491 36.7049 27.8778 36.7049C28.6065 36.7049 29.306 36.9913 29.8254 37.5024C29.9776 37.6606 30.1601 37.7865 30.362 37.8725C30.5639 37.9585 30.7812 38.0029 31.0007 38.0029C31.2202 38.0029 31.4374 37.9585 31.6393 37.8725C31.8413 37.7865 32.0238 37.6606 32.1759 37.5024C32.6961 36.9856 33.3997 36.6955 34.133 36.6955C34.8663 36.6955 35.5699 36.9856 36.0901 37.5024C36.2403 37.6572 36.42 37.7802 36.6186 37.8642C36.8173 37.9483 37.0307 37.9916 37.2464 37.9916C37.462 37.9916 37.6755 37.9483 37.8741 37.8642C38.0727 37.7802 38.2524 37.6572 38.4026 37.5024C38.4594 37.4493 38.5262 37.4082 38.5992 37.3815C38.6722 37.3548 38.7498 37.3431 38.8274 37.3471C38.905 37.3511 38.981 37.3707 39.0509 37.4047C39.1207 37.4387 39.183 37.4865 39.234 37.5451C39.285 37.6038 39.3236 37.6721 39.3476 37.746C39.3716 37.8199 39.3804 37.8979 39.3736 37.9753C39.3668 38.0527 39.3444 38.1279 39.3079 38.1965C39.2713 38.265 39.2213 38.3255 39.1608 38.3744C38.6487 38.8589 37.9704 39.129 37.2653 39.129C36.5603 39.129 35.882 38.8589 35.3698 38.3744C35.1539 38.1385 34.8745 37.9701 34.5651 37.8894C34.2557 37.8087 33.9295 37.8191 33.6259 37.9194C33.3672 38.0099 33.1312 38.1554 32.9341 38.3459C32.4188 38.8242 31.7417 39.09 31.0386 39.09C30.3355 39.09 29.6584 38.8242 29.1431 38.3459C28.9891 38.1675 28.7986 38.0243 28.5843 37.9262C28.3701 37.828 28.1372 37.7772 27.9015 37.7772C27.6658 37.7772 27.433 37.828 27.2187 37.9262C27.0044 38.0243 26.8139 38.1675 26.6599 38.3459C26.1385 38.8186 25.457 39.0757 24.7532 39.0652C24.0495 39.0546 23.376 38.7772 22.8689 38.2891C22.6035 38.016 22.2518 37.8432 21.8734 37.8C21.4951 37.7568 21.1135 37.8459 20.7933 38.0521C20.6794 38.1358 20.5717 38.2276 20.4711 38.3269C19.9579 38.8094 19.28 39.078 18.5756 39.078C17.8712 39.078 17.1933 38.8094 16.6801 38.3269C16.4635 38.0954 16.1837 37.9325 15.8754 37.8584C15.5671 37.7842 15.2439 37.8022 14.9457 37.9099C14.6739 38.0188 14.426 38.1798 14.2159 38.3838C13.7045 38.8434 13.0412 39.0976 12.3536 39.0976C11.666 39.0976 11.0027 38.8434 10.4913 38.3838C10.387 38.289 10.3112 38.1658 10.2164 38.0616L10.1311 37.7109Z" fill="#B86640"/>
<path d="M10.1311 33.1332C10.4533 32.6499 10.7566 32.612 11.2021 32.9911C11.5115 33.2601 11.9114 33.4019 12.3211 33.3878C12.7309 33.3737 13.1201 33.2049 13.4103 32.9152C13.6971 32.6276 14.0435 32.4064 14.425 32.2673C14.8066 32.1281 15.214 32.0742 15.6186 32.1096C16.2336 32.1384 16.8168 32.3912 17.2582 32.8204C17.4202 32.9905 17.615 33.1258 17.8309 33.2183C18.0468 33.3108 18.2792 33.3585 18.514 33.3585C18.7488 33.3585 18.9812 33.3108 19.1971 33.2183C19.413 33.1258 19.6078 32.9905 19.7698 32.8204C20.2786 32.3294 20.9581 32.0549 21.6653 32.0549C22.3724 32.0549 23.052 32.3294 23.5608 32.8204C23.7155 32.9943 23.9053 33.1335 24.1176 33.2288C24.33 33.3241 24.5601 33.3734 24.7929 33.3734C25.0256 33.3734 25.2558 33.3241 25.4681 33.2288C25.6805 33.1335 25.8702 32.9943 26.025 32.8204C26.5371 32.3359 27.2154 32.0658 27.9205 32.0658C28.6255 32.0658 29.3038 32.3359 29.816 32.8204C30.1325 33.1517 30.5623 33.3514 31.0196 33.3796C31.4548 33.3921 31.8773 33.232 32.1948 32.9342C32.4531 32.6656 32.7629 32.4519 33.1057 32.3059C33.4485 32.16 33.8173 32.0847 34.1899 32.0847C34.5625 32.0847 34.9312 32.16 35.274 32.3059C35.6168 32.4519 35.9267 32.6656 36.1849 32.9342C36.4847 33.2209 36.8836 33.381 37.2985 33.381C37.7134 33.381 38.1123 33.2209 38.4121 32.9342C38.7438 32.6593 39.0661 32.6498 39.303 32.9342C39.359 32.9993 39.4006 33.0756 39.425 33.158C39.4493 33.2404 39.4559 33.327 39.4443 33.4121C39.4326 33.4972 39.403 33.5789 39.3574 33.6518C39.3118 33.7246 39.2513 33.7869 39.1798 33.8345C38.6699 34.2934 38.0082 34.5473 37.3222 34.5473C36.6362 34.5473 35.9745 34.2934 35.4646 33.8345C35.1232 33.4807 34.6576 33.2734 34.1662 33.2564C33.6901 33.2879 33.2433 33.4977 32.9151 33.844C32.4651 34.2479 31.8947 34.4926 31.2919 34.5406C30.6891 34.5885 30.0873 34.437 29.579 34.1094C29.4165 34.0115 29.2669 33.8937 29.1336 33.7587C28.9804 33.5973 28.7959 33.4687 28.5914 33.3808C28.387 33.293 28.1667 33.2476 27.9442 33.2476C27.7216 33.2476 27.5014 33.293 27.2969 33.3808C27.0924 33.4687 26.9079 33.5973 26.7547 33.7587C26.2274 34.2545 25.5309 34.5306 24.8071 34.5306C24.0833 34.5306 23.3868 34.2545 22.8595 33.7587C22.7088 33.5981 22.5267 33.47 22.3246 33.3824C22.1225 33.2949 21.9045 33.2497 21.6842 33.2497C21.464 33.2497 21.246 33.2949 21.0439 33.3824C20.8417 33.47 20.6597 33.5981 20.509 33.7587L20.3195 33.9293C19.8058 34.3399 19.1635 34.5556 18.5062 34.5383C17.8488 34.5209 17.2188 34.2717 16.7275 33.8345C16.4241 33.5143 16.0186 33.3098 15.5807 33.2564C15.3329 33.241 15.0846 33.2787 14.8525 33.3669C14.6204 33.4552 14.4098 33.592 14.2349 33.7682C13.8551 34.1409 13.3739 34.3936 12.8515 34.4947C12.329 34.5958 11.7883 34.5409 11.2968 34.3369C10.8626 34.1755 10.4797 33.9006 10.188 33.5407L10.1311 33.1332Z" fill="#B86640"/>
</g>
<defs>
<clipPath id="clip0_1439_37915">
<rect width="29.3804" height="29.3804" fill="white" transform="translate(10.1311 9.87524)"/>
</clipPath>
</defs>
</svg>
