<svg width="48" height="48" viewBox="0 0 48 48" fill="none" xmlns="http://www.w3.org/2000/svg">
<path d="M48 0H0V48H48V0Z" fill="#3B402E"/>
<g clip-path="url(#clip0_1324_37340)">
<path d="M20.0017 25.7882L20.0017 25.7882L20.0006 25.7904C18.6499 28.5318 16.9525 31.0882 14.9501 33.3968C14.5308 33.8549 14.2977 34.453 14.2966 35.074L14.2957 35.074L14.2975 35.0875C14.3769 35.679 14.6833 36.2163 15.1517 36.5859C15.6186 36.9543 16.2101 37.1274 16.8017 37.0688C17.4664 37.0804 18.1133 36.8529 18.6244 36.4276L18.6244 36.4276L18.6261 36.4262L18.8588 36.2238C18.8589 36.2238 18.859 36.2237 18.859 36.2237C20.1728 35.09 21.8503 34.4664 23.5855 34.4664C25.3208 34.4664 26.9983 35.09 28.3121 36.2237C28.3122 36.2237 28.3122 36.2238 28.3122 36.2238L28.545 36.4262L28.545 36.4262L28.5467 36.4276C29.0578 36.8529 29.7047 37.0804 30.3694 37.0688C30.961 37.1274 31.5525 36.9543 32.0194 36.5859C32.4878 36.2163 32.7942 35.679 32.8736 35.0875L32.8745 35.0876V35.0742V34.2536H32.8746L32.8745 34.2504C32.863 33.8853 32.7733 33.527 32.6114 33.1995C32.4497 32.8725 32.2197 32.5839 31.937 32.3533C30.1407 30.8102 28.6715 28.923 27.6161 26.8031L26.1573 23.8552L26.1578 23.855L26.1522 23.8461C25.8781 23.4133 25.4991 23.0569 25.0504 22.81C24.6016 22.563 24.0977 22.4335 23.5855 22.4335C23.0733 22.4335 22.5694 22.563 22.1207 22.81C21.672 23.0569 21.293 23.4133 21.0189 23.8461L21.0186 23.8459L21.0148 23.8532L20.0017 25.7882ZM16.7678 39.5029L16.7678 39.5028L16.7636 39.5029C15.5251 39.5488 14.3184 39.105 13.4048 38.2675C12.492 37.4308 11.9453 36.2685 11.8827 35.0319C11.8987 33.8559 12.3316 32.7238 13.1043 31.8371L13.1043 31.8371C14.9886 29.6742 16.5962 27.285 17.8899 24.7247L17.8903 24.724L18.8516 22.7811C19.3246 21.9394 20.013 21.2386 20.8462 20.7508C21.6802 20.2625 22.6292 20.0052 23.5957 20.0052C24.5621 20.0052 25.5111 20.2625 26.3451 20.7508C27.1784 21.2386 27.8668 21.9394 28.3398 22.7812L29.8077 25.7372L29.8078 25.7374C30.7187 27.5629 31.9882 29.1862 33.5404 30.5103L33.5409 30.5107C34.0876 30.9708 34.5285 31.5435 34.8336 32.1897C35.1386 32.8357 35.3006 33.5398 35.3086 34.2542V35.0713C35.2362 36.3154 34.674 37.4801 33.745 38.3107C32.8152 39.1419 31.5938 39.5707 30.3485 39.503L30.3485 39.5028L30.3421 39.5029C29.0901 39.5141 27.876 39.073 26.9232 38.2607C26.923 38.2606 26.9229 38.2605 26.9228 38.2604L26.6905 38.0584L26.6905 38.0584L26.6885 38.0567C25.8049 37.328 24.6954 36.9295 23.5501 36.9295C22.4048 36.9295 21.2952 37.328 20.4117 38.0567L20.4116 38.0566L20.408 38.0598L20.1864 38.2613C19.2313 39.0693 18.0189 39.5096 16.7678 39.5029Z" fill="currentColor" stroke="#3B402E" stroke-width="0.2"/>
<path d="M11.6427 19.9497L11.6423 19.9496V19.9584V21.2248V21.2755H11.642L11.6427 21.2842C11.6738 21.6372 11.8359 21.9657 12.0972 22.2051C12.3585 22.4444 12.7 22.5771 13.0543 22.5771C13.4086 22.5771 13.7501 22.4444 14.0114 22.2051C14.2727 21.9657 14.4349 21.6372 14.4659 21.2842L14.4663 21.2842V21.2755V19.9584H14.4667L14.4659 19.9497C14.4349 19.5967 14.2727 19.2681 14.0114 19.0288C13.7501 18.7895 13.4086 18.6568 13.0543 18.6568C12.7 18.6568 12.3585 18.7895 12.0972 19.0288C11.8359 19.2681 11.6738 19.5967 11.6427 19.9497ZM16.8903 21.2755H16.8902L16.8904 21.2805C16.9168 21.8007 16.8371 22.3207 16.6563 22.8091C16.4754 23.2975 16.1971 23.744 15.8383 24.1215C15.4795 24.499 15.0477 24.7996 14.5691 25.0049C14.0905 25.2103 13.5751 25.3162 13.0543 25.3162C12.5335 25.3162 12.0181 25.2103 11.5395 25.0049C11.0609 24.7996 10.6291 24.499 10.2703 24.1215C9.91151 23.744 9.63322 23.2975 9.45235 22.8091C9.27149 22.3207 9.19182 21.8007 9.21822 21.2805L9.21835 21.2805V21.2755V19.961C9.26887 18.9782 9.69471 18.0522 10.408 17.3742C11.122 16.6956 12.0693 16.3172 13.0543 16.3172C14.0393 16.3172 14.9867 16.6956 15.7006 17.3742C16.4139 18.0522 16.8398 18.9782 16.8903 19.961V21.2755Z" fill="currentColor" stroke="#3B402E" stroke-width="0.2"/>
<mask id="path-4-inside-1_1324_37340" fill="white">
<path d="M22.2377 13.3529V12.0359C22.2217 11.8539 22.2438 11.6706 22.3024 11.4976C22.3611 11.3246 22.4551 11.1657 22.5785 11.0309C22.7019 10.8962 22.852 10.7886 23.0192 10.715C23.1864 10.6414 23.3671 10.6035 23.5497 10.6035C23.7324 10.6035 23.9131 10.6414 24.0803 10.715C24.2475 10.7886 24.3976 10.8962 24.521 11.0309C24.6444 11.1657 24.7384 11.3246 24.797 11.4976C24.8557 11.6706 24.8777 11.8539 24.8617 12.0359V13.3529C24.8627 13.5823 24.8033 13.808 24.6895 14.0072C24.5757 14.2063 24.4115 14.372 24.2133 14.4876C24.0135 14.603 23.787 14.6638 23.5563 14.6641C23.3256 14.6644 23.0989 14.604 22.8988 14.4891C22.6988 14.3742 22.5324 14.2088 22.4164 14.0094C22.3004 13.81 22.2388 13.5836 22.2377 13.3529ZM27.4958 13.3529V12.0359C27.4958 10.9907 27.0806 9.98828 26.3415 9.2492C25.6024 8.51011 24.6 8.09485 23.5548 8.09485C22.5096 8.09485 21.5071 8.51011 20.7681 9.2492C20.029 9.98828 19.6138 10.9907 19.6138 12.0359V13.3529C19.6138 14.3982 20.029 15.4006 20.7681 16.1397C21.5071 16.8788 22.5096 17.294 23.5548 17.294C24.6 17.294 25.6024 16.8788 26.3415 16.1397C27.0806 15.4006 27.4958 14.3982 27.4958 13.3529Z"/>
</mask>
<path d="M22.2377 13.3529V12.0359C22.2217 11.8539 22.2438 11.6706 22.3024 11.4976C22.3611 11.3246 22.4551 11.1657 22.5785 11.0309C22.7019 10.8962 22.852 10.7886 23.0192 10.715C23.1864 10.6414 23.3671 10.6035 23.5497 10.6035C23.7324 10.6035 23.9131 10.6414 24.0803 10.715C24.2475 10.7886 24.3976 10.8962 24.521 11.0309C24.6444 11.1657 24.7384 11.3246 24.797 11.4976C24.8557 11.6706 24.8777 11.8539 24.8617 12.0359V13.3529C24.8627 13.5823 24.8033 13.808 24.6895 14.0072C24.5757 14.2063 24.4115 14.372 24.2133 14.4876C24.0135 14.603 23.787 14.6638 23.5563 14.6641C23.3256 14.6644 23.0989 14.604 22.8988 14.4891C22.6988 14.3742 22.5324 14.2088 22.4164 14.0094C22.3004 13.81 22.2388 13.5836 22.2377 13.3529ZM27.4958 13.3529V12.0359C27.4958 10.9907 27.0806 9.98828 26.3415 9.2492C25.6024 8.51011 24.6 8.09485 23.5548 8.09485C22.5096 8.09485 21.5071 8.51011 20.7681 9.2492C20.029 9.98828 19.6138 10.9907 19.6138 12.0359V13.3529C19.6138 14.3982 20.029 15.4006 20.7681 16.1397C21.5071 16.8788 22.5096 17.294 23.5548 17.294C24.6 17.294 25.6024 16.8788 26.3415 16.1397C27.0806 15.4006 27.4958 14.3982 27.4958 13.3529Z" fill="currentColor"/>
<path d="M22.2377 13.3529H22.0377L22.0377 13.3538L22.2377 13.3529ZM22.2377 12.0359H22.4377V12.0271L22.437 12.0184L22.2377 12.0359ZM23.5497 10.6035V10.8035V10.6035ZM24.8617 12.0359L24.6625 12.0184L24.6617 12.0271V12.0359H24.8617ZM24.8617 13.3529H24.6617L24.6617 13.3538L24.8617 13.3529ZM24.2133 14.4876L24.3133 14.6608L24.3141 14.6604L24.2133 14.4876ZM27.4958 12.0359H27.6958H27.4958ZM23.5548 8.09485V8.29485V8.09485ZM19.6138 12.0359H19.4138H19.6138ZM19.6138 13.3529H19.4138H19.6138ZM23.5548 17.294V17.094V17.294ZM22.4377 13.3529V12.0359H22.0377V13.3529H22.4377ZM22.437 12.0184C22.4234 11.864 22.4421 11.7086 22.4918 11.5618L22.113 11.4334C22.0454 11.6327 22.0201 11.8438 22.0385 12.0534L22.437 12.0184ZM22.4918 11.5618C22.5416 11.4151 22.6213 11.2803 22.726 11.166L22.431 10.8959C22.2889 11.051 22.1806 11.2341 22.113 11.4334L22.4918 11.5618ZM22.726 11.166C22.8306 11.0517 22.9579 10.9605 23.0997 10.8981L22.9386 10.532C22.746 10.6167 22.5731 10.7407 22.431 10.8959L22.726 11.166ZM23.0997 10.8981C23.2415 10.8357 23.3948 10.8035 23.5497 10.8035V10.4035C23.3393 10.4035 23.1312 10.4472 22.9386 10.532L23.0997 10.8981ZM23.5497 10.8035C23.7047 10.8035 23.8579 10.8357 23.9997 10.8981L24.1609 10.532C23.9682 10.4472 23.7601 10.4035 23.5497 10.4035V10.8035ZM23.9997 10.8981C24.1415 10.9605 24.2688 11.0517 24.3735 11.166L24.6685 10.8959C24.5263 10.7407 24.3535 10.6167 24.1609 10.532L23.9997 10.8981ZM24.3735 11.166C24.4781 11.2803 24.5579 11.4151 24.6076 11.5618L24.9864 11.4334C24.9189 11.2341 24.8106 11.051 24.6685 10.8959L24.3735 11.166ZM24.6076 11.5618C24.6574 11.7086 24.6761 11.864 24.6625 12.0184L25.0609 12.0534C25.0794 11.8438 25.054 11.6327 24.9864 11.4334L24.6076 11.5618ZM24.6617 12.0359V13.3529H25.0617V12.0359H24.6617ZM24.6617 13.3538C24.6626 13.5481 24.6123 13.7392 24.5159 13.9079L24.8632 14.1064C24.9944 13.8767 25.0629 13.6165 25.0617 13.352L24.6617 13.3538ZM24.5159 13.9079C24.4195 14.0766 24.2804 14.217 24.1126 14.3149L24.3141 14.6604C24.5426 14.5271 24.7319 14.336 24.8632 14.1064L24.5159 13.9079ZM24.1133 14.3144C23.9439 14.4122 23.7517 14.4639 23.556 14.4641L23.5565 14.8641C23.8222 14.8638 24.0832 14.7937 24.3133 14.6608L24.1133 14.3144ZM23.556 14.4641C23.3604 14.4643 23.1681 14.4131 22.9984 14.3157L22.7992 14.6625C23.0296 14.7949 23.2908 14.8644 23.5565 14.8641L23.556 14.4641ZM22.9984 14.3157C22.8288 14.2182 22.6877 14.0779 22.5893 13.9088L22.2435 14.11C22.3772 14.3396 22.5688 14.5302 22.7992 14.6625L22.9984 14.3157ZM22.5893 13.9088C22.4909 13.7397 22.4386 13.5477 22.4377 13.352L22.0377 13.3538C22.0389 13.6196 22.1099 13.8803 22.2435 14.11L22.5893 13.9088ZM27.6958 13.3529V12.0359H27.2958V13.3529H27.6958ZM27.6958 12.0359C27.6958 10.9376 27.2595 9.88437 26.483 9.10778L26.2001 9.39062C26.9017 10.0922 27.2958 11.0437 27.2958 12.0359H27.6958ZM26.483 9.10778C25.7064 8.33119 24.6531 7.89485 23.5548 7.89485V8.29485C24.547 8.29485 25.4985 8.68904 26.2001 9.39062L26.483 9.10778ZM23.5548 7.89485C22.4565 7.89485 21.4032 8.33119 20.6266 9.10778L20.9095 9.39062C21.6111 8.68904 22.5626 8.29485 23.5548 8.29485V7.89485ZM20.6266 9.10778C19.85 9.88437 19.4138 10.9376 19.4138 12.0359H19.8138C19.8138 11.0437 20.2079 10.0922 20.9095 9.39062L20.6266 9.10778ZM19.4138 12.0359V13.3529H19.8138V12.0359H19.4138ZM19.4138 13.3529C19.4138 14.4512 19.85 15.5045 20.6266 16.2811L20.9095 15.9983C20.2079 15.2967 19.8138 14.3451 19.8138 13.3529H19.4138ZM20.6266 16.2811C21.4032 17.0577 22.4565 17.494 23.5548 17.494V17.094C22.5626 17.094 21.6111 16.6998 20.9095 15.9983L20.6266 16.2811ZM23.5548 17.494C24.653 17.494 25.7064 17.0577 26.483 16.2811L26.2001 15.9983C25.4985 16.6998 24.547 17.094 23.5548 17.094V17.494ZM26.483 16.2811C27.2596 15.5045 27.6958 14.4512 27.6958 13.3529H27.2958C27.2958 14.3451 26.9017 15.2967 26.2001 15.9983L26.483 16.2811Z" fill="#3B402E" mask="url(#path-4-inside-1_1324_37340)"/>
<mask id="path-6-inside-2_1324_37340" fill="white">
<path d="M35.3682 19.9584C35.368 20.1884 35.3074 20.4144 35.1927 20.6138C35.0779 20.8132 34.9129 20.979 34.7141 21.0948C34.5153 21.2106 34.2896 21.2723 34.0595 21.2738C33.8295 21.2752 33.603 21.2164 33.4028 21.1032C33.2005 20.9888 33.0327 20.8223 32.9169 20.6209C32.801 20.4195 32.7414 20.1907 32.7443 19.9584V18.6515C32.7432 18.4208 32.8037 18.1941 32.9195 17.9947C33.0352 17.7952 33.202 17.6303 33.4028 17.5168C33.6023 17.4039 33.8278 17.345 34.057 17.346C34.2863 17.347 34.5112 17.4079 34.7098 17.5225C34.9083 17.6371 35.0734 17.8015 35.1889 17.9995C35.3044 18.1975 35.3662 18.4222 35.3682 18.6515V19.9584ZM37.9922 19.9584V18.6515C38.0193 18.1178 37.9376 17.5842 37.752 17.083C37.5664 16.5819 37.2809 16.1238 36.9127 15.7365C36.5446 15.3492 36.1015 15.0408 35.6105 14.8301C35.1194 14.6193 34.5906 14.5106 34.0563 14.5106C33.5219 14.5106 32.9931 14.6193 32.5021 14.8301C32.011 15.0408 31.5679 15.3492 31.1998 15.7365C30.8316 16.1238 30.5461 16.5819 30.3605 17.083C30.175 17.5842 30.0932 18.1178 30.1203 18.6515V19.9584C30.0932 20.492 30.175 21.0256 30.3605 21.5268C30.5461 22.0279 30.8316 22.486 31.1998 22.8733C31.5679 23.2606 32.011 23.569 32.5021 23.7797C32.9931 23.9905 33.5219 24.0991 34.0563 24.0991C34.5906 24.0991 35.1194 23.9905 35.6105 23.7797C36.1015 23.569 36.5446 23.2606 36.9127 22.8733C37.2809 22.486 37.5664 22.0279 37.752 21.5268C37.9376 21.0256 38.0193 20.492 37.9922 19.9584Z"/>
</mask>
<path d="M35.3682 19.9584C35.368 20.1884 35.3074 20.4144 35.1927 20.6138C35.0779 20.8132 34.9129 20.979 34.7141 21.0948C34.5153 21.2106 34.2896 21.2723 34.0595 21.2738C33.8295 21.2752 33.603 21.2164 33.4028 21.1032C33.2005 20.9888 33.0327 20.8223 32.9169 20.6209C32.801 20.4195 32.7414 20.1907 32.7443 19.9584V18.6515C32.7432 18.4208 32.8037 18.1941 32.9195 17.9947C33.0352 17.7952 33.202 17.6303 33.4028 17.5168C33.6023 17.4039 33.8278 17.345 34.057 17.346C34.2863 17.347 34.5112 17.4079 34.7098 17.5225C34.9083 17.6371 35.0734 17.8015 35.1889 17.9995C35.3044 18.1975 35.3662 18.4222 35.3682 18.6515V19.9584ZM37.9922 19.9584V18.6515C38.0193 18.1178 37.9376 17.5842 37.752 17.083C37.5664 16.5819 37.2809 16.1238 36.9127 15.7365C36.5446 15.3492 36.1015 15.0408 35.6105 14.8301C35.1194 14.6193 34.5906 14.5106 34.0563 14.5106C33.5219 14.5106 32.9931 14.6193 32.5021 14.8301C32.011 15.0408 31.5679 15.3492 31.1998 15.7365C30.8316 16.1238 30.5461 16.5819 30.3605 17.083C30.175 17.5842 30.0932 18.1178 30.1203 18.6515V19.9584C30.0932 20.492 30.175 21.0256 30.3605 21.5268C30.5461 22.0279 30.8316 22.486 31.1998 22.8733C31.5679 23.2606 32.011 23.569 32.5021 23.7797C32.9931 23.9905 33.5219 24.0991 34.0563 24.0991C34.5906 24.0991 35.1194 23.9905 35.6105 23.7797C36.1015 23.569 36.5446 23.2606 36.9127 22.8733C37.2809 22.486 37.5664 22.0279 37.752 21.5268C37.9376 21.0256 38.0193 20.492 37.9922 19.9584Z" fill="currentColor"/>
<path d="M35.3682 19.9584L35.5682 19.9586V19.9584H35.3682ZM33.4028 21.1032L33.5013 20.9291L33.5012 20.9291L33.4028 21.1032ZM32.7443 19.9584L32.9443 19.9608V19.9584H32.7443ZM32.7443 18.6515H32.9443L32.9443 18.6506L32.7443 18.6515ZM33.4028 17.5168L33.5012 17.6909L33.5013 17.6908L33.4028 17.5168ZM35.3682 18.6515H35.5682L35.5682 18.6497L35.3682 18.6515ZM37.9922 18.6515L37.7922 18.6413V18.6515H37.9922ZM30.1203 18.6515H30.3206L30.32 18.6413L30.1203 18.6515ZM30.1203 19.9584L30.3203 19.9685V19.9584H30.1203ZM35.1682 19.9581C35.168 20.1532 35.1167 20.3449 35.0193 20.514L35.366 20.7136C35.4982 20.4839 35.5679 20.2236 35.5682 19.9586L35.1682 19.9581ZM35.0193 20.514C34.922 20.6831 34.782 20.8238 34.6134 20.922L34.8147 21.2677C35.0437 21.1343 35.2338 20.9433 35.366 20.7136L35.0193 20.514ZM34.6134 20.922C34.4448 21.0202 34.2534 21.0725 34.0583 21.0738L34.0608 21.4738C34.3258 21.4721 34.5857 21.401 34.8147 21.2677L34.6134 20.922ZM34.0583 21.0738C33.8631 21.075 33.6711 21.0252 33.5013 20.9291L33.3043 21.2773C33.535 21.4077 33.7958 21.4755 34.0608 21.4738L34.0583 21.0738ZM33.5012 20.9291C33.3302 20.8324 33.1882 20.6915 33.0902 20.5211L32.7435 20.7206C32.8772 20.953 33.0709 21.1453 33.3044 21.2773L33.5012 20.9291ZM33.0902 20.5211C32.9923 20.3508 32.9418 20.1573 32.9443 19.9608L32.5443 19.9559C32.541 20.224 32.6098 20.4881 32.7435 20.7206L33.0902 20.5211ZM32.9443 19.9584V18.6515H32.5443V19.9584H32.9443ZM32.9443 18.6506C32.9434 18.4555 32.9945 18.2638 33.0924 18.0951L32.7465 17.8943C32.6129 18.1245 32.5431 18.3862 32.5443 18.6524L32.9443 18.6506ZM33.0924 18.0951C33.1903 17.9264 33.3314 17.7869 33.5012 17.6909L33.3044 17.3427C33.0727 17.4737 32.8801 17.6641 32.7465 17.8943L33.0924 18.0951ZM33.5013 17.6908C33.6705 17.5951 33.8618 17.5452 34.0562 17.546L34.0579 17.146C33.7939 17.1449 33.5341 17.2127 33.3043 17.3427L33.5013 17.6908ZM34.0562 17.546C34.2506 17.5469 34.4414 17.5985 34.6098 17.6957L34.8097 17.3492C34.5811 17.2172 34.3219 17.1472 34.0579 17.146L34.0562 17.546ZM34.6098 17.6957C34.7781 17.7929 34.9182 17.9323 35.0162 18.1003L35.3617 17.8987C35.2287 17.6707 35.0384 17.4813 34.8097 17.3492L34.6098 17.6957ZM35.0162 18.1003C35.1141 18.2682 35.1665 18.4588 35.1682 18.6532L35.5682 18.6497C35.5659 18.3857 35.4947 18.1268 35.3617 17.8987L35.0162 18.1003ZM35.1682 18.6515V19.9584H35.5682V18.6515H35.1682ZM38.1922 19.9584V18.6515H37.7922V19.9584H38.1922ZM38.192 18.6616C38.2204 18.1008 38.1346 17.5401 37.9396 17.0136L37.5645 17.1525C37.7406 17.6282 37.8182 18.1347 37.7925 18.6413L38.192 18.6616ZM37.9396 17.0136C37.7446 16.4871 37.4445 16.0057 37.0577 15.5987L36.7678 15.8743C37.1173 16.242 37.3883 16.6768 37.5645 17.1525L37.9396 17.0136ZM37.0577 15.5987C36.6709 15.1918 36.2053 14.8677 35.6893 14.6463L35.5316 15.0139C35.9977 15.2139 36.4183 15.5067 36.7678 15.8743L37.0577 15.5987ZM35.6893 14.6463C35.1734 14.4248 34.6178 14.3106 34.0563 14.3106V14.7106C34.5635 14.7106 35.0654 14.8138 35.5316 15.0139L35.6893 14.6463ZM34.0563 14.3106C33.4948 14.3106 32.9392 14.4248 32.4232 14.6463L32.5809 15.0139C33.0471 14.8138 33.549 14.7106 34.0563 14.7106V14.3106ZM32.4232 14.6463C31.9072 14.8677 31.4417 15.1918 31.0548 15.5987L31.3448 15.8743C31.6942 15.5066 32.1148 15.2139 32.5809 15.0139L32.4232 14.6463ZM31.0548 15.5987C30.668 16.0057 30.368 16.4871 30.173 17.0136L30.5481 17.1525C30.7242 16.6768 30.9953 16.242 31.3448 15.8743L31.0548 15.5987ZM30.173 17.0136C29.978 17.5401 29.8921 18.1008 29.9206 18.6616L30.32 18.6413C30.2943 18.1347 30.3719 17.6282 30.5481 17.1525L30.173 17.0136ZM29.9203 18.6515V19.9584H30.3203V18.6515H29.9203ZM29.9206 19.9482C29.8921 20.509 29.978 21.0697 30.173 21.5962L30.5481 21.4573C30.3719 20.9816 30.2943 20.4751 30.32 19.9685L29.9206 19.9482ZM30.173 21.5962C30.368 22.1227 30.668 22.6041 31.0548 23.0111L31.3448 22.7355C30.9953 22.3678 30.7242 21.933 30.5481 21.4573L30.173 21.5962ZM31.0548 23.0111C31.4417 23.418 31.9072 23.7421 32.4232 23.9635L32.5809 23.5959C32.1148 23.3959 31.6942 23.1032 31.3448 22.7355L31.0548 23.0111ZM32.4232 23.9635C32.9392 24.185 33.4948 24.2991 34.0563 24.2991V23.8991C33.549 23.8991 33.0471 23.796 32.5809 23.5959L32.4232 23.9635ZM34.0563 24.2991C34.6177 24.2991 35.1733 24.185 35.6893 23.9635L35.5316 23.5959C35.0654 23.796 34.5635 23.8991 34.0563 23.8991V24.2991ZM35.6893 23.9635C36.2053 23.7421 36.6709 23.418 37.0577 23.0111L36.7678 22.7355C36.4183 23.1032 35.9977 23.3959 35.5316 23.5959L35.6893 23.9635ZM37.0577 23.0111C37.4445 22.6041 37.7446 22.1227 37.9396 21.5962L37.5645 21.4573C37.3883 21.933 37.1173 22.3678 36.7678 22.7355L37.0577 23.0111ZM37.9396 21.5962C38.1346 21.0697 38.2204 20.509 38.192 19.9482L37.7925 19.9685C37.8182 20.4751 37.7406 20.9816 37.5645 21.4573L37.9396 21.5962Z" fill="#3B402E" mask="url(#path-6-inside-2_1324_37340)"/>
</g>
<defs>
<clipPath id="clip0_1324_37340">
<rect width="28.8738" height="31.4978" fill="white" transform="translate(9.11816 8.10498)"/>
</clipPath>
</defs>
</svg>
