<svg width="48" height="48" viewBox="0 0 48 48" fill="none" xmlns="http://www.w3.org/2000/svg">
<path d="M48 0H0V48H48V0Z" fill="#3B402E"/>
<path d="M27.9117 29.8318H35.7173V32.8016H27.9117V29.8318ZM27.9117 25.1933H35.7173V28.172H27.9117V25.1933ZM31.8144 13.2068L35.7442 16.2662V23.5156H27.9117V16.2662L31.8144 13.2068ZM37.0989 15.1986L32.3259 11.4931C32.173 11.3829 31.9894 11.3236 31.801 11.3236C31.6126 11.3236 31.429 11.3829 31.2762 11.4931L26.5569 15.1986C26.4614 15.2769 26.3845 15.3756 26.3317 15.4873C26.279 15.599 26.2517 15.721 26.2518 15.8446V23.5156H24.924C24.3842 23.5134 23.8516 23.6391 23.3697 23.8824C22.8879 24.1257 22.4704 24.4796 22.1516 24.9152L15.7995 33.7347C15.6351 33.9568 15.4217 34.1379 15.1758 34.2639C14.9299 34.39 14.6582 34.4576 14.3819 34.4614H11.4122C11.1885 34.4614 10.974 34.5502 10.8159 34.7084C10.6577 34.8666 10.5688 35.0811 10.5688 35.3047C10.5688 35.5284 10.6577 35.7429 10.8159 35.9011C10.974 36.0592 11.1885 36.1481 11.4122 36.1481H14.3819C14.9222 36.1478 15.4548 36.0201 15.9365 35.7754C16.4182 35.5306 16.8355 35.1757 17.1543 34.7395L23.5064 25.9559C23.6698 25.7322 23.8829 25.5493 24.1289 25.4217C24.3748 25.2941 24.6469 25.2251 24.924 25.2202H26.2518V35.9238C26.2734 36.1336 26.3721 36.328 26.5287 36.4693C26.6853 36.6106 26.8887 36.6888 27.0997 36.6888C27.3106 36.6888 27.5141 36.6106 27.6707 36.4693C27.8273 36.328 27.9259 36.1336 27.9475 35.9238V34.5152H35.7442V35.9238C35.757 36.1433 35.85 36.3504 36.0054 36.5059C36.1609 36.6614 36.368 36.7544 36.5875 36.7672C36.703 36.7759 36.8191 36.7605 36.9283 36.7219C37.0375 36.6833 37.1375 36.6224 37.2219 36.5431C37.3063 36.4638 37.3733 36.3677 37.4185 36.2611C37.4638 36.1545 37.4863 36.0396 37.4847 35.9238V15.7997C37.4663 15.6719 37.4226 15.549 37.3564 15.4381C37.2902 15.3272 37.2027 15.2306 37.0989 15.1537V15.1986Z" fill="currentColor"/>
<path d="M30.98 18.3836H32.7744V20.2677H30.98V18.3836ZM30.2533 21.6942H33.4653C33.6588 21.6942 33.8446 21.618 33.9823 21.4819C34.12 21.3459 34.1986 21.1611 34.201 20.9675V17.6569C34.1986 17.4625 34.1204 17.2767 33.9829 17.1392C33.8454 17.0017 33.6597 16.9235 33.4653 16.9211H30.2533C30.0596 16.9257 29.8751 17.0047 29.7381 17.1417C29.6011 17.2787 29.5221 17.4632 29.5176 17.6569V20.9944C29.522 21.1771 29.596 21.3512 29.7244 21.4812C29.8527 21.6112 30.0258 21.6874 30.2084 21.6942H30.2533Z" fill="currentColor"/>
</svg>
