<svg width="48" height="48" viewBox="0 0 48 48" fill="none" xmlns="http://www.w3.org/2000/svg">
<path d="M48 0H0V48H48V0Z" fill="#3B402E"/>
<g clip-path="url(#clip0_1322_37440)">
<path d="M21.9544 19.3506H30.7077L26.331 24.7809L21.9544 19.3506ZM17.6892 17.7296L18.3983 18.6009C18.1688 18.7035 17.9317 18.7882 17.6892 18.8542V17.7296ZM15.5312 17.0609V18.8542C15.1254 18.7468 14.7367 18.583 14.3763 18.3678L15.5312 17.0609ZM12.4311 15.7236H13.819L12.8059 16.7975C12.63 16.4594 12.5037 16.0978 12.4311 15.7236ZM20.3334 12.4107C20.6298 12.9247 20.8193 13.4933 20.8906 14.0824H18.682L20.3334 12.4107ZM12.887 12.4107L14.0115 13.5454H12.4412C12.5348 13.1478 12.6849 12.7657 12.887 12.4107ZM17.6892 10.3845C18.0808 10.4816 18.4562 10.6352 18.8036 10.8404L17.6892 11.9649V10.3845ZM15.5312 10.3845V11.9649L14.4168 10.8404C14.765 10.6368 15.1402 10.4834 15.5312 10.3845ZM16.6152 8.06445C14.928 8.13093 13.332 8.84795 12.1618 10.0652C10.9915 11.2825 10.3379 12.9055 10.3379 14.594C10.3379 16.2825 10.9915 17.9055 12.1618 19.1228C13.332 20.34 14.928 21.0571 16.6152 21.1236C17.7308 21.1252 18.8274 20.8353 19.7964 20.2826L25.2369 27.0199V38.5188H22.6028C22.3304 38.5551 22.0817 38.6926 21.9061 38.9039C21.7305 39.1152 21.6408 39.3848 21.6548 39.6592C21.6689 39.9336 21.7856 40.1927 21.9819 40.385C22.1782 40.5772 22.4396 40.6886 22.7142 40.697H29.9175C30.2055 40.6977 30.4821 40.5849 30.6874 40.3829C30.7907 40.282 30.8727 40.1614 30.9287 40.0283C30.9847 39.8952 31.0136 39.7523 31.0136 39.6079C31.0136 39.4635 30.9847 39.3205 30.9287 39.1874C30.8727 39.0544 30.7907 38.9338 30.6874 38.8328C30.4821 38.6309 30.2055 38.518 29.9175 38.5188H27.3948V27.0807L36.8067 15.4096C36.9199 15.2847 36.9826 15.1222 36.9826 14.9536C36.9826 14.7851 36.9199 14.6226 36.8067 14.4977C36.6649 14.3457 36.4918 14.2263 36.2995 14.1476C36.1071 14.0689 35.8999 14.0328 35.6923 14.0419H30.2923C30.092 14.0388 29.8933 14.0788 29.7098 14.1592C29.5262 14.2396 29.3621 14.3585 29.2286 14.5079C29.1202 14.6331 29.0606 14.7931 29.0606 14.9587C29.0606 15.1243 29.1202 15.2843 29.2286 15.4096C29.3621 15.5589 29.5262 15.6778 29.7098 15.7582C29.8933 15.8387 30.092 15.8787 30.2923 15.8756H33.4837L32.4705 17.1319H20.2017L19.1886 15.8756H26.6958C26.8961 15.8787 27.0948 15.8387 27.2783 15.7582C27.4619 15.6778 27.626 15.5589 27.7595 15.4096C27.8679 15.2843 27.9275 15.1243 27.9275 14.9587C27.9275 14.7931 27.8679 14.6331 27.7595 14.5079C27.626 14.3585 27.4619 14.2396 27.2783 14.1592C27.0948 14.0788 26.8961 14.0388 26.6958 14.0419H23.0587C22.9247 12.421 22.1892 10.9089 20.9969 9.80278C19.8045 8.69669 18.2416 8.07663 16.6152 8.06445Z" fill="#B86640" stroke="#3B402E" stroke-width="0.5"/>
</g>
<defs>
<clipPath id="clip0_1322_37440">
<rect width="26.8476" height="32.6528" fill="white" transform="translate(10.1313 8.10498)"/>
</clipPath>
</defs>
</svg>
