<svg width="48" height="48" viewBox="0 0 48 48" fill="none" xmlns="http://www.w3.org/2000/svg">
<path d="M48 0H0V48H48V0Z" fill="#3B402E"/>
<g clip-path="url(#clip0_1324_37347)">
<path d="M10.4252 14.2443C10.4252 14.0158 10.3575 13.7926 10.2306 13.6026C10.1037 13.4127 9.92328 13.2646 9.71224 13.1772C9.5012 13.0898 9.26897 13.067 9.04494 13.1115C8.8209 13.1561 8.61509 13.2661 8.45357 13.4276C8.29205 13.5891 8.18206 13.7949 8.1375 14.019C8.09293 14.243 8.11581 14.4752 8.20323 14.6863C8.29064 14.8973 8.43866 15.0777 8.62859 15.2046C8.81853 15.3315 9.04184 15.3992 9.27026 15.3992C9.57658 15.3992 9.87033 15.2776 10.0869 15.061C10.3035 14.8444 10.4252 14.5506 10.4252 14.2443ZM9.27026 16.4326C8.83703 16.4346 8.41293 16.308 8.05173 16.0688C7.69053 15.8295 7.40846 15.4884 7.24128 15.0887C7.07409 14.6891 7.02931 14.2487 7.1126 13.8236C7.19589 13.3984 7.40352 13.0076 7.70916 12.7005C8.0148 12.3935 8.4047 12.1841 8.82947 12.0988C9.25424 12.0135 9.69476 12.0563 10.0952 12.2216C10.4957 12.3869 10.838 12.6674 11.0789 13.0274C11.3198 13.3875 11.4485 13.811 11.4485 14.2443C11.4485 14.8229 11.2193 15.378 10.8111 15.7881C10.4029 16.1982 9.84889 16.4299 9.27026 16.4326ZM30.5457 36.0972C30.277 36.0972 30.0193 35.9905 29.8293 35.8005C29.6393 35.6105 29.5326 35.3528 29.5326 35.0841C29.5326 34.9497 29.4792 34.8209 29.3842 34.7259C29.2892 34.6309 29.1604 34.5775 29.0261 34.5775C28.9587 34.5762 28.8917 34.5883 28.8291 34.6131C28.7664 34.638 28.7094 34.6751 28.6613 34.7223C28.6132 34.7695 28.575 34.8257 28.5489 34.8879C28.5228 34.95 28.5093 35.0167 28.5094 35.0841C28.5094 35.6215 28.7228 36.1369 29.1028 36.5169C29.4828 36.8969 29.9982 37.1103 30.5356 37.1103C30.6526 37.0868 30.7579 37.0235 30.8335 36.9312C30.9091 36.8388 30.9504 36.7231 30.9504 36.6038C30.9504 36.4844 30.9091 36.3687 30.8335 36.2764C30.7579 36.1841 30.6526 36.1207 30.5356 36.0972H30.5457ZM33.271 35.0841C33.271 34.5431 33.1106 34.0142 32.81 33.5644C32.5094 33.1146 32.0822 32.7639 31.5824 32.5569C31.0825 32.3499 30.5326 32.2957 30.0019 32.4013C29.4713 32.5068 28.9839 32.7673 28.6014 33.1499C28.2188 33.5324 27.9583 34.0198 27.8527 34.5504C27.7472 35.0811 27.8014 35.6311 28.0084 36.1309C28.2154 36.6307 28.566 37.0579 29.0159 37.3585C29.4657 37.6591 29.9946 37.8195 30.5356 37.8195C31.2611 37.8195 31.9568 37.5314 32.4698 37.0184C32.9828 36.5054 33.271 35.8096 33.271 35.0841ZM28.6917 38.3565C28.0441 37.997 27.5175 37.4537 27.1784 36.7953C26.8393 36.1368 26.7029 35.3926 26.7863 34.6566C26.8698 33.9207 27.1694 33.2259 27.6474 32.6601C28.1253 32.0943 28.7602 31.6827 29.4718 31.4774C29.5323 29.8656 29.3339 28.2546 28.8842 26.7056C28.6148 25.7684 28.0629 24.937 27.3037 24.3248C25.7667 25.0856 24.0748 25.4815 22.3597 25.4815C20.6447 25.4815 18.9528 25.0856 17.4157 24.3248C16.6566 24.937 16.1047 25.7684 15.8352 26.7056C15.8352 26.8272 15.7745 26.9386 15.7441 27.0602C16.144 27.4374 16.4553 27.8985 16.6556 28.4105C16.8559 28.9224 16.9402 29.4724 16.9024 30.0208C16.8646 30.5692 16.7057 31.1024 16.4371 31.582C16.1684 32.0616 15.7968 32.4757 15.349 32.7945C15.4467 33.6032 15.6093 34.4028 15.8352 35.1854C15.9321 35.5372 16.0681 35.877 16.2405 36.1985C16.3654 36.4401 16.4255 36.7099 16.4149 36.9816C16.4042 37.2533 16.3232 37.5176 16.1797 37.7486C16.0798 37.9098 16.0271 38.0959 16.0277 38.2856V38.5692C16.0277 38.7062 16.0822 38.8377 16.1791 38.9346C16.276 39.0315 16.4074 39.0859 16.5444 39.0859H18.7733C18.9103 39.0859 19.0417 39.0315 19.1386 38.9346C19.2355 38.8377 19.29 38.7062 19.29 38.5692V38.2856C19.2917 38.0261 19.1938 37.7759 19.0164 37.5865C18.9347 37.49 18.8883 37.3685 18.8847 37.242V31.6902C18.8847 31.5531 18.9392 31.4217 19.0361 31.3248C19.133 31.2279 19.2644 31.1735 19.4014 31.1735C19.4688 31.1734 19.5355 31.1869 19.5976 31.213C19.6598 31.2391 19.7161 31.2773 19.7632 31.3254C19.8104 31.3735 19.8475 31.4306 19.8724 31.4932C19.8972 31.5558 19.9093 31.6228 19.908 31.6902V37.0597C20.0591 37.2641 20.1723 37.494 20.2423 37.7384H24.4771C24.5434 37.4945 24.6532 37.2645 24.8013 37.0597V31.6902C24.7863 31.6152 24.788 31.5378 24.8065 31.4635C24.825 31.3893 24.8597 31.3201 24.9082 31.261C24.9566 31.2018 25.0176 31.1541 25.0867 31.1214C25.1559 31.0887 25.2314 31.0717 25.3079 31.0717C25.3844 31.0717 25.4599 31.0887 25.5291 31.1214C25.5982 31.1541 25.6592 31.2018 25.7076 31.261C25.7561 31.3201 25.7908 31.3893 25.8093 31.4635C25.8278 31.5378 25.8295 31.6152 25.8145 31.6902V37.242C25.8109 37.3685 25.7645 37.49 25.6827 37.5865C25.5054 37.7759 25.4075 38.0261 25.4092 38.2856V38.5692C25.4079 38.6366 25.42 38.7036 25.4448 38.7662C25.4697 38.8288 25.5068 38.8859 25.5539 38.934C25.6011 38.9821 25.6574 39.0203 25.7195 39.0464C25.7817 39.0725 25.8484 39.0859 25.9158 39.0859H28.1548C28.2918 39.0859 28.4232 39.0315 28.5201 38.9346C28.617 38.8377 28.6715 38.7062 28.6715 38.5692L28.6917 38.3565ZM15.3388 36.6545C15.1311 36.2796 14.9679 35.8818 14.8525 35.4691C14.6444 34.7581 14.4853 34.0338 14.3764 33.301C14.2716 33.3421 14.163 33.3726 14.0522 33.3922C13.8032 34.1508 13.6766 34.9442 13.6773 35.7426V36.5126C13.6773 36.8297 13.8032 37.1337 14.0274 37.3579C14.2516 37.5821 14.5557 37.7081 14.8728 37.7081H15.0754C15.1243 37.526 15.1993 37.3519 15.2983 37.1914C15.3407 37.114 15.3638 37.0275 15.3655 36.9393C15.3673 36.8511 15.3477 36.7638 15.3084 36.6848L15.3388 36.6545ZM15.8758 29.7652C15.8778 29.2253 15.7194 28.6971 15.4207 28.2473C15.122 27.7976 14.6965 27.4467 14.1981 27.2392C13.6997 27.0317 13.1509 26.9769 12.6213 27.0817C12.0917 27.1866 11.6052 27.4463 11.2234 27.8281C10.8417 28.2098 10.5819 28.6963 10.4771 29.2259C10.3723 29.7555 10.4271 30.3043 10.6346 30.8027C10.8421 31.3011 11.193 31.7266 11.6427 32.0253C12.0925 32.324 12.6208 32.4824 13.1606 32.4804C13.8807 32.4804 14.5713 32.1943 15.0805 31.6852C15.5897 31.176 15.8758 30.4853 15.8758 29.7652ZM22.3597 24.4565C25.5916 24.4565 28.3472 23.0381 29.4515 21.0423L28.3169 20.8194C28.1825 20.7925 28.0644 20.7134 27.9884 20.5994C27.9124 20.4854 27.8848 20.3459 27.9116 20.2115C27.9248 20.1453 27.9512 20.0824 27.9891 20.0265C28.027 19.9705 28.0757 19.9227 28.1323 19.8859C28.1889 19.8491 28.2524 19.824 28.3189 19.8121C28.3854 19.8001 28.4536 19.8016 28.5195 19.8164L29.8365 20.0697C29.9187 19.7693 29.9596 19.4592 29.9581 19.1478C29.9581 19.0363 29.9581 18.9249 29.9581 18.8134L28.5397 19.0971H28.4384C28.319 19.0971 28.2033 19.0557 28.1109 18.9799C28.0186 18.9042 27.9553 18.7988 27.9319 18.6817C27.9187 18.6158 27.9187 18.548 27.932 18.4821C27.9453 18.4162 27.9716 18.3536 28.0093 18.298C28.047 18.2423 28.0954 18.1948 28.1517 18.158C28.208 18.1213 28.271 18.0961 28.3371 18.084L29.7251 17.8104C29.7251 17.7294 29.6744 17.6585 29.644 17.5876C29.6302 17.5379 29.6302 17.4853 29.644 17.4356C29.5827 16.9415 29.4461 16.4598 29.2388 16.0071C29.1128 15.7095 29.054 15.3878 29.0666 15.0649L29.0767 11.4886C29.0836 11.4689 29.0836 11.4475 29.0767 11.4278H29.0159L25.2066 12.5017C25.1068 12.527 25.0024 12.527 24.9027 12.5017C23.2261 11.9847 21.4326 11.9847 19.756 12.5017C19.657 12.5322 19.5511 12.5322 19.4521 12.5017L15.7137 11.3569H15.6529C15.6459 11.3766 15.6459 11.398 15.6529 11.4177L15.7238 15.0548C15.7394 15.3789 15.6768 15.7021 15.5415 15.997C15.3419 16.4517 15.2088 16.9328 15.1463 17.4255C15.1555 17.4757 15.1555 17.5272 15.1463 17.5774C15.1463 17.6484 15.0957 17.7193 15.0653 17.8003L16.4533 18.0739C16.5876 18.0873 16.7111 18.1536 16.7966 18.2581C16.8821 18.3626 16.9226 18.4967 16.9091 18.6311C16.8957 18.7654 16.8295 18.8889 16.725 18.9744C16.6205 19.0599 16.4863 19.1004 16.3519 19.087H16.2506L14.8323 18.8033C14.8323 18.9147 14.8323 19.0262 14.8323 19.1376C14.8325 19.4483 14.8699 19.7578 14.9437 20.0596L16.2709 19.8063C16.3368 19.7915 16.405 19.79 16.4715 19.8019C16.538 19.8139 16.6014 19.839 16.6581 19.8758C16.7147 19.9126 16.7634 19.9604 16.8013 20.0163C16.8392 20.0722 16.8655 20.1351 16.8788 20.2014C16.9029 20.3354 16.8742 20.4737 16.7986 20.587C16.7231 20.7003 16.6065 20.78 16.4735 20.8093L15.3287 21.0321C16.3317 23.0685 19.0975 24.4869 22.3293 24.4869L22.3597 24.4565ZM34.2942 35.0841C34.2911 35.6482 34.1616 36.2046 33.9154 36.7122C33.6692 37.2198 33.3124 37.6658 32.8713 38.0175C32.4302 38.3692 31.9159 38.6177 31.3662 38.7448C30.8165 38.8718 30.2454 38.8741 29.6947 38.7516C29.6455 39.1195 29.4643 39.4571 29.1847 39.7012C28.9051 39.9454 28.5462 40.0796 28.175 40.0787H25.936C25.5639 40.0771 25.2049 39.9408 24.9256 39.6949C24.6462 39.4491 24.4653 39.1104 24.4164 38.7415H20.2626C20.218 39.1104 20.0398 39.4502 19.7616 39.6966C19.4834 39.943 19.1246 40.0789 18.753 40.0787H16.514C16.1419 40.0771 15.783 39.9408 15.5036 39.6949C15.2242 39.4491 15.0433 39.1104 14.9944 38.7415H14.8931C14.3027 38.7388 13.7374 38.5031 13.32 38.0857C12.9025 37.6683 12.6668 37.1029 12.6642 36.5126V35.8034C12.6648 35.0462 12.7705 34.2926 12.9782 33.5644C12.0153 33.4955 11.1162 33.0577 10.468 32.3423C9.81982 31.6269 9.47263 30.689 9.49875 29.724C9.52486 28.759 9.92228 27.8413 10.6082 27.162C11.2941 26.4827 12.2157 26.0943 13.1809 26.0775C13.7685 26.0806 14.3475 26.2193 14.8728 26.4827C15.1611 25.4644 15.7257 24.5457 16.5039 23.8284C15.5494 23.1995 14.7745 22.3338 14.2548 21.3159L12.1779 21.7211H12.0766C11.9566 21.723 11.8399 21.6824 11.7471 21.6063C11.6544 21.5302 11.5916 21.4237 11.57 21.3057C11.5461 21.1729 11.5752 21.036 11.6509 20.9243C11.7266 20.8126 11.843 20.7349 11.9753 20.7079L13.9002 20.323C13.8153 19.954 13.7712 19.577 13.7685 19.1984C13.7587 19.0196 13.7587 18.8403 13.7685 18.6615L11.9449 18.3069C11.8118 18.2776 11.6953 18.198 11.6198 18.0846C11.5442 17.9713 11.5155 17.8331 11.5396 17.699C11.5689 17.566 11.6486 17.4494 11.7619 17.3739C11.8752 17.2983 12.0135 17.2696 12.1475 17.2937L13.9914 17.6686C13.9914 17.547 14.0826 17.4255 14.1332 17.3039C14.2065 16.7302 14.3635 16.1704 14.5992 15.6424C14.6635 15.4849 14.6945 15.3159 14.6904 15.1459L14.6195 11.5089C14.6139 11.3371 14.6496 11.1664 14.7237 11.0112C14.7977 10.8561 14.9079 10.721 15.045 10.6173C15.1864 10.507 15.3525 10.4326 15.529 10.4008C15.7056 10.3691 15.8871 10.3808 16.0581 10.435L19.6547 11.5291C21.4348 11.0124 23.3251 11.0124 25.1053 11.5291L28.7018 10.435C28.8726 10.379 29.0546 10.3664 29.2314 10.3982C29.4083 10.43 29.5744 10.5054 29.715 10.6173C29.8546 10.7193 29.9672 10.8538 30.0431 11.0092C30.119 11.1645 30.1559 11.3361 30.1506 11.5089L30.0797 15.1459C30.0756 15.3159 30.1066 15.4849 30.1708 15.6424C30.4066 16.1704 30.5636 16.7302 30.6369 17.3039C30.6876 17.4255 30.7281 17.547 30.7686 17.6686L32.6226 17.2937C32.7558 17.2698 32.893 17.2991 33.0048 17.3752C33.1166 17.4514 33.1941 17.5683 33.2207 17.701C33.2472 17.8336 33.2206 17.9714 33.1467 18.0847C33.0728 18.198 32.9573 18.2777 32.8252 18.3069L31.0016 18.6615C31.0114 18.8403 31.0114 19.0196 31.0016 19.1984C31.0007 19.5777 30.9531 19.9553 30.8598 20.323L32.7949 20.7079C32.9121 20.7406 33.0141 20.8136 33.0828 20.914C33.1515 21.0145 33.1825 21.1361 33.1704 21.2572C33.1583 21.3783 33.1038 21.4912 33.0166 21.5761C32.9293 21.661 32.8149 21.7123 32.6935 21.7211H32.5922L30.5153 21.3159C29.9956 22.3338 29.2207 23.1995 28.2662 23.8284C29.0412 24.5483 29.6052 25.466 29.8973 26.4827C30.3214 27.9309 30.5397 29.4315 30.5457 30.9405C30.6605 31.0958 30.7618 31.2478 30.8497 31.3964C31.7779 31.4841 32.6406 31.9127 33.2712 32.5994C33.9018 33.2861 34.2555 34.1822 34.2639 35.1145L34.2942 35.0841ZM13.1302 30.7378C12.8615 30.7378 12.6038 30.6311 12.4138 30.4411C12.2238 30.2511 12.1171 29.9934 12.1171 29.7247C12.1185 29.6573 12.1064 29.5904 12.0815 29.5278C12.0567 29.4651 12.0195 29.4081 11.9724 29.3599C11.9252 29.3118 11.8689 29.2736 11.8068 29.2475C11.7446 29.2214 11.6779 29.208 11.6106 29.208C11.4735 29.208 11.3421 29.2625 11.2452 29.3594C11.1483 29.4563 11.0939 29.5877 11.0939 29.7247C11.0939 30.2621 11.3073 30.7775 11.6873 31.1574C12.0673 31.5374 12.5827 31.7509 13.1201 31.7509C13.1875 31.751 13.2542 31.7375 13.3163 31.7114C13.3785 31.6853 13.4348 31.6471 13.4819 31.599C13.5291 31.5509 13.5662 31.4938 13.591 31.4312C13.6159 31.3686 13.628 31.3016 13.6267 31.2342C13.6241 31.1034 13.5709 30.9787 13.4784 30.8861C13.3858 30.7936 13.2611 30.7404 13.1302 30.7378ZM37.3133 25.1555C37.1781 25.1582 37.0492 25.2138 36.9545 25.3104C36.8598 25.4071 36.8068 25.5369 36.8068 25.6722C36.8041 25.7618 36.7667 25.8468 36.7024 25.9093C36.6381 25.9717 36.552 26.0066 36.4623 26.0066C36.4122 26.017 36.3605 26.017 36.3104 26.0066C36.1895 25.9421 36.0479 25.9283 35.9168 25.9682C35.7857 26.0081 35.6758 26.0984 35.6113 26.2193C35.58 26.279 35.5609 26.3444 35.5551 26.4116C35.5494 26.4788 35.5571 26.5465 35.5779 26.6107C35.5987 26.6748 35.632 26.7342 35.676 26.7853C35.72 26.8364 35.7738 26.8782 35.8342 26.9082C36.0425 27.0262 36.2783 27.087 36.5177 27.0844C36.7571 27.0818 36.9915 27.016 37.1972 26.8936C37.403 26.7712 37.5727 26.5965 37.6892 26.3874C37.8056 26.1782 37.8647 25.942 37.8604 25.7027C37.8592 25.633 37.8439 25.5643 37.8154 25.5008C37.787 25.4372 37.746 25.3801 37.6949 25.3328C37.6438 25.2854 37.5836 25.2489 37.5181 25.2254C37.4525 25.2019 37.3829 25.192 37.3133 25.1961V25.1555ZM38.519 25.6722C38.519 25.2715 38.4001 24.8797 38.1775 24.5465C37.9548 24.2133 37.6384 23.9536 37.2681 23.8002C36.8979 23.6469 36.4905 23.6068 36.0974 23.685C35.7044 23.7631 35.3433 23.9561 35.06 24.2395C34.7766 24.5229 34.5836 24.8839 34.5054 25.2769C34.4272 25.67 34.4673 26.0774 34.6207 26.4477C34.7741 26.8179 35.0338 27.1344 35.367 27.357C35.7002 27.5797 36.092 27.6985 36.4927 27.6985C37.0301 27.6985 37.5455 27.485 37.9255 27.105C38.3055 26.725 38.519 26.2096 38.519 25.6722ZM39.5321 25.6722C39.5321 26.2734 39.3538 26.861 39.0199 27.3608C38.6859 27.8606 38.2112 28.2502 37.6558 28.4803C37.1005 28.7103 36.4894 28.7705 35.8998 28.6532C35.3102 28.5359 34.7686 28.2465 34.3436 27.8214C33.9185 27.3963 33.629 26.8548 33.5118 26.2652C33.3945 25.6756 33.4547 25.0645 33.6847 24.5091C33.9148 23.9537 34.3043 23.4791 34.8041 23.1451C35.304 22.8112 35.8916 22.6329 36.4927 22.6329C37.2988 22.6329 38.0719 22.9531 38.6419 23.5231C39.2118 24.0931 39.5321 24.8662 39.5321 25.6722ZM36.9486 14.528C36.91 14.5838 36.8827 14.6468 36.8684 14.7132C36.8541 14.7796 36.8531 14.8481 36.8653 14.9149C36.8776 14.9817 36.9028 15.0454 36.9397 15.1025C36.9766 15.1595 37.0244 15.2087 37.0803 15.2473C37.167 15.3062 37.2693 15.3379 37.3741 15.3384C37.4587 15.3374 37.5417 15.3156 37.6159 15.275C37.6901 15.2344 37.7532 15.1761 37.7996 15.1054L37.9921 14.8319C38.0665 14.717 38.0933 14.5777 38.0669 14.4435C38.0404 14.3092 37.9627 14.1906 37.8503 14.1126C37.7952 14.0742 37.7331 14.0472 37.6675 14.033C37.6019 14.0189 37.5341 14.0179 37.4682 14.0301C37.4022 14.0424 37.3393 14.0676 37.2831 14.1044C37.227 14.1411 37.1787 14.1887 37.1411 14.2443L36.9486 14.528ZM39.7854 11.2961C39.7303 11.2577 39.6682 11.2307 39.6026 11.2165C39.537 11.2024 39.4692 11.2014 39.4032 11.2137C39.3372 11.2259 39.2743 11.2511 39.2182 11.2879C39.1621 11.3246 39.1138 11.3722 39.0762 11.4278L37.9111 13.1197C37.8727 13.1748 37.8457 13.2369 37.8315 13.3025C37.8173 13.3681 37.8164 13.4359 37.8286 13.5019C37.8409 13.5678 37.8661 13.6307 37.9029 13.6869C37.9397 13.743 37.9872 13.7913 38.0428 13.8289C38.0987 13.8675 38.1616 13.8947 38.228 13.909C38.2944 13.9233 38.3629 13.9244 38.4298 13.9122C38.4966 13.9 38.5603 13.8747 38.6173 13.8378C38.6744 13.8009 38.7235 13.7531 38.7621 13.6972L39.9171 12.0053C39.9554 11.9502 39.9825 11.8881 39.9966 11.8225C40.0108 11.7569 40.0118 11.6891 39.9995 11.6232C39.9873 11.5572 39.962 11.4943 39.9253 11.4381C39.8885 11.382 39.8409 11.3337 39.7854 11.2961ZM35.8139 17.1012C35.8963 17.1612 35.9957 17.1932 36.0976 17.1925C36.1811 17.1917 36.2633 17.1711 36.3372 17.1324C36.4112 17.0936 36.4749 17.0378 36.5231 16.9695L36.6345 16.8075C36.6732 16.7516 36.7004 16.6887 36.7147 16.6223C36.729 16.5559 36.7301 16.4873 36.7178 16.4205C36.7056 16.3537 36.6803 16.29 36.6434 16.233C36.6065 16.1759 36.5588 16.1267 36.5028 16.0881C36.4478 16.0498 36.3856 16.0227 36.32 16.0085C36.2544 15.9944 36.1867 15.9935 36.1207 16.0057C36.0547 16.018 35.9918 16.0432 35.9357 16.08C35.8796 16.1167 35.8313 16.1643 35.7937 16.2198L35.6721 16.3921C35.5982 16.5054 35.5717 16.643 35.5982 16.7756C35.6248 16.9082 35.7022 17.0251 35.8139 17.1012ZM34.9427 8.33782H35.0034L37.0297 8.09468C37.0964 8.08716 37.1609 8.06646 37.2196 8.03378C37.2782 8.00109 37.3298 7.95702 37.3713 7.90423C37.4127 7.85144 37.4433 7.79098 37.4612 7.72627C37.4791 7.66156 37.4839 7.59394 37.4754 7.52734C37.4602 7.39187 37.3919 7.26794 37.2857 7.18254C37.1794 7.09715 37.0437 7.0572 36.9081 7.07143L34.8819 7.3247C34.8146 7.33086 34.7493 7.35069 34.69 7.38295C34.6306 7.41522 34.5785 7.45927 34.5368 7.51238C34.495 7.56549 34.4646 7.62654 34.4473 7.69182C34.43 7.75711 34.4262 7.82524 34.4361 7.89205C34.4463 8.02194 34.5052 8.14317 34.601 8.23146C34.6969 8.31976 34.8225 8.36858 34.9528 8.36818L34.9427 8.33782ZM33.2406 8.54046H33.3115H33.6459C33.7815 8.52278 33.9045 8.45206 33.9881 8.34382C34.0716 8.23558 34.1089 8.09863 34.0916 7.96297C34.0841 7.89626 34.0634 7.83172 34.0307 7.77308C33.998 7.71443 33.954 7.66287 33.9012 7.62139C33.8484 7.57991 33.7879 7.54931 33.7232 7.53142C33.6585 7.51354 33.5909 7.50872 33.5243 7.5172H33.1798C33.0473 7.5373 32.9274 7.60713 32.8446 7.71254C32.7617 7.81795 32.7222 7.95101 32.734 8.08454C32.7488 8.20906 32.8083 8.32394 32.9015 8.40782C32.9947 8.4917 33.1152 8.53887 33.2406 8.54046ZM31.0118 8.81396H31.1029H31.3056C31.3721 8.80531 31.4362 8.78365 31.4944 8.7502C31.5525 8.71676 31.6035 8.6722 31.6445 8.61905C31.6854 8.5659 31.7154 8.50518 31.7329 8.44041C31.7504 8.37564 31.7549 8.30807 31.7463 8.24154C31.7376 8.17502 31.7159 8.11085 31.6825 8.0527C31.649 7.99455 31.6045 7.94361 31.5513 7.90268C31.4982 7.86176 31.4375 7.83166 31.3727 7.8142C31.308 7.79673 31.2404 7.79219 31.1739 7.80084H30.9814C30.8649 7.83047 30.7624 7.89976 30.6915 7.9968C30.6206 8.09384 30.5858 8.21261 30.593 8.33257C30.6002 8.45252 30.649 8.56618 30.731 8.65405C30.8129 8.74192 30.923 8.79847 31.0421 8.81396H31.0118ZM35.7835 11.1543C35.7122 11.0375 35.5975 10.9539 35.4645 10.9216C35.3316 10.8893 35.1913 10.911 35.0744 10.982L34.7907 11.1644C34.7322 11.1977 34.681 11.2427 34.6404 11.2964C34.5998 11.3501 34.5706 11.4116 34.5545 11.477C34.5384 11.5424 34.5357 11.6103 34.5467 11.6768C34.5577 11.7432 34.5821 11.8067 34.6185 11.8634C34.6897 11.9774 34.8025 12.0592 34.933 12.0914C35.0636 12.1235 35.2015 12.1035 35.3175 12.0357L35.6113 11.8634C35.7166 11.7895 35.7905 11.679 35.8186 11.5535C35.8467 11.4279 35.827 11.2964 35.7633 11.1847L35.7835 11.1543ZM36.0773 10.9719C36.1096 11.0315 36.1539 11.0838 36.2076 11.1253C36.2612 11.1667 36.3229 11.1965 36.3887 11.2128C36.4546 11.229 36.523 11.2312 36.5898 11.2194C36.6566 11.2076 36.7201 11.1819 36.7764 11.1441L38.5291 10.0804C38.5863 10.0458 38.6361 10.0003 38.6757 9.94642C38.7154 9.89257 38.744 9.83145 38.76 9.76654C38.776 9.70162 38.779 9.6342 38.769 9.56811C38.7589 9.50201 38.7359 9.43851 38.7013 9.3813C38.6667 9.32409 38.6212 9.27424 38.5673 9.23463C38.5135 9.19501 38.4524 9.1664 38.3875 9.15041C38.3225 9.13441 38.2551 9.13137 38.189 9.14144C38.1229 9.1515 38.0595 9.1745 38.0023 9.20909L36.2496 10.2728C36.1862 10.3053 36.1304 10.3507 36.0857 10.4061C36.0411 10.4615 36.0086 10.5258 35.9904 10.5946C35.9723 10.6634 35.9688 10.7353 35.9803 10.8056C35.9918 10.8758 36.018 10.9429 36.0571 11.0023L36.0773 10.9719ZM32.8961 13.4236C32.9927 13.4204 33.0869 13.3925 33.1697 13.3426L33.5648 13.0995C33.6233 13.0661 33.6745 13.0212 33.7151 12.9675C33.7557 12.9137 33.7849 12.8523 33.801 12.7869C33.8171 12.7215 33.8198 12.6535 33.8088 12.5871C33.7978 12.5206 33.7734 12.4571 33.737 12.4004C33.6657 12.2837 33.551 12.2 33.4181 12.1677C33.2851 12.1354 33.1448 12.1571 33.0278 12.2282L32.6327 12.4713C32.5753 12.5056 32.5252 12.5511 32.4854 12.6049C32.4456 12.6588 32.4168 12.7199 32.4008 12.7849C32.3848 12.8499 32.3818 12.9174 32.3921 12.9836C32.4023 13.0498 32.4256 13.1132 32.4605 13.1703C32.4998 13.2491 32.5587 13.3165 32.6314 13.3662C32.7041 13.4158 32.7882 13.4461 32.8759 13.4541L32.8961 13.4236ZM23.9503 21.9946C24.0173 21.9947 24.0835 21.9812 24.1451 21.955C24.2067 21.9288 24.2624 21.8904 24.3087 21.8421C24.3551 21.7939 24.3912 21.7367 24.4149 21.6741C24.4387 21.6115 24.4495 21.5448 24.4467 21.4779C24.4468 21.4105 24.4333 21.3438 24.4072 21.2817C24.3811 21.2196 24.3429 21.1633 24.2948 21.1161C24.2467 21.0689 24.1897 21.0318 24.127 21.007C24.0644 20.9821 23.9974 20.97 23.9301 20.9714C23.7793 20.9894 23.6263 20.9753 23.4814 20.9299C23.3364 20.8845 23.2027 20.8088 23.0892 20.7079C22.9789 20.5827 22.9084 20.4276 22.8866 20.2622L23.616 19.2491C23.6551 19.1813 23.6757 19.1044 23.6757 19.0262C23.6757 18.9479 23.6551 18.871 23.616 18.8033C23.5808 18.7339 23.5272 18.6755 23.4611 18.6344C23.3951 18.5933 23.3189 18.5711 23.2411 18.5703H21.377C21.2988 18.5717 21.2226 18.5946 21.1566 18.6364C21.0905 18.6783 21.0374 18.7376 21.0028 18.8077C20.9683 18.8779 20.9537 18.9561 20.9608 19.034C20.9678 19.1118 20.9961 19.1862 21.0427 19.2491L21.7721 20.2622C21.7452 20.423 21.6752 20.5736 21.5695 20.6979C21.456 20.8025 21.3211 20.8811 21.1741 20.9283C21.0272 20.9756 20.8717 20.9902 20.7185 20.9714C20.584 20.9739 20.4555 21.0277 20.3594 21.1219C20.2633 21.2161 20.2069 21.3435 20.2018 21.4779C20.2004 21.5453 20.2125 21.6123 20.2374 21.6749C20.2622 21.7376 20.2994 21.7946 20.3465 21.8427C20.3937 21.8908 20.45 21.929 20.5121 21.9551C20.5743 21.9812 20.641 21.9946 20.7083 21.9946H20.759C21.1868 21.6164 21.7381 21.4077 22.3091 21.4077C22.8801 21.4077 23.4314 21.6164 23.8591 21.9946H23.9098H23.9503ZM25.2471 18.0941C25.4054 18.0941 25.5602 18.0472 25.6918 17.9592C25.8234 17.8713 25.926 17.7463 25.9865 17.6001C26.0471 17.4538 26.063 17.2929 26.0321 17.1376C26.0012 16.9824 25.925 16.8398 25.8131 16.7278C25.7011 16.6159 25.5585 16.5397 25.4032 16.5088C25.248 16.4779 25.0871 16.4937 24.9408 16.5543C24.7946 16.6149 24.6696 16.7175 24.5816 16.8491C24.4937 16.9807 24.4467 17.1354 24.4467 17.2937C24.4467 17.506 24.5311 17.7096 24.6812 17.8597C24.8313 18.0098 25.0348 18.0941 25.2471 18.0941ZM20.1815 17.2937C20.1815 17.452 20.1346 17.6068 20.0466 17.7384C19.9587 17.87 19.8337 17.9726 19.6875 18.0332C19.5412 18.0938 19.3803 18.1096 19.225 18.0787C19.0698 18.0479 18.9272 17.9717 18.8152 17.8597C18.7033 17.7478 18.6271 17.6051 18.5962 17.4499C18.5653 17.2946 18.5811 17.1337 18.6417 16.9875C18.7023 16.8412 18.8049 16.7162 18.9365 16.6283C19.0681 16.5403 19.2229 16.4934 19.3812 16.4934C19.5934 16.4934 19.797 16.5777 19.9471 16.7278C20.0972 16.8779 20.1815 17.0815 20.1815 17.2937Z" fill="#B86640"/>
</g>
<defs>
<clipPath id="clip0_1324_37347">
<rect width="32.9263" height="33.0175" fill="white" transform="translate(7.0918 7.0918)"/>
</clipPath>
</defs>
</svg>
