<svg width="48" height="48" viewBox="0 0 48 48" fill="none" xmlns="http://www.w3.org/2000/svg">
<path d="M48 0H0V48H48V0Z" fill="#3B402E"/>
<g clip-path="url(#clip0_1324_37447)">
<path d="M24.3776 36.131C16.0337 36.131 10.1313 33.6806 10.1313 31.5254C10.1313 30.175 12.7159 28.7083 16.5793 27.7872C16.5062 28.1283 16.4673 28.4758 16.463 28.8246V31.3465C16.4579 31.4281 16.47 31.5099 16.4987 31.5865C16.5273 31.6631 16.5717 31.7327 16.6291 31.791C16.6865 31.8492 16.7556 31.8947 16.8317 31.9244C16.9079 31.9542 16.9895 31.9675 17.0711 31.9636H31.5678C31.6495 31.9675 31.7311 31.9542 31.8072 31.9244C31.8834 31.8947 31.9524 31.8492 32.0098 31.791C32.0672 31.7327 32.1117 31.6631 32.1403 31.5865C32.1689 31.5099 32.1811 31.4281 32.1759 31.3465V28.8246C32.1637 28.4763 32.1249 28.1295 32.0597 27.7872C35.9231 28.6815 38.4987 30.175 38.4987 31.5254C38.6239 33.6806 32.7304 36.131 24.3776 36.131ZM22.3565 24.2189H26.4077C27.6263 24.2283 28.7923 24.7165 29.654 25.5782C30.5157 26.4399 31.004 27.606 31.0133 28.8246V30.7294H17.7508V28.8246C17.7496 28.2194 17.868 27.62 18.099 27.0607C18.3301 26.5014 18.6692 25.9931 19.0971 25.5652C19.525 25.1373 20.0333 24.7982 20.5926 24.5671C21.1519 24.3361 21.7513 24.2177 22.3565 24.2189ZM20.1475 18.7547C20.1548 17.8646 20.4432 16.9995 20.9716 16.2831C21.5 15.5668 22.2414 15.0358 23.0898 14.7661C23.9453 14.4899 24.8665 14.4922 25.7206 14.7727C26.5748 15.0532 27.3179 15.5976 27.8431 16.3273C28.3682 17.057 28.6483 17.9345 28.643 18.8336C28.6377 19.7326 28.3473 20.6067 27.8136 21.3302C27.2799 22.0537 26.5304 22.5893 25.673 22.8597C24.8156 23.1302 23.8945 23.1216 23.0423 22.8353C22.1901 22.549 21.4506 21.9996 20.9304 21.2664C20.4103 20.5331 20.1362 19.6537 20.1475 18.7547ZM21.802 11.8149C21.7505 12.0376 21.7295 12.2663 21.7394 12.4946C21.7478 12.9608 21.8513 13.4203 22.0435 13.845C20.9206 14.3908 20.0136 15.2977 19.4679 16.4206V16.0539C19.4629 15.2069 19.6748 14.3727 20.0834 13.6307C20.4919 12.8887 21.0835 12.2636 21.802 11.8149ZM29.2336 15.0702C29.3026 15.3938 29.3416 15.7231 29.3499 16.0539V16.4206C28.9105 15.4934 28.2144 14.7116 27.3442 14.168C26.474 13.6243 25.4662 13.3415 24.4402 13.3531C24.0497 13.3605 23.6607 13.4024 23.2776 13.4783C23.1397 13.1982 23.0548 12.895 23.0272 12.584C23.0297 12.12 23.1801 11.6689 23.4565 11.2962C23.7798 11.2242 24.1091 11.1823 24.4402 11.171C25.5718 11.1629 26.6706 11.5511 27.5461 12.2682C28.4216 12.9852 29.0186 13.986 29.2336 15.097" fill="currentColor"/>
<path d="M36.0482 21.9474C36.144 21.9523 36.2395 21.9327 36.3255 21.8904C36.4116 21.8482 36.4855 21.7846 36.5402 21.7059L37.6401 20.1676C38.0291 19.6497 38.2131 19.0064 38.157 18.3611C38.1009 17.7158 37.8085 17.114 37.336 16.6709C37.1905 16.5485 37.0713 16.3978 36.9857 16.2279C36.9002 16.0581 36.85 15.8726 36.8383 15.6828C36.8266 15.4929 36.8536 15.3026 36.9176 15.1235C36.9816 14.9444 37.0814 14.7802 37.2109 14.6409L37.9531 13.7466C38.023 13.6916 38.0801 13.622 38.1201 13.5426C38.1602 13.4632 38.1824 13.376 38.1851 13.2871C38.1878 13.1982 38.171 13.1098 38.1358 13.0281C38.1006 12.9464 38.048 12.8734 37.9815 12.8143C37.9151 12.7551 37.8365 12.7113 37.7513 12.6858C37.6661 12.6604 37.5763 12.6539 37.4883 12.6669C37.4003 12.6799 37.3163 12.7121 37.2421 12.7611C37.1679 12.8101 37.1053 12.8748 37.0588 12.9507L36.3166 13.845C35.8818 14.3509 35.6587 15.005 35.6937 15.6712C35.7286 16.3374 36.019 16.9645 36.5043 17.4222C36.6463 17.5317 36.7643 17.6691 36.8512 17.8259C36.9381 17.9827 36.992 18.1556 37.0096 18.3341C37.0272 18.5125 37.0081 18.6926 36.9535 18.8634C36.8989 19.0341 36.81 19.1919 36.6922 19.327L35.5832 20.8652C35.4849 21.0017 35.4429 21.1709 35.4663 21.3375C35.4896 21.5042 35.5764 21.6553 35.7085 21.7595C35.7546 21.8122 35.8108 21.8551 35.8738 21.8858C35.9367 21.9165 36.0052 21.9344 36.0751 21.9384" fill="currentColor"/>
<path d="M32.9808 21.5807C33.0764 21.584 33.1712 21.5637 33.257 21.5216C33.3428 21.4795 33.4169 21.4168 33.4727 21.3393L34.5727 19.8011C34.9505 19.2789 35.1277 18.6382 35.0718 17.9961C35.016 17.354 34.7309 16.7535 34.2686 16.3044C34.1219 16.1827 34.0017 16.0323 33.9154 15.8624C33.8291 15.6924 33.7786 15.5066 33.7668 15.3164C33.7551 15.1262 33.7825 14.9356 33.8472 14.7564C33.912 14.5771 34.0128 14.4131 34.1435 14.2743L34.8857 13.38C34.9894 13.2503 35.0405 13.0863 35.0289 12.9206C35.0173 12.7549 34.9438 12.5997 34.8231 12.4857C34.6951 12.3779 34.5302 12.3241 34.3633 12.3358C34.1963 12.3475 34.0405 12.4237 33.9288 12.5483L33.1866 13.4426C32.7383 13.9511 32.507 14.6149 32.5421 15.2918C32.5772 15.9688 32.8759 16.6051 33.3743 17.0645C33.5156 17.1747 33.633 17.3126 33.719 17.4697C33.8051 17.6269 33.8581 17.8 33.8749 17.9784C33.8916 18.1567 33.8717 18.3367 33.8164 18.5071C33.7611 18.6775 33.6715 18.8348 33.5532 18.9694L32.4532 20.4987C32.3538 20.6341 32.3105 20.8025 32.3321 20.9691C32.3538 21.1356 32.4388 21.2875 32.5695 21.393C32.6166 21.4475 32.674 21.4922 32.7385 21.5245C32.803 21.5567 32.8732 21.5758 32.9451 21.5807" fill="currentColor"/>
<path d="M14.0666 21.9474C14.1624 21.9523 14.2578 21.9327 14.3439 21.8904C14.4299 21.8482 14.5038 21.7846 14.5585 21.7059L15.6585 20.1676C16.0474 19.6497 16.2315 19.0064 16.1754 18.3611C16.1193 17.7158 15.8269 17.114 15.3544 16.6709C15.2089 16.5485 15.0897 16.3978 15.0041 16.2279C14.9185 16.0581 14.8684 15.8726 14.8567 15.6828C14.845 15.4929 14.8719 15.3026 14.936 15.1235C15 14.9444 15.0998 14.7802 15.2292 14.6409L15.9715 13.7466C16.0414 13.6916 16.0984 13.622 16.1385 13.5426C16.1786 13.4632 16.2008 13.376 16.2035 13.2871C16.2062 13.1982 16.1894 13.1098 16.1542 13.0281C16.119 12.9464 16.0664 12.8734 15.9999 12.8143C15.9335 12.7551 15.8549 12.7113 15.7697 12.6858C15.6844 12.6604 15.5946 12.6539 15.5067 12.6669C15.4187 12.6799 15.3346 12.7121 15.2604 12.7611C15.1862 12.8101 15.1237 12.8748 15.0772 12.9507L14.3349 13.845C13.9001 14.3509 13.677 15.005 13.712 15.6712C13.747 16.3374 14.0374 16.9645 14.5227 17.4222C14.6656 17.5351 14.7835 17.6764 14.8689 17.8372C14.9542 17.9981 15.0053 18.1749 15.0187 18.3565C15.0322 18.5382 15.0078 18.7206 14.947 18.8923C14.8863 19.064 14.7905 19.2211 14.6658 19.3539L13.5569 20.892C13.4585 21.0285 13.4166 21.1977 13.4399 21.3643C13.4632 21.531 13.55 21.6821 13.6821 21.7863C13.7283 21.839 13.7845 21.8819 13.8474 21.9126C13.9104 21.9433 13.9788 21.9612 14.0487 21.9652" fill="currentColor"/>
<path d="M10.999 21.5807C11.0945 21.584 11.1893 21.5637 11.2751 21.5216C11.3609 21.4795 11.435 21.4168 11.4908 21.3393L12.5908 19.8011C12.9686 19.2789 13.1457 18.6382 13.0899 17.9961C13.0341 17.354 12.749 16.7535 12.2868 16.3044C12.1401 16.1827 12.0199 16.0323 11.9335 15.8624C11.8472 15.6924 11.7966 15.5066 11.7849 15.3164C11.7732 15.1262 11.8005 14.9356 11.8653 14.7564C11.9301 14.5771 12.0309 14.4131 12.1615 14.2743L12.8949 13.38C13.0017 13.2522 13.0556 13.0884 13.0456 12.9222C13.0357 12.7559 12.9626 12.5998 12.8412 12.4857C12.7132 12.3779 12.5483 12.3241 12.3814 12.3358C12.2144 12.3475 12.0586 12.4237 11.9469 12.5483L11.2046 13.4426C10.7564 13.9511 10.5251 14.6149 10.5602 15.2918C10.5953 15.9688 10.894 16.6051 11.3925 17.0645C11.5338 17.1747 11.651 17.3126 11.7371 17.4697C11.8232 17.6269 11.8762 17.8 11.8929 17.9784C11.9097 18.1567 11.8898 18.3367 11.8345 18.5071C11.7792 18.6775 11.6896 18.8348 11.5713 18.9694L10.4713 20.4987C10.3719 20.6341 10.3285 20.8025 10.3502 20.9691C10.3718 21.1356 10.4569 21.2875 10.5876 21.393C10.6347 21.4475 10.6921 21.4922 10.7566 21.5245C10.821 21.5567 10.8912 21.5758 10.9632 21.5807" fill="currentColor"/>
</g>
<defs>
<clipPath id="clip0_1324_37447">
<rect width="28.3673" height="24.9958" fill="white" transform="translate(10.1313 11.1443)"/>
</clipPath>
</defs>
</svg>
