<svg width="48" height="48" viewBox="0 0 48 48" fill="none" xmlns="http://www.w3.org/2000/svg">
<path d="M48 0H0V48H48V0Z" fill="#3B402E"/>
<g clip-path="url(#clip0_1324_37397)">
<path d="M34.8688 31.5676C34.6157 31.8686 34.2943 32.1047 33.9315 32.2563C33.5687 32.408 33.1748 32.4707 32.7828 32.4393C32.3909 32.4079 32.012 32.2833 31.6779 32.0759C31.3438 31.8684 31.0642 31.5842 30.8622 31.2467L28.8383 27.8654C28.7483 27.7145 28.6206 27.5896 28.4676 27.503C28.3147 27.4165 28.1419 27.3712 27.9662 27.3718H18.6366C18.4609 27.3712 18.2881 27.4165 18.1352 27.503C17.9823 27.5896 17.8545 27.7145 17.7645 27.8654L15.7406 31.2467C15.4445 31.7332 14.9892 32.1023 14.4519 32.2914C13.9147 32.4805 13.3286 32.4779 12.793 32.2842C12.2575 32.0905 11.8054 31.7176 11.5134 31.2286C11.2214 30.7396 11.1075 30.1647 11.191 29.6013L12.7048 20.4856C12.9023 19.2984 13.5145 18.2198 14.4325 17.4416C15.3507 16.6618 16.5188 16.2384 17.7234 16.2486H28.9041C30.1065 16.2444 31.2711 16.6684 32.1892 17.4448C33.1073 18.2212 33.719 19.2992 33.9145 20.4856L35.4283 29.6013C35.4809 29.95 35.4582 30.3059 35.3617 30.6451C35.2652 30.9843 35.0971 31.2989 34.8688 31.5676ZM37.4192 29.2311L35.9054 20.1154C35.6321 18.4567 34.7778 16.9492 33.4951 15.8626C32.2125 14.7759 30.5852 14.1808 28.9041 14.1836H17.6987C16.0176 14.1808 14.3903 14.7759 13.1077 15.8626C11.8251 16.9492 10.9707 18.4567 10.6974 20.1154L9.1589 29.2311C8.97524 30.2712 9.16326 31.3427 9.69002 32.2582C10.2168 33.1736 11.0487 33.8746 12.0403 34.2385C13.0318 34.6023 14.1197 34.6058 15.1136 34.2484C16.1074 33.891 16.9439 33.1954 17.4766 32.2834L19.2043 29.3956H27.3903L29.1263 32.2834C29.6669 33.1795 30.503 33.8592 31.4906 34.2054C32.4783 34.5517 33.5557 34.5429 34.5376 34.1805C35.5195 33.8182 36.3443 33.1249 36.8703 32.2201C37.3962 31.3152 37.5903 30.2554 37.4192 29.2229V29.2311Z" fill="currentColor"/>
<path d="M20.2577 21.2836H19.2458V20.2716C19.2354 20.102 19.1825 19.9377 19.0919 19.7939C19.0014 19.6501 18.876 19.5315 18.7275 19.4489C18.5777 19.363 18.4083 19.3169 18.2356 19.3149C18.0629 19.3129 17.8927 19.3552 17.7409 19.4376C17.5892 19.5201 17.4611 19.64 17.3688 19.786C17.2765 19.932 17.2231 20.0992 17.2137 20.2716V21.2836H16.2017C15.9296 21.2813 15.6672 21.3845 15.4695 21.5715C15.3731 21.6658 15.2965 21.7784 15.2442 21.9027C15.1919 22.0271 15.165 22.1606 15.1651 22.2955C15.1636 22.4306 15.1899 22.5645 15.2422 22.6891C15.2946 22.8136 15.3719 22.926 15.4695 23.0195C15.566 23.1147 15.6804 23.1898 15.806 23.2407C15.9317 23.2915 16.0662 23.317 16.2017 23.3157H17.2137V24.3276C17.2108 24.4626 17.2348 24.5969 17.2842 24.7226C17.3336 24.8483 17.4076 24.9629 17.5016 25.0598C17.6448 25.2041 17.8278 25.3023 18.0272 25.3419C18.2266 25.3814 18.4332 25.3605 18.6206 25.2818C18.808 25.2031 18.9676 25.0703 19.079 24.9003C19.1904 24.7302 19.2485 24.5308 19.2458 24.3276V23.3157H20.2577C20.5114 23.2928 20.7474 23.1759 20.9192 22.9879C21.0911 22.7998 21.1864 22.5543 21.1864 22.2996C21.1864 22.0449 21.0911 21.7994 20.9192 21.6114C20.7474 21.4233 20.5114 21.3064 20.2577 21.2836Z" fill="currentColor"/>
<path d="M29.3899 20.2716C29.3916 20.4737 29.3331 20.6718 29.222 20.8406C29.1109 21.0095 28.9521 21.1415 28.7659 21.22C28.5796 21.2984 28.3742 21.3198 28.1758 21.2814C27.9774 21.243 27.7949 21.1464 27.6514 21.0041C27.5079 20.8618 27.4098 20.68 27.3698 20.4819C27.3298 20.2838 27.3495 20.0782 27.4265 19.8914C27.5035 19.7045 27.6342 19.5447 27.8022 19.4322C27.9701 19.3197 28.1676 19.2597 28.3697 19.2597C28.5033 19.2586 28.6358 19.284 28.7596 19.3343C28.8833 19.3847 28.9958 19.4591 29.0906 19.5531C29.1855 19.6472 29.2607 19.7591 29.3121 19.8824C29.3635 20.0058 29.3899 20.138 29.3899 20.2716Z" fill="currentColor"/>
<path d="M29.3899 24.3278C29.3916 24.5299 29.3331 24.7279 29.222 24.8968C29.1109 25.0656 28.9521 25.1977 28.7659 25.2761C28.5796 25.3546 28.3742 25.376 28.1758 25.3375C27.9774 25.2991 27.7949 25.2026 27.6514 25.0603C27.5079 24.9179 27.4098 24.7362 27.3698 24.5381C27.3298 24.3399 27.3495 24.1344 27.4265 23.9475C27.5035 23.7606 27.6342 23.6008 27.8022 23.4883C27.9701 23.3759 28.1676 23.3158 28.3697 23.3158C28.5033 23.3147 28.6358 23.3401 28.7596 23.3905C28.8833 23.4408 28.9958 23.5152 29.0906 23.6093C29.1855 23.7034 29.2607 23.8153 29.3121 23.9386C29.3635 24.0619 29.3899 24.1942 29.3899 24.3278Z" fill="currentColor"/>
<path d="M31.414 22.2956C31.414 22.4958 31.3547 22.6914 31.2435 22.8578C31.1323 23.0243 30.9742 23.1539 30.7893 23.2305C30.6044 23.3071 30.4009 23.3272 30.2046 23.2881C30.0083 23.2491 29.828 23.1527 29.6865 23.0112C29.545 22.8697 29.4486 22.6894 29.4096 22.4931C29.3705 22.2968 29.3906 22.0933 29.4672 21.9084C29.5438 21.7235 29.6735 21.5654 29.8399 21.4542C30.0063 21.343 30.2019 21.2837 30.4021 21.2837C30.6705 21.2837 30.9279 21.3903 31.1176 21.5801C31.3074 21.7699 31.414 22.0272 31.414 22.2956Z" fill="currentColor"/>
<path d="M27.3582 22.2955C27.3598 22.498 27.3012 22.6964 27.1897 22.8654C27.0782 23.0344 26.919 23.1664 26.7322 23.2447C26.5455 23.3229 26.3397 23.3438 26.141 23.3047C25.9424 23.2656 25.7598 23.1683 25.6167 23.0251C25.4735 22.8819 25.3762 22.6994 25.3371 22.5008C25.298 22.3021 25.3189 22.0963 25.3971 21.9096C25.4753 21.7228 25.6073 21.5636 25.7764 21.4521C25.9454 21.3406 26.1438 21.282 26.3462 21.2836C26.6146 21.2836 26.872 21.3902 27.0618 21.58C27.2516 21.7698 27.3582 22.0271 27.3582 22.2955Z" fill="currentColor"/>
</g>
<defs>
<clipPath id="clip0_1324_37397">
<rect width="28.3673" height="20.2882" fill="white" transform="translate(9.11816 14.1836)"/>
</clipPath>
</defs>
</svg>
