<svg width="48" height="48" viewBox="0 0 48 48" fill="none" xmlns="http://www.w3.org/2000/svg">
<path d="M48 0H0V48H48V0Z" fill="#3B402E"/>
<path d="M15.7724 15.4757C16.9586 16.62 17.9022 17.9917 18.5466 19.5088C19.191 21.0259 19.5231 22.6573 19.5231 24.3056C19.5231 25.9539 19.191 27.5852 18.5466 29.1023C17.9022 30.6194 16.9586 31.9911 15.7724 33.1355C14.5884 31.9898 13.647 30.6177 13.0041 29.1007C12.3611 27.5838 12.0298 25.9531 12.0298 24.3056C12.0298 22.658 12.3611 21.0273 13.0041 19.5104C13.647 17.9935 14.5884 16.6214 15.7724 15.4757ZM31.313 14.2674C29.9832 15.5829 28.9275 17.1491 28.207 18.8753C27.4866 20.6016 27.1156 22.4536 27.1156 24.3242C27.1156 26.1947 27.4866 28.0467 28.207 29.773C28.9275 31.4992 29.9832 33.0654 31.313 34.381C29.2524 35.8331 26.7932 36.6126 24.2723 36.6126C21.7515 36.6126 19.2922 35.8331 17.2316 34.381C18.5637 33.0667 19.6214 31.5009 20.3433 29.7745C21.0652 28.0481 21.4369 26.1954 21.4369 24.3242C21.4369 22.4529 21.0652 20.6003 20.3433 18.8738C19.6214 17.1474 18.5637 15.5816 17.2316 14.2674C19.2922 12.8152 21.7515 12.0357 24.2723 12.0357C26.7932 12.0357 29.2524 12.8152 31.313 14.2674ZM36.5924 24.3242C36.5934 25.9783 36.2586 27.6154 35.6084 29.1364C34.9582 30.6574 34.0059 32.0305 32.8095 33.1727C31.6185 32.031 30.6708 30.6602 30.0234 29.1427C29.376 27.6253 29.0422 25.9926 29.0422 24.3428C29.0422 22.693 29.376 21.0602 30.0234 19.5428C30.6708 18.0253 31.6185 16.6545 32.8095 15.5128C34.0059 16.655 34.9582 18.0282 35.6084 19.5491C36.2586 21.0701 36.5934 22.7072 36.5924 24.3613V24.3242ZM24.3049 38.4985C27.5867 38.5009 30.7678 37.3651 33.3061 35.2847C35.8443 33.2043 37.5825 30.308 38.2246 27.0896C38.8666 23.8711 38.3726 20.5296 36.8269 17.6345C35.2812 14.7395 32.7794 12.47 29.7478 11.213C26.7162 9.95589 23.3425 9.78901 20.2017 10.7408C17.0609 11.6925 14.3473 13.704 12.5234 16.4324C10.6995 19.1608 9.87823 22.4372 10.1995 25.7033C10.5208 28.9695 11.9647 32.0231 14.2852 34.3438C16.9422 37.0024 20.5462 38.4968 24.3049 38.4985Z" fill="currentColor"/>
</svg>
