<svg width="48" height="48" viewBox="0 0 48 48" fill="none" xmlns="http://www.w3.org/2000/svg">
<path d="M48 0H0V48H48V0Z" fill="#3B402E"/>
<path d="M37.2338 28.0554C37.1614 27.9973 37.0779 27.9546 36.9884 27.93C36.8989 27.9053 36.8053 27.8991 36.7134 27.9119C36.6205 27.9264 36.5314 27.9592 36.4513 28.0085C36.3712 28.0578 36.3017 28.1225 36.2468 28.199C35.1054 29.7218 33.6981 31.0258 32.0928 32.0479V29.1321C32.0928 28.9441 32.0182 28.7638 31.8852 28.6309C31.7523 28.4979 31.572 28.4233 31.384 28.4233C31.1961 28.4233 31.0158 28.4979 30.8829 28.6309C30.7499 28.7638 30.6753 28.9441 30.6753 29.1321V32.7926C30.2008 33.0285 29.7124 33.2352 29.2128 33.4117C29.0603 32.1125 28.4399 30.9134 27.4676 30.0383C26.4953 29.1632 25.2377 28.6721 23.9297 28.6567C22.6217 28.6413 21.3529 29.1027 20.3603 29.9547C19.3677 30.8066 18.7193 31.9909 18.5362 33.2861C17.962 33.0528 17.4326 32.8016 16.9751 32.5773V26.8621C16.9774 25.643 17.4634 24.4746 18.3263 23.6134C19.1892 22.7522 20.3586 22.2685 21.5777 22.2685H26.0637C26.1563 22.2685 26.248 22.2494 26.3329 22.2123C26.4178 22.1753 26.4941 22.1211 26.5571 22.0532C26.6242 21.9895 26.6779 21.9131 26.7148 21.8283C26.7518 21.7435 26.7714 21.6522 26.7724 21.5597C26.7599 19.7988 27.3317 18.0835 28.3984 16.6824C29.4651 15.2812 30.9663 14.2735 32.667 13.8169V14.5347C32.6711 14.7211 32.7485 14.8984 32.8824 15.0281L35.7534 17.8992C35.8539 17.9966 35.933 18.114 35.9855 18.2437C36.0381 18.3735 36.0629 18.5129 36.0584 18.6528C36.0512 18.9326 35.9429 19.2004 35.7534 19.4064C35.6557 19.506 35.5391 19.5851 35.4105 19.6391C35.2818 19.6931 35.1437 19.7209 35.0042 19.7209C34.8647 19.7209 34.7266 19.6931 34.598 19.6391C34.4694 19.5851 34.3528 19.506 34.2551 19.4064L33.5194 18.6707C33.4439 18.5995 33.3552 18.5438 33.2582 18.5068C33.1612 18.4699 33.0579 18.4524 32.9541 18.4554C32.7517 18.4925 32.5663 18.593 32.4248 18.7425C31.2676 20.4416 30.6429 22.4469 30.6304 24.5025V26.5122C30.6304 26.7002 30.7051 26.8805 30.838 27.0134C30.9709 27.1463 31.1512 27.221 31.3392 27.221C31.5272 27.221 31.7074 27.1463 31.8404 27.0134C31.9733 26.8805 32.048 26.7002 32.048 26.5122V24.5025C32.0367 23.0281 32.4142 21.5767 33.1425 20.2947L33.2412 20.3934C33.7029 20.855 34.329 21.1143 34.9818 21.1143C35.6346 21.1143 36.2607 20.855 36.7224 20.3934C37.184 19.9317 37.4433 19.3056 37.4433 18.6528C37.4433 18 37.184 17.3739 36.7224 16.9122L34.0308 14.2207V12.9377C34.0289 12.8366 34.0059 12.7369 33.9634 12.6452C33.9208 12.5535 33.8596 12.4716 33.7836 12.4049C33.7076 12.3382 33.6185 12.2881 33.522 12.2578C33.4255 12.2275 33.3238 12.2176 33.2233 12.2289C31.1302 12.5636 29.2109 13.5938 27.7752 15.1533C26.3394 16.7127 25.471 18.7104 25.31 20.824H21.47C19.8765 20.8264 18.3489 21.4605 17.2221 22.5873C16.0953 23.7141 15.4612 25.2417 15.4588 26.8352V31.7249C14.016 30.7509 12.7507 29.5371 11.7175 28.1362C11.5998 27.9807 11.4259 27.8777 11.233 27.8491C11.0504 27.8288 10.867 27.8803 10.7216 27.9926C10.5741 28.1082 10.475 28.2745 10.4435 28.4592C10.4307 28.5511 10.4369 28.6447 10.4616 28.7342C10.4862 28.8236 10.5289 28.9071 10.587 28.9795C12.1366 31.062 14.1516 32.7534 16.4712 33.9186C18.7907 35.0839 21.3505 35.6907 23.9463 35.6907C26.5421 35.6907 29.1019 35.0839 31.4214 33.9186C33.7409 32.7534 35.7559 31.062 37.3055 28.9795C37.3628 28.906 37.4046 28.8217 37.4284 28.7317C37.4523 28.6416 37.4577 28.5477 37.4443 28.4555C37.4308 28.3633 37.3989 28.2747 37.3504 28.1952C37.3019 28.1156 37.2378 28.0468 37.162 27.9926L37.2338 28.0554ZM27.7235 33.5463C27.7318 33.6328 27.7318 33.7199 27.7235 33.8064C26.5008 34.1176 25.2439 34.2744 23.9822 34.273C22.5992 34.2789 21.2222 34.0916 19.891 33.7167V33.5463C19.8655 33.015 19.9483 32.4841 20.134 31.9858C20.3198 31.4874 20.6049 31.032 20.9719 30.647C21.3389 30.262 21.7802 29.9556 22.2691 29.7462C22.758 29.5368 23.2843 29.4288 23.8162 29.4288C24.3481 29.4288 24.8744 29.5368 25.3633 29.7462C25.8522 29.9556 26.2935 30.262 26.6605 30.647C27.0275 31.032 27.3125 31.4874 27.4983 31.9858C27.6841 32.4841 27.7668 33.015 27.7414 33.5463" fill="currentColor"/>
</svg>
