<svg width="48" height="48" viewBox="0 0 48 48" fill="none" xmlns="http://www.w3.org/2000/svg">
<path d="M48 0H0V48H48V0Z" fill="#3B402E"/>
<g clip-path="url(#clip0_1324_37468)">
<path d="M26.4536 26.7103L28.2029 30.6502L29.4322 37.6081H27.6513L26.3906 31.7534C26.3737 31.6698 26.3326 31.5931 26.2724 31.5328L22.5137 27.7741C22.0598 27.3232 21.6999 26.7866 21.4551 26.1955C21.2102 25.6043 21.0853 24.9705 21.0875 24.3306V19.8785C21.0875 19.2913 21.3207 18.7281 21.736 18.3128C22.1512 17.8976 22.7144 17.6643 23.3017 17.6643H24.1842C24.7722 17.6643 25.3362 17.8973 25.7527 18.3124C26.1692 18.7274 26.4042 19.2906 26.4063 19.8785V22.1164L25.8863 21.8012L25.051 19.2954L24.2079 19.5476L25.0983 22.211C25.1332 22.3087 25.1997 22.3919 25.2874 22.4474L29.3455 24.8822L28.4551 26.3479L24.0897 23.9839L22.3797 20.1307L21.5918 20.4932L23.3647 24.4803C23.4035 24.5676 23.4699 24.6396 23.5538 24.6852L26.43 26.2612V26.5212C26.4181 26.581 26.4181 26.6426 26.43 26.7024L26.4536 26.7103ZM23.349 32.9432L19.7085 36.9856L18.1798 35.78L20.9771 32.5887C21.0241 32.5316 21.0566 32.464 21.0717 32.3917L21.9779 28.4912L24.0897 30.5793L23.349 32.9432ZM18.8496 26.3242L17.6913 25.1738L20.197 22.1322V24.3306C20.197 24.4725 20.197 24.6143 20.197 24.7483L18.8496 26.3242ZM21.5287 14.5676C21.5287 13.9803 21.762 13.4171 22.1773 13.0019C22.5925 12.5866 23.1557 12.3533 23.7429 12.3533C24.3302 12.3533 24.8934 12.5866 25.3086 13.0019C25.7239 13.4171 25.9572 13.9803 25.9572 14.5676C25.9556 15.0707 25.7802 15.5578 25.4607 15.9465C25.2134 15.6971 25.0746 15.3601 25.0746 15.0088H24.1842C24.1881 15.5678 24.4019 16.105 24.7831 16.5139C24.4469 16.6979 24.0685 16.791 23.6854 16.7837C23.3022 16.7764 22.9276 16.6691 22.5987 16.4724C22.2698 16.2757 21.998 15.9964 21.8103 15.6623C21.6227 15.3282 21.5256 14.9508 21.5287 14.5676ZM28.6205 27.4195C28.6975 27.4196 28.7731 27.3992 28.8396 27.3605C28.906 27.3217 28.961 27.2659 28.9988 27.1989L30.3305 24.9847C30.3892 24.8839 30.4064 24.7642 30.3784 24.651C30.3505 24.5377 30.2796 24.4398 30.1807 24.3779L27.2889 22.6444V19.8864C27.2842 19.3041 27.1182 18.7344 26.8094 18.2406C26.5007 17.7468 26.0611 17.3482 25.5395 17.0891C26.08 16.7083 26.4852 16.1653 26.6964 15.5387C26.9076 14.9122 26.9137 14.2347 26.714 13.6044C26.5143 12.9741 26.119 12.4238 25.5855 12.0332C25.052 11.6427 24.4081 11.4321 23.7469 11.4321C23.0857 11.4321 22.4417 11.6427 21.9082 12.0332C21.3748 12.4238 20.9795 12.9741 20.7798 13.6044C20.58 14.2347 20.5862 14.9122 20.7974 15.5387C21.0085 16.1653 21.4137 16.7083 21.9542 17.0891C21.4312 17.3471 20.99 17.7452 20.6798 18.2391C20.3696 18.733 20.2025 19.3032 20.197 19.8864V20.7374L16.7536 24.9216C16.6788 25.0018 16.6372 25.1074 16.6372 25.2171C16.6372 25.3268 16.6788 25.4324 16.7536 25.5126L18.5738 27.2856C18.6127 27.3283 18.6602 27.3623 18.7131 27.3854C18.7661 27.4085 18.8233 27.4201 18.8811 27.4195C19.004 27.4128 19.1196 27.3592 19.2042 27.2698L20.4098 25.8514C20.5896 26.4893 20.8775 27.0916 21.2608 27.6323L20.2364 32.0607L17.2027 35.5436C17.1634 35.5885 17.1339 35.6411 17.1163 35.6982C17.0986 35.7552 17.0932 35.8153 17.1003 35.8745C17.1024 35.935 17.1184 35.9942 17.1471 36.0475C17.1758 36.1008 17.2164 36.1468 17.2657 36.1818L19.48 37.9548C19.5564 38.0213 19.6545 38.0577 19.7558 38.0572C19.8182 38.0558 19.8796 38.0418 19.9365 38.016C19.9933 37.9903 20.0444 37.9534 20.0867 37.9075L24.0897 33.4791C24.136 33.4307 24.1686 33.3709 24.1842 33.3057L24.791 31.2885L25.5789 32.0765L26.8791 38.1597C26.9033 38.257 26.9588 38.3437 27.0371 38.4064C27.1155 38.469 27.2122 38.5042 27.3125 38.5064H29.9759C30.0403 38.506 30.104 38.4917 30.1625 38.4645C30.2209 38.4373 30.2728 38.3978 30.3147 38.3488C30.3547 38.2982 30.3838 38.2399 30.4001 38.1775C30.4164 38.1151 30.4195 38.05 30.4093 37.9863L29.0539 30.4454C29.062 30.4117 29.062 30.3766 29.0539 30.3429L27.478 26.8522L28.4078 27.3644C28.4719 27.4038 28.5453 27.4256 28.6205 27.4274V27.4195Z" fill="currentColor"/>
<path d="M16.6512 37.1667H10.8911V38.0572H16.6512V37.1667Z" fill="currentColor"/>
<path d="M10.0086 37.1667H9.11816V38.0572H10.0086V37.1667Z" fill="currentColor"/>
<path d="M15.7687 35.3938H12.6641V36.2842H15.7687V35.3938Z" fill="currentColor"/>
<path d="M11.7815 35.3938H10.8911V36.2842H11.7815V35.3938Z" fill="currentColor"/>
<path d="M36.5555 13.6771H29.0618C29.0618 13.2069 29.2486 12.7559 29.5811 12.4234C29.9136 12.0909 30.3645 11.9042 30.8348 11.9042C31.199 11.9034 31.5543 12.0163 31.8513 12.2272C31.9014 12.2615 31.9579 12.2854 32.0175 12.2976C32.077 12.3098 32.1384 12.31 32.198 12.2981C32.2567 12.2851 32.3122 12.2603 32.361 12.225C32.4098 12.1898 32.4508 12.145 32.4816 12.0933C32.7312 11.677 33.1106 11.3543 33.5615 11.1747C34.0123 10.9952 34.5097 10.9687 34.9771 11.0995C35.4445 11.2302 35.856 11.5108 36.1483 11.8983C36.4406 12.2857 36.5975 12.7584 36.5949 13.2437C36.5928 13.389 36.5796 13.5338 36.5555 13.6771ZM34.3807 10.1312C33.9186 10.1276 33.4618 10.2285 33.0442 10.4264C32.6267 10.6242 32.2593 10.9139 31.9695 11.2738C31.6123 11.1043 31.2222 11.0156 30.8269 11.0137C30.1219 11.0158 29.4465 11.2973 28.9487 11.7966C28.4509 12.2959 28.1714 12.9721 28.1714 13.6771C28.1715 13.8541 28.1873 14.0308 28.2187 14.2051C28.2404 14.3058 28.2961 14.3961 28.3764 14.4606C28.4568 14.5252 28.5569 14.5601 28.6599 14.5596H36.8864C36.9777 14.5602 37.0668 14.5324 37.1416 14.4802C37.2164 14.428 37.2731 14.3539 37.3041 14.2681C37.4709 13.8003 37.5228 13.2992 37.4553 12.8071C37.3878 12.315 37.2029 11.8464 36.9162 11.4408C36.6296 11.0352 36.2496 10.7044 35.8083 10.4765C35.367 10.2486 34.8774 10.1301 34.3807 10.1312Z" fill="currentColor"/>
<path d="M11.7816 18.9958C12.1433 18.9951 12.4962 19.1081 12.7902 19.3189C12.8404 19.3536 12.8971 19.3778 12.9569 19.3899C13.0168 19.4019 13.0784 19.4017 13.1381 19.3892C13.1979 19.3766 13.2544 19.3521 13.3043 19.3169C13.3543 19.2818 13.3965 19.2369 13.4285 19.1849C13.6223 18.854 13.8998 18.58 14.2332 18.3905C14.5666 18.201 14.944 18.1026 15.3275 18.1054C15.6193 18.1064 15.9081 18.1649 16.1773 18.2775C16.4465 18.3902 16.6908 18.5547 16.8965 18.7618C17.1021 18.9689 17.2649 19.2144 17.3756 19.4844C17.4863 19.7544 17.5428 20.0436 17.5417 20.3354C17.5412 20.4837 17.5253 20.6316 17.4944 20.7766H10.0086C10.0076 20.5431 10.0527 20.3118 10.1413 20.0957C10.23 19.8797 10.3604 19.6833 10.5251 19.5179C10.6899 19.3524 10.8857 19.2211 11.1013 19.1315C11.3169 19.0419 11.5481 18.9958 11.7816 18.9958ZM9.60676 21.6513H17.8254C17.9166 21.6518 18.0057 21.6241 18.0805 21.5719C18.1553 21.5196 18.2121 21.4455 18.243 21.3597C18.3639 21.0318 18.4252 20.6849 18.4243 20.3354C18.4256 19.6933 18.2278 19.0666 17.8581 18.5416C17.4884 18.0166 16.9651 17.6191 16.3601 17.4039C15.7552 17.1887 15.0984 17.1664 14.4802 17.34C13.862 17.5136 13.3129 17.8746 12.9084 18.3733C12.5041 18.1822 12.058 18.0963 11.6117 18.1236C11.1653 18.1509 10.733 18.2905 10.355 18.5294C9.97695 18.7683 9.66538 19.0989 9.44917 19.4903C9.23296 19.8818 9.11912 20.3215 9.11822 20.7688C9.11705 20.9462 9.13555 21.1233 9.17337 21.2967C9.192 21.3975 9.24576 21.4885 9.32511 21.5534C9.40446 21.6183 9.50425 21.653 9.60676 21.6513Z" fill="currentColor"/>
</g>
<defs>
<clipPath id="clip0_1324_37468">
<rect width="28.3673" height="28.3673" fill="white" transform="translate(9.11816 10.1311)"/>
</clipPath>
</defs>
</svg>
