<svg width="48" height="48" viewBox="0 0 48 48" fill="none" xmlns="http://www.w3.org/2000/svg">
    <path d="M48 0H0V48H48V0Z" fill="#3B402E"/>
    <path d="M21.308 22.6184V34.6678C21.308 35.1971 21.308 35.7354 21.308 36.2648C21.3123 36.3305 21.3123 36.3965 21.308 36.4622C21.308 36.3725 21.308 36.2827 21.308 36.193C21.2914 36.3234 21.2551 36.4504 21.2004 36.5698C21.2004 36.4981 21.2632 36.4173 21.2991 36.3366L21.1915 36.5429C21.0928 36.6954 21.2452 36.4532 21.2542 36.4622L21.1645 36.5609L21.0927 36.6326C21.012 36.7044 21.2991 36.4891 21.1735 36.5609C21.1026 36.6067 21.0275 36.6458 20.9492 36.6775L21.1825 36.5788C21.0897 36.6152 20.9935 36.6422 20.8954 36.6595H21.1555C20.8867 36.6775 20.6169 36.6775 20.3481 36.6595H14.9649C14.6393 36.682 14.3125 36.682 13.9869 36.6595H14.2561C14.139 36.6446 14.0244 36.6145 13.9152 36.5698L14.1484 36.6685C14.0767 36.635 14.0078 36.596 13.9421 36.5519C13.7806 36.4532 14.0228 36.6147 14.0228 36.6147L13.9241 36.525L13.8523 36.4442C13.7716 36.3635 13.9959 36.6506 13.9152 36.525C13.868 36.4502 13.8261 36.3723 13.7896 36.2917L13.8883 36.5339C13.846 36.4232 13.813 36.3092 13.7896 36.193C13.7939 36.2797 13.7939 36.3665 13.7896 36.4532C13.7806 36.2828 13.7806 36.1121 13.7896 35.9418V22.6184C13.7759 22.4453 13.7759 22.2712 13.7896 22.0981C13.7852 22.1847 13.7852 22.2715 13.7896 22.3582C13.8371 21.9688 13.9398 21.5882 14.0946 21.2277C14.0946 21.3085 14.0318 21.3803 13.9959 21.461C14.0965 21.2316 14.2135 21.0098 14.3458 20.7971L14.4535 20.6446C14.4984 20.5818 14.6509 20.4113 14.4535 20.6446C14.5343 20.5549 14.606 20.4562 14.6957 20.3665C14.778 20.2782 14.8649 20.1943 14.9559 20.1152L15.0995 19.9897C14.8572 20.214 15.0097 20.0614 15.0995 19.9897C15.2975 19.8539 15.5078 19.7367 15.7275 19.6397L15.4942 19.7384C15.7434 19.6313 16.006 19.5589 16.2748 19.5231C16.4814 19.4709 16.6627 19.3469 16.7862 19.1732C16.9176 19.0001 16.99 18.7894 16.9925 18.5721V10.3448L16.0146 11.3227H19.092L18.1051 10.3448V18.5721C18.1069 18.791 18.1828 19.0029 18.3204 19.1732C18.4439 19.3469 18.6252 19.4709 18.8318 19.5231C19.0966 19.5643 19.3556 19.6366 19.6034 19.7384L19.3701 19.6487C19.5933 19.7387 19.8043 19.8562 19.9982 19.9986C20.0699 19.9986 20.2225 20.196 19.9982 19.9986L20.1417 20.1152L20.4108 20.3755L20.6531 20.6536C20.4378 20.4113 20.5903 20.5728 20.6531 20.6536L20.7608 20.8061C20.8968 21.0166 21.0139 21.2388 21.1107 21.47L21.012 21.2277C21.1644 21.5897 21.2699 21.9696 21.326 22.3582C21.3216 22.2715 21.3216 22.1847 21.326 22.0981C21.326 22.2685 21.326 22.448 21.326 22.6184C21.3494 22.8628 21.463 23.0897 21.6447 23.2548C21.8263 23.4199 22.063 23.5114 22.3085 23.5114C22.5539 23.5114 22.7906 23.4199 22.9722 23.2548C23.1539 23.0897 23.2675 22.8628 23.2909 22.6184C23.282 21.4533 22.8876 20.3239 22.1694 19.4065C21.507 18.4776 20.5157 17.8359 19.3971 17.6121C19.6303 17.9261 19.8815 18.2401 20.1148 18.5631V10.3268C20.1102 10.0689 20.0057 9.82283 19.8233 9.64042C19.6409 9.45801 19.3948 9.35348 19.1368 9.34888H16.0505C15.7926 9.35348 15.5465 9.45801 15.3641 9.64042C15.1817 9.82283 15.0772 10.0689 15.0726 10.3268V18.5631L15.7903 17.6121C14.9928 17.7788 14.2511 18.1465 13.6355 18.6804C13.02 19.2143 12.5511 19.8966 12.2733 20.6626C12.0051 21.3542 11.877 22.0922 11.8965 22.8338V36.2379C11.9007 36.6653 12.0205 37.0837 12.2432 37.4486C12.4659 37.8135 12.7833 38.1113 13.1615 38.3104C13.5449 38.4827 13.9615 38.5685 14.3817 38.5616H20.9402C21.2505 38.5702 21.5593 38.5156 21.8478 38.4011C22.1363 38.2866 22.3985 38.1145 22.6184 37.8955C22.8383 37.6764 23.0112 37.4149 23.1269 37.1269C23.2425 36.8388 23.2983 36.5302 23.2909 36.2199V22.6184C23.2675 22.3741 23.1539 22.1472 22.9722 21.9821C22.7906 21.817 22.5539 21.7255 22.3085 21.7255C22.063 21.7255 21.8263 21.817 21.6447 21.9821C21.463 22.1472 21.3494 22.3741 21.326 22.6184"
          fill="currentColor"/>
    <path d="M14.5972 11.3584H20.5546C20.8164 11.3584 21.0674 11.2545 21.2525 11.0694C21.4376 10.8843 21.5415 10.6333 21.5415 10.3715C21.5415 10.1098 21.4376 9.85875 21.2525 9.67367C21.0674 9.48859 20.8164 9.38464 20.5546 9.38464H14.5972C14.3355 9.38464 14.0845 9.48859 13.8994 9.67367C13.7143 9.85875 13.6104 10.1098 13.6104 10.3715C13.6104 10.6333 13.7143 10.8843 13.8994 11.0694C14.0845 11.2545 14.3355 11.3584 14.5972 11.3584Z"
          fill="currentColor"/>
    <path d="M21.3086 23.8655V34.2192L22.2955 33.2322H18.3658L19.3438 34.2192V23.8655L18.3658 24.8524H22.2955C22.5399 24.8291 22.7667 24.7154 22.9318 24.5338C23.0969 24.3521 23.1884 24.1155 23.1884 23.87C23.1884 23.6245 23.0969 23.3879 22.9318 23.2062C22.7667 23.0246 22.5399 22.911 22.2955 22.8876H18.3658C18.1063 22.8899 17.858 22.9933 17.6736 23.176C17.4893 23.3587 17.3836 23.606 17.3789 23.8655V34.2192C17.3836 34.4786 17.4893 34.726 17.6736 34.9087C17.858 35.0913 18.1063 35.1948 18.3658 35.1971H22.2955C22.5535 35.1925 22.7995 35.088 22.9819 34.9056C23.1644 34.7232 23.2688 34.4771 23.2734 34.2192V23.8655C23.2501 23.6211 23.1365 23.3943 22.9548 23.2292C22.7732 23.0641 22.5365 22.9726 22.291 22.9726C22.0456 22.9726 21.8089 23.0641 21.6272 23.2292C21.4456 23.3943 21.332 23.6211 21.3086 23.8655Z"
          fill="currentColor"/>
    <path d="M34.2818 23.1477V26.7813C34.3005 27.0801 34.3005 27.3797 34.2818 27.6785C34.2818 27.5888 34.2818 27.4991 34.2818 27.4094C34.2227 27.8032 34.1173 28.1887 33.9678 28.5578L34.0665 28.3155C33.9552 28.5757 33.82 28.825 33.6627 29.0602L33.5551 29.2217C33.5551 29.2756 33.3936 29.3922 33.5551 29.1589V29.2217C33.4564 29.3294 33.3666 29.437 33.259 29.5357C33.1669 29.6352 33.068 29.7281 32.9629 29.8139L32.8822 29.8856C32.8822 29.8856 33.1065 29.7152 32.954 29.8228L32.8015 29.9305C32.5622 30.0889 32.3101 30.2269 32.0478 30.3432L32.2811 30.2445C31.9144 30.3994 31.5278 30.502 31.1326 30.5496H31.4018C31.0089 30.6034 30.6105 30.6034 30.2175 30.5496H30.4777C30.0865 30.4966 29.7036 30.3941 29.3382 30.2445L29.5715 30.3432C29.3142 30.2319 29.0679 30.0967 28.8358 29.9395L28.6743 29.8318C28.6115 29.787 28.5039 29.6703 28.7371 29.8318L28.6743 29.778C28.5633 29.6895 28.4584 29.5936 28.3603 29.4909C28.2616 29.4012 28.1719 29.2935 28.0822 29.1948L28.0104 29.1141C28.0104 29.1141 28.1719 29.3294 28.0732 29.1859L27.9656 29.0333C27.8019 28.7941 27.6636 28.5385 27.5528 28.2707L27.6515 28.513C27.4979 28.1452 27.3924 27.7592 27.3375 27.3645C27.3375 27.4542 27.3375 27.544 27.3375 27.6337C27.3061 27.0779 27.3061 26.5207 27.3375 25.9649V23.1477C27.3506 23.0108 27.3349 22.8727 27.2915 22.7422C27.2481 22.6117 27.1779 22.4917 27.0854 22.3899C26.9929 22.2881 26.8801 22.2068 26.7544 22.1512C26.6286 22.0955 26.4926 22.0668 26.3551 22.0668C26.2175 22.0668 26.0816 22.0955 25.9558 22.1512C25.83 22.2068 25.7173 22.2881 25.6248 22.3899C25.5323 22.4917 25.4621 22.6117 25.4186 22.7422C25.3752 22.8727 25.3595 23.0108 25.3726 23.1477V26.4673C25.3535 27.0898 25.4016 27.7124 25.5162 28.3245C25.7698 29.4076 26.3529 30.3855 27.185 31.1238C28.0925 31.9232 29.2359 32.4051 30.4418 32.4965C31.5827 32.5792 32.7203 32.2964 33.6897 31.689C34.6914 31.0477 35.4641 30.1054 35.8967 28.9974C36.152 28.3029 36.2708 27.5657 36.2467 26.8262V23.1477C36.2598 23.0108 36.2441 22.8727 36.2007 22.7422C36.1572 22.6117 36.087 22.4917 35.9945 22.3899C35.902 22.2881 35.7893 22.2068 35.6636 22.1512C35.5378 22.0955 35.4018 22.0668 35.2643 22.0668C35.1267 22.0668 34.9907 22.0955 34.8649 22.1512C34.7392 22.2068 34.6264 22.2881 34.5339 22.3899C34.4414 22.4917 34.3712 22.6117 34.3278 22.7422C34.2844 22.8727 34.2687 23.0108 34.2818 23.1477Z"
          fill="currentColor"/>
    <path d="M31.797 37.5926V31.5904C31.7924 31.3309 31.6866 31.0835 31.5023 30.9009C31.318 30.7182 31.0696 30.6147 30.8101 30.6124C30.5513 30.617 30.3043 30.7212 30.1204 30.9034C29.9366 31.0856 29.8301 31.3317 29.8232 31.5904V37.5926C29.8232 37.8544 29.9272 38.1054 30.1123 38.2905C30.2974 38.4755 30.5484 38.5795 30.8101 38.5795C31.0719 38.5795 31.3229 38.4755 31.508 38.2905C31.6931 38.1054 31.797 37.8544 31.797 37.5926Z"
          fill="currentColor"/>
    <path d="M32.7745 36.6056H28.8448C28.5831 36.6056 28.332 36.7096 28.1469 36.8947C27.9619 37.0798 27.8579 37.3308 27.8579 37.5925C27.8579 37.8543 27.9619 38.1053 28.1469 38.2904C28.332 38.4754 28.5831 38.5794 28.8448 38.5794H32.7745C33.0363 38.5794 33.2873 38.4754 33.4724 38.2904C33.6575 38.1053 33.7614 37.8543 33.7614 37.5925C33.7614 37.3308 33.6575 37.0798 33.4724 36.8947C33.2873 36.7096 33.0363 36.6056 32.7745 36.6056Z"
          fill="currentColor"/>
    <path d="M27.2747 27.6158L27.3465 27.553C27.0145 27.8311 27.2657 27.6248 27.3465 27.553C27.5977 27.3833 27.8652 27.239 28.145 27.1223L27.9117 27.221C28.2907 27.0604 28.6887 26.9488 29.096 26.889H28.8358C29.208 26.8397 29.5851 26.8397 29.9573 26.889H29.6881C30.3251 26.9787 30.9263 27.2031 31.5543 27.3107C32.1201 27.4108 32.6934 27.4618 33.2679 27.4632C33.9947 27.4647 34.7145 27.3213 35.3853 27.0416C35.4676 27.0087 35.5458 26.9666 35.6186 26.916C35.8364 26.7831 35.9989 26.5759 36.0762 26.3328C36.1437 26.0754 36.1083 25.8019 35.9775 25.5702C35.8415 25.3496 35.6257 25.1901 35.3749 25.1249C35.1241 25.0597 34.8579 25.0938 34.6317 25.2203L34.3984 25.3369L34.6317 25.2472C34.3282 25.3646 34.0121 25.4458 33.6896 25.4894H33.9498C33.3542 25.5669 32.751 25.5669 32.1554 25.4894H32.4246C31.2582 25.3279 30.1367 24.8435 28.9434 24.978C28.0508 25.0791 27.1939 25.3862 26.4403 25.8752C26.2505 26.0027 26.0678 26.1405 25.893 26.2879C25.7095 26.4728 25.6064 26.7228 25.6064 26.9833C25.6064 27.2438 25.7095 27.4937 25.893 27.6786C26.0796 27.8552 26.3268 27.9537 26.5838 27.9537C26.8408 27.9537 27.088 27.8552 27.2747 27.6786"
          fill="currentColor"/>
</svg>
