<svg width="128" height="37" viewBox="0 0 128 37" fill="none" xmlns="http://www.w3.org/2000/svg">
    <path d="M123.975 1.71716C125.574 2.91539 126.471 4.77001 126.697 7.28857H123.237C123.065 6.02067 122.426 4.86509 121.45 4.05261C120.289 3.29937 118.919 2.94594 117.544 3.04513C116.355 2.98002 115.169 3.21337 114.091 3.72439C113.619 3.9448 113.223 4.30331 112.954 4.75357C112.685 5.20384 112.556 5.72525 112.583 6.25063C112.594 6.78404 112.761 7.30205 113.063 7.73939C113.365 8.17674 113.788 8.51382 114.279 8.70811C115.559 9.29716 116.885 9.77462 118.245 10.1353C120.305 10.7073 122.306 11.4738 124.224 12.4249C125.12 12.9011 125.869 13.6185 126.387 14.4978C126.906 15.3772 127.175 16.3844 127.165 17.4086C127.197 18.3614 126.995 19.3073 126.577 20.1614C126.158 21.0154 125.536 21.7506 124.767 22.3008C123.169 23.4608 120.929 24.0484 118.057 24.0484C115.184 24.0484 113.095 23.4608 111.527 22.3618C109.642 21.0033 108.617 18.8663 108.428 15.9509H111.881C111.93 16.7001 112.124 17.4323 112.453 18.1054C112.782 18.7785 113.238 19.3795 113.797 19.8738C114.724 20.5835 116.134 20.9423 118.057 20.9423C119.485 20.9984 120.904 20.6859 122.181 20.034C122.632 19.8134 123.013 19.4689 123.279 19.0397C123.546 18.6106 123.688 18.1141 123.689 17.6071C123.689 16.3096 122.935 15.3175 121.517 14.5543C120.039 13.9606 118.528 13.451 116.993 13.0279C115.192 12.5193 113.428 11.8817 111.716 11.1199C110.899 10.6693 110.222 9.99866 109.759 9.18232C109.295 8.36598 109.065 7.43578 109.092 6.49481C109.063 5.54221 109.28 4.59854 109.724 3.75765C110.167 2.91675 110.82 2.20804 111.618 1.70198C113.417 0.546275 115.52 -0.0311203 117.649 0.0457987C120.303 0.0457987 122.385 0.602936 123.885 1.763"
          fill="currentColor"/>
    <path d="M64.2521 20.1714L63.8675 17.0346C63.6112 14.745 62.4952 13.4095 60.4444 12.9592V12.8904C61.6628 12.609 62.7363 11.8838 63.4603 10.8527C64.1129 9.69111 64.4437 8.37277 64.4179 7.03673C64.4738 6.09252 64.3121 5.14803 63.9457 4.27785C63.5794 3.40768 63.0183 2.63558 62.3067 2.02244C60.7031 0.882392 58.7667 0.323131 56.8102 0.435017H46.6992V3.48782H50.1902H56.3276C57.5686 3.38438 58.808 3.70404 59.8487 4.39599C60.229 4.75117 60.5245 5.18942 60.7126 5.67737C60.9007 6.16532 60.9766 6.6902 60.9345 7.21225C60.9345 8.441 60.55 9.93682 59.8111 10.5855C58.8108 11.3172 57.5889 11.671 56.3577 11.5854H50.1902V11.532H46.6992V23.5905H50.1902V14.6H56.3577C57.4288 14.5172 58.495 14.814 59.3737 15.4396C60.1247 16.1703 60.5609 17.1711 60.5877 18.2252L60.8742 20.5148C60.9219 21.6057 61.2663 22.6622 61.8694 23.5676H65.6394C64.8271 22.6207 64.3543 21.4241 64.2972 20.1714"
          fill="currentColor"/>
    <path d="M67.0645 0.450287L75.2527 23.5677H79.4751L70.8344 0.450287H67.0645Z" fill="currentColor"/>
    <path d="M84.5268 0.457916L80.5156 11.5625H84.0141L88.2365 0.457916H84.5268Z" fill="currentColor"/>
    <path d="M16.321 23.5677H20.9957L11.4352 10.3948L19.5255 0.450287H15.1071L7.26562 10.433L16.321 23.5677Z"
          fill="currentColor"/>
    <path d="M4.48342 0H1V23.1174H4.48342V15.119V11.1733V0Z" fill="currentColor"/>
    <path d="M34.8917 0.450287H31.4233L39.9434 23.5677H43.6832L34.8917 0.450287Z" fill="currentColor"/>
    <path d="M31.8157 11.5625H30.1795H26.6961L22.127 23.5677H25.8441L29.0938 14.5695H32.9844L31.8157 11.5625Z"
          fill="currentColor"/>
    <path d="M98.0836 0.450287H94.6152L103.135 23.5677H106.875L98.0836 0.450287Z" fill="currentColor"/>
    <path d="M94.9996 11.5625H93.3709H89.8875L85.3184 23.5677H89.028L92.2852 14.5695H96.1758L94.9996 11.5625Z"
          fill="currentColor"/>
    <path d="M121.434 32.7871L122.708 29.6657L123.975 32.7871H121.434ZM125.265 35.9621H127.202L123.628 27.8111H121.804L118.237 35.9621H120.115L120.824 34.2143H124.533L125.265 35.9621ZM114.581 30.7723C114.581 31.6576 114.015 32.1918 112.884 32.1918H111.376V29.3451H112.884C114.015 29.3451 114.581 29.8717 114.581 30.7723V30.7723ZM116.601 35.9621L114.814 33.3443C115.318 33.1408 115.746 32.784 116.041 32.3233C116.335 31.8625 116.481 31.3205 116.458 30.7723C116.458 28.9406 115.123 27.8111 112.982 27.8111H109.559V35.9621H111.414V33.6725H113.11L114.618 35.9621H116.601ZM102.381 34.4967C101.868 34.5119 101.362 34.3718 100.928 34.0944C100.495 33.817 100.152 33.4149 99.9457 32.9395C99.7389 32.4641 99.6769 31.937 99.7677 31.4257C99.8586 30.9145 100.098 30.4423 100.455 30.0696C100.813 29.6969 101.272 29.4406 101.774 29.3335C102.276 29.2265 102.799 29.2735 103.274 29.4686C103.75 29.6637 104.157 29.998 104.444 30.4288C104.731 30.8595 104.884 31.3671 104.884 31.8865C104.902 32.2275 104.85 32.5687 104.731 32.8884C104.613 33.2081 104.43 33.4996 104.195 33.7447C103.96 33.9897 103.678 34.1829 103.366 34.3123C103.054 34.4417 102.718 34.5045 102.381 34.4967V34.4967ZM102.381 36.107C103.196 36.0667 103.981 35.7854 104.639 35.2978C105.298 34.8102 105.8 34.1379 106.085 33.364C106.37 32.5901 106.424 31.7487 106.241 30.9441C106.057 30.1394 105.645 29.4068 105.055 28.837C104.464 28.2672 103.722 27.8852 102.919 27.7384C102.116 27.5915 101.288 27.6863 100.538 28.0109C99.7883 28.3355 99.1487 28.8757 98.6989 29.5646C98.2491 30.2535 98.0089 31.0608 98.008 31.8865C98.004 32.4595 98.116 33.0272 98.337 33.5547C98.558 34.0822 98.8834 34.5584 99.2931 34.9538C99.7028 35.3492 100.188 35.6555 100.719 35.8538C101.25 36.0522 101.816 36.1383 102.381 36.107ZM89.5632 34.4204V29.3604H91.2522C91.5919 29.3415 91.932 29.3929 92.2514 29.5115C92.5709 29.6301 92.8632 29.8134 93.1104 30.0502C93.3575 30.2869 93.5543 30.5723 93.6888 30.8887C93.8233 31.2051 93.8928 31.5459 93.8928 31.8903C93.8928 32.2348 93.8233 32.5756 93.6888 32.892C93.5543 33.2084 93.3575 33.4937 93.1104 33.7305C92.8632 33.9673 92.5709 34.1507 92.2514 34.2693C91.932 34.3879 91.5919 34.4393 91.2522 34.4204H89.5632ZM87.7085 35.9468H91.3426C93.959 35.9468 95.7534 34.3441 95.7534 31.8713C95.7534 29.3986 93.959 27.7958 91.3426 27.7958H87.6934L87.7085 35.9468ZM79.7388 32.7719L81.0055 29.6504L82.2722 32.7719H79.7388ZM83.5615 35.9468H85.5068L81.9329 27.7958H80.1008L76.5419 35.9468H78.4344L79.1432 34.199H82.8527L83.5615 35.9468ZM72.8851 30.757C72.8851 31.6423 72.312 32.1765 71.181 32.1765H69.6731V29.3298H71.181C72.312 29.3298 72.8851 29.8564 72.8851 30.757V30.757ZM74.9058 35.9468L73.1113 33.329C73.6147 33.1255 74.0433 32.7687 74.3377 32.308C74.6322 31.8472 74.778 31.3052 74.7549 30.757C74.7549 28.9253 73.4204 27.7958 71.2866 27.7958H67.8258V35.9468H69.6731V33.6572H71.3771L72.8851 35.9468H74.9058ZM60.6856 34.4814C60.1726 34.4966 59.6669 34.3566 59.233 34.0791C58.7992 33.8017 58.4569 33.3996 58.2501 32.9242C58.0434 32.4488 57.9814 31.9217 58.0722 31.4104C58.163 30.8992 58.4025 30.4271 58.7599 30.0544C59.1174 29.6816 59.5765 29.4253 60.0787 29.3183C60.5808 29.2112 61.1032 29.2583 61.5787 29.4534C62.0543 29.6486 62.4616 29.9829 62.7484 30.4136C63.0352 30.8443 63.1886 31.3519 63.1888 31.8713C63.2065 32.2124 63.1545 32.5534 63.036 32.8731C62.9175 33.1929 62.735 33.4844 62.5 33.7294C62.265 33.9744 61.9825 34.1677 61.6703 34.2971C61.3581 34.4266 61.0229 34.4892 60.6856 34.4814ZM60.6856 36.0918C61.5 36.05 62.2843 35.7674 62.9417 35.279C63.599 34.7906 64.1005 34.1177 64.3839 33.3438C64.6674 32.5699 64.7205 31.7288 64.5365 30.9247C64.3526 30.1206 63.9397 29.3887 63.349 28.8196C62.7584 28.2506 62.0159 27.8693 61.2133 27.723C60.4108 27.5767 59.5835 27.6719 58.8339 27.9966C58.0842 28.3214 57.445 28.8616 56.9956 29.5502C56.5461 30.2389 56.3059 31.0459 56.3049 31.8713C56.302 32.4447 56.4149 33.0125 56.6368 33.54C56.8586 34.0675 57.1848 34.5436 57.5951 34.9389C58.0054 35.3341 58.4912 35.6403 59.0226 35.8385C59.5541 36.0368 60.12 36.123 60.6856 36.0918V36.0918ZM50.4388 32.1614H48.9309V29.3298H50.4388C51.5698 29.3298 52.1353 29.8564 52.1353 30.757C52.1353 31.6576 51.5698 32.1614 50.4388 32.1614V32.1614ZM50.5369 27.7958H47.0761V35.9468H48.9233V33.7029H50.5369C52.6782 33.7029 54.0127 32.5734 54.0127 30.757C54.0127 28.9406 52.6782 27.7958 50.5369 27.7958V27.7958ZM42.3712 30.757C42.3712 31.6423 41.7982 32.1765 40.6672 32.1765H39.1592V29.3298H40.6672C41.7982 29.3298 42.3712 29.8564 42.3712 30.757V30.757ZM44.3919 35.9468L42.5974 33.329C43.1008 33.1255 43.5294 32.7687 43.8239 32.308C44.1183 31.8472 44.2641 31.3052 44.2411 30.757C44.2411 28.9253 42.9066 27.7958 40.7728 27.7958H37.312V35.9468H39.1592V33.6572H40.8632L42.3712 35.9468H44.3919ZM30.1717 34.4814C29.6587 34.4966 29.153 34.3566 28.7191 34.0791C28.2852 33.8017 27.9431 33.3996 27.7363 32.9242C27.5295 32.4488 27.4676 31.9217 27.5584 31.4104C27.6492 30.8992 27.8887 30.4271 28.2461 30.0544C28.6036 29.6816 29.0627 29.4253 29.5649 29.3183C30.067 29.2112 30.5893 29.2583 31.0649 29.4534C31.5405 29.6486 31.9477 29.9829 32.2346 30.4136C32.5214 30.8443 32.6747 31.3519 32.675 31.8713C32.6927 32.2124 32.6406 32.5534 32.5221 32.8731C32.4036 33.1929 32.2211 33.4844 31.9861 33.7294C31.7511 33.9744 31.4687 34.1677 31.1565 34.2971C30.8443 34.4266 30.509 34.4892 30.1717 34.4814V34.4814ZM30.1717 36.0918C30.9865 36.0514 31.7718 35.7701 32.4301 35.2825C33.0885 34.795 33.5911 34.1226 33.8757 33.3487C34.1603 32.5749 34.2144 31.7335 34.0313 30.9288C33.8481 30.1241 33.4357 29.3915 32.8453 28.8217C32.2549 28.2519 31.5123 27.8699 30.7095 27.7231C29.9068 27.5763 29.0791 27.671 28.329 27.9956C27.5789 28.3202 26.9393 28.8604 26.4895 29.5493C26.0398 30.2382 25.7996 31.0456 25.7986 31.8713C25.7958 32.444 25.9084 33.0112 26.1299 33.5381C26.3513 34.0651 26.6767 34.5408 27.0861 34.936C27.4956 35.3311 27.9805 35.6375 28.5111 35.8362C29.0417 36.035 29.6067 36.1219 30.1717 36.0918V36.0918ZM20.5508 36.0918C21.1747 36.1204 21.7968 36.0039 22.3693 35.7512C22.9418 35.4986 23.4494 35.1164 23.8533 34.6341L22.662 33.5198C22.4221 33.824 22.1167 34.0689 21.7691 34.2356C21.4215 34.4022 21.0409 34.4863 20.6564 34.4814C19.9725 34.4814 19.3166 34.2064 18.8331 33.7169C18.3495 33.2274 18.0778 32.5636 18.0778 31.8713C18.0778 31.1791 18.3495 30.5152 18.8331 30.0257C19.3166 29.5362 19.9725 29.2612 20.6564 29.2612C21.0399 29.2582 21.4192 29.3424 21.7663 29.5075C22.1134 29.6726 22.4195 29.9144 22.662 30.2152L23.8533 29.1009C23.4046 28.5239 22.8182 28.0721 22.1491 27.7883C21.4801 27.5045 20.7506 27.398 20.0297 27.4789C19.3087 27.5598 18.6199 27.8254 18.0285 28.2506C17.4371 28.6758 16.9626 29.2465 16.6497 29.9089C16.3368 30.5713 16.1958 31.3036 16.2401 32.0365C16.2845 32.7694 16.5126 33.4787 16.9031 34.0975C17.2935 34.7163 17.8334 35.2242 18.4716 35.5731C19.1099 35.9221 19.8254 36.1006 20.5508 36.0918V36.0918ZM11.6312 27.7958V32.7871L7.65008 27.834H6.14211V35.9849H7.96679V31.0394L11.9554 35.9849H13.4634V27.834L11.6312 27.7958ZM0.984863 35.9468H2.83209V27.7958H0.984863V35.9468Z"
          fill="currentColor"/>
</svg>
