<svg width="106" height="38" viewBox="0 0 106 38" fill="none" xmlns="http://www.w3.org/2000/svg">
    <path d="M28.1009 1.00001C28.2029 0.987733 28.3063 0.999064 28.4033 1.03308C28.5003 1.06709 28.5883 1.12292 28.6609 1.1964C28.7335 1.26987 28.7887 1.35907 28.8224 1.45726C28.856 1.55544 28.8671 1.66003 28.8549 1.76321V5.23581C28.8549 5.77768 28.5986 6.04485 28.1009 6.04485H10.5934C9.83254 6.02612 9.07243 6.10558 8.33143 6.28139C7.7973 6.39544 7.3059 6.66002 6.91393 7.04459C6.53865 7.45671 6.27843 7.96248 6.15995 8.50997C5.99305 9.27656 5.91708 10.0605 5.93371 10.8453V15.9435C5.91842 16.7333 5.99437 17.5222 6.15995 18.2942C6.27673 18.8491 6.53692 19.3627 6.91393 19.7825C7.3059 20.167 7.7973 20.4316 8.33143 20.5457C9.07343 20.7147 9.83302 20.7915 10.5934 20.7746H22.1294C22.3718 20.7959 22.6158 20.764 22.8449 20.681C23.0739 20.5981 23.2825 20.4659 23.4565 20.2938C23.7871 19.8014 23.9365 19.2072 23.8786 18.6148V15.7451C23.8786 15.4398 23.7354 15.2872 23.4565 15.2872H13.2173C12.7045 15.2872 12.4633 15.02 12.4633 14.4782V11.8222C12.4633 11.2804 12.7196 11.0057 13.2173 11.0057H27.7919C27.9342 10.9853 28.0792 10.9987 28.2155 11.0448C28.3519 11.0909 28.4757 11.1685 28.5773 11.2714C28.679 11.3742 28.7556 11.4996 28.8012 11.6376C28.8467 11.7756 28.86 11.9224 28.8398 12.0664V20.3167C28.8398 22.2959 28.4679 23.6926 27.724 24.5066C27.3042 24.9306 26.7999 25.2588 26.2446 25.4694C25.6894 25.68 25.096 25.7681 24.5044 25.7277H10.3823C8.85961 25.757 7.33947 25.5902 5.85833 25.2316C4.73528 24.96 3.698 24.4062 2.84238 23.6213C2.02799 22.8252 1.43729 21.8244 1.13082 20.7212C0.740456 19.311 0.557556 17.8503 0.58797 16.3862V10.2806C0.556351 8.82388 0.739294 7.37055 1.13082 5.96845C1.43938 4.87059 2.02997 3.87522 2.84238 3.08362C3.69675 2.2938 4.73402 1.7347 5.85833 1.458C7.33697 1.08311 8.85823 0.90855 10.3823 0.938983L28.1009 1.00001Z"
          fill="currentColor"/>
    <path d="M40.0367 13.631H53.4275C53.8751 13.6796 54.3278 13.637 54.759 13.506C55.1901 13.3749 55.5911 13.1579 55.9383 12.8678C56.484 12.2054 56.7543 11.3544 56.6922 10.4942V8.96783C56.7547 8.10992 56.4842 7.26118 55.9383 6.60193C55.5911 6.31177 55.1901 6.09473 54.759 5.96366C54.3278 5.8326 53.8751 5.79016 53.4275 5.83873H40.4891C40.1875 5.83873 40.0367 5.97605 40.0367 6.25843V13.631ZM54.5057 0.992325C57.1899 0.992325 59.1125 1.61054 60.2737 2.83167C61.4348 4.05279 62.0229 5.88448 62.0229 8.28093V10.3034C62.1136 11.9951 61.6871 13.674 60.8014 15.1116C60.3241 15.7463 59.7245 16.2766 59.039 16.6701C58.3534 17.0636 57.5961 17.3123 56.8129 17.4012L62.792 24.9035C62.8533 24.9759 62.8952 25.0631 62.9136 25.1566C62.9321 25.2502 62.9266 25.3469 62.8975 25.4377C62.8523 25.6743 62.6638 25.7888 62.3396 25.7888H57.8157C57.5992 25.8038 57.3823 25.7672 57.1824 25.682C57.045 25.5892 56.9271 25.4699 56.8355 25.3308L51.3088 17.966H39.999V25.0103C40.0111 25.1135 39.9999 25.2181 39.9663 25.3163C39.9327 25.4145 39.8775 25.5037 39.8049 25.5772C39.7324 25.6506 39.6442 25.7065 39.5472 25.7405C39.4502 25.7745 39.3469 25.7858 39.245 25.7735H35.475C34.9397 25.7735 34.6683 25.5141 34.6683 25.0103V2.0761C34.6482 1.93204 34.6614 1.78526 34.707 1.64727C34.7525 1.50928 34.8292 1.38383 34.9308 1.28095C35.0324 1.17807 35.1563 1.10058 35.2926 1.05447C35.4289 1.00835 35.5739 0.994886 35.7163 1.01524L54.5057 0.992325Z"
          fill="currentColor"/>
    <path d="M74.7953 0.999918C75.2399 0.995861 75.6839 1.03163 76.1223 1.10678C76.4746 1.17096 76.8089 1.31159 77.1024 1.51894C77.4035 1.73625 77.6596 2.01103 77.8564 2.32788C78.1262 2.7609 78.3559 3.21825 78.5426 3.69404L85.811 20.6753C85.848 20.7748 85.9155 20.8597 86.0037 20.9174C86.092 20.9751 86.1963 21.0026 86.3011 20.9959H86.7233C86.8279 21.0014 86.9317 20.9735 87.0197 20.9159C87.1077 20.8584 87.1755 20.7741 87.2134 20.6753L94.4819 3.69404C94.6685 3.21825 94.8982 2.7609 95.168 2.32788C95.3648 2.01103 95.621 1.73625 95.922 1.51894C96.2107 1.31297 96.5398 1.17237 96.887 1.10678C97.3202 1.0304 97.7593 0.994617 98.199 0.999918H101.969C103.175 0.999918 103.997 1.28237 104.412 1.83187C104.911 2.69346 105.133 3.69126 105.045 4.68624V24.995C105.045 25.514 104.774 25.7582 104.238 25.7582H100.672C100.57 25.7705 100.467 25.7592 100.37 25.7251C100.273 25.6911 100.185 25.6353 100.112 25.5618C100.04 25.4884 99.9844 25.3992 99.9508 25.301C99.9172 25.2028 99.906 25.0982 99.9181 24.995V6.52549C99.9181 6.2889 99.8276 6.16681 99.6391 6.16681H99.3225C99.2269 6.15705 99.1308 6.1794 99.049 6.23044C98.9673 6.28148 98.9043 6.35836 98.87 6.44919L91.8052 22.3085C91.564 22.8674 91.2791 23.4059 90.9532 23.9189C90.6884 24.3189 90.3713 24.681 90.0107 24.995C89.6721 25.2756 89.2792 25.4811 88.8572 25.598C88.3637 25.7199 87.8571 25.7788 87.3492 25.7735H85.6677C85.1597 25.78 84.653 25.721 84.1597 25.598C83.7365 25.4842 83.3429 25.2784 83.0062 24.995C82.641 24.6834 82.3212 24.3211 82.0562 23.9189C81.7303 23.4059 81.4453 22.8674 81.2042 22.3085L74.1393 6.44919C74.105 6.35836 74.0421 6.28148 73.9603 6.23044C73.8785 6.1794 73.7825 6.15705 73.6869 6.16681H73.3702C73.1817 6.16681 73.0913 6.2889 73.0913 6.52549V24.995C73.1034 25.0982 73.0922 25.2028 73.0586 25.301C73.025 25.3992 72.9698 25.4884 72.8972 25.5618C72.8247 25.6353 72.7365 25.6911 72.6395 25.7251C72.5425 25.7592 72.4392 25.7705 72.3373 25.7582H68.6503C68.1149 25.7582 67.851 25.4987 67.851 24.995V4.68624C67.7618 3.69209 67.9806 2.69451 68.4769 1.83187C68.8991 1.28237 69.721 0.999918 70.9575 0.999918H74.7953Z"
          fill="currentColor"/>
    <path d="M7.29855 32.0165H6.4541V37.6566H7.29855V32.0165Z" fill="currentColor"/>
    <path d="M10.9175 37.6566V31.6349L14.9815 35.9394V32.0165H15.8259V38L11.7619 33.7032V37.6566H10.9175Z"
          fill="currentColor"/>
    <path d="M23.6147 32.3218V33.3293C23.2014 32.9471 22.6663 32.7277 22.1067 32.7111C21.8353 32.7051 21.5658 32.7579 21.3161 32.8658C21.0665 32.9737 20.8424 33.1343 20.659 33.3369C20.4632 33.5375 20.3095 33.7762 20.2071 34.0385C20.1048 34.3008 20.0559 34.5813 20.0634 34.8633C20.0537 35.1455 20.1015 35.4267 20.204 35.6893C20.3065 35.952 20.4614 36.1904 20.659 36.3897C20.8455 36.5872 21.0705 36.7435 21.3197 36.8486C21.5689 36.9537 21.8368 37.0053 22.1067 37.0003C22.3662 37.0077 22.624 36.9555 22.8607 36.8477C22.9872 36.7962 23.1084 36.7323 23.2226 36.6569C23.3595 36.5635 23.4905 36.4615 23.6147 36.3516V37.3819C23.1565 37.6509 22.6364 37.7931 22.1067 37.794C21.7272 37.8005 21.3503 37.7287 20.999 37.5831C20.6477 37.4374 20.3294 37.221 20.0634 36.9469C19.793 36.6805 19.5792 36.3609 19.4353 36.0079C19.2914 35.6548 19.2203 35.2757 19.2264 34.8938C19.2224 34.1879 19.4716 33.5046 19.9277 32.9705C20.2018 32.6352 20.5483 32.368 20.9404 32.1893C21.3325 32.0107 21.7599 31.9255 22.1896 31.9402C22.7025 31.9426 23.2053 32.085 23.6449 32.3524"
          fill="currentColor"/>
    <path d="M27.4978 34.8251C27.4878 35.2431 27.6019 35.6546 27.8253 36.0063C28.0488 36.358 28.3714 36.634 28.7513 36.7983C29.1312 36.9626 29.5509 37.0079 29.9565 36.9283C30.3621 36.8486 30.7348 36.6477 31.0264 36.3515C31.2243 36.152 31.3799 35.9137 31.4836 35.6512C31.5874 35.3888 31.637 35.1077 31.6296 34.8251C31.6384 34.5423 31.5894 34.2607 31.4856 33.9981C31.3818 33.7354 31.2254 33.4973 31.0264 33.2987C30.8388 33.0978 30.6117 32.939 30.3597 32.8326C30.1078 32.7261 29.8367 32.6742 29.5637 32.6804C29.2834 32.6697 29.0041 32.7192 28.7442 32.8258C28.4842 32.9323 28.2496 33.0935 28.0557 33.2987C27.8566 33.4968 27.7006 33.735 27.598 33.998C27.4954 34.2609 27.4484 34.5426 27.46 34.8251H27.4978ZM26.608 34.8251C26.603 34.4406 26.6776 34.0593 26.8269 33.7057C26.9762 33.3521 27.1971 33.034 27.4751 32.772C27.7452 32.4965 28.0673 32.2789 28.4222 32.1321C28.7771 31.9852 29.1577 31.9121 29.5411 31.9172C30.309 31.9213 31.0443 32.2324 31.5866 32.7828C32.129 33.3332 32.4344 34.0783 32.4363 34.8556C32.4424 35.2407 32.3691 35.6228 32.2212 35.9776C32.0732 36.3324 31.8537 36.6521 31.5768 36.9162C31.0445 37.446 30.3331 37.7511 29.5868 37.7695C28.8405 37.7879 28.1152 37.5184 27.5581 37.0155C27.2477 36.7457 27.0011 36.4088 26.8367 36.0297C26.6722 35.6505 26.5941 35.2389 26.608 34.8251Z"
          fill="currentColor"/>
    <path d="M36.6584 34.6114H36.9224C37.7216 34.6114 38.1212 34.2985 38.1212 33.6879C38.1212 33.0774 37.7291 32.8179 36.96 32.8179H36.6584V34.6114ZM37.7065 35.2601L39.4332 37.6642H38.4002L36.8093 35.3746H36.6584V37.6642H35.814V32.0165H36.8017C37.3661 31.97 37.9294 32.1179 38.4002 32.4363C38.5785 32.5863 38.7202 32.7758 38.8144 32.9902C38.9085 33.2047 38.9525 33.4382 38.943 33.6727C38.9538 34.0459 38.8336 34.4109 38.6038 34.703C38.3805 34.9917 38.062 35.1895 37.7065 35.2601Z"
          fill="currentColor"/>
    <path d="M43.3916 34.5808H43.7083C44.4623 34.5808 44.8694 34.2832 44.8694 33.6803C44.8694 33.0774 44.4698 32.8026 43.6706 32.8026H43.3916V34.5808ZM43.3916 35.344V37.6337H42.5547V31.986H43.5047C43.8592 31.9771 44.2135 32.0104 44.5603 32.0853C44.8024 32.1516 45.0232 32.2805 45.2012 32.4592C45.357 32.6155 45.4796 32.8024 45.5613 33.0085C45.643 33.2146 45.6821 33.4354 45.6762 33.6574C45.6882 33.8881 45.6482 34.1186 45.5594 34.3314C45.4706 34.5443 45.3352 34.734 45.1635 34.8861C44.7755 35.2058 44.2831 35.3665 43.7837 35.3364L43.3916 35.344Z"
          fill="currentColor"/>
    <path d="M49.401 34.8251C49.395 35.1026 49.4435 35.3785 49.5436 35.637C49.6437 35.8954 49.7935 36.1312 49.9842 36.3307C50.1749 36.5302 50.4029 36.6894 50.6548 36.799C50.9067 36.9087 51.1776 36.9667 51.4519 36.9696C51.732 36.9794 52.011 36.9295 52.2708 36.823C52.5306 36.7165 52.7654 36.5558 52.9598 36.3515C53.1578 36.152 53.3134 35.9137 53.4171 35.6512C53.5208 35.3888 53.5705 35.1077 53.5631 34.8251C53.5733 34.5428 53.5257 34.2614 53.4232 33.9987C53.3207 33.736 53.1654 33.4977 52.9674 33.2987C52.7753 33.1028 52.5469 32.9472 52.2952 32.8411C52.0435 32.735 51.7736 32.6804 51.5009 32.6804C51.2283 32.6804 50.9583 32.735 50.7066 32.8411C50.4549 32.9472 50.2265 33.1028 50.0345 33.2987C49.8343 33.4965 49.6772 33.7344 49.5733 33.9973C49.4695 34.2602 49.4211 34.5421 49.4312 34.8251H49.401ZM48.5868 34.8251C48.5822 34.4413 48.6561 34.0608 48.8041 33.7075C48.952 33.3541 49.1707 33.0356 49.4463 32.772C49.7164 32.4965 50.0385 32.2789 50.3934 32.1321C50.7483 31.9852 51.1288 31.9121 51.5122 31.9172C52.2802 31.9213 53.0155 32.2324 53.5578 32.7828C54.1002 33.3332 54.4056 34.0783 54.4075 34.8556C54.4136 35.2407 54.3403 35.6228 54.1923 35.9776C54.0443 36.3324 53.8249 36.6521 53.548 36.9162C53.2764 37.1939 52.9519 37.4129 52.5942 37.5598C52.2364 37.7067 51.8529 37.7786 51.467 37.771C50.7497 37.7697 50.0588 37.4976 49.5293 37.0078C49.2202 36.7374 48.9751 36.4002 48.812 36.0211C48.6489 35.642 48.5719 35.2307 48.5868 34.8174"
          fill="currentColor"/>
    <path d="M58.562 34.6114H58.8334C59.5874 34.6114 60.0248 34.2985 60.0248 33.688C60.0248 33.0774 59.6402 32.8179 58.8636 32.8179H58.562V34.6114ZM59.6101 35.2601L61.3367 37.6642H60.3112L58.7128 35.3746H58.562V37.6642H57.7251V32.0165H58.7128C59.2748 31.9693 59.836 32.1174 60.3037 32.4363C60.482 32.5863 60.6237 32.7758 60.7178 32.9903C60.812 33.2047 60.8561 33.4382 60.8466 33.6727C60.8573 34.0459 60.7371 34.4109 60.5072 34.703C60.284 34.9918 59.9655 35.1895 59.6101 35.2601Z"
          fill="currentColor"/>
    <path d="M67.3913 35.4891L66.5619 33.5734L65.6948 35.4891H67.3913ZM67.7382 36.2523H65.348L64.7298 37.626H63.8174L66.577 31.6272L69.2386 37.626H68.3187L67.7382 36.2523Z"
          fill="currentColor"/>
    <path d="M73.061 36.8628H73.438C73.7564 36.869 74.0739 36.8279 74.3805 36.7408C74.6332 36.6578 74.8649 36.5197 75.0591 36.3362C75.2563 36.1408 75.413 35.9075 75.52 35.65C75.6269 35.3925 75.6821 35.1159 75.6821 34.8366C75.6821 34.5572 75.6269 34.2807 75.52 34.0232C75.413 33.7656 75.2563 33.5323 75.0591 33.3368C74.6018 32.9594 74.019 32.7737 73.4305 32.8179H73.0535L73.061 36.8628ZM72.2241 37.626V31.9784H73.3928C73.841 31.9659 74.2885 32.0225 74.7199 32.1463C75.0734 32.2622 75.3977 32.4549 75.6699 32.711C75.9546 32.9756 76.1788 33.2996 76.3273 33.6608C76.4757 34.0219 76.5447 34.4114 76.5294 34.8022C76.5438 35.1987 76.4708 35.5935 76.3156 35.9579C76.1604 36.3223 75.9269 36.647 75.6322 36.9087C75.3586 37.1572 75.038 37.3468 74.6897 37.4658C74.2633 37.5883 73.8207 37.6424 73.3777 37.626H72.2241Z"
          fill="currentColor"/>
    <path d="M80.4425 34.8251C80.4361 35.1096 80.4885 35.3923 80.5963 35.6551C80.704 35.9179 80.8648 36.1551 81.0682 36.3515C81.2587 36.5446 81.485 36.6979 81.7341 36.8024C81.9831 36.907 82.2501 36.9608 82.5197 36.9608C82.7893 36.9608 83.0563 36.907 83.3054 36.8024C83.5544 36.6979 83.7806 36.5446 83.9711 36.3515C84.3653 35.9436 84.5861 35.3957 84.5861 34.8251C84.5861 34.2545 84.3653 33.7066 83.9711 33.2987C83.7835 33.0979 83.5565 32.9391 83.3045 32.8326C83.0526 32.7261 82.7813 32.6743 82.5084 32.6804C82.2281 32.6697 81.9488 32.7192 81.6889 32.8258C81.4289 32.9323 81.1943 33.0936 81.0004 33.2987C80.8003 33.4965 80.6432 33.7344 80.5393 33.9973C80.4354 34.2602 80.387 34.5421 80.3972 34.8251H80.4425ZM79.5527 34.8251C79.5481 34.4413 79.6222 34.0608 79.7701 33.7075C79.9181 33.3541 80.1367 33.0356 80.4123 32.772C80.6829 32.4972 81.0051 32.2801 81.3599 32.1333C81.7147 31.9865 82.0949 31.913 82.4782 31.9172C83.2462 31.9232 83.9812 32.2348 84.5243 32.7845C85.0674 33.3343 85.3751 34.0782 85.381 34.8556C85.3871 35.2407 85.3139 35.6228 85.1659 35.9776C85.0179 36.3324 84.7985 36.6521 84.5216 36.9163C83.988 37.4466 83.2753 37.7519 82.5277 37.7703C81.7802 37.7887 81.0536 37.5189 80.4952 37.0155C80.1874 36.744 79.9432 36.4066 79.7802 36.0277C79.6172 35.6489 79.5395 35.2381 79.5527 34.8251Z"
          fill="currentColor"/>
    <path d="M89.6111 34.6113H89.8749C90.6742 34.6113 91.0737 34.2985 91.0737 33.6879C91.0737 33.0773 90.6816 32.8178 89.905 32.8178H89.6111V34.6113ZM90.659 35.26L92.3781 37.6642H91.3527L89.7618 35.3745H89.6111V37.6642H88.7666V32.0164H89.7618C90.3239 31.968 90.8855 32.1162 91.3527 32.4362C91.531 32.5862 91.6727 32.7758 91.7669 32.9902C91.861 33.2046 91.905 33.4382 91.8956 33.6726C91.9063 34.0459 91.7861 34.4109 91.5563 34.7029C91.3349 34.9902 91.0193 35.1878 90.6666 35.26"
          fill="currentColor"/>
    <path d="M98.4325 35.4891L97.6107 33.5734L96.7436 35.4891H98.4325ZM98.7794 36.2523H96.3893L95.771 37.626H94.8662L97.6258 31.6272L100.287 37.626H99.3599L98.7794 36.2523Z"
          fill="currentColor"/>
</svg>
