<svg width="140" height="45" viewBox="0 0 140 45" fill="none" xmlns="http://www.w3.org/2000/svg">
<path d="M140 0V44H-275V0H140Z" fill="#F9C194"/>
<path d="M65.6825 44C64.7033 41.728 64.5393 39.3412 64.7998 36.9114C65.0651 34.4385 65.4558 31.98 65.8176 29.5215C66.3192 26.2163 66.9174 22.9208 67.3515 19.6108C67.6554 17.3054 67.8338 14.9808 67.9737 12.6657C68.0461 11.5226 67.9014 10.3746 67.8773 9.22666C67.829 7.0312 67.4962 4.85966 67.0524 2.70725C66.8643 1.78889 66.6279 0.889662 66.3723 0H69.9225C70.2891 1.32014 70.6074 2.65942 70.8486 4.02739C71.4371 7.4282 71.63 10.8434 71.4757 14.2585C71.2972 17.9941 70.6943 21.6963 69.9804 25.3841C69.2713 29.0719 68.5622 32.7596 67.9255 36.4522C67.6313 38.1694 67.4865 39.9104 67.8531 41.6419C68.0268 42.4981 68.3452 43.2873 68.7937 44.0048H65.6825V44ZM89.9164 1.66931C89.8537 1.10969 89.7765 0.554843 89.7041 0H92.3137C92.4681 1.13838 92.6031 2.28634 92.6996 3.43429C92.9311 6.1798 93.1578 8.91575 93.4328 11.6565C93.7222 14.5551 94.0068 17.4489 94.3879 20.3379C94.6628 22.3803 95.1548 24.3987 96.0424 26.3216C97.6535 29.8324 100.596 32.0278 104.802 32.7883C106.457 33.0849 108.174 33.1088 109.872 33.1949C110.74 33.2332 111.627 33.1375 112.51 33.0993C113.928 33.0275 115.375 33.0371 116.779 32.8601C121.916 32.1952 127.058 31.5352 132.166 30.7603C134.776 30.3633 137.386 29.9711 140 29.6076V32.6066C136.889 33.0945 133.787 33.635 130.681 34.1611C126.151 34.936 121.608 35.7061 117.006 36.0935C113.041 36.4379 109.056 36.5814 105.091 35.9835C101.45 35.4382 98.3239 34.075 95.9845 31.5065C94.3637 29.7271 93.4183 27.6369 92.7237 25.4558C92.0629 23.3943 91.6577 21.2897 91.4551 19.1612C91.156 16.0713 90.9245 12.9862 90.6544 9.89629C90.4132 7.16034 90.2203 4.41483 89.9164 1.6741V1.66931Z" fill="#BF7344"/>
</svg>
