<svg width="512" height="512" viewBox="0 0 512 512" fill="none" xmlns="http://www.w3.org/2000/svg">
<path d="M381.094 381.151V383.647H326.874C326.874 383.647 285.136 375.888 285.383 324.342L284.794 289.024H283.297C283.639 309.297 280.94 338.039 264.685 358.181C259.728 364.458 253.363 369.471 246.109 372.813C216.205 388.26 169.187 388.615 144.399 364.379C120.023 339.292 130.879 297.587 159.356 283.784C172.64 276.226 188.576 271.471 204.713 266.905C214.072 264.185 223.501 261.535 232.589 258.531C245.555 254.119 257.872 248.738 267.844 240.919C279.372 229.352 285.678 212.674 285.678 192.531C285.678 135.308 265.263 129.737 240.581 129.737C216.854 129.737 192.914 139.944 192.914 160.761C192.914 167.018 195.896 169.467 203.228 173.772C213.836 180.041 214.072 189.563 213.836 192.283C213.152 203.851 204.406 212.154 192.065 212.828C188.449 213.142 184.807 212.693 181.374 211.509C177.942 210.326 174.794 208.434 172.133 205.956C166.711 200.858 163.729 193.371 163.729 184.938C163.729 172.625 171.521 158.916 185.088 147.242C198.654 135.568 219.977 128.353 240.604 128.353C267.184 128.353 290.723 135.627 305.162 148.354C319.2 160.395 326.921 176.457 326.921 193.537C326.921 234.296 297.3 246.952 263.53 253.859C287.187 251.683 327.18 255.042 326.862 302.638V365.609C326.862 365.609 327.31 380.903 349.257 380.903C349.281 380.867 377.24 381.151 381.094 381.151ZM281.399 282.329C281.399 273.08 278.087 267.84 276.119 265.592C271.84 261.169 265.263 257.561 255.503 256.745C254.148 256.615 252.722 256.544 251.225 256.544C250.638 256.534 250.052 256.557 249.468 256.615H248.855H248.584C241.123 257.301 227.427 260.566 206.34 272.547C200.215 275.887 194.67 280.201 189.92 285.321C188.79 286.51 187.728 287.762 186.738 289.071C186.254 289.745 185.783 290.431 185.382 291.105C183.972 293.062 182.73 295.136 181.669 297.303C181.656 297.335 181.649 297.369 181.649 297.404C181.649 297.438 181.656 297.472 181.669 297.504C172.511 315.944 173.147 341.268 183.591 359.116C191.582 373.002 209.958 377.355 226.778 375.368C227.792 375.237 228.747 375.095 229.76 374.894C237.764 373.605 245.838 370.672 251.46 366.792C255.649 363.984 259.379 360.54 262.517 356.585C279.938 334.892 281.859 301.656 281.399 282.329ZM269.271 229.6L269.872 229.801C269.428 229.658 268.975 229.543 268.516 229.458C268.773 229.465 269.028 229.513 269.271 229.6Z" fill="#B76540"/>
</svg>
